<svg width="363" height="440" viewBox="0 0 363 440" fill="none" xmlns="http://www.w3.org/2000/svg">
<path d="M327.435 211.084L292.227 260.263L290.154 283.563L269.443 275.283L265.621 274.519L233.203 268.035L222.713 271.001L202.139 276.831L197.36 271.01L190.231 262.335L173.138 266.479L168.478 259.231L113.599 222.992L112.052 230.24L101.516 231.741L101.175 231.787L101.028 231.409L91.3389 207.455L61.3069 192.444L48.8829 116.327L37.4919 100.8L47.8429 84.232L47.3269 51.096L95.4839 36.075L106.867 23.652L134.283 17.5L157.611 12.259L165.992 34.15L166.931 36.6L182.072 34.611L186.603 34.012L294.815 37.116L318.63 107.016L295.846 134.451L310.351 139.111V160.855L327.435 211.084Z" fill="#DFF0FC"/>
<path d="M302.099 211.084L266.891 260.263L265.621 274.519L233.203 268.035L222.713 271.001L207.868 268.035L197.36 271.01L190.231 262.335L173.138 266.479L168.478 259.231L112.944 222.281L111.368 230.164L101.516 231.741L101.028 231.409L91.3389 207.455L61.3069 192.444L48.8829 116.327L37.4919 100.8L47.8429 84.232L47.3269 51.096L95.4839 36.075L106.867 23.652L134.283 17.5L141.596 36.6L161.267 34.012L166.292 36.334L182.072 34.611L269.479 37.116L293.295 107.016L270.52 134.451L285.016 139.111V160.855L302.099 211.084Z" fill="white"/>
<path d="M156.973 12L106.233 23.39L94.842 35.816L46.691 50.831L47.209 83.967L36.854 100.536L48.244 116.068L60.67 192.178L90.7 207.193L100.537 231.527L111.41 229.974L112.964 222.725L167.845 258.968L172.505 266.217L189.591 262.075L201.499 276.572L232.565 267.77L268.807 275.018L289.517 283.302L291.588 260.004L326.796 210.817L309.71 160.595V138.849L295.213 134.19L317.994 106.749L294.177 36.852L185.967 33.745L166.292 36.334L156.973 12Z" fill="white" stroke="#CBE5F9" stroke-width="2.316" stroke-linecap="round" stroke-linejoin="round"/>
<path d="M178.576 25.861L178.571 25.85H178.531C176.822 25.344 175.016 25.062 173.143 25.062C171.27 25.062 169.464 25.344 167.754 25.85H167.714L167.709 25.861C159.882 28.198 154.172 35.445 154.173 44.033C154.173 47.471 155.097 50.686 156.703 53.46C166.182 69.829 173.147 77.007 173.147 77.007C173.147 77.007 180.11 69.829 189.586 53.462C191.192 50.688 192.116 47.473 192.115 44.035C192.115 35.447 186.404 28.2 178.576 25.862V25.861ZM177.428 50.767C177.428 50.767 177.426 50.768 177.424 50.769C177.135 51.111 176.724 51.382 176.167 51.521C172.405 52.463 168.177 51.478 166.154 47.882C165.965 47.547 165.863 47.216 165.827 46.898C165.428 46.328 165.149 45.634 165.05 44.85C164.793 42.82 165.756 40.226 167.248 38.862C167.863 38.299 168.545 37.903 169.267 37.614C170.795 36.206 172.796 35.519 174.668 36.702C174.9 36.726 175.136 36.76 175.381 36.806C175.945 36.911 176.431 37.175 176.83 37.538C177.324 37.731 177.81 38.005 178.251 38.421C178.436 38.595 178.608 38.785 178.773 38.982C182.399 41.997 181.368 48.423 177.426 50.767H177.428Z" fill="#DFF0FC"/>
<path d="M165.398 46.157C164.503 42.428 166.5 39.177 169.519 37.369C169.748 37.128 170.018 36.902 170.341 36.704C173.964 34.483 178.269 37.17 180.018 40.545C180.25 40.993 180.426 41.441 180.571 41.889C183.107 38.371 184.863 34.25 185.576 29.78C183.561 28.023 181.205 26.647 178.576 25.861L178.571 25.85H178.531C176.822 25.344 175.016 25.062 173.143 25.062C171.27 25.062 169.464 25.344 167.754 25.85H167.714L167.709 25.861C159.881 28.198 154.172 35.445 154.173 44.033C154.173 47.471 155.097 50.686 156.703 53.46C156.739 53.523 156.774 53.579 156.81 53.641C157.065 53.655 157.317 53.68 157.576 53.68C161.846 53.68 165.888 52.728 169.516 51.038C167.544 50.182 165.967 48.52 165.399 46.157H165.398Z" fill="#BDDDF5"/>
<path d="M192.114 44.035C192.114 35.447 186.403 28.2 178.575 25.861L178.57 25.85H178.53C176.821 25.344 175.015 25.062 173.142 25.062C171.269 25.062 169.463 25.344 167.753 25.85H167.713L167.708 25.861C159.88 28.198 154.172 35.445 154.172 44.033C154.172 47.471 155.096 50.686 156.702 53.46C166.181 69.829 173.146 77.007 173.146 77.007C173.146 77.007 180.109 69.829 189.585 53.462C191.191 50.688 192.114 47.473 192.114 44.035V44.035Z" stroke="#1B3445" stroke-width="1.272" stroke-linecap="round" stroke-linejoin="round"/>
<path d="M181.078 44.215C181.078 48.598 177.526 52.151 173.143 52.151C168.76 52.151 165.207 48.597 165.206 44.214C165.206 39.831 168.758 36.278 173.141 36.278C177.524 36.278 181.077 39.832 181.078 44.215Z" stroke="#1B3445" stroke-width="1.272" stroke-linecap="round" stroke-linejoin="round"/>
<path d="M280.315 86.905L280.31 86.894H280.27C278.561 86.388 276.755 86.106 274.882 86.106C273.009 86.106 271.203 86.388 269.493 86.894H269.453L269.448 86.905C261.621 89.242 255.911 96.489 255.912 105.077C255.912 108.515 256.836 111.73 258.442 114.504C267.921 130.873 274.886 138.051 274.886 138.051C274.886 138.051 281.849 130.873 291.325 114.506C292.931 111.732 293.855 108.517 293.854 105.079C293.854 96.491 288.143 89.244 280.315 86.906V86.905ZM279.167 111.811C279.167 111.811 279.165 111.812 279.163 111.813C278.874 112.155 278.463 112.426 277.906 112.565C274.144 113.507 269.916 112.522 267.893 108.926C267.704 108.591 267.602 108.26 267.566 107.942C267.167 107.372 266.888 106.678 266.789 105.894C266.532 103.864 267.495 101.27 268.987 99.906C269.602 99.343 270.284 98.947 271.006 98.658C272.534 97.25 274.535 96.563 276.407 97.746C276.639 97.77 276.875 97.804 277.12 97.85C277.684 97.955 278.17 98.219 278.569 98.582C279.063 98.775 279.549 99.049 279.99 99.465C280.175 99.639 280.347 99.829 280.512 100.026C284.138 103.041 283.107 109.467 279.165 111.811H279.167Z" fill="#DFF0FC"/>
<path d="M267.137 107.2C266.242 103.471 268.239 100.22 271.258 98.412C271.487 98.171 271.757 97.945 272.08 97.747C275.703 95.526 280.008 98.213 281.757 101.588C281.989 102.036 282.165 102.484 282.31 102.932C284.846 99.414 286.602 95.293 287.315 90.823C285.3 89.066 282.944 87.69 280.315 86.904L280.31 86.893H280.27C278.561 86.387 276.755 86.105 274.882 86.105C273.009 86.105 271.203 86.387 269.493 86.893H269.453L269.448 86.904C261.62 89.241 255.911 96.488 255.912 105.076C255.912 108.514 256.836 111.729 258.442 114.503C258.478 114.566 258.513 114.622 258.549 114.684C258.804 114.698 259.056 114.723 259.315 114.723C263.585 114.723 267.627 113.771 271.255 112.081C269.283 111.225 267.706 109.563 267.138 107.2H267.137Z" fill="#BDDDF5"/>
<path d="M293.854 105.078C293.854 96.49 288.143 89.243 280.315 86.904L280.31 86.893H280.27C278.561 86.387 276.755 86.105 274.882 86.105C273.009 86.105 271.203 86.387 269.493 86.893H269.453L269.448 86.904C261.62 89.241 255.912 96.488 255.912 105.076C255.912 108.514 256.836 111.729 258.442 114.503C267.921 130.872 274.886 138.05 274.886 138.05C274.886 138.05 281.849 130.872 291.325 114.505C292.931 111.731 293.854 108.516 293.854 105.078V105.078Z" stroke="#1B3445" stroke-width="1.272" stroke-linecap="round" stroke-linejoin="round"/>
<path d="M282.817 105.258C282.817 109.641 279.265 113.194 274.882 113.194C270.499 113.194 266.946 109.64 266.945 105.257C266.945 100.874 270.497 97.321 274.88 97.321C279.263 97.321 282.816 100.875 282.817 105.258V105.258Z" stroke="#1B3445" stroke-width="1.272" stroke-linecap="round" stroke-linejoin="round"/>
<path d="M95.485 87.163L95.48 87.152H95.44C93.731 86.646 91.925 86.364 90.052 86.364C88.179 86.364 86.373 86.646 84.663 87.152H84.623L84.618 87.163C76.791 89.5 71.081 96.747 71.082 105.335C71.082 108.773 72.006 111.988 73.612 114.762C83.091 131.131 90.056 138.309 90.056 138.309C90.056 138.309 97.019 131.131 106.495 114.764C108.101 111.99 109.025 108.775 109.024 105.337C109.024 96.749 103.313 89.502 95.485 87.164V87.163ZM94.337 112.069C94.337 112.069 94.335 112.07 94.333 112.071C94.044 112.413 93.633 112.684 93.076 112.823C89.314 113.765 85.086 112.78 83.063 109.184C82.874 108.849 82.772 108.518 82.736 108.2C82.337 107.63 82.058 106.936 81.959 106.152C81.702 104.122 82.665 101.528 84.157 100.164C84.772 99.601 85.454 99.205 86.176 98.916C87.704 97.508 89.705 96.821 91.577 98.004C91.809 98.028 92.045 98.062 92.29 98.108C92.854 98.213 93.34 98.477 93.739 98.84C94.233 99.033 94.719 99.307 95.16 99.723C95.345 99.897 95.517 100.087 95.682 100.284C99.308 103.299 98.277 109.725 94.335 112.069H94.337Z" fill="#DFF0FC"/>
<path d="M82.307 107.459C81.412 103.73 83.409 100.479 86.428 98.671C86.657 98.43 86.927 98.204 87.25 98.006C90.873 95.785 95.178 98.472 96.927 101.847C97.159 102.295 97.335 102.743 97.48 103.191C100.016 99.673 101.772 95.552 102.485 91.082C100.47 89.325 98.114 87.949 95.485 87.163L95.48 87.152H95.44C93.731 86.646 91.925 86.364 90.052 86.364C88.179 86.364 86.373 86.646 84.663 87.152H84.623L84.618 87.163C76.79 89.5 71.081 96.747 71.082 105.335C71.082 108.773 72.006 111.988 73.612 114.762C73.648 114.825 73.683 114.881 73.719 114.943C73.974 114.957 74.226 114.982 74.485 114.982C78.755 114.982 82.797 114.03 86.425 112.34C84.453 111.484 82.876 109.822 82.308 107.459H82.307Z" fill="#BDDDF5"/>
<path d="M109.024 105.337C109.024 96.749 103.313 89.502 95.485 87.163L95.48 87.152H95.44C93.731 86.646 91.925 86.364 90.052 86.364C88.179 86.364 86.373 86.646 84.663 87.152H84.623L84.618 87.163C76.79 89.5 71.082 96.747 71.082 105.335C71.082 108.773 72.006 111.988 73.612 114.762C83.091 131.131 90.056 138.309 90.056 138.309C90.056 138.309 97.019 131.131 106.495 114.764C108.101 111.99 109.024 108.775 109.024 105.337V105.337Z" stroke="#1B3445" stroke-width="1.272" stroke-linecap="round" stroke-linejoin="round"/>
<path d="M97.987 105.517C97.987 109.9 94.435 113.453 90.052 113.453C85.669 113.453 82.116 109.899 82.115 105.516C82.115 101.133 85.667 97.58 90.05 97.58C94.433 97.58 97.986 101.134 97.987 105.517Z" stroke="#1B3445" stroke-width="1.272" stroke-linecap="round" stroke-linejoin="round"/>
<path d="M91.297 65.193C91.297 65.193 120.475 40.452 146.986 52.021" stroke="#1B3445" stroke-width="1.272" stroke-linecap="round" stroke-linejoin="round"/>
<path d="M245.503 98.958C227.109 99.656 203.692 94.38 194.555 65.957" stroke="#1B3445" stroke-width="1.272" stroke-linecap="round" stroke-linejoin="round"/>
<path d="M256.309 152.865L242.746 214.711L294.697 226.105L308.261 164.259L256.309 152.865Z" fill="white"/>
<path d="M256.309 152.865L242.746 214.711L294.697 226.105L308.261 164.259L256.309 152.865Z" stroke="#CBE5F9" stroke-width="2.316" stroke-linecap="round" stroke-linejoin="round"/>
<path d="M308.262 164.262L294.698 226.109L326.824 233.154L340.388 171.308L308.262 164.262Z" fill="white"/>
<path d="M308.262 164.262L294.698 226.109L326.824 233.154L340.388 171.308L308.262 164.262Z" stroke="#CBE5F9" stroke-width="2.316" stroke-linecap="round" stroke-linejoin="round"/>
<path d="M268.424 198.814L265.663 211.286L288.944 216.44L291.705 203.968L268.424 198.814Z" fill="white"/>
<path d="M268.424 198.814L265.663 211.286L288.944 216.44L291.705 203.968L268.424 198.814Z" stroke="#CBE5F9" stroke-width="2.316" stroke-linecap="round" stroke-linejoin="round"/>
<path d="M71.3615 164.064L22.2942 175.159L35.5021 233.572L84.5695 222.477L71.3615 164.064Z" fill="white"/>
<path d="M71.3615 164.064L22.2942 175.159L35.5021 233.572L84.5695 222.477L71.3615 164.064Z" stroke="#CBE5F9" stroke-width="2.316" stroke-linecap="round" stroke-linejoin="round"/>
<path d="M101.697 157.203L71.3604 164.063L84.5693 222.476L114.906 215.616L101.697 157.203Z" fill="white"/>
<path d="M101.697 157.203L71.3604 164.063L84.5693 222.476L114.906 215.616L101.697 157.203Z" stroke="#CBE5F9" stroke-width="2.316" stroke-linecap="round" stroke-linejoin="round"/>
<path d="M73.312 207.695L60.579 210.574" stroke="#CBE5F9" stroke-width="2.316" stroke-linecap="round" stroke-linejoin="round"/>
<path d="M74.4009 212.503L57.1489 216.405" stroke="#CBE5F9" stroke-width="2.316" stroke-linecap="round" stroke-linejoin="round"/>
<path fill-rule="evenodd" clip-rule="evenodd" d="M154.746 196.634L207.417 187.135L233.456 209.002C233.456 209.002 240.692 212.087 247.766 215.788C254.605 219.369 261.21 223.444 265.746 230.645C274.26 244.166 278.421 264.123 283.964 281.739C288.469 296.053 290.779 307.997 294.34 318.772C298.241 330.58 299.191 343.767 298.424 350.729C296.617 367.139 285.361 366.661 285.361 366.661L209.758 354.934C209.758 354.934 109.608 392.268 76.1571 367.177C60.0131 355.067 68.3931 322.411 78.6611 289.236C85.6561 266.642 90.3311 243.187 101.216 228.254C105.45 222.445 128.218 212.031 142.656 204.604C149.534 201.065 154.745 196.632 154.745 196.632L154.746 196.634Z" fill="#1B92D1"/>
<path fill-rule="evenodd" clip-rule="evenodd" d="M213.828 103.717C213.828 103.717 221.888 109.765 225.625 121.771C229.53 134.322 229.239 153.21 234.948 170.383C240.967 188.481 251.949 202.532 251.515 221.131C251.363 227.683 237.694 245.599 236.619 251.27C235.647 256.392 238.045 268.604 236.52 272.708C233.3 281.363 220.819 288.495 214.335 287.569C211.261 287.131 212.794 285.867 212.482 281.193C212.147 276.162 208.837 270.12 208.35 267.958C205.718 256.231 219.559 248.645 215.735 237.914C214.007 233.068 210.163 221.634 208.835 217.55C206.188 209.409 205.214 201.732 205.214 201.732L155.963 201.307L152.84 218.107C152.84 218.107 147.462 230.696 145.549 238.251C144.498 242.401 154.279 261.657 153.139 266.109C152.258 269.554 149.401 275.692 148.775 279.487C148.094 283.613 149.597 285.305 147.369 286.462C141.407 289.561 130.419 281.812 127.104 277.36C123.024 271.877 126.41 260.592 123.719 251.535C121.947 245.573 111.192 230.102 109.779 223.201C106.491 207.154 119.342 193.51 126.392 169.461C130.815 154.373 131.554 133.442 136.647 118.108C139.664 109.023 145.112 103.031 151.297 98.3096C162.446 89.8006 178.604 86.6646 190.718 89.7146C204.651 93.2236 213.828 103.716 213.828 103.716V103.717Z" fill="white"/>
<path fill-rule="evenodd" clip-rule="evenodd" d="M141.269 151.015C145.899 147.312 156.492 147.722 163.811 141.045C171.664 133.88 176.347 119.66 184.102 117.196C187.099 116.244 190.037 119.536 192.669 119.799C201.002 120.636 200.887 134.572 205.416 142.951C207.543 146.889 214.472 148.031 216.865 148.886C222.465 150.883 220.784 159.749 218.209 164.412C215.404 169.488 211.412 170.299 211.412 170.299L205.611 193.901C205.611 193.901 207.015 205.476 198.883 214.911C195.394 218.957 192.196 223.564 188.022 225.948C185.023 227.661 184.498 232.822 183.521 236.487C181.853 242.748 181.163 247.938 181.163 247.938C181.163 247.938 180.909 231.397 177.637 227.501C172.226 221.054 165.449 218.015 161.597 211.739C156.614 203.618 156.233 194.236 156.233 194.236L148.975 171.458C148.975 171.458 145.914 171.304 142.615 167.149C139.459 163.169 135.937 155.281 141.27 151.016L141.269 151.015Z" fill="white"/>
<path fill-rule="evenodd" clip-rule="evenodd" d="M65.2421 319.799L65.3961 319.655C65.9681 319.121 66.6821 318.764 67.4521 318.625L70.6221 318.055C70.8621 318.012 71.1051 317.99 71.3481 317.991L292.16 318.293C292.778 318.293 293.389 318.436 293.944 318.708C295.229 319.337 296.09 320.595 296.21 322.021L296.308 323.179C296.345 323.624 296.31 324.072 296.202 324.505L271.449 423.853C271.161 425.007 270.383 425.978 269.319 426.51L268.179 427.08C267.617 427.361 266.998 427.508 266.37 427.509L97.8761 427.927C97.1021 427.929 96.3431 427.71 95.6891 427.296L94.5821 426.595C93.7391 426.061 93.1211 425.236 92.8461 424.277L64.1051 323.897C63.6841 322.427 64.1231 320.845 65.2411 319.801L65.2421 319.799Z" fill="#D7E8F4"/>
<path fill-rule="evenodd" clip-rule="evenodd" d="M65.3461 319.702C65.9511 319.138 66.7051 318.76 67.5191 318.613L70.6011 318.058C70.8541 318.012 71.1111 317.99 71.3691 317.99L292.161 318.292C292.779 318.292 293.39 318.435 293.945 318.707C295.243 319.343 296.108 320.618 296.22 322.06C296.252 322.472 296.284 322.87 296.31 323.186C296.346 323.629 296.31 324.073 296.202 324.504L271.653 423.033C271.236 424.707 270.107 426.115 268.564 426.886C267.749 427.293 266.851 427.506 265.94 427.509L98.4441 427.924C97.2991 427.927 96.1771 427.603 95.2091 426.99C93.9621 426.2 93.0481 424.98 92.6421 423.561L64.1441 324.032C63.6991 322.478 64.1631 320.805 65.3451 319.702H65.3461Z" stroke="#1B3445" stroke-width="1.272" stroke-linecap="round" stroke-linejoin="round"/>
<path fill-rule="evenodd" clip-rule="evenodd" d="M175.425 376.178C175.425 371.499 179.368 367.704 184.232 367.704C189.096 367.704 193.039 371.499 193.039 376.178C193.039 380.857 189.096 384.652 184.232 384.652C179.368 384.652 175.425 380.859 175.425 376.178Z" fill="white"/>
<path fill-rule="evenodd" clip-rule="evenodd" d="M175.425 376.178C175.425 371.499 179.368 367.704 184.232 367.704C189.096 367.704 193.039 371.499 193.039 376.178C193.039 380.857 189.096 384.652 184.232 384.652C179.368 384.652 175.425 380.859 175.425 376.178Z" stroke="#1B3445" stroke-width="1.272" stroke-linecap="round" stroke-linejoin="round"/>
<path d="M164.9 166.372C163.255 166.372 161.544 165.488 160.643 164.529C160.124 163.977 160.15 163.108 160.703 162.589C161.254 162.07 162.124 162.094 162.644 162.649C163.091 163.124 164.319 163.747 165.148 163.608C165.382 163.569 165.625 163.473 165.816 163.047C166.127 162.355 166.939 162.045 167.631 162.355C168.323 162.665 168.633 163.478 168.323 164.17C167.796 165.347 166.83 166.109 165.605 166.315C165.374 166.354 165.139 166.372 164.902 166.372H164.9Z" fill="#1B3445"/>
<path d="M193.871 165.534C193.743 165.534 193.617 165.529 193.491 165.517C192.252 165.401 191.233 164.712 190.621 163.577C190.261 162.909 190.51 162.077 191.178 161.717C191.845 161.357 192.679 161.606 193.038 162.274C193.26 162.684 193.509 162.761 193.746 162.783C194.586 162.874 195.762 162.149 196.171 161.643C196.647 161.055 197.51 160.963 198.103 161.44C198.692 161.917 198.783 162.782 198.306 163.372C197.423 164.462 195.617 165.534 193.872 165.534H193.871Z" fill="#1B3445"/>
<path d="M144.406 155.764C144.406 155.764 143.254 158.069 144.406 158.728" stroke="#1B3445" stroke-width="1.272" stroke-linecap="round" stroke-linejoin="round"/>
<path d="M146.381 170.128C130.205 155.804 143.417 149.836 143.417 149.836" stroke="#1B3445" stroke-width="1.272" stroke-linecap="round" stroke-linejoin="round"/>
<path d="M178.967 162.305C178.967 162.305 181.245 166.861 179.211 171.824C177.177 176.787 176.282 177.275 180.106 179.878" stroke="#1B3445" stroke-width="1.272" stroke-linecap="round" stroke-linejoin="round"/>
<path d="M171.924 187.921C172.246 188.354 182.06 197.234 190.315 185.182" stroke="#1B3445" stroke-width="1.272" stroke-linecap="round" stroke-linejoin="round"/>
<path d="M187.049 150.915C187.049 150.915 195.944 147.01 200.174 149.939" stroke="#1B3445" stroke-width="1.272" stroke-linecap="round" stroke-linejoin="round"/>
<path d="M157.109 151.892C157.109 151.892 164.702 148.312 170.018 151.567" stroke="#1B3445" stroke-width="1.272" stroke-linecap="round" stroke-linejoin="round"/>
<path d="M213.191 159.485C213.191 159.485 213.95 157.099 214.927 156.882" stroke="#1B3445" stroke-width="1.272" stroke-linecap="round" stroke-linejoin="round"/>
<path d="M214.601 148.095C214.601 148.095 221.76 148.963 221.435 153.844C221.11 158.725 219.049 167.186 212.432 169.573" stroke="#1B3445" stroke-width="1.272" stroke-linecap="round" stroke-linejoin="round"/>
<path d="M145.069 155.797C145.069 155.797 142.14 157.316 144.418 159.594" stroke="#1B3445" stroke-width="1.272" stroke-linecap="round" stroke-linejoin="round"/>
<path d="M147.889 164.258C147.889 164.258 150.709 186.062 156.675 192.895C162.641 199.729 171.645 206.997 178.912 207.431C186.18 207.865 198.329 202.007 202.343 194.631C206.357 187.255 211.346 174.78 211.563 165.777" stroke="#1B3445" stroke-width="1.272" stroke-linecap="round" stroke-linejoin="round"/>
<path d="M197.028 121.41C197.028 121.41 200.716 126.183 202.343 134.535C203.97 142.887 210.262 147.118 210.262 147.118" stroke="#1B3445" stroke-width="1.272" stroke-linecap="round" stroke-linejoin="round"/>
<path d="M189.218 161.329C189.218 161.329 195.727 164.041 199.523 160.57" stroke="#1B3445" stroke-width="1.272" stroke-linecap="round" stroke-linejoin="round"/>
<path d="M159.062 162.305C159.062 162.305 164.269 164.475 168.825 162.413" stroke="#1B3445" stroke-width="1.272" stroke-linecap="round" stroke-linejoin="round"/>
<path d="M149.408 147.01C149.408 147.01 160.906 144.84 167.523 137.681C174.14 130.522 177.286 119.24 182.384 117.722C187.482 116.203 189.977 117.939 189.977 117.939" stroke="#1B3445" stroke-width="1.272" stroke-linecap="round" stroke-linejoin="round"/>
<path d="M196.269 112.841C196.269 112.841 198.981 104.163 198.981 101.777" stroke="#1B3445" stroke-width="1.272" stroke-linecap="round" stroke-linejoin="round"/>
<path d="M205.598 98.8467C205.598 98.8467 212.974 99.7147 219.808 111.43C226.642 123.145 229.462 144.949 231.306 155.254C233.15 165.559 239.225 184.217 244.431 194.305C249.637 204.393 252.567 211.661 251.482 219.037C250.397 226.413 248.119 229.451 241.502 240.624C234.885 251.797 238.465 267.092 237.38 270.563C236.295 274.034 233.366 279.241 229.787 280.977" stroke="#1B3445" stroke-width="1.272" stroke-linecap="round" stroke-linejoin="round"/>
<path d="M222.628 273.384C222.628 273.384 222.845 283.798 217.638 287.269" stroke="#1B3445" stroke-width="1.272" stroke-linecap="round" stroke-linejoin="round"/>
<path d="M211.022 290.306C211.022 290.306 213.734 282.93 210.914 275.662C208.094 268.394 206.683 262.103 209.829 255.92C212.975 249.737 218.182 243.445 215.036 233.9C211.89 224.354 206.141 213.181 205.599 204.503C205.057 195.825 206.684 185.411 206.684 185.411" stroke="#1B3445" stroke-width="1.272" stroke-linecap="round" stroke-linejoin="round"/>
<path d="M180.974 252.123C180.974 252.123 183.577 239.106 183.686 234.767C183.782 230.935 185.739 228.203 188.436 225.898C188.793 225.593 189.163 225.295 189.543 225.004C192.797 222.509 202.343 212.746 204.513 201.248" stroke="#1B3445" stroke-width="1.272" stroke-linecap="round" stroke-linejoin="round"/>
<path d="M188.893 226.306C188.893 226.306 190.737 225.33 195.293 230.211C199.849 235.092 199.632 238.021 201.91 237.262C204.188 236.503 209.286 218.387 209.286 218.387" stroke="#1B3445" stroke-width="1.272" stroke-linecap="round" stroke-linejoin="round"/>
<path d="M155.943 192.326C155.943 192.326 156.024 201.574 159.496 207.54C162.968 213.506 167.957 219.689 174.574 224.354C181.191 229.018 179.781 237.913 179.889 242.578C179.997 247.242 182.167 283.907 183.143 289.873C184.119 295.839 183.577 316.341 183.36 317.86" stroke="#1B3445" stroke-width="1.272" stroke-linecap="round" stroke-linejoin="round"/>
<path d="M255.388 257.655C255.388 257.655 250.615 269.37 250.507 281.411C250.399 293.452 251.266 307.879 250.29 312.218C249.314 316.557 249.314 317.642 249.314 317.642" stroke="#1B3445" stroke-width="1.272" stroke-linecap="round" stroke-linejoin="round"/>
<path d="M154.642 190.617C154.642 190.617 157.164 201.519 154.723 210.793C152.282 220.067 145.488 232.19 145.549 238.251C145.611 244.312 148.54 249.844 151.468 257.166C154.397 264.488 148.846 272.358 148.774 279.487C148.702 286.617 150.492 290.034 150.492 290.034" stroke="#1B3445" stroke-width="1.272" stroke-linecap="round" stroke-linejoin="round"/>
<path d="M153.584 218.604C153.584 218.604 157.977 232.597 159.93 235.363C161.883 238.129 162.208 237.316 165.788 232.922C169.368 228.529 172.622 224.136 175.876 225.763" stroke="#1B3445" stroke-width="1.272" stroke-linecap="round" stroke-linejoin="round"/>
<path d="M156.838 197.126C156.838 197.126 156.675 207.702 165.95 216.163C175.225 224.624 177.665 222.997 179.292 229.668C180.919 236.339 180.268 250.333 180.268 250.333" stroke="#1B3445" stroke-width="1.272" stroke-linecap="round" stroke-linejoin="round"/>
<path d="M138.777 273.113C138.777 273.113 136.814 282.641 143.984 287.106" stroke="#1B3445" stroke-width="1.272" stroke-linecap="round" stroke-linejoin="round"/>
<path d="M131.455 280.76C131.455 280.76 123.157 275.879 123.97 265.953C124.784 256.028 122.343 244.149 115.346 233.41C108.349 222.671 108.512 215.674 111.441 207.701C114.37 199.728 126.736 176.297 128.038 166.697C129.34 157.097 132.269 125.368 139.428 112.514C146.587 99.6596 155.048 92.0117 171.971 89.5717C188.893 87.1307 197.354 93.6396 197.354 93.6396" stroke="#1B3445" stroke-width="1.272" stroke-linecap="round" stroke-linejoin="round"/>
<path d="M110.302 258.143C110.302 258.143 115.834 268.882 115.346 284.828C114.858 300.774 116.322 317.859 116.322 317.859" stroke="#1B3445" stroke-width="1.272" stroke-linecap="round" stroke-linejoin="round"/>
<path d="M109.652 221.533C109.652 221.533 100.54 223.974 93.7061 243.825C86.8721 263.676 71.4141 317.371 71.4141 317.371" stroke="#1B3445" stroke-width="1.272" stroke-linecap="round" stroke-linejoin="round"/>
<path d="M67.834 338.361C67.834 338.361 63.804 358.774 76.07 367.279" stroke="#1B3445" stroke-width="1.272" stroke-linecap="round" stroke-linejoin="round"/>
<path d="M5 359.506H68.16" stroke="#1B3445" stroke-width="1.272" stroke-linecap="round" stroke-linejoin="round"/>
<path d="M297.042 358.32H356.565" stroke="#1B3445" stroke-width="1.272" stroke-linecap="round" stroke-linejoin="round"/>
<path d="M286.174 368.03C286.195 366.998 300.08 361.141 298.995 345.52C297.91 329.9 296.957 325.175 296.957 325.175" stroke="#1B3445" stroke-width="1.272" stroke-linecap="round" stroke-linejoin="round"/>
<path d="M251.917 217.953C251.917 217.953 263.198 220.99 272.31 244.421C281.422 267.852 295.524 320.354 295.524 320.354" stroke="#1B3445" stroke-width="1.272" stroke-linecap="round" stroke-linejoin="round"/>
</svg>
