<svg width="140" height="140" viewBox="0 0 140 140" fill="none" xmlns="http://www.w3.org/2000/svg">
<path d="M103.284 97.4452L103.38 108.341L103.426 113.538L47.9939 114.026L47.2919 34.3432L59.4179 34.2362L75.0079 34.0992L90.5979 33.9622L102.724 33.8552L102.907 54.6422L102.965 61.2772" fill="white"/>
<path d="M106.127 26.8952L90.5369 27.0322L90.5979 33.9612L102.724 33.8542L102.907 54.6412L103.284 97.4452L103.323 101.871L103.38 108.341L103.426 113.538L47.9939 114.026L47.2919 34.3432L93.1169 33.9392L91.2689 27.0262L43.7669 27.4452C41.8619 27.4622 40.3169 29.0352 40.3329 30.9402L41.0959 117.552C41.1129 119.457 42.6859 121.003 44.5909 120.986L106.952 120.436C108.857 120.419 110.402 118.846 110.386 116.941L110.371 115.209L110.316 108.958L110.287 105.647L109.806 51.1162L109.623 30.3292C109.606 28.4242 108.033 26.8782 106.128 26.8952H106.127Z" fill="#1B92D1"/>
<path d="M110.37 115.209L110.385 116.941C110.402 118.846 108.857 120.419 106.951 120.436L44.5899 120.986C42.6849 121.003 41.1119 119.458 41.0949 117.552L40.3319 30.9401C40.3149 29.0351 41.8599 27.4621 43.7659 27.4451L91.2679 27.0261" stroke="#1B3445" stroke-width="2" stroke-linecap="round" stroke-linejoin="round"/>
<path d="M90.5359 27.0322L106.126 26.8952C108.031 26.8782 109.604 28.4232 109.621 30.3292L110.363 114.575" stroke="#1B3445" stroke-width="2" stroke-linecap="round" stroke-linejoin="round"/>
<path d="M105.773 108.316L105.718 102.065L105.689 98.7541L105.209 44.2231L105.026 23.4361C105.009 21.5301 103.436 19.9851 101.531 20.0021L85.941 20.1391L39.169 20.5511C37.264 20.5681 35.719 22.1401 35.735 24.0461L36.498 110.658C36.515 112.564 38.088 114.109 39.993 114.092L102.354 113.542C104.259 113.525 105.804 111.952 105.788 110.047L105.772 108.315L105.773 108.316ZM98.726 94.9781L98.783 101.448L98.806 104.046L98.783 101.448L98.687 90.5521L98.726 94.9781ZM43.397 107.134L42.695 27.4511L43.397 107.134L98.829 106.645L43.397 107.134Z" fill="white"/>
<path d="M41.863 29.4071C41.846 27.5021 43.392 25.9291 45.297 25.9121L92.068 25.5001L105.043 25.3851L105.026 23.4341C105.009 21.5281 103.436 19.9831 101.531 20.0001L85.941 20.1371L39.169 20.5511C37.264 20.5681 35.719 22.1401 35.735 24.0461L36.498 110.658C36.515 112.564 38.088 114.109 39.993 114.092L42.608 114.069L41.862 29.4071H41.863Z" fill="#BDDDF5"/>
<path d="M105.774 108.315L105.789 110.047C105.806 111.952 104.261 113.525 102.355 113.542L39.994 114.092C38.089 114.109 36.516 112.564 36.499 110.658L35.736 24.0461C35.719 22.1411 37.264 20.5681 39.17 20.5511L86.672 20.1321" stroke="#1B3445" stroke-width="2" stroke-linecap="round" stroke-linejoin="round"/>
<path d="M85.941 20.1391L101.531 20.0021C103.436 19.9851 105.009 21.5301 105.026 23.4361L105.768 107.682" stroke="#1B3445" stroke-width="2" stroke-linecap="round" stroke-linejoin="round"/>
<path d="M29 36.791H43.043" stroke="#1B3445" stroke-width="7" stroke-linecap="round" stroke-linejoin="round"/>
<path d="M29 78.1531H43.043" stroke="#1B3445" stroke-width="7" stroke-linecap="round" stroke-linejoin="round"/>
<path d="M29 98.834H43.043" stroke="#1B3445" stroke-width="7" stroke-linecap="round" stroke-linejoin="round"/>
<path d="M29 57.4719H43.043" stroke="#1B3445" stroke-width="7" stroke-linecap="round" stroke-linejoin="round"/>
<path d="M29 36.791H43.043" stroke="#1B3445" stroke-width="7" stroke-linecap="round" stroke-linejoin="round"/>
<path d="M29 78.1531H43.043" stroke="#1B3445" stroke-width="7" stroke-linecap="round" stroke-linejoin="round"/>
<path d="M29 98.834H43.043" stroke="#1B3445" stroke-width="7" stroke-linecap="round" stroke-linejoin="round"/>
<path d="M29 57.4719H43.043" stroke="#1B3445" stroke-width="7" stroke-linecap="round" stroke-linejoin="round"/>
<path d="M29 36.791H43.043" stroke="white" stroke-width="2" stroke-linecap="round" stroke-linejoin="round"/>
<path d="M29 78.1531H43.043" stroke="white" stroke-width="2" stroke-linecap="round" stroke-linejoin="round"/>
<path d="M29 98.834H43.043" stroke="white" stroke-width="2" stroke-linecap="round" stroke-linejoin="round"/>
<path d="M29 57.4719H43.043" stroke="white" stroke-width="2" stroke-linecap="round" stroke-linejoin="round"/>
<path d="M29 36.791H43.043" stroke="#1B92D1" stroke-width="2" stroke-linecap="round" stroke-linejoin="round"/>
<path d="M29 78.1531H43.043" stroke="#1B92D1" stroke-width="2" stroke-linecap="round" stroke-linejoin="round"/>
<path d="M29 98.834H43.043" stroke="#1B92D1" stroke-width="2" stroke-linecap="round" stroke-linejoin="round"/>
<path d="M29 57.4719H43.043" stroke="#1B92D1" stroke-width="2" stroke-linecap="round" stroke-linejoin="round"/>
<path d="M70.4681 50.4561C76.3711 50.4561 81.1571 55.2421 81.1571 61.1451C81.1571 63.3241 80.5001 65.3471 79.3801 67.0341C82.2431 65.1201 84.1361 61.8701 84.1361 58.1661C84.1361 52.2631 79.3511 47.4771 73.4471 47.4771C69.7331 47.4771 66.4651 49.373 64.5491 52.247C66.2441 51.117 68.2781 50.4561 70.4691 50.4561H70.4681Z" fill="#BDDDF5"/>
<path d="M77.3391 69.3141C75.6311 70.7481 73.5001 68.8711 71.1281 69.0101L68.5751 69.6911C68.5521 69.6901 68.5351 69.6971 68.5131 69.6961C69.6671 70.0201 70.7261 70.2251 71.6591 69.4421C79.6231 71.2171 85.5821 78.3001 85.5821 86.8001V86.8851H91.2631V86.6731C91.2631 78.1731 85.3041 71.0901 77.3401 69.3151L77.3391 69.3141Z" fill="#BDDDF5"/>
<path d="M73.4471 68.856C79.3504 68.856 84.1361 64.0704 84.1361 58.167C84.1361 52.2637 79.3504 47.478 73.4471 47.478C67.5437 47.478 62.7581 52.2637 62.7581 58.167C62.7581 64.0704 67.5437 68.856 73.4471 68.856Z" stroke="#1B3445" stroke-width="2" stroke-linecap="round" stroke-linejoin="round"/>
<path d="M73.4471 68.856C63.6081 68.856 55.6321 76.832 55.6321 86.671V87.695" stroke="#1B3445" stroke-width="2" stroke-linecap="round" stroke-linejoin="round"/>
<path d="M73.4471 68.856C83.2861 68.856 91.2621 76.832 91.2621 86.671V87.695" stroke="#1B3445" stroke-width="2" stroke-linecap="round" stroke-linejoin="round"/>
</svg>
