<svg width="140" height="140" viewBox="0 0 140 140" fill="none" xmlns="http://www.w3.org/2000/svg">
<path fill-rule="evenodd" clip-rule="evenodd" d="M40.019 64.488L46.509 57.329C46.509 57.329 47.245 57.663 48.248 58.199C52.397 60.273 57.28 60.273 61.428 58.199L62.766 57.53L70.862 65.692L54.805 69.974L40.019 64.487V64.488Z" fill="white"/>
<path d="M40.019 64.488L46.509 57.329C46.509 57.329 47.245 57.663 48.248 58.199C52.397 60.273 57.28 60.273 61.428 58.199L62.766 57.53L70.862 65.692L54.805 69.974L40.019 64.487V64.488Z" stroke="#4A4C53" stroke-width="0.75" stroke-linecap="round" stroke-linejoin="round"/>
<path fill-rule="evenodd" clip-rule="evenodd" d="M21.162 107.71H88.259V82.888C88.259 77.402 85.385 72.384 80.707 69.574C73.69 65.359 64.267 59.672 64.267 59.672C64.267 59.672 64.267 59.739 64.2 59.872C62.73 63.886 58.854 66.496 54.576 66.496C50.299 66.429 46.489 63.753 45.086 59.672C45.086 59.672 35.664 65.359 28.646 69.64C23.968 72.383 21.161 77.401 21.161 82.82V107.709L21.162 107.71Z" fill="white"/>
<path fill-rule="evenodd" clip-rule="evenodd" d="M88.258 107.71V82.888C88.258 77.402 85.359 72.384 80.642 69.574C73.565 65.359 64.061 59.672 64.061 59.672C64.061 59.672 64.061 59.739 63.994 59.872C62.511 63.886 58.602 66.496 54.288 66.496C52.603 66.496 50.985 66.027 49.57 65.291C46.604 67.097 43.1 69.171 40.066 70.978C35.416 73.788 32.517 78.806 32.517 84.225V107.709H88.259L88.258 107.71Z" fill="#1B92D1"/>
<path d="M88.259 107.71V82.554C88.259 77.074 85.385 72.062 80.707 69.255C73.69 65.044 64.267 59.364 64.267 59.364C64.267 59.364 64.267 59.431 64.2 59.564C62.73 63.573 58.854 66.18 54.576 66.18C50.299 66.113 46.489 63.44 45.086 59.363C45.086 59.363 35.664 65.043 28.646 69.32C23.968 72.06 21.161 77.072 21.161 82.485V107.707" stroke="#1B3445" stroke-width="2" stroke-linecap="round" stroke-linejoin="round"/>
<path fill-rule="evenodd" clip-rule="evenodd" d="M60.33 58.668C56.44 60.609 51.88 60.609 47.99 58.668C47.319 58.334 46.582 57.999 45.911 57.665C42.089 55.791 39.741 51.911 39.741 47.696V27.156C39.741 25.55 40.412 23.945 41.552 22.807C42.692 21.669 44.302 21.001 45.911 21.001H62.475C64.084 21.001 65.626 21.67 66.834 22.807C67.974 23.945 68.645 25.484 68.645 27.156V47.763C68.645 51.978 66.231 55.859 62.475 57.731C61.737 57.998 61.067 58.333 60.329 58.667L60.33 58.668Z" fill="white"/>
<path fill-rule="evenodd" clip-rule="evenodd" d="M63.347 21H49.446C48.483 22.07 48.001 23.475 48.001 24.947V45.487C48.001 49.702 50.478 53.583 54.332 55.456C55.021 55.79 55.777 56.125 56.466 56.459C58.461 57.462 60.664 57.931 62.797 57.931C63.003 57.864 63.141 57.731 63.347 57.664C67.27 55.79 69.678 51.91 69.678 47.696V27.089C69.678 25.483 68.989 23.945 67.82 22.74C66.581 21.602 64.999 21.001 63.347 21.001H63.348L63.347 21Z" fill="white"/>
<path d="M68.646 35.452V27.156C68.646 25.484 67.975 23.945 66.835 22.807C65.628 21.669 64.085 21.001 62.476 21.001H45.912C44.303 21.001 42.693 21.67 41.553 22.807C40.413 23.945 39.742 25.55 39.742 27.156V35.452H68.645H68.646Z" fill="white"/>
<path d="M69.678 35.385V27.089C69.678 25.483 68.99 23.945 67.82 22.74C66.581 21.602 64.999 21.001 63.347 21.001H49.446C48.483 22.071 48.001 23.476 48.001 24.948V35.452H69.678V35.385Z" fill="#1B92D1"/>
<path d="M60.33 58.668C56.44 60.609 51.88 60.609 47.99 58.668C47.319 58.334 46.582 57.999 45.911 57.665C42.089 55.791 39.741 51.911 39.741 47.696V27.156C39.741 25.55 40.412 23.945 41.552 22.807C42.692 21.669 44.302 21.001 45.911 21.001H62.475C64.084 21.001 65.626 21.67 66.834 22.807C67.974 23.945 68.645 25.484 68.645 27.156V47.763C68.645 51.978 66.231 55.859 62.475 57.731C61.737 57.998 61.067 58.333 60.329 58.667L60.33 58.668Z" stroke="#1B3445" stroke-width="2" stroke-linecap="round" stroke-linejoin="round"/>
<path d="M68.646 35.452H30.452" stroke="#1B3445" stroke-width="2" stroke-linecap="round" stroke-linejoin="round"/>
<path d="M54.194 66.42V107.71" stroke="#1B3445" stroke-width="2" stroke-linecap="round" stroke-linejoin="round"/>
<path d="M16 107.71H32.517" stroke="#1B3445" stroke-width="2" stroke-linecap="round" stroke-linejoin="round"/>
<path d="M37.678 107.71H66.581" stroke="#1B3445" stroke-width="2" stroke-linecap="round" stroke-linejoin="round"/>
<path d="M108.904 89.88H67.613V118.033H108.903V89.88H108.904Z" fill="#BDDDF5"/>
<path d="M108.904 89.88L103.006 76.743H73.512L67.614 89.88" fill="white"/>
<path d="M83.613 111.968H102.334" stroke="#1B3445" stroke-width="2" stroke-linecap="round" stroke-linejoin="round"/>
<path d="M108.904 89.88H67.613V118.033H108.903V89.88H108.904Z" stroke="#1B3445" stroke-width="2" stroke-linecap="round" stroke-linejoin="round"/>
<path d="M108.904 89.88L103.006 76.743H73.512L67.614 89.88" stroke="#1B3445" stroke-width="2" stroke-linecap="round" stroke-linejoin="round"/>
<path d="M88.258 76.7419V97.3869" stroke="#1B3445" stroke-width="2" stroke-linecap="round" stroke-linejoin="round"/>
<path d="M92.904 106.807H102.335" stroke="#1B3445" stroke-width="2" stroke-linecap="round" stroke-linejoin="round"/>
<path d="M102.148 64.8021C113.915 64.8021 123.455 55.2626 123.455 43.4951C123.455 31.7276 113.915 22.1881 102.148 22.1881C90.3803 22.1881 80.8408 31.7276 80.8408 43.4951C80.8408 55.2626 90.3803 64.8021 102.148 64.8021Z" fill="white"/>
<path d="M102.237 21.9541C94.5088 21.9541 87.7408 26.0621 83.9948 32.2131C87.8208 28.5851 92.9848 26.3551 98.6738 26.3551C110.461 26.3551 120.016 35.9101 120.016 47.6971C120.016 51.7561 118.883 55.5501 116.916 58.7801C121.017 54.8911 123.579 49.3951 123.579 43.2971C123.579 31.5101 114.024 21.9551 102.237 21.9551V21.9541Z" fill="#BDDDF5"/>
<path d="M102.148 64.8021C113.915 64.8021 123.455 55.2626 123.455 43.4951C123.455 31.7276 113.915 22.1881 102.148 22.1881C90.3803 22.1881 80.8408 31.7276 80.8408 43.4951C80.8408 55.2626 90.3803 64.8021 102.148 64.8021Z" stroke="#1B3445" stroke-width="2" stroke-linecap="round" stroke-linejoin="round"/>
<path d="M94.2538 51.3901L110.043 35.5991" stroke="#1B3445" stroke-width="2" stroke-linecap="round" stroke-linejoin="round"/>
<path d="M94.2518 35.6011L110.044 51.3901" stroke="#1B3445" stroke-width="2" stroke-linecap="round" stroke-linejoin="round"/>
</svg>
