<svg width="140" height="140" viewBox="0 0 140 140" fill="none" xmlns="http://www.w3.org/2000/svg">
<path d="M102.136 34.4058V91.5107C102.133 92.2158 101.911 92.9017 101.5 93.4737C101.089 94.0457 100.51 94.4758 99.843 94.7038L56.126 109.546L13.264 94.7178C12.601 94.4867 12.027 94.0557 11.622 93.4827C11.216 92.9108 10.999 92.2258 11.001 91.5238V34.3908C11.001 34.0358 11.113 33.6908 11.32 33.4028C11.527 33.1147 11.819 32.8997 12.155 32.7867L55.084 18.1687C55.76 17.9437 56.492 17.9437 57.168 18.1687L100.952 32.8007C101.295 32.9067 101.595 33.1198 101.808 33.4078C102.021 33.6968 102.136 34.0458 102.136 34.4048V34.4058Z" fill="white"/>
<path d="M62.348 64.7088V107.45L102.136 93.9228V40.3848L72.584 50.4218C66.464 52.4998 62.348 58.2458 62.348 64.7088Z" fill="#BDDDF5"/>
<path d="M11 48.7978V34.3908C11 34.0358 11.112 33.6908 11.319 33.4028C11.526 33.1148 11.818 32.8997 12.154 32.7867L55.084 18.1687C55.76 17.9437 56.492 17.9437 57.168 18.1687L100.952 32.8007C101.295 32.9067 101.595 33.1198 101.808 33.4078C102.021 33.6968 102.136 34.0458 102.136 34.4048V91.5098C102.133 92.2148 101.911 92.9007 101.5 93.4727C101.089 94.0447 100.51 94.4748 99.843 94.7028L56.126 109.545L13.264 94.7178C12.601 94.4868 12.027 94.0557 11.622 93.4827C11.216 92.9107 10.999 92.2258 11.001 91.5238V60.3368" stroke="#1B3445" stroke-width="2" stroke-linecap="round" stroke-linejoin="round"/>
<path d="M101.551 33.3708L56.1251 48.7978M56.1251 48.7978L11.9301 33.4908M56.1261 48.7978V109.545M79.1391 40.8218L34.9451 25.5298" stroke="#1B3445" stroke-width="2" stroke-linecap="round" stroke-linejoin="round"/>
<path d="M39.958 90.4688L18.9 83.0938V74.7388L39.958 82.1138V90.4688Z" fill="#BDDDF5"/>
<path d="M18.9 74.7388L39.958 82.1138" stroke="#1B3445" stroke-width="2" stroke-linecap="round" stroke-linejoin="round"/>
<path d="M18.9 83.0938L31.822 87.6188" stroke="#1B3445" stroke-width="2" stroke-linecap="round" stroke-linejoin="round"/>
<path d="M72.9141 66.4243C81.9291 57.4093 96.5441 57.4093 105.559 66.4243C113.909 74.7743 114.523 87.9303 107.403 96.9893L127.889 116.13C128.258 116.474 128.238 117.085 127.844 117.478L123.967 121.355C123.574 121.748 122.964 121.768 122.619 121.4L103.478 100.914C94.4191 108.034 81.2631 107.42 72.9131 99.0703C63.8981 90.0553 63.8981 75.4403 72.9131 66.4253L72.9141 66.4243ZM76.5171 95.4663C83.5421 102.491 94.9311 102.491 101.956 95.4663C108.981 88.4413 108.981 77.0523 101.956 70.0273C94.9311 63.0023 83.5421 63.0023 76.5171 70.0273C69.4921 77.0523 69.4921 88.4413 76.5171 95.4663Z" fill="#1B92D1"/>
<path d="M104.539 70.6733C101.812 67.9463 98.427 66.2833 94.895 65.6733C97.475 66.5263 99.902 67.9743 101.955 70.0273C108.98 77.0523 108.98 88.4413 101.955 95.4663C97.657 99.7643 91.726 101.427 86.16 100.466C92.41 102.532 99.567 101.084 104.539 96.1123C111.564 89.0873 111.564 77.6983 104.539 70.6733Z" fill="#1B92D1"/>
<path d="M75.4971 99.7153C66.4821 90.7003 66.4821 76.0853 75.4971 67.0703C81.1011 61.4663 88.8701 59.3483 96.1121 60.7123C88.1851 58.2463 79.1921 60.1463 72.9141 66.4243C63.8991 75.4393 63.8991 90.0543 72.9141 99.0693C76.3271 102.482 80.5421 104.601 84.9521 105.429C81.4931 104.355 78.2361 102.454 75.4971 99.7153Z" fill="#1B92D1"/>
<path d="M106.062 101.559C105.678 101.861 105.283 102.144 104.885 102.418L122.62 121.399C122.964 121.768 123.575 121.748 123.968 121.354L124.273 121.049L106.062 101.559Z" fill="#1B92D1"/>
<path d="M72.9141 66.4243C81.9291 57.4093 96.5441 57.4093 105.559 66.4243C113.909 74.7743 114.523 87.9303 107.403 96.9893L127.889 116.13C128.258 116.474 128.238 117.085 127.844 117.478L123.967 121.355C123.574 121.748 122.964 121.768 122.619 121.4L103.478 100.914C94.4191 108.034 81.2631 107.42 72.9131 99.0703C63.8981 90.0553 63.8981 75.4403 72.9131 66.4253L72.9141 66.4243ZM76.5171 95.4663C83.5421 102.491 94.9311 102.491 101.956 95.4663C108.981 88.4413 108.981 77.0523 101.956 70.0273C94.9311 63.0023 83.5421 63.0023 76.5171 70.0273C69.4921 77.0523 69.4921 88.4413 76.5171 95.4663Z" stroke="#1B3445" stroke-width="2" stroke-linecap="round" stroke-linejoin="round"/>
</svg>
