<svg width="140" height="140" viewBox="0 0 140 140" fill="none" xmlns="http://www.w3.org/2000/svg">
<path d="M45.1991 114.546L107.745 114.546L107.745 26.176L45.1991 26.176L45.1991 114.546Z" fill="white"/>
<path d="M107.427 26.318L95.8721 26.255L49.0991 26C47.1941 25.99 45.6261 27.54 45.6161 29.446L45.1541 114.089H51.2341L51.6671 34.894C51.6771 32.989 53.2461 31.438 55.1501 31.449L101.922 31.704L107.427 31.734V26.318Z" fill="#BDDDF5"/>
<path d="M45.1991 114.546L107.745 114.546L107.745 26.176L45.1991 26.176L45.1991 114.546Z" stroke="#1B3445" stroke-width="2.113" stroke-linecap="round" stroke-linejoin="round"/>
<path d="M107.723 50.4561H22V71.2081H107.723V50.4561Z" fill="white"/>
<path d="M107.723 50.1411H22V71.5231H107.723V50.1411Z" stroke="#1B3445" stroke-width="2" stroke-linecap="round" stroke-linejoin="round"/>
<path d="M30.923 60.6962H75.521" stroke="#1B3445" stroke-width="2" stroke-linecap="round" stroke-linejoin="round"/>
<path d="M93.421 63.9971L100.106 57.3961" stroke="#1B3445" stroke-width="2" stroke-linecap="round" stroke-linejoin="round"/>
<path d="M93.463 57.3541L100.064 64.0391" stroke="#1B3445" stroke-width="2" stroke-linecap="round" stroke-linejoin="round"/>
<path d="M117.698 69.3381H31.975V90.0901H117.698V69.3381Z" fill="white"/>
<path d="M117.698 69.0231H31.975V90.4051H117.698V69.0231Z" stroke="#1B92D1" stroke-width="2" stroke-linecap="round" stroke-linejoin="round"/>
<path d="M40.8989 79.5791H85.4959" stroke="#1B92D1" stroke-width="2" stroke-linecap="round" stroke-linejoin="round"/>
<path d="M101.084 78.2361L106.09 83.0251L112.475 76.1321" stroke="#1B92D1" stroke-width="2" stroke-linecap="round" stroke-linejoin="round"/>
</svg>
