<svg width="140" height="140" viewBox="0 0 140 140" fill="none" xmlns="http://www.w3.org/2000/svg">
<path d="M33.5659 39.9282H107.097C107.257 39.9282 107.41 39.9912 107.523 40.1042C107.636 40.2172 107.7 40.3702 107.7 40.5302V96.5822C107.7 97.2212 107.446 97.8352 106.994 98.2872C106.542 98.7392 105.929 98.9932 105.289 98.9932H35.3739C34.7349 98.9932 34.1209 98.7392 33.6689 98.2872C33.2169 97.8352 32.9629 97.2222 32.9629 96.5822V40.5312C32.9629 40.3712 33.0269 40.2182 33.1389 40.1052C33.2519 39.9922 33.4049 39.9292 33.5649 39.9292L33.5659 39.9282Z" fill="white"/>
<path d="M32.9641 56.8042V60.6292C32.9641 61.1092 33.1541 61.5682 33.4941 61.9072C33.8331 62.2462 34.2931 62.4372 34.7731 62.4372H102.046C102.526 62.4372 102.985 62.6272 103.324 62.9672C103.663 63.3062 103.854 63.7662 103.854 64.2462V98.9952H105.891C106.371 98.9952 106.83 98.8042 107.169 98.4652C107.508 98.1262 107.699 97.6662 107.699 97.1872V56.8042H32.9641Z" fill="#BDDDF5"/>
<path d="M33.5659 39.9282H107.097C107.257 39.9282 107.41 39.9912 107.523 40.1042C107.636 40.2172 107.7 40.3702 107.7 40.5302V96.5822C107.7 97.2212 107.446 97.8352 106.994 98.2872C106.542 98.7392 105.929 98.9932 105.289 98.9932H35.3739C34.7349 98.9932 34.1209 98.7392 33.6689 98.2872C33.2169 97.8352 32.9629 97.2222 32.9629 96.5822V40.5312C32.9629 40.3712 33.0269 40.2182 33.1389 40.1052C33.2519 39.9922 33.4049 39.9292 33.5649 39.9292L33.5659 39.9282Z" stroke="#1B3445" stroke-width="2" stroke-linecap="round" stroke-linejoin="round"/>
<path d="M107.7 39.9281H32.9641L43.3741 28.3701C43.5431 28.1811 43.7501 28.0291 43.9821 27.9261C44.2141 27.8221 44.4641 27.7681 44.7181 27.7681H95.9491C96.2031 27.7681 96.4531 27.8231 96.6851 27.9271C96.9161 28.0311 97.1231 28.1821 97.2921 28.3711L107.701 39.9291L107.7 39.9281Z" fill="#D7E8F4" stroke="#1B3445" stroke-width="1.5" stroke-linecap="round" stroke-linejoin="round"/>
<path d="M44.718 27.7732L23.633 21.7222L12 33.6782L32.964 39.9282L44.718 27.7732ZM95.646 27.7732L116.73 21.7222L128.364 33.6792L107.4 39.9292L95.646 27.7742V27.7732Z" fill="white" stroke="#1B3445" stroke-width="2" stroke-linecap="round" stroke-linejoin="round"/>
<path d="M44.718 27.7729V39.9279" stroke="#1B3445" stroke-width="1.5" stroke-linecap="round" stroke-linejoin="round"/>
<path d="M95.646 27.7729V39.9279" stroke="#1B3445" stroke-width="1.5" stroke-linecap="round" stroke-linejoin="round"/>
<path d="M100.505 26.787H40.1531L49.9171 19.668C50.5121 19.234 51.2301 19 51.9661 19H88.6931C89.4301 19 90.1471 19.234 90.7421 19.668L100.505 26.787Z" fill="white" stroke="#1B3445" stroke-width="2" stroke-linecap="round" stroke-linejoin="round"/>
<path d="M40.1531 27.3891V42.7061H100.505V27.3891C100.505 26.9091 100.314 26.4491 99.9751 26.1101C99.6361 25.7711 99.1761 25.5801 98.6971 25.5801H41.9611C41.4811 25.5801 41.0211 25.7701 40.6821 26.1101C40.3431 26.4501 40.1521 26.9091 40.1521 27.3891H40.1531Z" fill="white"/>
<path d="M42.5699 28.5093H98.0939C98.7329 28.5093 99.3469 28.7633 99.7989 29.2153C100.251 29.6673 100.505 30.2803 100.505 30.9203V39.8933H40.1589V30.9203C40.1589 30.2813 40.4129 29.6673 40.8649 29.2153C41.3169 28.7633 41.9299 28.5093 42.5699 28.5093Z" fill="#1B92D1"/>
<path d="M40.1531 27.3891V42.7061H100.505V27.3891C100.505 26.9091 100.314 26.4491 99.9751 26.1101C99.6361 25.7711 99.1761 25.5801 98.6971 25.5801H41.9611C41.4811 25.5801 41.0211 25.7701 40.6821 26.1101C40.3431 26.4501 40.1521 26.9091 40.1521 27.3891H40.1531Z" stroke="#1B3445" stroke-width="2" stroke-linecap="round" stroke-linejoin="round"/>
<path d="M114.33 56.8042H26.334L32.964 39.9282H107.7L114.33 56.8042Z" fill="white" stroke="#1B3445" stroke-width="2" stroke-linecap="round" stroke-linejoin="round"/>
<path d="M107.394 121.884C119.161 121.884 128.701 112.345 128.701 100.577C128.701 88.8095 119.161 79.27 107.394 79.27C95.6264 79.27 86.0869 88.8095 86.0869 100.577C86.0869 112.345 95.6264 121.884 107.394 121.884Z" fill="white"/>
<path d="M107.483 79.0361C99.7549 79.0361 92.9869 83.1441 89.2409 89.2951C93.0669 85.6671 98.2309 83.4371 103.92 83.4371C115.707 83.4371 125.262 92.9921 125.262 104.779C125.262 108.838 124.129 112.632 122.162 115.862C126.263 111.973 128.825 106.477 128.825 100.379C128.825 88.5921 119.27 79.0371 107.483 79.0371V79.0361Z" fill="#BDDDF5"/>
<path d="M107.394 121.884C119.161 121.884 128.701 112.345 128.701 100.577C128.701 88.8095 119.161 79.27 107.394 79.27C95.6264 79.27 86.0869 88.8095 86.0869 100.577C86.0869 112.345 95.6264 121.884 107.394 121.884Z" stroke="#1B3445" stroke-width="2" stroke-linecap="round" stroke-linejoin="round"/>
<path d="M99.4999 108.473L115.289 92.6821" stroke="#1B3445" stroke-width="2" stroke-linecap="round" stroke-linejoin="round"/>
<path d="M114.244 102.216L115.289 92.6821" stroke="#1B3445" stroke-width="2" stroke-linecap="round" stroke-linejoin="round"/>
<path d="M109.033 107.427L99.4989 108.472" stroke="#1B3445" stroke-width="2" stroke-linecap="round" stroke-linejoin="round"/>
<path d="M99.4989 108.473L100.544 98.9382" stroke="#1B3445" stroke-width="2" stroke-linecap="round" stroke-linejoin="round"/>
<path d="M115.289 92.6821L105.754 93.7261" stroke="#1B3445" stroke-width="2" stroke-linecap="round" stroke-linejoin="round"/>
</svg>
