<svg width="340" height="194" viewBox="0 0 340 194" fill="none" xmlns="http://www.w3.org/2000/svg">
<g clip-path="url(#clip0_1_13177)">
<path d="M193.683 91.166C193.978 86.846 196.6 78.897 197.978 74.749C199.263 70.879 200.881 65.442 201.637 59.256C202.322 53.649 201.586 34.09 201.834 31.098C203.189 14.759 211.749 9.43799 216.868 8.21799C219.048 6.05699 221.587 4.31599 227.464 4.31299C240.866 4.43699 254.361 19.982 260.452 31.667C266.044 42.395 263.953 59.041 263.638 63.079C263.348 66.79 265.422 75.139 266.663 78.242C267.904 81.344 211.801 108.415 193.683 91.166Z" fill="#1B3445"/>
<path d="M211.55 24.57C209.029 34.931 209.588 42.073 213.071 51.172C210.837 52.165 208.751 52.369 210.499 56.462C211.524 58.861 216.003 62.522 219.806 59.838C223.901 64.305 223.973 64.964 227.696 66.205C228.068 70.052 228.094 76.197 227.969 77.438C227.845 78.679 228.068 82.089 221.367 83.827C222.484 88.418 225.214 101.572 229.185 105.916C233.156 110.259 234.521 110.011 239.361 106.412C244.201 102.813 253.136 91.024 256.734 84.572C260.333 78.119 258.903 77.004 258.903 77.004C258.903 77.004 255.369 76.879 253.508 76.258C251.647 75.638 251.026 74.025 250.902 71.294C250.778 68.564 251.35 58.984 251.35 58.984C251.35 58.984 252.738 55.189 252.839 53.698C252.94 52.209 252.751 50.225 252.053 45.633C253.914 44.268 255.241 44.606 255.932 39.642C251.402 37.203 248.679 35.051 246.512 32.133C243.364 31.616 239.698 31.818 235.473 28.617C230.385 24.762 227.681 19.295 221.176 18.053C213.238 16.538 211.55 24.572 211.55 24.572V24.57Z" fill="white"/>
<path d="M230.192 55.959C234.666 54.891 240.455 51.888 241.869 50.781C242.539 54.092 242.62 57.766 239.2 59.536C235.394 61.505 232.326 58.927 230.192 55.96V55.959Z" fill="white"/>
<path d="M268.238 186.703C268.238 186.703 270.899 172.561 270.899 167.998C275.637 166.945 277.534 165.717 278.762 164.664C279.99 163.611 282.272 156.767 285.08 143.078C287.888 129.39 292.977 98.152 293.153 94.291C293.328 90.43 291.925 83.937 287.713 81.655C283.501 79.374 259.107 77.092 259.107 77.092C259.107 77.092 259.107 80.602 257.703 83.059C256.299 85.516 248.753 97.625 243.839 102.363C238.925 107.101 233.485 111.138 230.852 108.154C228.22 105.17 224.534 97.449 223.657 93.061C222.779 88.674 221.726 83.584 221.726 83.584C221.726 83.584 219.445 84.637 215.759 85.339C212.074 86.041 201.017 87.796 198.034 88.673C195.05 89.551 191.716 93.236 190.312 95.166C188.908 97.097 187.328 105.345 186.802 112.189C186.275 119.033 182.941 127.808 182.941 127.808C182.941 127.808 179.256 123.596 176.974 118.331C174.692 113.066 168.726 98.149 168.55 96.043C168.374 93.937 169.639 90.068 166.305 92.876C162.971 95.684 159.074 103.589 158.196 105.169C157.318 106.748 157.318 107.977 158.196 111.311C159.074 114.645 163.11 129.738 164.689 135.178C166.268 140.618 167.848 147.287 172.236 151.85C176.623 156.413 182.031 161.389 184.313 162.091C186.594 162.793 190.159 160.806 193.365 157.243C196.526 153.73 198.691 148.309 199.267 155.439C199.624 159.864 202.156 167.996 202.331 171.506C202.506 175.016 203.598 186.644 203.598 186.644C203.598 186.644 214.401 190.457 231.244 190.741C245.876 190.987 264.393 189.208 268.239 186.701L268.238 186.703Z" fill="#1B92D1"/>
<path d="M193.365 159.74C191.421 160.611 190.768 161.439 191.64 162.674C192.512 163.909 192.601 164.753 191.827 165.31C191.053 165.866 190.44 167.07 191.465 168.004C192.49 168.938 192.564 170.09 191.865 170.901C191.178 171.699 191.176 172.717 192.031 173.215C193.235 173.916 193.086 175.057 192.841 175.729C192.421 176.879 195.815 177.619 196.849 177.851C197.779 178.06 203.09 176.347 204.038 175.678C204.985 175.008 205.608 173.899 204.756 172.851C204.756 172.851 212.375 170.301 211.425 169.638C210.097 168.712 211.439 155.285 212.917 155.449L200.814 157.397C200.814 157.397 195.308 158.87 193.364 159.741L193.365 159.74Z" fill="white"/>
<path d="M159.336 107.803C159.336 107.803 161.617 107.101 167.233 95.167C165.829 91.92 163.46 84.55 161.88 82.005C160.301 79.46 159.581 78.547 155.72 77.758C151.859 76.968 148.476 77.348 146.672 77.224C144.878 77.101 140.526 75.62 137.394 74.129C133.657 72.349 132.923 70.774 132.923 70.774C132.923 70.774 132.748 68.843 131.695 68.317C130.642 67.79 129.501 67.703 129.94 70.072C129.765 70.686 129.063 70.247 128.361 70.949C127.659 71.651 127.659 73.143 128.449 74.02C129.239 74.898 130.292 75.775 130.292 75.775L130.731 79.899L128.801 79.811C128.801 79.811 126.783 75.424 125.291 73.142C123.799 70.861 122.659 68.404 121.518 68.053C120.377 67.702 119.237 67.877 119.237 69.106C116.955 68.229 114.849 67.702 114.762 68.579C114.674 69.457 118.009 73.493 118.009 73.493C118.009 73.493 115.728 73.054 114.85 73.054C113.972 73.054 113.797 74.546 113.797 74.546L123.713 81.478L125.292 85.251L136.787 86.743L139.858 88.937L155.038 91.394C155.038 91.394 155.301 91.043 155.828 92.622C156.355 94.201 157.583 102.625 159.338 107.802L159.336 107.803Z" fill="white"/>
<path d="M268.503 186.638C268.503 186.638 270.792 170.679 270.728 168.517" stroke="#1B3445" stroke-width="1.195" stroke-linecap="round" stroke-linejoin="round"/>
<path d="M203.579 186.282C203.579 186.282 202.651 178.776 202.693 176.119" stroke="#1B3445" stroke-width="1.195" stroke-linecap="round" stroke-linejoin="round"/>
<path d="M197.197 174.334C197.197 174.334 204.661 173.73 211.358 169.9" stroke="#1B3445" stroke-width="1.195" stroke-linecap="round" stroke-linejoin="round"/>
<path d="M211.797 155.854C211.797 155.854 204.9 155.948 201.133 156.848C197.366 157.748 193.711 159.153 193.037 159.715C192.363 160.277 190.619 159.996 192.531 163.988C191.519 165.225 190.001 166.237 192.194 168.43C191.8 170.173 190.001 172.085 192.475 173.265C192.531 175.12 191.714 177.944 197.535 177.594C203.356 177.244 205.232 174.57 204.757 172.849" stroke="#1B3445" stroke-width="1.195" stroke-linecap="round" stroke-linejoin="round"/>
<path d="M266.578 145.126C266.578 145.126 264.47 142.09 258.06 144.451C251.65 146.812 244.397 151.029 232.843 153.306C222.554 155.246 215.645 156.125 212.437 155.854C211.337 157.86 209.921 164.984 211.03 170.151C213.024 170.174 221.964 172.071 232.633 171.818C243.302 171.565 266.522 170.286 273.944 167.025C281.366 163.764 281.928 162.583 285.723 140.15C289.687 118.054 293.414 99.5386 293.153 94.2906C292.892 89.0416 292.301 80.9456 278.892 79.2586C266.838 77.9956 259.748 77.1716 257.281 76.8546C254.814 76.5376 249.656 78.5276 250.892 65.2016C251.123 60.3446 251.496 58.0236 251.496 58.0236" stroke="#1B3445" stroke-width="1.195" stroke-linecap="round" stroke-linejoin="round"/>
<path d="M221.542 83.7275C221.542 83.7275 226.795 109.929 233.699 109.142C240.602 108.355 257.706 88.9246 259.106 77.0916" stroke="#1B3445" stroke-width="1.195" stroke-linecap="round" stroke-linejoin="round"/>
<path d="M227.488 66.3126C227.488 66.3126 228.036 75.0416 227.994 76.1376C227.952 77.2336 229.259 81.0296 220.741 84.0656C216.819 85.0776 204.338 87.0176 202.946 87.4386C201.554 87.8606 188.92 89.6856 187.597 104.011C187.133 109.619 185.404 122.055 183.085 128.066" stroke="#1B3445" stroke-width="1.195" stroke-linecap="round" stroke-linejoin="round"/>
<path d="M199.172 105.15C199.172 105.15 203.199 111.222 199.172 119.656C196.41 127.752 191.366 136.945 197.473 147.656C198.837 150.62 200.07 155.648 200.138 157.26" stroke="#1B3445" stroke-width="1.195" stroke-linecap="round" stroke-linejoin="round"/>
<path d="M190.484 142.005C190.484 142.005 191.097 137.451 181.82 126.571C175.663 116.029 170.941 106.639 168.073 92.5269" stroke="#1B3445" stroke-width="1.195" stroke-linecap="round" stroke-linejoin="round"/>
<path d="M158.195 105.171C158.195 105.171 155.856 113.33 161.768 105.15C167.68 96.9687 169.929 89.0977 166.443 93.1456" stroke="#1B3445" stroke-width="1.195" stroke-linecap="round" stroke-linejoin="round"/>
<path d="M198.768 151.153C198.768 151.153 193.993 157.045 191.069 159.477C188.145 161.909 186.399 166.433 175.448 155.081C164.081 143.298 163.173 127.427 161.252 122.175C159.496 117.372 158.283 109.326 157.738 108.791" stroke="#1B3445" stroke-width="1.195" stroke-linecap="round" stroke-linejoin="round"/>
<path d="M267 102.535C267 102.535 264.019 136.236 260.956 143.675" stroke="#1B3445" stroke-width="1.195" stroke-linecap="round" stroke-linejoin="round"/>
<path d="M159.557 107.885C159.557 107.885 156.392 97.1376 156.055 94.7766C155.718 92.4156 155.633 91.2346 153.23 90.9816C150.826 90.7286 141.156 89.7196 139.856 88.9376C138.556 88.1556 132.441 84.0176 131.598 82.0876C130.755 80.1576 129.843 71.8076 129.94 70.0726C130.037 68.3376 131.309 66.1196 132.97 70.2376C133.875 73.6926 134.381 77.1646 134.507 77.9376C135.013 78.9216 135.508 79.7646 137.011 80.6926C138.514 81.6206 139.104 82.6016 140.242 82.7016C142.013 82.4636 153.103 80.9036 158.248 81.2836" stroke="#1B3445" stroke-width="1.195" stroke-linecap="round" stroke-linejoin="round"/>
<path d="M167.233 95.6036C167.233 95.6036 162.97 84.1076 162.085 82.3786C161.2 80.6496 160.314 77.4446 151.206 77.5296C146.778 77.4026 143.869 77.4456 139.989 75.5056C136.109 73.5656 134.213 72.7576 133.493 72.4186" stroke="#1B3445" stroke-width="1.195" stroke-linecap="round" stroke-linejoin="round"/>
<path d="M129.932 70.7826C129.932 70.7826 125.104 70.7746 130.29 75.7756" stroke="#1B3445" stroke-width="1.195" stroke-linecap="round" stroke-linejoin="round"/>
<path d="M131.002 79.8156C131.002 79.8156 129.067 80.9026 128.181 78.7526C127.295 76.6026 123.289 69.3486 122.277 68.6746C121.265 68.0006 120.843 67.4096 119.831 68.0416C118.819 68.6736 119.156 69.6616 121.265 71.8246C122.066 74.0716 124.336 81.1236 124.677 82.5106C125.018 83.8976 124.644 85.0786 128.31 85.4576C131.976 85.8366 135.984 86.5486 136.595 86.7196" stroke="#1B3445" stroke-width="1.195" stroke-linecap="round" stroke-linejoin="round"/>
<path d="M118.91 73.9867C118.91 73.9867 115.489 72.2577 114.14 73.5227C112.791 74.7877 115.785 76.2017 117.471 77.2447C119.158 78.2877 123.649 81.2777 124.669 82.6997" stroke="#1B3445" stroke-width="1.195" stroke-linecap="round" stroke-linejoin="round"/>
<path d="M119.394 69.3976C119.394 69.3976 116.104 67.3356 115.037 68.2156C113.97 69.0956 117.277 72.5256 118.512 73.8046C119.747 75.0836 124.488 81.5826 124.795 83.0976" stroke="#1B3445" stroke-width="1.195" stroke-linecap="round" stroke-linejoin="round"/>
<path d="M193.737 91.6237C193.737 91.6237 193.226 87.8857 196.765 78.7557C199.645 70.0587 203.233 58.8617 201.768 43.9387C201.713 43.3737 201.691 42.8057 201.701 42.2377C201.848 33.6087 200.919 12.7307 216.482 8.33167" stroke="#1B3445" stroke-width="1.195" stroke-linecap="round" stroke-linejoin="round"/>
<path d="M218.844 6.47561C218.844 6.47561 228.604 -0.861392 242.236 10.3546C255.868 21.5716 263.795 32.3666 264.47 47.8006C264.723 52.0176 264.723 54.9696 263.795 62.2226C263.542 65.8486 263.471 74.5386 266.838 77.9946" stroke="#1B3445" stroke-width="1.195" stroke-linecap="round" stroke-linejoin="round"/>
<path d="M259.466 45.1296C259.466 45.1296 259.527 40.6456 253.564 37.8136C247.602 34.9816 246.252 30.5116 244.481 28.0656" stroke="#1B3445" stroke-width="1.195" stroke-linecap="round" stroke-linejoin="round"/>
<path d="M214.014 20.0226C214.014 20.0226 206.119 30.1826 212.439 49.4496" stroke="#1B3445" stroke-width="1.195" stroke-linecap="round" stroke-linejoin="round"/>
<path d="M222.428 18.0717C222.428 18.0717 225.85 18.6787 230.82 24.6077C232.711 26.2777 236.496 30.1807 240.49 31.1477C244.483 32.1137 245.66 32.2167 246.8 31.8497" stroke="#1B3445" stroke-width="1.195" stroke-linecap="round" stroke-linejoin="round"/>
<path d="M214.488 39.4087C214.488 39.4087 216.061 35.0227 221.543 35.4867" stroke="#1B3445" stroke-width="1.195" stroke-linecap="round" stroke-linejoin="round"/>
<path d="M231.03 30.4696C231.03 30.4696 231.82 28.3066 234.124 27.8066" stroke="#1B3445" stroke-width="1.195" stroke-linecap="round" stroke-linejoin="round"/>
<path d="M228.5 38.9456C228.5 38.9456 231.831 41.2226 231.62 44.0906C231.409 46.9586 230.47 48.2656 234.123 48.8556" stroke="#1B3445" stroke-width="1.195" stroke-linecap="round" stroke-linejoin="round"/>
<path d="M212.729 51.7347C212.729 51.7347 208.45 51.1527 209.846 55.0897C210.171 56.0067 210.701 56.8387 211.368 57.5467C213.803 60.1307 215.738 62.3367 219.055 60.4087" stroke="#1B3445" stroke-width="1.195" stroke-linecap="round" stroke-linejoin="round"/>
<path d="M212.518 55.6816C212.518 55.6816 213.952 54.8366 215.343 56.2946" stroke="#1B3445" stroke-width="1.195" stroke-linecap="round" stroke-linejoin="round"/>
<path d="M215.091 53.7727C215.091 53.7727 222.796 65.3787 230.183 67.6197C236.214 69.4497 244.468 72.3697 250.396 60.1707C251.431 58.0407 252.787 56.0657 252.786 53.4937C252.784 48.6437 251.609 43.5707 251.103 38.3527" stroke="#1B3445" stroke-width="1.195" stroke-linecap="round" stroke-linejoin="round"/>
<path d="M253.397 37.7316C253.397 37.7316 252.663 38.9726 252.804 40.1536" stroke="#1B3445" stroke-width="1.195" stroke-linecap="round" stroke-linejoin="round"/>
<path d="M252.078 45.3526C252.078 45.3526 256.39 45.8336 255.946 39.1986" stroke="#1B3445" stroke-width="1.195" stroke-linecap="round" stroke-linejoin="round"/>
<path d="M230.192 55.9586C234.666 54.8906 240.455 51.8876 241.869 50.7806C242.539 54.0916 242.62 57.7656 239.2 59.5356C235.394 61.5046 232.326 58.9266 230.192 55.9596V55.9586Z" stroke="#1B3445" stroke-width="1.195" stroke-linecap="round" stroke-linejoin="round"/>
<path d="M239.819 36.0816C240.241 36.8776 240.082 37.7886 239.465 38.1156C238.847 38.4436 238.005 38.0636 237.582 37.2676C237.16 36.4716 237.318 35.5606 237.936 35.2336C238.554 34.9056 239.396 35.2856 239.819 36.0816Z" fill="#1B3445"/>
<path d="M223.258 44.5366C223.68 45.3326 223.522 46.2436 222.904 46.5706C222.286 46.8976 221.443 46.5186 221.021 45.7226C220.599 44.9266 220.757 44.0156 221.375 43.6876C221.993 43.3606 222.836 43.7396 223.258 44.5366Z" fill="#1B3445"/>
<path d="M157.161 58.864L166.48 65.948" stroke="#1B3445" stroke-width="1.195" stroke-linecap="round" stroke-linejoin="round"/>
<path d="M158.763 53.973L180.775 54.605" stroke="#1B3445" stroke-width="1.195" stroke-linecap="round" stroke-linejoin="round"/>
<path d="M90.493 59.131L80.963 65.991" stroke="#1B3445" stroke-width="1.195" stroke-linecap="round" stroke-linejoin="round"/>
<path d="M93.388 49.939L72.332 51.4" stroke="#1B3445" stroke-width="1.195" stroke-linecap="round" stroke-linejoin="round"/>
<path d="M92.011 37.59L82.417 33.5" stroke="#1B3445" stroke-width="1.195" stroke-linecap="round" stroke-linejoin="round"/>
<path d="M132.271 55.466C147.588 55.466 160.004 43.0495 160.004 27.733C160.004 12.4165 147.588 0 132.271 0C116.955 0 104.538 12.4165 104.538 27.733C104.538 43.0495 116.955 55.466 132.271 55.466Z" stroke="#1B3445" stroke-width="1.195" stroke-linecap="round" stroke-linejoin="round"/>
<path d="M132.271 51.549C145.424 51.549 156.087 40.8862 156.087 27.733C156.087 14.5798 145.424 3.91699 132.271 3.91699C119.118 3.91699 108.455 14.5798 108.455 27.733C108.455 40.8862 119.118 51.549 132.271 51.549Z" fill="white" stroke="#1B3445" stroke-width="1.195" stroke-linecap="round" stroke-linejoin="round"/>
<path d="M132.271 5.18396V7.65096" stroke="#1B3445" stroke-width="1.195" stroke-linecap="round" stroke-linejoin="round"/>
<path d="M132.271 10.8979V23.8429" stroke="#1B3445" stroke-width="1.195" stroke-linecap="round" stroke-linejoin="round"/>
<path d="M119.61 32.846L128.824 29.08" stroke="#1B3445" stroke-width="1.195" stroke-linecap="round" stroke-linejoin="round"/>
<path d="M109.974 27.733H112.526" stroke="#1B3445" stroke-width="1.195" stroke-linecap="round" stroke-linejoin="round"/>
<path d="M152.452 27.733H154.701" stroke="#1B3445" stroke-width="1.195" stroke-linecap="round" stroke-linejoin="round"/>
<path d="M132.271 49.981V47.465" stroke="#1B3445" stroke-width="1.195" stroke-linecap="round" stroke-linejoin="round"/>
<path d="M132.271 29.08C133.015 29.08 133.618 28.4769 133.618 27.733C133.618 26.9891 133.015 26.386 132.271 26.386C131.527 26.386 130.924 26.9891 130.924 27.733C130.924 28.4769 131.527 29.08 132.271 29.08Z" fill="#1B3445"/>
<path d="M142.349 130.474L95.512 130.185L95.168 185.942L142.005 186.231L142.349 130.473V130.474Z" fill="white"/>
<path d="M95.4159 145.737L93.9999 145.728L80.1489 145.643L95.5119 130.186L142.349 130.475L126.986 145.933L101.931 145.778" fill="white"/>
<path d="M171.312 130.653L142.849 130.456L142.006 186.232L170.969 186.411L171.312 130.653Z" fill="#E8F2FA"/>
<path d="M186.484 146.299L157.565 146.12L142.394 130.474L171.314 130.652L186.485 146.298L186.484 146.299Z" fill="white"/>
<path d="M142.349 130.474L157.565 146.299H186.484L171.313 130.653L142.349 130.475L95.5119 130.185L80.1489 145.643H131.764L142.191 130.973" stroke="#1B3445" stroke-width="1.195" stroke-linecap="round" stroke-linejoin="round"/>
<path d="M142.379 130.474V186.232H170.968V146.348" stroke="#1B3445" stroke-width="1.195" stroke-linecap="round" stroke-linejoin="round"/>
<path d="M134.613 157.699H122.94V170.021H134.613V157.699Z" stroke="#1B3445" stroke-width="1.195" stroke-linecap="round" stroke-linejoin="round"/>
<path d="M134.613 174.53H122.761" stroke="#1B3445" stroke-width="1.195" stroke-linecap="round" stroke-linejoin="round"/>
<path d="M134.864 179.164H118.418" stroke="#1B3445" stroke-width="1.195" stroke-linecap="round" stroke-linejoin="round"/>
<path d="M142.379 186.232H95.168V145.847" stroke="#1B3445" stroke-width="1.195" stroke-linecap="round" stroke-linejoin="round"/>
<path d="M323.459 186.453H17V193.622H323.459V186.453Z" fill="#F7FCFF"/>
<path d="M323.46 186.232H17" stroke="#1B3445" stroke-width="1.195" stroke-linecap="round" stroke-linejoin="round"/>
</g>
<defs>
<clipPath id="clip0_1_13177">
<rect width="340" height="194" fill="white"/>
</clipPath>
</defs>
</svg>
