<svg width="568" height="355" viewBox="0 0 568 355" fill="none" xmlns="http://www.w3.org/2000/svg">
<g clip-path="url(#clip0_1_2362)">
<path d="M99.446 87.522L112.642 203.48L15.237 214.565L2 98.865L99.446 87.524" stroke="#BDDDF5" stroke-width="2.031" stroke-linecap="round" stroke-linejoin="round"/>
<path d="M159.678 80.668L99.446 87.523L112.642 203.481L172.876 196.626L159.697 81.412" stroke="#BDDDF5" stroke-width="2.031" stroke-linecap="round" stroke-linejoin="round"/>
<path d="M93.984 172.459L68.701 175.336" stroke="#BDDDF5" stroke-width="2.031" stroke-linecap="round" stroke-linejoin="round"/>
<path d="M95.07 182.004L60.814 185.902" stroke="#BDDDF5" stroke-width="2.031" stroke-linecap="round" stroke-linejoin="round"/>
<path d="M67.3739 164.277L92.8938 161.37L89.9862 135.85L64.4663 138.757L67.3739 164.277Z" stroke="#BDDDF5" stroke-width="2.031" stroke-linecap="round" stroke-linejoin="round"/>
<path d="M489.208 31.5091L466.493 145.983L370.333 126.903L392.931 12.6621L489.207 31.5101" stroke="#BDDDF5" stroke-width="2.031" stroke-linecap="round" stroke-linejoin="round"/>
<path d="M548.67 43.3083L489.208 31.5103L466.493 145.984L525.956 157.783L548.461 44.0223" stroke="#BDDDF5" stroke-width="2.031" stroke-linecap="round" stroke-linejoin="round"/>
<path d="M128.435 26.4414L36.9335 54.7325C35.9768 55.0283 35.4411 56.0436 35.7369 57.0002L52.9526 112.68C53.2484 113.637 54.2636 114.173 55.2202 113.877L146.721 85.5859C147.678 85.2901 148.214 84.2749 147.918 83.3183L130.702 27.638C130.406 26.6814 129.391 26.1457 128.435 26.4414Z" fill="white" stroke="#BDDDF5" stroke-width="1.879" stroke-linecap="round" stroke-linejoin="round"/>
<path d="M129.684 26.521L98.2759 74.446C95.8319 78.167 91.0629 79.587 86.9819 77.81L36.3049 55.921" stroke="#BDDDF5" stroke-width="1.879" stroke-linecap="round" stroke-linejoin="round"/>
<path d="M58.1439 105.589L75.4519 72.7861" stroke="#BDDDF5" stroke-width="1.879" stroke-linecap="round" stroke-linejoin="round"/>
<path d="M138.985 81.1012L105.576 63.4722" stroke="#BDDDF5" stroke-width="1.879" stroke-linecap="round" stroke-linejoin="round"/>
<path d="M23.5229 50.5728L31.8059 54.0898" stroke="#BDDDF5" stroke-width="1.879" stroke-linecap="round" stroke-linejoin="round"/>
<path d="M20.4819 64.475L28.8259 61.106" stroke="#BDDDF5" stroke-width="1.879" stroke-linecap="round" stroke-linejoin="round"/>
<path d="M31.416 38.731L34.785 47.075" stroke="#BDDDF5" stroke-width="1.879" stroke-linecap="round" stroke-linejoin="round"/>
<path d="M469.912 244.711L426.811 304.914L424.275 333.437L398.92 323.302L394.241 322.366L354.557 314.429L341.716 318.059L316.53 325.196L310.679 318.071L301.953 307.451L281.028 312.524L275.323 303.651L208.142 259.288L206.249 268.161L193.351 269.999L192.934 270.055L192.753 269.593L180.893 240.269L144.129 221.893L128.92 128.714L114.975 109.706L127.646 89.4239L127.015 48.8599L185.967 30.4729L199.901 15.2639L233.463 7.73287L262.02 1.31787L272.28 28.1159L273.43 31.1149L291.964 28.6799L297.511 27.9469L429.98 31.7459L459.134 117.316L431.242 150.901L448.999 156.605V183.223L469.912 244.711Z" fill="white"/>
<path d="M438.897 244.711L395.797 304.914L394.241 322.366L354.557 314.429L341.716 318.059L323.543 314.429L310.679 318.071L301.953 307.451L281.028 312.524L275.323 303.651L207.341 258.419L205.411 268.069L193.351 269.999L192.753 269.593L180.893 240.269L144.129 221.893L128.92 128.714L114.975 109.706L127.646 89.4239L127.015 48.8599L185.967 30.4729L199.901 15.2639L233.463 7.73291L242.415 31.1149L266.496 27.9469L272.647 30.7899L291.964 28.6799L398.965 31.7459L428.119 117.316L400.239 150.901L417.984 156.605V183.223L438.897 244.711Z" fill="white"/>
<path d="M261.239 1L199.125 14.944L185.181 30.156L126.237 48.536L126.87 89.1L114.194 109.382L128.138 128.397L143.35 221.567L180.111 239.948L192.153 269.737L205.463 267.836L207.365 258.962L274.549 303.329L280.253 312.203L301.169 307.132L315.747 324.879L353.776 314.104L398.142 322.977L423.495 333.118L426.03 304.597L469.13 244.385L448.214 182.905V156.285L430.467 150.58L458.355 116.988L429.199 31.423L296.732 27.621L272.647 30.79L261.239 1Z" stroke="#1B3445" stroke-width="2.255" stroke-linecap="round" stroke-linejoin="round"/>
<path d="M287.685 17.9692L287.678 17.9552H287.629C285.537 17.3352 283.326 16.9902 281.033 16.9902C278.74 16.9902 276.529 17.3352 274.436 17.9552H274.387L274.381 17.9692C264.799 20.8302 257.81 29.7012 257.811 40.2152C257.811 44.4242 258.942 48.3602 260.909 51.7552C272.512 71.7932 281.039 80.5802 281.039 80.5802C281.039 80.5802 289.563 71.7932 301.163 51.7572C303.129 48.3622 304.26 44.4262 304.259 40.2172C304.258 29.7042 297.268 20.8322 287.686 17.9702L287.685 17.9692ZM286.279 48.4582C286.279 48.4582 286.276 48.4592 286.275 48.4602C285.922 48.8792 285.418 49.2102 284.736 49.3812C280.131 50.5342 274.955 49.3292 272.478 44.9262C272.247 44.5162 272.122 44.1112 272.078 43.7212C271.589 43.0232 271.248 42.1742 271.127 41.2142C270.813 38.7282 271.992 35.5542 273.817 33.8832C274.57 33.1942 275.404 32.7082 276.289 32.3552C278.159 30.6322 280.609 29.7912 282.9 31.2392C283.183 31.2682 283.473 31.3102 283.773 31.3662C284.463 31.4942 285.058 31.8182 285.547 32.2622C286.152 32.4982 286.746 32.8342 287.286 33.3432C287.512 33.5562 287.723 33.7892 287.926 34.0302C292.364 37.7202 291.103 45.5882 286.277 48.4572L286.279 48.4582Z" fill="#DFF0FC"/>
<path d="M271.553 42.8142C270.457 38.2492 272.901 34.2702 276.598 32.0562C276.879 31.7602 277.208 31.4852 277.605 31.2422C282.041 28.5232 287.31 31.8122 289.451 35.9452C289.735 36.4932 289.951 37.0422 290.128 37.5902C293.233 33.2832 295.382 28.2392 296.254 22.7662C293.788 20.6152 290.903 18.9302 287.685 17.9692L287.678 17.9562H287.629C285.537 17.3362 283.326 16.9912 281.033 16.9912C278.74 16.9912 276.529 17.3362 274.436 17.9562H274.387L274.381 17.9702C264.799 20.8312 257.81 29.7022 257.811 40.2152C257.811 44.4242 258.942 48.3602 260.909 51.7552C260.953 51.8322 260.995 51.9012 261.04 51.9772C261.352 51.9952 261.661 52.0242 261.978 52.0242C267.205 52.0242 272.153 50.8592 276.594 48.7902C274.181 47.7422 272.249 45.7082 271.555 42.8152L271.553 42.8142Z" fill="#BDDDF5"/>
<path d="M304.258 40.2162C304.257 29.7032 297.267 20.8312 287.685 17.9692L287.678 17.9552H287.629C285.536 17.3352 283.326 16.9902 281.033 16.9902C278.74 16.9902 276.529 17.3352 274.436 17.9552H274.387L274.381 17.9692C264.799 20.8302 257.81 29.7012 257.811 40.2142C257.811 44.4232 258.942 48.3592 260.909 51.7542C272.512 71.7922 281.039 80.5792 281.039 80.5792C281.039 80.5792 289.563 71.7922 301.163 51.7562C303.129 48.3612 304.259 44.4252 304.259 40.2162H304.258Z" stroke="#1B3445" stroke-width="2.255" stroke-linecap="round" stroke-linejoin="round"/>
<path d="M290.748 40.4372C290.748 45.8032 286.399 50.1522 281.034 50.1522C275.668 50.1522 271.319 45.8022 271.318 40.4362C271.318 35.0712 275.667 30.7212 281.032 30.7212C286.397 30.7212 290.747 35.0712 290.748 40.4372V40.4372Z" stroke="#1B3445" stroke-width="2.255" stroke-linecap="round" stroke-linejoin="round"/>
<path d="M444.076 64.665L444.069 64.651H444.02C441.928 64.031 439.717 63.686 437.424 63.686C435.131 63.686 432.92 64.031 430.827 64.651H430.778L430.772 64.665C421.19 67.526 414.201 76.397 414.202 86.911C414.202 91.12 415.333 95.056 417.3 98.451C428.903 118.489 437.43 127.276 437.43 127.276C437.43 127.276 445.954 118.489 457.554 98.453C459.52 95.058 460.651 91.122 460.65 86.913C460.649 76.4 453.659 67.528 444.077 64.666L444.076 64.665ZM442.67 95.154C442.67 95.154 442.667 95.155 442.666 95.156C442.313 95.575 441.809 95.906 441.127 96.077C436.522 97.23 431.346 96.025 428.869 91.622C428.638 91.212 428.513 90.807 428.469 90.417C427.98 89.719 427.639 88.87 427.518 87.91C427.204 85.424 428.383 82.25 430.208 80.579C430.961 79.89 431.795 79.404 432.68 79.051C434.55 77.328 437 76.487 439.291 77.935C439.574 77.964 439.864 78.006 440.164 78.062C440.854 78.19 441.449 78.514 441.938 78.958C442.543 79.194 443.137 79.53 443.677 80.039C443.903 80.252 444.114 80.485 444.317 80.726C448.755 84.416 447.494 92.284 442.668 95.153L442.67 95.154Z" fill="#DFF0FC"/>
<path d="M427.944 89.51C426.848 84.945 429.292 80.966 432.989 78.752C433.27 78.456 433.599 78.181 433.996 77.938C438.432 75.219 443.701 78.508 445.842 82.641C446.126 83.189 446.342 83.738 446.519 84.286C449.624 79.979 451.773 74.935 452.645 69.462C450.179 67.311 447.294 65.626 444.076 64.665L444.069 64.652H444.02C441.928 64.032 439.717 63.687 437.424 63.687C435.131 63.687 432.92 64.032 430.827 64.652H430.778L430.772 64.666C421.19 67.527 414.201 76.398 414.202 86.911C414.202 91.12 415.333 95.056 417.3 98.451C417.344 98.528 417.386 98.597 417.431 98.673C417.743 98.691 418.052 98.72 418.369 98.72C423.596 98.72 428.544 97.555 432.985 95.486C430.572 94.438 428.64 92.404 427.946 89.511L427.944 89.51Z" fill="#BDDDF5"/>
<path d="M460.649 86.912C460.648 76.399 453.658 67.527 444.076 64.665L444.069 64.651H444.02C441.927 64.031 439.717 63.686 437.424 63.686C435.131 63.686 432.92 64.031 430.827 64.651H430.778L430.772 64.665C421.19 67.526 414.201 76.397 414.202 86.91C414.202 91.119 415.333 95.055 417.3 98.45C428.903 118.488 437.43 127.275 437.43 127.275C437.43 127.275 445.954 118.488 457.554 98.452C459.52 95.057 460.65 91.121 460.65 86.912H460.649Z" stroke="#1B3445" stroke-width="2.255" stroke-linecap="round" stroke-linejoin="round"/>
<path d="M447.139 87.133C447.139 92.499 442.79 96.848 437.425 96.848C432.059 96.848 427.71 92.498 427.709 87.132C427.709 81.767 432.058 77.417 437.423 77.417C442.788 77.417 447.138 81.767 447.139 87.133Z" stroke="#1B3445" stroke-width="2.255" stroke-linecap="round" stroke-linejoin="round"/>
<path d="M152.118 58.5229L152.111 58.5089H152.062C149.97 57.8889 147.759 57.5439 145.466 57.5439C143.173 57.5439 140.962 57.8889 138.869 58.5089H138.82L138.814 58.5229C129.232 61.3839 122.243 70.2549 122.244 80.7689C122.244 84.9779 123.375 88.9139 125.342 92.3089C136.945 112.347 145.472 121.134 145.472 121.134C145.472 121.134 153.996 112.347 165.596 92.3109C167.562 88.9159 168.693 84.9799 168.692 80.7709C168.691 70.2579 161.701 61.3859 152.119 58.5239L152.118 58.5229ZM150.712 89.0119C150.712 89.0119 150.709 89.0129 150.708 89.0139C150.355 89.4329 149.851 89.7639 149.169 89.9349C144.564 91.0879 139.388 89.8829 136.911 85.4799C136.68 85.0699 136.555 84.6649 136.511 84.2749C136.022 83.5769 135.681 82.7279 135.56 81.7679C135.246 79.2819 136.425 76.1079 138.25 74.4369C139.003 73.7479 139.837 73.2619 140.722 72.9089C142.592 71.1859 145.042 70.3449 147.333 71.7929C147.616 71.8219 147.906 71.8639 148.206 71.9199C148.896 72.0479 149.491 72.3719 149.98 72.8159C150.585 73.0519 151.179 73.3879 151.719 73.8969C151.945 74.1099 152.156 74.3429 152.359 74.5839C156.797 78.2739 155.536 86.1419 150.71 89.0109L150.712 89.0119Z" fill="#DFF0FC"/>
<path d="M135.986 83.3679C134.89 78.8029 137.334 74.8239 141.031 72.6099C141.312 72.3139 141.641 72.0389 142.038 71.7959C146.474 69.0769 151.743 72.3659 153.884 76.4989C154.168 77.0469 154.384 77.5959 154.561 78.1439C157.666 73.8369 159.815 68.7929 160.687 63.3199C158.221 61.1689 155.336 59.4839 152.118 58.5229L152.111 58.5099H152.062C149.97 57.8899 147.759 57.5449 145.466 57.5449C143.173 57.5449 140.962 57.8899 138.869 58.5099H138.82L138.814 58.5239C129.232 61.3849 122.243 70.2559 122.244 80.7689C122.244 84.9779 123.375 88.9139 125.342 92.3089C125.386 92.3859 125.428 92.4549 125.473 92.5309C125.785 92.5489 126.094 92.5779 126.411 92.5779C131.638 92.5779 136.586 91.4129 141.027 89.3439C138.614 88.2959 136.682 86.2619 135.988 83.3689L135.986 83.3679Z" fill="#BDDDF5"/>
<path d="M168.691 80.7709C168.69 70.2579 161.7 61.3859 152.118 58.5239L152.111 58.5099H152.062C149.969 57.8899 147.759 57.5449 145.466 57.5449C143.173 57.5449 140.962 57.8899 138.869 58.5099H138.82L138.814 58.5239C129.232 61.3849 122.243 70.2559 122.244 80.7689C122.244 84.9779 123.375 88.9139 125.342 92.3089C136.945 112.347 145.472 121.134 145.472 121.134C145.472 121.134 153.996 112.347 165.596 92.3109C167.562 88.9159 168.692 84.9799 168.692 80.7709H168.691Z" stroke="#1B3445" stroke-width="2.255" stroke-linecap="round" stroke-linejoin="round"/>
<path d="M155.181 80.9909C155.181 86.3569 150.832 90.7059 145.467 90.7059C140.101 90.7059 135.752 86.3559 135.751 80.9899C135.751 75.6249 140.1 71.2749 145.465 71.2749C150.83 71.2749 155.18 75.6249 155.181 80.9909Z" stroke="#1B3445" stroke-width="2.255" stroke-linecap="round" stroke-linejoin="round"/>
<path fill-rule="evenodd" clip-rule="evenodd" d="M336.708 176.433L483.53 176.292C485.087 176.292 486.009 177.724 486.009 179.279L485.988 302.324C485.988 303.879 484.997 304.367 483.355 307.091L473.946 317.906L439.318 318.079L327.503 318.232C326.895 318.428 327.034 294.774 327.034 293.218L325.861 184.84C325.861 183.893 329.912 181.005 332.929 178.855C334.853 177.482 336.101 176.432 336.708 176.432V176.433Z" fill="white"/>
<path fill-rule="evenodd" clip-rule="evenodd" d="M186.613 138.966C186.613 119.82 201.624 106.756 211.486 106.756C221.348 106.756 248.753 128.229 248.753 147.374C248.753 159.172 242.244 174.693 238.257 186.8C233.891 200.038 205.873 215.384 204.136 212.024C200.634 205.269 202.627 192.267 204.003 188.778C205.069 186.069 205.927 183.646 205.426 174.954C205.314 172.942 204.605 170.35 202.505 169.11C201.796 168.689 197.036 165.932 194.626 162.465C189.935 155.704 186.614 145.447 186.614 138.966H186.613Z" fill="white"/>
<path fill-rule="evenodd" clip-rule="evenodd" d="M115.863 283.685C115.863 283.685 115.863 279.425 115.607 278.036C115.348 276.648 115.024 274.293 114.38 273.324C113.733 272.355 111.636 269 110.409 267.515C109.184 266.031 107.472 263.868 106.666 262.481C105.86 261.092 104.181 257.64 103.342 255.315C102.502 252.992 101.566 250.571 100.986 248.666C100.405 246.762 99.6619 245.664 99.0489 244.697C98.4349 243.728 97.4999 242.469 97.7909 241.792C98.0799 241.114 98.6609 240.694 99.7259 241.081C100.791 241.469 102.018 241.243 103.375 242.663C104.729 244.083 105.86 245.181 106.956 246.956C108.054 248.731 108.764 250.796 109.345 252.57C109.926 254.346 110.443 255.766 111.637 256.541C112.831 257.314 114.768 258.154 115.253 257.025C115.735 255.894 116.219 253.668 116.445 251.957C116.673 250.247 117.188 246.568 117.447 244.535C117.706 242.501 117.738 241.21 118.641 239.435C119.545 237.66 119.932 237.112 120.934 236.917C121.933 236.724 122.483 236.691 123.031 238.144C123.578 239.597 124.192 241.92 124.063 243.405C123.934 244.889 123.611 247.922 123.419 250.052C123.223 252.184 122.708 254.442 122.869 255.927C123.031 257.411 123.16 258.671 124.129 258.8C125.096 258.929 126.356 258.67 127.195 257.347C128.034 256.023 129.389 254.087 130.745 251.827C132.1 249.569 134.166 247.084 134.94 246.147C135.716 245.211 137.587 244.308 138.265 244.696C138.944 245.082 139.941 245.825 139.781 247.407C139.621 248.987 138.848 251.763 138.039 253.377C137.232 254.992 135.264 258.509 134.585 259.8C133.908 261.091 133.069 262.027 133.52 263.028C133.974 264.029 134.748 264.899 135.328 264.899C135.908 264.899 136.877 264.481 139.365 262.543C141.849 260.606 143.752 259.348 145.783 258.412C147.819 257.477 149.786 256.8 150.629 257.314C151.466 257.831 152.308 257.961 151.37 259.573C150.432 261.188 148.273 263.511 146.983 264.414C145.688 265.319 144.008 266.642 142.623 267.642C141.237 268.644 139.137 270.224 139.686 270.579C140.235 270.934 142.794 271.657 144.228 271.561C145.667 271.465 149.852 271.781 151.467 271.841C153.082 271.903 155.977 272.046 157.512 272.8C159.047 273.553 159.991 274.272 160.423 275.287C160.855 276.3 160.876 277.44 159.661 277.563C158.446 277.688 156.207 277.384 154.139 277.391C152.071 277.399 147.54 277.044 145.232 277.49C142.924 277.936 138.399 280.116 136.842 281.673C135.287 283.23 132.904 284.625 133.57 285.298C134.236 285.972 135.288 287.239 136.52 288.698C137.755 290.159 140.935 293.086 142.385 294.488C143.835 295.893 146.138 298.162 147.359 299.555C148.58 300.95 149.699 301.87 150.515 302.688C151.331 303.508 155.696 308.131 155.696 308.131L179.561 309.532C179.561 309.532 179.636 310.653 179.668 312.863C179.705 315.072 179.982 318.719 178.618 323.172C177.248 327.625 177.003 327.659 175.777 330.534C174.551 333.409 174.444 334.532 172.835 335.163C171.22 335.794 170.175 335.319 168.032 335.07C165.889 334.819 164.242 334.036 162.222 333.464C160.196 332.893 153.896 331.139 151.118 329.557C148.341 327.973 145.649 326.267 142.909 323.016C140.164 319.767 136.695 315.339 134.782 312.634C132.872 309.93 130.213 305.481 128.414 303.337C126.613 301.194 125.747 299.743 123.517 297.447C121.286 295.151 121.24 294.925 121.24 294.925C121.24 294.925 119.553 293.27 118.369 291.134C117.185 288.998 116.318 286.683 116.064 285.546C115.811 284.412 115.871 283.682 115.871 283.682L115.863 283.685Z" fill="white"/>
<path fill-rule="evenodd" clip-rule="evenodd" d="M245.112 274.78C245.021 271.741 259.307 269.584 263.881 268.575C268.455 267.568 281.792 269.43 283.114 272.222C284.431 275.014 283.967 275.788 283.732 277.806C283.497 279.822 282.026 289.747 281.637 292.695C281.253 295.641 279.467 306.575 279.078 308.206C278.689 309.835 277.516 314.18 276.781 316.497C276.045 318.816 273.199 326.403 271.461 329.354C269.723 332.305 267.666 335.571 265.874 337.047C264.083 338.521 262.377 340.074 258.758 339.727C255.138 339.379 250.575 338.851 248.193 338.473C245.816 338.095 238.15 336.086 235.042 334.884C231.94 333.68 225.697 330.774 221.939 327.693C218.186 324.61 214.018 320.195 211.395 317.397C208.778 314.602 204.716 310.065 202.706 307.519C200.696 304.972 191.879 293.916 189.774 291.296C187.668 288.674 184.214 285.087 182.093 283.065C179.971 281.045 178.426 279.415 176.517 278.182C174.609 276.949 173.654 277.026 172.109 275.375C170.563 273.723 141.298 238.054 141.298 238.054C141.298 238.054 141.73 237.71 142.668 236.296C143.601 234.884 146.373 231.486 147.492 230.722C148.611 229.958 150.184 229.786 151.815 230.283C153.446 230.781 154.544 230.984 156.885 231.188C159.225 231.391 162.258 232.018 164.135 232.907C166.006 233.797 167.163 234.173 168.48 236.064C169.797 237.955 170.633 241.188 171.465 242.591C172.297 243.995 174.338 247.891 176.428 250.54C178.518 253.191 181.657 257.451 183.39 259.268C185.122 261.086 187.761 263.075 189.44 264.022C191.114 264.968 192.969 267.365 195.528 269.71C198.092 272.057 205.539 278.489 208.967 281.229C212.395 283.969 218.402 288.268 221.361 290.073C224.319 291.879 226.852 293.485 229.81 294.967C232.774 296.446 237.593 298.552 240.103 299.655C242.619 300.758 243.216 301.905 243.488 300.558C243.76 299.213 244.448 293.433 244.725 291.414C245.008 289.396 245.375 281.489 245.359 280.488C245.348 279.485 245.194 277.49 245.114 274.778L245.112 274.78Z" fill="white"/>
<path fill-rule="evenodd" clip-rule="evenodd" d="M328.915 107.708C328.915 105.732 329.597 103.706 331.948 103.614C338.819 103.34 341.794 95.18 347.721 89.566C357.343 80.447 368.884 72.248 373.793 72.248C378.628 72.248 387.173 86.473 391.81 97.164C394.044 102.306 394.417 108.513 394.838 108.364C396.432 107.81 398.074 109.308 398.074 113.047C398.074 115.306 397.184 119.152 395.713 121.534C394.748 123.095 393.08 123.518 392.834 124.243C392.221 126.076 391.864 128.505 391.331 130.353C389.833 135.559 386.731 141.021 382.973 144.564C380.846 146.574 379.807 146.298 379.412 147.653C378.618 150.368 377.834 155.423 379.092 158.726C381.123 164.078 381.774 164.055 382.307 164.885C384.231 167.87 377.251 169.01 375.175 170.379C370.645 173.367 359.468 172.692 357.73 172.692C353.418 172.692 346.855 172.036 337.298 160.548C336.339 159.394 331.848 152.497 334.31 149.85C337.263 146.678 336.574 145.826 337.561 142.302C338.888 137.575 338.899 128.012 338.792 126.834C338.451 123.104 337.038 121.53 334.794 120.069C329.506 116.639 328.914 110.883 328.914 107.709L328.915 107.708Z" fill="white"/>
<path fill-rule="evenodd" clip-rule="evenodd" d="M289.825 292.444L289.361 286.623C289.361 286.623 293.247 285.884 295.278 285.791C297.309 285.698 309.879 284.035 314.868 284.221C319.857 284.406 327.064 285.514 327.064 285.514L327.341 317.762C327.341 317.762 327.757 317.984 330.587 317.845C333.418 317.704 381.308 318.169 381.308 318.169C381.308 318.169 381.916 317.102 381.452 315.508C380.983 313.916 380.247 312.44 380.13 310.848C380.013 309.254 380.093 307.701 381.569 308.089C383.046 308.479 385.332 308.479 386.345 309.955C387.352 311.431 388.328 312.907 389.197 314.81C390.066 316.71 390.077 318.304 392.06 319.087C394.043 319.87 395.664 321.993 397.817 321.455C399.971 320.914 400.466 320.393 402.769 320.096C405.072 319.799 406.404 320.096 407.886 319.585C409.373 319.072 412.028 317.723 413.558 316.951C415.083 316.18 420.333 313.488 422.178 312.689C424.022 311.89 428.756 310.233 430.702 309.87C432.648 309.509 435.372 309.272 437.045 309.443C438.719 309.617 440.067 310.09 439.625 310.958C439.177 311.825 440.494 311.799 442.002 311.531C443.505 311.264 446.928 311.01 448.18 311.014C449.438 311.019 450.28 312.04 449.443 312.754C448.606 313.47 448.345 314.204 448.777 314.901C449.214 315.598 449.715 315.756 448.244 316.526C446.778 317.294 443.276 319.295 441.218 320.66C439.16 322.028 437.391 322.875 436.884 323.773C436.378 324.668 436.66 325.052 435.797 325.903C434.928 326.753 431.618 329.787 429.763 331.328C427.913 332.872 424.811 335.278 423.435 335.955C422.054 336.633 419.842 337.626 418.451 337.651C417.06 337.676 412.907 337.717 410.972 337.713C409.032 337.709 402.859 337.45 401.563 337.172C400.262 336.894 398.786 336.536 397.165 336.589C395.55 336.641 385.379 338.248 382.479 338.775C379.579 339.302 372.655 341.048 368.694 342.057C364.739 343.068 354.243 346.413 348.374 347.832C342.505 349.25 340.223 350.66 334.669 351.924C329.114 353.189 327.409 353.855 324.749 353.782C322.089 353.711 319.85 352.259 317.75 351.387C315.65 350.515 310.848 347.064 309.494 345.478C308.135 343.89 303.564 340.67 302.056 338.609C300.547 336.546 296.624 330.775 295.313 327.231C294.007 323.685 292.818 320.385 292.04 316.679C291.262 312.975 290.675 309.212 290.478 305.687C290.275 302.162 289.822 292.441 289.822 292.441L289.825 292.444Z" fill="white"/>
<path fill-rule="evenodd" clip-rule="evenodd" d="M198.543 153.095C198.543 153.095 202.791 153.732 205.27 153.874C209.391 154.11 213.911 154.155 213.911 154.155C213.911 154.155 209.593 159.183 205.414 158.547C201.235 157.91 198.543 153.094 198.543 153.094V153.095Z" fill="white"/>
<path fill-rule="evenodd" clip-rule="evenodd" d="M362.332 129.354C362.332 129.354 367.183 130.579 371.735 130.61C376.303 130.643 380.52 129.453 380.52 129.453C380.52 129.453 376.506 136.798 371.063 136.316C365.62 135.831 362.331 129.355 362.331 129.355L362.332 129.354Z" fill="white"/>
<path fill-rule="evenodd" clip-rule="evenodd" d="M332.864 152.162C333.754 152.718 337.019 162.207 339.418 163.824C341.817 165.441 347.352 169.861 350.694 171.534C354.042 173.207 358.016 173.11 360.91 173.558C363.81 174.003 371.527 172.163 372.476 171.438C373.425 170.712 379.181 169.073 379.512 167.679C379.848 166.284 383.756 166.259 383.367 165.366C382.973 164.475 387.603 167.729 389.053 168.065C390.503 168.399 394.097 171.034 395.824 171.313C397.551 171.591 403.186 172.984 405.131 173.654C407.087 174.323 408.255 174.601 409.651 175.716C411.042 176.831 410.648 176.352 407.476 176.517C404.304 176.681 336.221 176.448 336.221 176.448C336.221 176.448 335.517 177.009 334.627 177.82C333.742 178.629 326.492 183.693 326.492 183.693C326.492 183.693 325.97 185.212 326.007 186.456C326.05 187.701 326.988 287.271 326.988 287.271C326.988 287.271 327.255 287.113 324.301 286.853C321.343 286.592 312.531 285.973 309.343 285.977C306.161 285.981 300.073 285.888 297.248 286.135C294.423 286.384 291.811 286.355 290.889 286.781C289.967 287.207 289.983 289.473 289.988 290.604C289.993 291.736 288.97 291.657 287.189 291.424C285.409 291.188 283.911 291.193 283.106 290.204C282.301 289.218 282.621 284.746 282.914 284.111C283.213 283.476 284.092 283.463 284.764 282.44C285.436 281.415 286.054 280.152 286.427 278.491C286.806 276.829 287.904 274.41 287.344 269.731C286.79 265.053 287.786 252.205 287.68 249.254C287.568 246.304 287.867 237.332 287.371 234.363C286.875 231.393 285.185 219.842 284.78 218.605C284.375 217.368 284.999 213.153 285.883 210.108C286.768 207.065 289.06 200.125 290.435 197.704C291.81 195.281 295.638 189.029 298.255 186.379C300.872 183.726 306.08 178.916 308.303 176.853C310.531 174.791 319.172 167.449 320.691 165.894C322.216 164.339 324.796 161.625 326.054 160.069C327.312 158.514 328.09 156.878 328.986 157.435L332.861 152.164L332.864 152.162Z" fill="#1B92D1"/>
<path fill-rule="evenodd" clip-rule="evenodd" d="M331.388 102.816C331.388 101.475 331.388 100.879 330.988 99.1907C330.594 97.5007 329.895 95.9607 330.689 94.5717C331.483 93.1807 332.725 91.5907 334.911 91.2437C337.096 90.8957 341.121 91.1437 343.952 91.0447C346.783 90.9447 352.593 89.2057 351.004 90.6977C349.415 92.1867 346.185 94.5717 345.641 95.7147C345.092 96.8567 344.644 98.3967 344.148 99.8357C343.652 101.277 343.252 102.668 342.362 103.612C341.467 104.556 341.019 104.704 340.278 105.995C339.526 107.288 339.83 108.032 338.785 108.727C337.74 109.423 337.095 109.026 336.695 108.281C336.301 107.534 336.301 106.691 334.909 105.101C333.518 103.511 331.385 104.157 331.385 102.817L331.388 102.816Z" fill="#133340"/>
<path fill-rule="evenodd" clip-rule="evenodd" d="M382.002 85.0937C383.175 85.8767 384.395 87.0967 385.131 88.3577C385.872 89.6197 386.266 90.4897 387.226 91.9697C388.18 93.4497 388.878 94.6687 389.486 96.4537C390.094 98.2387 390.488 98.6727 391.138 100.152C391.794 101.632 392.487 103.069 392.705 104.592C392.924 106.116 392.577 107.552 393.057 108.248C393.531 108.944 393.926 109.031 394.71 108.771C395.494 108.508 395.622 106.726 395.712 105.593C395.797 104.461 396.405 102.111 396.666 100.066C396.927 98.0207 397.364 96.2797 397.322 93.9277C397.279 91.5777 397.103 90.4467 396.8 89.3587C396.496 88.2697 394.481 87.2017 392.36 86.4797C390.238 85.7587 387.664 84.6277 385.409 84.6277C383.154 84.6277 380.825 84.3087 382.003 85.0927L382.002 85.0937Z" fill="#133340"/>
<path fill-rule="evenodd" clip-rule="evenodd" d="M190.201 111.661C192.083 112.047 199.418 112.277 198.65 114.349C197.877 116.423 196.342 120.108 195.654 122.105C194.961 124.102 194.193 125.561 192.887 127.249C191.581 128.939 190.275 132.778 189.817 135.16C189.353 137.539 188.436 141.226 188.436 143.53C188.436 145.834 188.894 151.516 189.737 153.82C190.585 156.124 192.584 160.423 194.423 162.574C196.268 164.723 198.65 167.027 200.26 167.872C201.87 168.717 203.56 168.792 204.023 170.253C204.481 171.711 206.011 175.855 205.787 179.084C205.558 182.314 206.635 184.749 204.481 185.316C202.327 185.883 192.018 180.784 192.759 178.008C193.495 175.233 193.719 172.173 193.095 170.984C192.471 169.794 190.888 166.736 189.811 165.715C188.734 164.696 186.41 163.676 184.827 162.769C183.239 161.864 180.861 160.051 179.896 158.579C178.931 157.105 177.289 154.726 176.895 152.346C176.495 149.967 175.818 147.53 176.101 144.812C176.384 142.093 176.666 140.733 177.066 139.091C177.46 137.447 177.349 135.805 178.313 134.784C179.273 133.765 181.597 130.763 182.274 129.743C182.956 128.724 184.598 126.513 185.563 123.454C186.523 120.396 187.829 117.11 188.623 115.127C189.417 113.143 189.417 111.502 190.201 111.662V111.661Z" fill="#133340"/>
<path fill-rule="evenodd" clip-rule="evenodd" d="M228.8 129.365C231.108 129.336 234.259 128.152 236.759 127.698C239.259 127.243 241.759 127.623 243.118 128.531C244.483 129.44 248.88 132.85 250.32 134.82C251.759 136.79 252.895 138.684 253.428 139.971C253.956 141.259 254.942 143.76 254.942 146.259C254.942 148.758 254.563 152.093 254.26 154.669C253.956 157.245 253.807 160.201 254.26 162.777C254.713 165.352 255.246 167.928 256.835 169.367C258.424 170.807 258.578 171.717 260.092 171.792C261.611 171.867 255.47 172.473 254.031 171.034C252.592 169.595 253.199 171.792 254.26 173.61C255.321 175.429 256.835 177.777 257.139 179.748C257.443 181.718 257.533 183.326 257.032 185.824C256.408 188.94 256.27 188.988 255.102 191.272C253.951 193.512 253.428 193.99 253.577 196.794C253.732 199.597 251.583 199.589 249.712 200.761C247.836 201.934 247.894 199.941 248.246 197.832C248.598 195.723 248.187 195.295 246.37 192.795C244.552 190.294 242.308 188.237 240.336 186.117C238.369 183.994 235.773 185.127 234.105 183.915C232.437 182.701 231.834 183.081 230.773 181.036C229.712 178.989 228.193 178.762 227.516 176.868C226.834 174.973 226.077 173.079 226.301 171.186C226.53 169.291 227.591 167.161 229.03 165.494C230.469 163.827 231.455 162.623 233.044 160.881C234.638 159.139 235.848 157.775 236.605 156.185C237.362 154.593 237.442 153.229 238.727 153.532C240.017 153.835 242.288 153.987 243.882 152.624C245.47 151.26 246.686 150.957 247.518 149.215C248.35 147.473 249.266 147.415 247.753 145.701C246.239 143.986 245.002 142.628 243.297 141.98C241.586 141.332 236.847 139.524 235.36 138.771C233.867 138.019 232.06 136.713 230.914 135.312C229.768 133.913 228.121 129.373 228.803 129.365H228.8Z" fill="#133340"/>
<path fill-rule="evenodd" clip-rule="evenodd" d="M190.329 112.346C190.329 112.346 187.37 119.479 187.173 120.108C186.976 120.735 186.08 120.432 185.179 120.426C184.283 120.42 179.438 120.339 177.641 120.127C175.845 119.916 173.222 119.824 172.246 119.161C171.276 118.497 170.284 118.04 171.1 115.937C171.91 113.832 173.355 111.624 175.668 110.494C177.987 109.363 181.899 108.439 184.479 108.287C187.059 108.137 189.666 108.069 190.54 107.94C191.414 107.81 191.43 107.51 192.603 105.428C193.77 103.344 197.257 97.9667 198.989 96.2477C200.722 94.5297 205.162 89.7857 208.35 88.2947C211.538 86.8057 216.389 84.9877 219.752 85.1727C223.116 85.3557 228.249 85.7377 232.636 87.7677C237.023 89.7957 242.61 92.1337 245.493 94.4877C248.382 96.8407 251.65 100.089 253.473 103.218C255.301 106.349 257.135 110.631 257.407 114.725C257.679 118.819 257.721 122.971 257.172 126.801C256.618 130.631 256.058 133.072 255.269 135.217C254.48 137.36 253.574 139.055 253.078 139.402C252.577 139.751 252.326 139.143 251.857 138.268C251.383 137.392 252.353 137.012 248.813 133.803C245.273 130.595 244.031 128.75 241.793 128.428C239.554 128.103 237.806 128.024 235.546 128.543C233.286 129.061 231.393 129.809 229.069 129.672C226.745 129.535 225.839 129.94 222.123 127.644C218.413 125.346 214.665 123.05 212.368 121.605C210.065 120.161 205.465 117.457 202.943 116.235C200.416 115.012 196.743 113.569 195.224 113.122C193.699 112.678 190.325 112.345 190.325 112.345L190.329 112.346Z" fill="#1B92D1"/>
<path fill-rule="evenodd" clip-rule="evenodd" d="M157.364 230.92C157.742 230.446 159.326 227.115 160.077 225.55C160.834 223.985 162.588 219.407 163.419 217.026C164.256 214.643 166.553 208.845 167.859 206.14C169.165 203.437 172.768 198.563 174.32 197.033C175.871 195.505 179.848 193.116 182.401 192.3C184.954 191.482 189.043 190.251 191.085 189.634C193.132 189.018 196.805 187.98 198.431 187.224C200.057 186.468 201.576 185.773 202.482 185.102C203.383 184.428 205.478 183.4 205.137 184.463C204.796 185.528 205.03 186.03 204.657 187.33C204.279 188.629 203.655 190.757 203.372 191.718C203.095 192.679 202.525 194.13 202.444 195.6C202.364 197.069 201.948 200.038 201.975 201.117C202.002 202.195 201.82 204.854 202.002 206.378C202.188 207.9 202.498 210.138 203.244 211.06C203.99 211.983 205.59 212.768 207.898 211.556C210.201 210.345 217.061 206.997 218.762 205.942C220.457 204.887 225.804 201.472 227.579 199.731C229.354 197.991 232.382 195.317 233.432 193.841C234.482 192.367 236.396 189.679 237.163 188.381C237.925 187.08 238.624 185.12 239.002 184.445C239.38 183.771 239.935 184.713 240.628 185.761C241.321 186.809 243.117 188.649 244.375 190.214C245.638 191.779 247.131 193.388 247.611 194.364C248.096 195.343 248.704 195.96 248.704 197.094C248.709 198.23 248.31 199.168 248.699 199.759C249.083 200.351 251.471 199.818 252.281 198.91C253.097 198.001 253.48 196.98 253.672 196.068C253.869 195.158 253.859 194.125 254.354 192.968C254.844 191.812 255.911 189.817 256.284 188.532C256.657 187.246 256.662 185.675 257.398 186.097C258.134 186.519 261.183 189.041 262.793 190.223C264.397 191.404 267.319 193.388 269.275 195.084C271.231 196.78 273.843 199.222 275.112 200.54C276.375 201.86 277.687 203.93 279.019 205.777C280.351 207.624 282.415 211.374 283.267 213.985C284.125 216.595 285.261 220.182 285.794 223.221C286.332 226.258 287.207 231.76 287.297 235.037C287.393 238.313 287.803 243.891 287.643 246.852C287.489 249.814 287.446 256.09 287.403 258.994C287.355 261.9 287.659 268.483 287.542 270.582C287.425 272.679 287.169 276.455 286.327 278.753C285.49 281.053 284.962 282.44 284.061 283.343C283.155 284.246 283.006 283.212 283.24 281.525C283.475 279.839 283.757 278.132 283.794 277.005C283.831 275.88 282.755 274.618 281.075 273.696C279.396 272.773 276.629 271.263 274.572 271.18C272.52 271.095 268.996 270.927 266.565 271.095C264.134 271.263 260.733 271.514 258.889 271.935C257.045 272.354 253.228 273.15 250.84 273.864C248.446 274.576 245.344 274.483 245.339 275.732C245.328 276.979 245.126 281.644 245.126 283.955C245.121 286.266 244.838 290.276 244.646 292.823C244.454 295.372 244.198 296.703 244.102 297.853C244.011 299.003 243.915 300.089 243.745 300.737C243.574 301.387 242.034 300.687 240.68 300.023C239.321 299.361 234.459 297.423 233.052 296.744C231.645 296.066 226.666 293.375 225.061 292.42C223.451 291.465 215.29 285.989 213.781 284.895C212.273 283.801 203.802 277.463 201.803 275.566C199.804 273.671 193.583 267.588 192.853 267.048C192.123 266.507 190.726 265.006 189.649 264.146C188.567 263.284 187.208 263.405 185.944 262.205C184.686 261.003 182.031 258.076 181.045 256.789C180.064 255.502 176.919 251.335 175.778 249.704C174.632 248.073 172.27 244.605 171.663 243.121C171.055 241.639 170.469 239.837 169.819 238.251C169.174 236.665 166.972 234.35 165.56 233.613C164.147 232.878 161.85 232.012 160.464 231.769C159.078 231.524 156.988 231.397 157.362 230.922L157.364 230.92Z" fill="#99C9E7"/>
<path fill-rule="evenodd" clip-rule="evenodd" d="M265.069 337.936C265.069 337.936 263.603 339.064 260.884 339.443C258.165 339.819 254.194 339.443 254.194 339.443L244.029 337.155C232.92 336.775 221.902 336.358 209.838 335.873C190.493 335.1 173.878 334.257 174.064 333.89C174.517 332.989 176.314 329.427 176.804 328.237C177.289 327.047 178.398 324.436 178.787 322.583C179.181 320.731 179.619 316.75 179.709 315.348C179.8 313.946 179.021 310.635 178.936 309.936C178.851 309.239 179.901 309.392 180.903 309.569C181.91 309.749 194.651 310.321 194.651 310.321L194.054 309.09L198.969 308.907L172.337 276.19C172.337 276.19 174.485 276.47 176.164 277.726C177.843 278.982 180.668 281.203 182.369 283.049C184.075 284.893 190.285 291.372 192.583 294.346C194.88 297.321 201.192 305.072 203.228 307.787C205.259 310.501 208.431 314.049 210.195 316.059C211.959 318.068 220.894 327.367 223.639 329.075C226.379 330.784 230.19 333.225 232.893 334.124C235.596 335.025 240.633 336.852 243.144 337.415C245.649 337.979 248.885 338.683 251.433 338.986C253.986 339.291 261.151 339.782 262.59 339.191" fill="#99C9E7"/>
<path fill-rule="evenodd" clip-rule="evenodd" d="M329.965 96.0148C329.816 96.1538 328.739 97.0998 328.526 97.2318C328.313 97.3648 328.068 96.6068 327.966 95.7388C327.865 94.8688 328.568 87.5618 329.245 83.1878C329.917 78.8158 330.866 73.4208 332.705 70.0658C334.549 66.7108 335.567 64.5418 337.924 62.1878C340.275 59.8338 344.769 56.7448 347.85 55.0418C350.931 53.3358 356.454 50.9218 360.014 49.7838C363.575 48.6458 366.875 48.3828 369.412 48.6168C371.955 48.8498 373.762 49.0838 376.976 50.5158C380.185 51.9458 383.309 53.3178 385.734 54.9518C388.154 56.5878 391.017 58.3378 392.477 60.0608C393.932 61.7838 395.643 63.0358 396.518 66.2298C397.392 69.4228 398.288 74.0938 398.336 77.0768C398.384 80.0618 398.299 84.1458 398.443 85.1688C398.582 86.1938 398.816 86.4848 399.904 87.3478C400.991 88.2098 402.964 89.7928 404.019 90.7858C405.074 91.7778 406.599 93.7148 407.025 94.8348C407.446 95.9538 407.723 97.6828 407.142 98.1898C406.556 98.6968 406.332 99.2428 404.967 99.1468C403.608 99.0498 401.459 98.9508 400.02 98.7898C398.581 98.6298 397.147 98.9088 397.173 98.2228C397.2 97.5358 396.976 95.5868 397.029 93.9138C397.082 92.2408 396.896 90.9018 396.853 90.0358C396.805 89.1698 396.837 89.0388 395.91 88.5618C394.988 88.0858 392.925 86.3838 388.356 85.5368C383.793 84.6898 380.408 84.3038 378.036 84.5468C375.659 84.7898 370.061 85.6428 367.668 86.3758C365.28 87.1108 357.593 89.6668 354.171 90.6048C350.743 91.5418 347.987 92.2448 346.175 92.5088C344.357 92.7718 343.36 92.9178 341.719 92.7138C340.082 92.5088 338.238 92.0108 337.092 91.8358C335.951 91.6608 334.89 91.3378 334.347 91.7818C333.206 92.7178 330.115 95.8758 329.965 96.0168V96.0148Z" fill="#99C9E7"/>
<path fill-rule="evenodd" clip-rule="evenodd" d="M101.016 249.622L64.579 210.383C64.579 210.383 62.5549 208.521 63.1199 207.213C63.6829 205.903 64.9709 204.599 66.9209 204.512C68.8739 204.425 71.3739 203.943 74.0579 204.915C76.7419 205.888 81.585 207.595 83.456 208.34C85.328 209.083 87.816 210.046 89.9 210.892C91.984 211.74 96.5929 212.893 99.0319 213.418C101.47 213.945 103.554 214.739 105.219 214.736C106.882 214.734 110.676 214.547 112.666 214.251C114.655 213.956 120.689 213.167 120.689 213.167L199.346 308.77L193.733 308.948L194.895 310.483L155.726 308.409L150.806 302.958C150.806 302.958 149.692 302.412 149.138 301.914C148.584 301.417 144.602 297.189 143.306 295.707C142.005 294.225 139.239 291.819 137.891 290.361C136.542 288.902 134.098 286.079 133.598 285.437C133.098 284.793 134.225 283.918 135.516 282.894C136.809 281.868 138.468 280.164 139.874 279.329C141.281 278.493 143.579 277.949 145.05 277.745C146.521 277.538 151.196 277.534 152.763 277.579C154.33 277.624 157.203 277.873 158.493 277.62C159.778 277.367 160.823 276.954 160.695 276.053C160.567 275.15 158.408 273.504 157.625 273.047C156.836 272.588 153.856 271.893 152.305 271.789C150.748 271.682 145.274 271.545 143.531 271.555C141.788 271.563 140.402 271.563 140.045 271.053C139.693 270.546 140.264 269.153 141.948 267.956C143.632 266.758 146.346 264.985 147.785 263.699C149.23 262.412 150.786 261.116 151.143 259.95C151.506 258.785 151.553 257.164 150.072 257.33C148.595 257.496 145.935 258.223 144.432 259.199C142.924 260.176 138.338 263.511 137.178 264.247C136.02 264.983 135.337 264.958 134.575 264.311C133.815 263.664 133.055 263.161 133.271 262.31C133.488 261.459 136.251 257.012 136.854 255.787C137.456 254.562 138.496 252.613 139.036 251.135C139.576 249.659 140.045 247.874 139.821 246.91C139.592 245.947 139.283 245.033 138.236 244.874C137.188 244.716 135.963 245.04 135.102 245.927C134.242 246.815 132.467 249.577 131.519 250.809C130.574 252.041 128.496 255.519 127.587 256.535C126.678 257.552 126.41 258.619 125.71 258.831C125.012 259.043 124.238 259.225 123.744 258.835C123.252 258.443 122.692 256.689 122.862 255.024C123.034 253.359 123.603 248.601 123.763 247.021C123.923 245.44 124.248 242.245 123.798 240.688C123.35 239.131 123.182 237.194 122.158 236.897C121.135 236.602 120.357 236.754 119.941 237.445C119.524 238.136 118.216 239.778 117.96 241.397C117.701 243.016 117.15 247.579 116.893 249.271C116.634 250.963 116.415 254.09 115.899 255.341C115.384 256.593 114.905 257.255 114.39 257.511C113.875 257.77 112.05 257.153 111.239 256.207C110.429 255.261 109.744 253.116 108.945 251.38C108.146 249.644 106.9 246.905 105.842 245.609C104.783 244.313 103.284 242.757 101.871 241.868C100.459 240.978 97.7869 240.735 97.7129 241.478C97.6399 242.221 97.945 243.096 98.676 244.04C99.407 244.984 100.194 246.45 100.657 247.407C101.119 248.362 101.016 249.62 101.016 249.62V249.622Z" fill="white"/>
<path fill-rule="evenodd" clip-rule="evenodd" d="M165.264 232.935L182.978 226.126C182.978 226.126 184.161 225.26 184.748 226.008C185.34 226.755 185.931 227.777 185.734 228.684C185.537 229.589 184.631 229.903 184.002 230.297C183.373 230.69 168.73 235.808 168.73 235.808C168.73 235.808 167.669 234.982 167.157 234.588C166.645 234.194 165.265 232.934 165.265 232.934L165.264 232.935Z" fill="white"/>
<path fill-rule="evenodd" clip-rule="evenodd" d="M193.831 308.913L118.746 214.208L120.849 213.38L199.167 308.883L193.831 308.913Z" fill="white"/>
<path fill-rule="evenodd" clip-rule="evenodd" d="M103.305 214.732C102.431 214.865 94.8929 215.257 92.8689 215.298C90.8429 215.336 85.3649 214.874 82.8359 214.572C80.3089 214.271 75.1929 213.837 73.1179 213.37C71.0399 212.905 68.0609 212.712 66.3839 211.574C64.7049 210.438 63.1409 209.131 63.1209 208.036C63.1019 206.938 63.7849 205.819 65.3649 205.157C66.9449 204.493 69.5049 204.204 71.6689 204.53C73.8319 204.858 77.0019 205.809 79.0179 206.782C81.0339 207.755 86.1929 209.593 88.1549 210.284C90.1189 210.975 94.5199 212.499 96.6269 212.881C98.7319 213.263 104.177 214.599 103.305 214.733V214.732Z" fill="white"/>
<path d="M198.399 136.054H198.362C198.106 136.044 197.744 135.875 197.573 135.688C197.157 135.247 197.115 134.579 197.125 134.217C197.136 133.872 197.205 133.548 197.317 133.283C197.541 132.749 197.989 132.462 198.474 132.457C199.114 132.478 199.743 133.052 199.711 134.294C199.668 135.516 199.023 136.054 198.4 136.054H198.399Z" fill="#133340"/>
<path d="M221.145 138.915H221.124C220.484 138.894 219.855 138.32 219.893 137.078C219.904 136.717 219.984 136.048 220.426 135.633C220.613 135.458 220.986 135.284 221.236 135.318C221.876 135.339 222.505 135.913 222.473 137.153C222.462 137.515 222.377 138.184 221.94 138.599C221.759 138.771 221.402 138.916 221.146 138.916L221.145 138.915Z" fill="#133340"/>
<path d="M248.8 152.469C248.741 152.469 248.683 152.464 248.624 152.454C248.102 152.358 247.755 151.857 247.846 151.334C248.912 145.446 243.624 143.222 238.517 141.072C236.299 140.139 234.21 139.261 232.675 138.101C230.287 136.299 228.789 133.795 227.963 130.223C227.846 129.705 228.171 129.187 228.688 129.066C229.205 128.945 229.722 129.27 229.845 129.789C230.565 132.896 231.828 135.046 233.832 136.559C235.181 137.575 237.164 138.409 239.264 139.293C244.531 141.509 251.087 144.265 249.749 151.676C249.664 152.143 249.253 152.469 248.8 152.469V152.469Z" fill="#133340"/>
<path d="M184.353 143.342C183.964 143.342 183.596 143.105 183.452 142.718C182.338 139.775 182.556 136.445 184.022 134.026C185.339 131.852 187.236 130.516 189.075 129.225C190.802 128.006 192.439 126.854 193.553 125.061C194.582 123.409 195.275 121.358 196.005 119.186C196.586 117.462 197.188 115.68 197.983 114.07C198.223 113.591 198.799 113.397 199.278 113.633C199.752 113.871 199.95 114.449 199.715 114.926C198.974 116.418 198.393 118.138 197.833 119.802C197.097 121.982 196.34 124.238 195.194 126.08C193.872 128.208 191.996 129.526 190.183 130.802C188.434 132.034 186.782 133.196 185.673 135.024C184.506 136.948 184.346 139.634 185.252 142.035C185.444 142.534 185.188 143.09 184.692 143.278C184.58 143.32 184.463 143.34 184.351 143.34L184.353 143.342Z" fill="#133340"/>
<path d="M175.797 137.594C175.477 137.594 175.163 137.434 174.976 137.14C174.694 136.69 174.832 136.094 175.285 135.812C181.906 131.672 184.214 125.368 186.655 118.694C187.439 116.558 188.244 114.347 189.214 112.169C189.427 111.681 189.998 111.463 190.483 111.677C190.973 111.892 191.192 112.463 190.973 112.949C190.035 115.071 189.235 117.251 188.468 119.357C185.909 126.351 183.489 132.957 176.309 137.447C176.149 137.547 175.973 137.594 175.797 137.594V137.594Z" fill="#133340"/>
<path d="M184.465 163.562C184.305 163.562 184.14 163.523 183.991 163.437C175.419 158.606 173.666 146.683 176.917 137.948C177.103 137.449 177.658 137.198 178.159 137.381C178.655 137.568 178.911 138.123 178.724 138.622C175.819 146.424 177.365 157.489 184.94 161.756C185.404 162.018 185.569 162.606 185.308 163.069C185.132 163.384 184.802 163.561 184.466 163.561L184.465 163.562Z" fill="#133340"/>
<path d="M192.994 178.436C192.85 178.436 192.706 178.404 192.568 178.338C192.094 178.104 191.891 177.528 192.126 177.047C194.152 172.902 191.369 168.958 188.347 165.276C188 164.852 187.547 164.4 187.073 163.925C185.474 162.322 183.48 160.324 183.971 158.035C184.083 157.513 184.595 157.191 185.112 157.291C185.634 157.402 185.965 157.914 185.858 158.434C185.586 159.702 187.1 161.222 188.438 162.562C188.96 163.086 189.456 163.585 189.835 164.051C192.367 167.132 196.6 172.286 193.86 177.894C193.695 178.235 193.354 178.435 192.996 178.435L192.994 178.436Z" fill="#133340"/>
<path d="M196.437 183.276C196.218 183.276 196 183.204 195.819 183.055C195.409 182.716 195.35 182.107 195.691 181.697C196.144 181.149 196.565 180.689 196.938 180.278C198.345 178.737 198.82 178.219 198.287 176.173C198.154 175.658 198.463 175.131 198.975 174.997C199.492 174.854 200.02 175.171 200.153 175.687C200.953 178.747 199.865 179.936 198.362 181.579C198.01 181.969 197.61 182.406 197.179 182.927C196.987 183.158 196.715 183.277 196.438 183.277L196.437 183.276Z" fill="#133340"/>
<path d="M227.078 176.618C226.636 176.618 226.241 176.313 226.14 175.864L226.087 175.625C225.661 173.752 225.223 171.815 225.799 169.701C226.716 166.34 229.045 163.958 231.3 161.654C233.219 159.698 235.026 157.85 235.986 155.472C236.189 154.978 236.748 154.743 237.244 154.938C237.74 155.138 237.974 155.701 237.777 156.196C236.673 158.928 234.643 161 232.681 163.005C230.501 165.231 228.443 167.331 227.66 170.209C227.212 171.857 227.564 173.406 227.969 175.2L228.022 175.443C228.139 175.961 227.814 176.477 227.292 176.594C227.223 176.611 227.148 176.618 227.079 176.618H227.078Z" fill="#133340"/>
<path d="M235.986 185.147C235.954 185.147 235.922 185.145 235.89 185.141C230.325 184.58 228.427 178.471 229.014 172.669C229.067 172.14 229.542 171.738 230.069 171.806C230.597 171.858 230.986 172.331 230.933 172.861C230.565 176.479 231.242 182.732 236.082 183.222C236.615 183.275 236.999 183.748 236.945 184.279C236.897 184.775 236.476 185.146 235.986 185.146V185.147Z" fill="#133340"/>
<path d="M253.992 198.68C253.56 198.68 253.166 198.386 253.059 197.945C252.329 194.965 253.192 193.126 254.194 190.996C254.418 190.515 254.658 190.007 254.898 189.447C256.332 186.112 256.764 182.675 256.119 179.77C255.794 178.289 255.373 177.584 254.733 176.516C254.461 176.063 254.168 175.566 253.843 174.95C253.614 174.522 253.417 174.155 253.241 173.835C252.447 172.38 252.004 171.58 252.287 170.334C252.404 169.814 252.927 169.483 253.444 169.607C253.961 169.724 254.286 170.24 254.169 170.76C254.057 171.259 254.169 171.517 254.931 172.908C255.112 173.237 255.315 173.612 255.549 174.05C255.853 174.631 256.135 175.099 256.391 175.527C257.041 176.622 257.606 177.565 258.006 179.352C258.736 182.65 258.262 186.504 256.673 190.209C256.422 190.79 256.172 191.319 255.937 191.816C254.988 193.836 254.364 195.168 254.93 197.486C255.058 198.004 254.743 198.526 254.221 198.652C254.146 198.671 254.072 198.68 253.992 198.68V198.68Z" fill="#133340"/>
<path d="M248.427 198.621C248.358 198.621 248.288 198.614 248.214 198.596C247.697 198.479 247.372 197.961 247.489 197.443C247.878 195.713 246.332 193.974 245.085 192.577C244.664 192.104 244.168 191.588 243.635 191.033C240.81 188.105 236.945 184.094 237.905 179.884C238.022 179.366 238.539 179.034 239.062 179.159C239.579 179.276 239.904 179.794 239.787 180.314C239.062 183.505 242.506 187.082 245.022 189.695C245.576 190.268 246.093 190.803 246.525 191.293C247.986 192.931 249.985 195.173 249.372 197.869C249.271 198.317 248.871 198.621 248.428 198.621H248.427Z" fill="#133340"/>
<path d="M260.341 172.52C260.304 172.52 260.261 172.518 260.224 172.512C256.306 172.022 254.227 167.771 253.593 163.958C253.033 160.602 253.332 157.267 253.62 154.041C254.02 149.642 254.393 145.487 252.735 141.347C252.538 140.853 252.778 140.292 253.273 140.094C253.763 139.896 254.328 140.136 254.526 140.631C256.355 145.2 255.944 149.783 255.544 154.212C255.267 157.317 254.974 160.528 255.496 163.64C255.677 164.72 256.759 170.133 260.464 170.596C260.992 170.662 261.365 171.144 261.301 171.674C261.237 172.162 260.821 172.518 260.341 172.518V172.52Z" fill="#133340"/>
<path d="M382.882 112.102C382.002 112.102 381.325 111.292 381.288 110.197C381.256 109.082 381.912 108.223 382.807 108.198C383.159 108.204 383.537 108.326 383.825 108.598C384.198 108.95 384.422 109.498 384.438 110.103C384.459 110.706 384.267 111.266 383.916 111.64C383.644 111.927 383.292 112.09 382.919 112.102H382.882V112.102Z" fill="#133340"/>
<path d="M357.988 111.722C357.636 111.722 357.295 111.581 357.018 111.323C356.639 110.969 356.416 110.418 356.4 109.813C356.384 109.212 356.576 108.651 356.928 108.276C357.2 107.992 357.552 107.83 357.919 107.818C358.468 107.862 358.884 108.063 359.193 108.529C359.412 108.858 359.54 109.285 359.55 109.726C359.571 110.329 359.379 110.89 359.022 111.265C358.755 111.55 358.404 111.712 358.031 111.723H357.988V111.722Z" fill="#133340"/>
<path d="M394.529 99.2607C394.438 99.2607 394.342 99.2477 394.252 99.2197C390.073 97.9627 388.068 94.7747 386.123 91.6927C384.662 89.3697 383.282 87.1747 381.011 85.6637C380.569 85.3677 380.446 84.7707 380.744 84.3257C381.037 83.8807 381.634 83.7627 382.077 84.0577C384.689 85.7967 386.251 88.2707 387.759 90.6637C389.593 93.5747 391.325 96.3237 394.806 97.3737C395.318 97.5257 395.606 98.0647 395.451 98.5757C395.323 98.9917 394.945 99.2617 394.529 99.2617V99.2607Z" fill="#133340"/>
<path d="M393.058 108.439C392.536 108.439 392.109 108.026 392.093 107.502C391.992 104.046 391.086 101.944 389.454 99.2708C389.177 98.8148 389.321 98.2218 389.779 97.9448C390.232 97.6658 390.824 97.8108 391.101 98.2648C392.865 101.152 393.905 103.579 394.022 107.445C394.038 107.978 393.617 108.423 393.084 108.438H393.057L393.058 108.439Z" fill="#133340"/>
<path d="M395.601 106.89C395.553 106.89 395.505 106.886 395.457 106.879C394.929 106.802 394.567 106.31 394.641 105.784C394.742 105.1 394.913 104.383 395.099 103.572C395.643 101.256 396.384 98.0827 396.09 92.5997C396.037 91.6427 395.951 90.6627 395.829 89.6697C395.765 89.1397 396.138 88.6577 396.671 88.5937C397.183 88.5147 397.678 88.9047 397.742 89.4317C397.87 90.4697 397.961 91.4947 398.014 92.4977C398.323 98.2557 397.545 101.581 396.98 104.01C396.804 104.764 396.644 105.431 396.548 106.066C396.479 106.545 396.068 106.889 395.599 106.889L395.601 106.89Z" fill="#133340"/>
<path d="M339.986 107.458C339.89 107.458 339.794 107.443 339.698 107.413C339.186 107.255 338.909 106.712 339.064 106.204C339.426 105.055 340.247 104.198 341.042 103.366C341.634 102.75 342.188 102.168 342.492 101.529C342.807 100.873 343.02 100.099 343.238 99.2807C343.643 97.7927 344.059 96.2527 345.189 95.0827C345.562 94.7007 346.175 94.6907 346.554 95.0607C346.938 95.4297 346.948 96.0407 346.581 96.4247C345.792 97.2367 345.456 98.4747 345.104 99.7867C344.869 100.654 344.624 101.549 344.235 102.363C343.793 103.279 343.105 104.002 342.439 104.701C341.767 105.402 341.133 106.063 340.909 106.785C340.776 107.196 340.397 107.459 339.987 107.459L339.986 107.458Z" fill="#133340"/>
<path d="M331.42 104.266C331.393 104.266 331.361 104.264 331.335 104.263C330.802 104.214 330.413 103.744 330.461 103.215C330.589 101.797 330.232 100.396 329.853 98.9138C329.603 97.9448 329.347 96.9428 329.208 95.8708C329.139 95.3428 329.512 94.8588 330.04 94.7888C330.562 94.7138 331.053 95.0918 331.122 95.6218C331.245 96.5768 331.484 97.5208 331.719 98.4348C332.124 100.01 332.54 101.64 332.38 103.389C332.337 103.89 331.916 104.266 331.421 104.266H331.42Z" fill="#133340"/>
<path d="M101.515 250.026L65.0389 210.446C65.0389 210.446 69.8579 213.916 78.3389 214.687C86.8199 215.458 120.848 213.38 120.848 213.38L199.006 308.56L193.83 308.913" stroke="#1B3445" stroke-width="2.265" stroke-linecap="round" stroke-linejoin="round"/>
<path d="M104.266 214.301C104.266 214.301 90.002 211.892 84.605 209.097C79.208 206.302 71.208 203.025 67.546 204.664C63.884 206.302 61.132 206.563 64.58 210.384" stroke="#1B3445" stroke-width="2.265" stroke-linecap="round" stroke-linejoin="round"/>
<path d="M118.746 214.208L194.897 310.484L156.214 308.271L134.433 286.393" stroke="#1B3445" stroke-width="2.265" stroke-linecap="round" stroke-linejoin="round"/>
<path d="M115.607 278.035C115.607 278.035 112.747 270.586 109.181 266.346C105.615 262.105 99.754 245.41 98.772 243.6C97.79 241.791 98.604 239.526 100.989 241.094C103.374 242.662 106.588 245.574 108.945 251.381C111.302 257.189 113.904 258.249 113.904 258.249" stroke="#1B3445" stroke-width="2.265" stroke-linecap="round" stroke-linejoin="round"/>
<path d="M115.735 256.419C115.735 256.419 117.277 246.203 117.373 244.082C117.469 241.961 119.189 236.98 120.932 236.917C122.675 236.854 123.252 238.396 123.638 239.841C124.024 241.287 122.578 255.551 122.963 257.286C123.349 259.021 124.216 259.117 124.216 259.117" stroke="#1B3445" stroke-width="2.265" stroke-linecap="round" stroke-linejoin="round"/>
<path d="M127.012 258.057C127.012 258.057 133.844 247.198 135.102 245.929C136.361 244.66 138.095 243.022 139.059 244.757C140.023 246.492 138.697 252.46 136.854 255.789C135.011 259.118 132.505 263.647 132.505 264.997" stroke="#1B3445" stroke-width="2.265" stroke-linecap="round" stroke-linejoin="round"/>
<path d="M135.496 264.751C135.496 264.751 145.613 257.961 147.058 257.479C148.504 256.997 150.528 255.648 151.202 257.479C151.877 259.31 146.19 265.189 143.106 267.406C140.022 269.623 139.42 271.177 139.239 271.653" stroke="#1B3445" stroke-width="2.265" stroke-linecap="round" stroke-linejoin="round"/>
<path d="M142.143 271.55C142.432 271.55 152.263 271.454 155.154 272.321C158.045 273.188 159.202 272.803 160.069 274.538C160.936 276.273 160.165 277.815 160.165 277.815C160.165 277.815 146.531 276.686 143.202 278.008C139.873 279.33 134.721 285.14 132.022 285.429" stroke="#1B3445" stroke-width="2.265" stroke-linecap="round" stroke-linejoin="round"/>
<path d="M115.928 283.02C115.928 283.02 116.795 290.73 122.771 296.899C128.747 303.068 137.903 319.548 144.842 324.367C151.781 329.186 163.732 334.005 163.732 334.005" stroke="#1B3445" stroke-width="2.265" stroke-linecap="round" stroke-linejoin="round"/>
<path d="M168.936 335.257C168.936 335.257 171.345 337.088 173.273 335.064C175.201 333.04 178.574 324.559 179.152 321.571C179.73 318.583 179.661 312.863 179.661 312.863" stroke="#1B3445" stroke-width="2.265" stroke-linecap="round" stroke-linejoin="round"/>
<path d="M277.652 313.283C277.652 313.283 274.953 327.162 270.231 331.981C265.508 336.8 266.761 339.209 257.316 339.402C247.871 339.595 235.438 335.547 230.619 332.945C225.8 330.343 210.379 317.621 200.934 304.995C191.489 292.369 176.165 277.728 176.165 277.728" stroke="#1B3445" stroke-width="2.265" stroke-linecap="round" stroke-linejoin="round"/>
<path d="M189.652 264.145C189.652 264.145 203.441 277.14 210.38 282.345C217.319 287.549 228.981 295.549 235.053 297.958C241.125 300.367 250.377 303.644 254.04 308.174C257.702 312.704 258.666 315.595 258.666 315.595" stroke="#1B3445" stroke-width="2.265" stroke-linecap="round" stroke-linejoin="round"/>
<path d="M244.104 297.852C244.104 297.852 245.943 277.526 245.847 275.502" stroke="#1B3445" stroke-width="2.265" stroke-linecap="round" stroke-linejoin="round"/>
<path d="M279.002 308.946C279.002 308.946 284.11 278.201 284.014 276.273" stroke="#1B3445" stroke-width="2.265" stroke-linecap="round" stroke-linejoin="round"/>
<path d="M187.249 262.394C187.249 262.394 180.117 254.876 176.455 249.865C172.793 244.853 171.464 242.592 171.464 242.592" stroke="#1B3445" stroke-width="2.265" stroke-linecap="round" stroke-linejoin="round"/>
<path d="M169.322 237.239C169.322 237.239 165.467 232.613 159.78 231.745C154.094 230.878 151.684 229.817 149.371 230.396C147.058 230.974 144.263 233.673 143.492 234.733C142.721 235.793 142.335 237.528 142.335 237.528L141.766 238.323" stroke="#1B3445" stroke-width="2.265" stroke-linecap="round" stroke-linejoin="round"/>
<path d="M157.371 237.432C157.371 237.432 149.468 235.504 143.3 238.107" stroke="#1B3445" stroke-width="2.265" stroke-linecap="round" stroke-linejoin="round"/>
<path d="M148.119 245.143C148.119 245.143 153.613 243.505 155.637 243.986" stroke="#1B3445" stroke-width="2.265" stroke-linecap="round" stroke-linejoin="round"/>
<path d="M159.202 242.926C159.202 242.926 162.672 241.866 166.43 245.625" stroke="#1B3445" stroke-width="2.265" stroke-linecap="round" stroke-linejoin="round"/>
<path d="M165.467 252.275C165.467 252.275 164.106 250.178 161.805 251.022" stroke="#1B3445" stroke-width="2.265" stroke-linecap="round" stroke-linejoin="round"/>
<path d="M158.528 250.925C158.528 250.925 152.709 251.273 152.679 251.629" stroke="#1B3445" stroke-width="2.265" stroke-linecap="round" stroke-linejoin="round"/>
<path d="M161.13 257.19L157.757 257.865" stroke="#1B3445" stroke-width="2.265" stroke-linecap="round" stroke-linejoin="round"/>
<path d="M168.873 236.601L183.972 230.686" stroke="#1B3445" stroke-width="2.265" stroke-linecap="round" stroke-linejoin="round"/>
<path d="M185.734 228.684L184.747 226.008" stroke="#1B3445" stroke-width="2.265" stroke-linecap="round" stroke-linejoin="round"/>
<path d="M182.237 226.445L164.889 233.192" stroke="#1B3445" stroke-width="2.265" stroke-linecap="round" stroke-linejoin="round"/>
<path d="M177.225 219.024C177.225 219.024 177.707 225 176.165 227.987" stroke="#1B3445" stroke-width="2.265" stroke-linecap="round" stroke-linejoin="round"/>
<path d="M201.995 185.291C201.995 185.291 180.792 190.014 176.358 195.314C171.925 200.615 168.069 206.012 163.925 216.71C159.781 227.408 157.364 230.92 157.364 230.92" stroke="#1B3445" stroke-width="2.265" stroke-linecap="round" stroke-linejoin="round"/>
<path d="M202.573 192.23C202.573 192.23 200.204 210.421 204.135 212.024C208.066 213.627 235.053 198.206 237.366 187.701" stroke="#1B3445" stroke-width="2.265" stroke-linecap="round" stroke-linejoin="round"/>
<path d="M203.44 188.953C203.44 188.953 207.488 175.171 204.115 169.87" stroke="#1B3445" stroke-width="2.265" stroke-linecap="round" stroke-linejoin="round"/>
<path d="M240.45 145.968C240.45 145.968 242.859 144.233 244.402 144.619" stroke="#1B3445" stroke-width="2.265" stroke-linecap="round" stroke-linejoin="round"/>
<path d="M237.269 153.004C237.847 153.39 244.979 155.028 248.545 148.185" stroke="#1B3445" stroke-width="2.265" stroke-linecap="round" stroke-linejoin="round"/>
<path d="M228.017 161.485C228.017 161.485 218.572 173.051 204.79 169.966C191.008 166.882 187.731 147.124 189.562 138.257" stroke="#1B3445" stroke-width="2.265" stroke-linecap="round" stroke-linejoin="round"/>
<path d="M197.733 120.736C197.733 120.736 202.669 120.235 203.826 122.163" stroke="#1B3445" stroke-width="2.265" stroke-linecap="round" stroke-linejoin="round"/>
<path d="M207.777 134.21C207.777 134.21 207.584 138.451 205.849 139.896C204.114 141.341 202.668 143.269 203.632 144.233" stroke="#1B3445" stroke-width="2.265" stroke-linecap="round" stroke-linejoin="round"/>
<path d="M198.543 153.095L214.235 154.353C214.235 154.353 204.441 164.27 198.543 153.095Z" stroke="#1B3445" stroke-width="2.265" stroke-linecap="round" stroke-linejoin="round"/>
<path d="M241.703 127.656C241.703 127.656 232.74 129.198 230.33 129.294C227.921 129.39 220.596 125.921 215.295 122.644C209.994 119.367 182.719 104.139 172.888 116.283" stroke="#1B3445" stroke-width="2.265" stroke-linecap="round" stroke-linejoin="round"/>
<path d="M187.441 120.717C187.441 120.717 174.112 121.748 172.247 119.161C170.382 116.574 170.382 114.453 171.635 112.911C172.888 111.369 177.707 107.899 182.622 107.803C187.537 107.707 201.32 106.936 214.234 110.791C227.149 114.646 248.641 132.765 251.918 137.295" stroke="#1B3445" stroke-width="2.265" stroke-linecap="round" stroke-linejoin="round"/>
<path d="M252.185 139.71C252.185 139.71 256.352 135.367 257.509 127.56C258.666 119.753 258.087 103.272 248.931 96.8147C239.775 90.3577 229.944 83.7067 217.704 85.1527C205.464 86.5987 195.055 99.3207 191.392 107.32" stroke="#1B3445" stroke-width="2.265" stroke-linecap="round" stroke-linejoin="round"/>
<path d="M245.085 227.001C245.085 227.001 241.093 250.572 240.579 259.31C240.065 268.048 238.71 276.186 238.71 276.186C238.71 276.186 289.924 262.618 283.242 281.525" stroke="#1B3445" stroke-width="2.265" stroke-linecap="round" stroke-linejoin="round"/>
<path d="M257.655 186.37C257.655 186.37 274.177 195.2 280.124 208.879" stroke="#1B3445" stroke-width="2.265" stroke-linecap="round" stroke-linejoin="round"/>
<path d="M282.985 215.361C282.985 215.361 289.77 242.076 288.433 255.576C287.097 269.076 288.125 274.987 286.84 277.557" stroke="#1B3445" stroke-width="2.265" stroke-linecap="round" stroke-linejoin="round"/>
<path d="M333.231 110.372C333.231 110.372 335.608 111.85 336.444 114.484" stroke="#1B3445" stroke-width="2.265" stroke-linecap="round" stroke-linejoin="round"/>
<path d="M337.343 108.894C337.343 108.894 334.901 102.918 332.074 103.882C329.247 104.846 328.412 107.93 330.146 113.391C331.881 118.852 336.314 120.78 337.921 121.101" stroke="#1B3445" stroke-width="2.265" stroke-linecap="round" stroke-linejoin="round"/>
<path d="M353.92 100.22C353.92 100.22 359.51 96.879 363.044 100.027" stroke="#1B3445" stroke-width="2.265" stroke-linecap="round" stroke-linejoin="round"/>
<path d="M378.272 100.156C378.272 100.156 382.898 96.3646 387.203 100.156" stroke="#1B3445" stroke-width="2.265" stroke-linecap="round" stroke-linejoin="round"/>
<path d="M373.646 109.408C373.646 109.408 371.911 113.97 374.417 117.118C376.923 120.266 373.453 121.294 373.453 121.294" stroke="#1B3445" stroke-width="2.265" stroke-linecap="round" stroke-linejoin="round"/>
<path d="M362.53 129.198C362.53 129.198 375.509 132.475 380.328 129.712C380.328 129.712 372.607 143.773 362.332 129.353" stroke="#1B3445" stroke-width="2.265" stroke-linecap="round" stroke-linejoin="round"/>
<path d="M338.692 125.793C338.692 125.793 341.069 141.985 332.459 152.522" stroke="#1B3445" stroke-width="2.265" stroke-linecap="round" stroke-linejoin="round"/>
<path d="M394.711 108.773C394.711 108.773 396.778 107.61 397.484 110.63C398.191 113.65 397.677 120.461 393.565 123.224" stroke="#1B3445" stroke-width="2.265" stroke-linecap="round" stroke-linejoin="round"/>
<path d="M393.372 117.761C393.372 117.761 393.308 130.612 387.461 138.643C381.614 146.675 377.887 149.887 368.892 150.401C359.897 150.915 350.194 143.14 347.303 134.209" stroke="#1B3445" stroke-width="2.265" stroke-linecap="round" stroke-linejoin="round"/>
<path d="M328.284 97.5219C328.284 97.5219 341.52 83.4509 352.7 80.8809C363.88 78.3109 376.988 74.0059 389.838 80.6879C402.688 87.3699 406.863 92.8509 407.024 94.8329C407.186 96.8149 409.242 101.313 396.841 98.8709" stroke="#1B3445" stroke-width="2.265" stroke-linecap="round" stroke-linejoin="round"/>
<path d="M397.291 96.0441C397.291 96.0441 403.331 97.7151 403.909 96.4941C404.487 95.2731 403.523 92.7671 398.255 90.0041C392.986 87.2411 385.212 83.5141 375.06 85.1211C364.908 86.7271 351.029 93.6671 345.761 92.7671C340.492 91.8671 335.288 91.4181 335.288 91.4181" stroke="#1B3445" stroke-width="2.265" stroke-linecap="round" stroke-linejoin="round"/>
<path d="M327.834 96.7508C327.963 96.1728 329.248 76.5758 332.075 71.2428C334.902 65.9098 342.484 56.7218 350.194 53.7018C357.904 50.6818 367.35 47.1478 377.437 51.3248C387.525 55.5008 392.922 57.3648 395.813 64.8818C398.704 72.3998 398.255 84.8648 398.255 84.8648" stroke="#1B3445" stroke-width="2.265" stroke-linecap="round" stroke-linejoin="round"/>
<path d="M333.488 152.137C333.488 152.137 339.142 174.368 362.402 173.34" stroke="#1B3445" stroke-width="2.265" stroke-linecap="round" stroke-linejoin="round"/>
<path d="M377.822 149.052C377.822 149.052 377.308 161.903 383.605 165.115C383.605 165.115 375.766 171.026 369.084 171.797" stroke="#1B3445" stroke-width="2.265" stroke-linecap="round" stroke-linejoin="round"/>
<path d="M485.639 175.846H334.516V303.259H485.639V175.846Z" stroke="#1B3445" stroke-width="2.265" stroke-linecap="round" stroke-linejoin="round"/>
<path d="M334.516 175.846L326.121 183.429L327.342 317.762" stroke="#1B3445" stroke-width="2.265" stroke-linecap="round" stroke-linejoin="round"/>
<path d="M335.29 303.183L328.387 316.497" stroke="#1B3445" stroke-width="2.265" stroke-linecap="round" stroke-linejoin="round"/>
<path d="M485.639 303.259L474.419 317.998H447.858" stroke="#1B3445" stroke-width="2.265" stroke-linecap="round" stroke-linejoin="round"/>
<path d="M381.935 326.776C381.935 326.776 382.963 319.194 382.064 315.982C381.164 312.769 379.473 310.766 380.522 309.428C381.571 308.09 383.606 308.271 385.405 309.557C387.204 310.842 389.26 318.681 393.244 320.223" stroke="#1B3445" stroke-width="2.265" stroke-linecap="round" stroke-linejoin="round"/>
<path d="M398.383 321.764C398.383 321.764 402.999 320.362 407.887 319.585C412.775 318.808 422.542 312.126 427.425 311.098C432.308 310.07 436.934 308.528 438.348 309.941C439.762 311.354 437.834 314.053 435.135 315.21C432.436 316.367 422.927 320.479 419.843 322.406C416.759 324.333 409.563 327.161 408.149 327.932" stroke="#1B3445" stroke-width="2.265" stroke-linecap="round" stroke-linejoin="round"/>
<path d="M414.832 331.659C414.832 331.659 437.706 319.836 442.332 317.395C446.958 314.954 451.456 312.897 449.657 311.741C447.858 310.584 439.891 311.87 439.891 311.87" stroke="#1B3445" stroke-width="2.265" stroke-linecap="round" stroke-linejoin="round"/>
<path d="M448.555 315.182C448.555 315.182 449.271 314.825 449.143 315.982C449.087 316.484 443.306 319.898 436.786 323.598C428.299 328.414 418.559 333.716 418.559 333.716" stroke="#1B3445" stroke-width="2.265" stroke-linecap="round" stroke-linejoin="round"/>
<path d="M437.064 325.105L423.438 335.956C423.438 335.956 418.688 337.827 415.604 337.955L400.697 337.055" stroke="#1B3445" stroke-width="2.265" stroke-linecap="round" stroke-linejoin="round"/>
<path d="M396.584 336.799C396.584 336.799 365.357 343.224 353.021 347.336C340.684 351.448 326.934 354.532 322.051 353.504C317.168 352.476 304.96 341.938 304.96 341.938" stroke="#1B3445" stroke-width="2.265" stroke-linecap="round" stroke-linejoin="round"/>
<path d="M315.626 322.664C315.626 322.664 324.493 318.038 332.717 318.038C332.717 318.038 371.911 319.066 374.995 319.066" stroke="#1B3445" stroke-width="2.265" stroke-linecap="round" stroke-linejoin="round"/>
<path d="M289.668 291.051C289.668 291.051 289.925 326.005 302.133 338.084" stroke="#1B3445" stroke-width="2.265" stroke-linecap="round" stroke-linejoin="round"/>
<path d="M326.934 287.967C326.934 287.967 296.221 282.441 285.812 288.353" stroke="#1B3445" stroke-width="2.265" stroke-linecap="round" stroke-linejoin="round"/>
<path d="M284.913 215.747C284.913 215.747 288.638 195.841 302.518 183.621C316.398 171.4 330.661 154.836 330.661 154.836" stroke="#1B3445" stroke-width="2.265" stroke-linecap="round" stroke-linejoin="round"/>
<path d="M383.605 165.116C383.605 165.116 389.678 167.665 396.752 170.719C400.568 172.367 404.675 174.161 408.278 175.782" stroke="#1B3445" stroke-width="2.265" stroke-linecap="round" stroke-linejoin="round"/>
<path d="M464.385 237.837H401.352V266.804H464.385V237.837Z" stroke="#1B3445" stroke-width="2.265" stroke-linecap="round" stroke-linejoin="round"/>
<path d="M401.352 277.175H456.448" stroke="#1B3445" stroke-width="2.265" stroke-linecap="round" stroke-linejoin="round"/>
<path d="M401.352 285.691H443.181" stroke="#1B3445" stroke-width="2.265" stroke-linecap="round" stroke-linejoin="round"/>
<path d="M180.842 67.2441C180.522 67.2441 180.204 67.1091 179.982 66.8461C179.58 66.3711 179.638 65.6601 180.113 65.2581C180.113 65.2581 180.612 64.8341 181.548 64.1091C182.039 63.7271 182.747 63.8171 183.129 64.3091C183.51 64.8011 183.421 65.5081 182.929 65.8901C182.054 66.5691 181.581 66.9681 181.571 66.9771C181.359 67.1561 181.1 67.2441 180.843 67.2441H180.842ZM185.827 63.4931C185.472 63.4931 185.121 63.3251 184.902 63.0111C184.546 62.5011 184.671 61.7981 185.18 61.4421C185.647 61.1161 186.142 60.7761 186.666 60.4241C187.184 60.0771 187.883 60.2141 188.23 60.7311C188.577 61.2481 188.439 61.9481 187.922 62.2951C187.41 62.6391 186.925 62.9721 186.47 63.2901C186.274 63.4271 186.048 63.4931 185.825 63.4931H185.827ZM191.036 60.0801C190.657 60.0801 190.288 59.8891 190.075 59.5431C189.749 59.0131 189.915 58.3191 190.445 57.9931C190.943 57.6871 191.457 57.3781 191.983 57.0651C192.518 56.7471 193.211 56.9241 193.527 57.4591C193.845 57.9941 193.669 58.6861 193.133 59.0031C192.616 59.3091 192.112 59.6131 191.624 59.9131C191.44 60.0261 191.236 60.0801 191.035 60.0801H191.036ZM196.433 56.9781C196.031 56.9781 195.642 56.7621 195.439 56.3831C195.145 55.8351 195.351 55.1521 195.9 54.8581C196.421 54.5781 196.953 54.3001 197.494 54.0221C198.046 53.7371 198.726 53.9561 199.011 54.5101C199.296 55.0631 199.077 55.7431 198.524 56.0271C197.995 56.2991 197.475 56.5721 196.965 56.8451C196.796 56.9361 196.613 56.9791 196.434 56.9791L196.433 56.9781ZM202.007 54.2101C201.579 54.2101 201.171 53.9661 200.982 53.5521C200.723 52.9861 200.971 52.3171 201.538 52.0591C202.079 51.8111 202.628 51.5671 203.183 51.3261C203.756 51.0771 204.419 51.3401 204.665 51.9111C204.913 52.4821 204.651 53.1461 204.081 53.3931C203.538 53.6281 203.003 53.8671 202.476 54.1081C202.324 54.1781 202.164 54.2111 202.008 54.2111L202.007 54.2101ZM207.751 51.8181C207.295 51.8181 206.865 51.5391 206.696 51.0871C206.477 50.5041 206.772 49.8551 207.355 49.6361C207.914 49.4261 208.479 49.2211 209.05 49.0211C209.639 48.8161 210.279 49.1241 210.487 49.7121C210.693 50.2991 210.383 50.9421 209.797 51.1481C209.241 51.3431 208.692 51.5421 208.147 51.7461C208.017 51.7951 207.883 51.8181 207.751 51.8181ZM245.997 49.9331C245.873 49.9331 245.747 49.9121 245.623 49.8691C245.074 49.6761 244.526 49.4951 243.977 49.3261C243.382 49.1431 243.049 48.5121 243.232 47.9171C243.415 47.3231 244.046 46.9891 244.641 47.1721C245.217 47.3501 245.794 47.5401 246.37 47.7431C246.957 47.9501 247.266 48.5931 247.058 49.1801C246.895 49.6431 246.46 49.9331 245.996 49.9331H245.997ZM213.654 49.8601C213.165 49.8601 212.714 49.5381 212.572 49.0441C212.4 48.4461 212.746 47.8221 213.343 47.6501C213.919 47.4841 214.501 47.3251 215.086 47.1721C215.695 47.0151 216.303 47.3761 216.461 47.9781C216.617 48.5801 216.257 49.1961 215.654 49.3531C215.087 49.5011 214.524 49.6551 213.966 49.8161C213.862 49.8461 213.757 49.8601 213.654 49.8601V49.8601ZM219.702 48.4091C219.172 48.4091 218.7 48.0341 218.597 47.4941C218.48 46.8831 218.88 46.2921 219.492 46.1751C220.084 46.0621 220.678 45.9561 221.274 45.8591C221.896 45.7581 222.467 46.1771 222.567 46.7911C222.667 47.4051 222.25 47.9841 221.635 48.0841C221.06 48.1781 220.486 48.2791 219.915 48.3881C219.844 48.4021 219.772 48.4081 219.702 48.4081V48.4091ZM240.009 48.2831C239.935 48.2831 239.86 48.2761 239.784 48.2611C239.216 48.1461 238.646 48.0421 238.079 47.9501C237.465 47.8501 237.048 47.2721 237.147 46.6571C237.247 46.0431 237.818 45.6231 238.44 45.7251C239.037 45.8221 239.633 45.9301 240.231 46.0511C240.84 46.1741 241.235 46.7691 241.112 47.3791C241.004 47.9141 240.534 48.2831 240.008 48.2831H240.009ZM225.86 47.5501C225.281 47.5501 224.789 47.1071 224.738 46.5191C224.685 45.8991 225.144 45.3531 225.764 45.3001C226.366 45.2481 226.968 45.2061 227.574 45.1741C228.189 45.1481 228.727 45.6181 228.76 46.2391C228.793 46.8601 228.317 47.3911 227.696 47.4241C227.114 47.4551 226.535 47.4961 225.959 47.5451C225.926 47.5481 225.894 47.5491 225.861 47.5491L225.86 47.5501ZM233.85 47.4621C233.825 47.4621 233.799 47.4621 233.773 47.4591C233.194 47.4201 232.616 47.3921 232.039 47.3731C231.417 47.3531 230.929 46.8331 230.948 46.2111C230.967 45.6011 231.468 45.1191 232.073 45.1191C232.086 45.1191 232.097 45.1191 232.109 45.1191C232.713 45.1381 233.319 45.1681 233.925 45.2091C234.546 45.2511 235.015 45.7881 234.973 46.4091C234.933 47.0041 234.438 47.4601 233.85 47.4601V47.4621Z" fill="#1B3445"/>
<path d="M318.02 149.746C317.889 149.746 317.756 149.723 317.627 149.675C317.067 149.467 316.507 149.252 315.944 149.029C315.366 148.8 315.083 148.145 315.311 147.566C315.54 146.987 316.198 146.705 316.774 146.933C317.321 147.15 317.868 147.359 318.412 147.562C318.996 147.779 319.293 148.428 319.075 149.011C318.907 149.465 318.476 149.745 318.019 149.745L318.02 149.746ZM312.271 147.368C312.114 147.368 311.955 147.335 311.802 147.265C311.258 147.015 310.715 146.759 310.171 146.495C309.611 146.223 309.378 145.549 309.65 144.989C309.921 144.429 310.597 144.196 311.156 144.468C311.684 144.725 312.214 144.974 312.742 145.217C313.307 145.477 313.556 146.145 313.297 146.711C313.108 147.125 312.698 147.368 312.272 147.368H312.271ZM306.728 144.547C306.54 144.547 306.35 144.5 306.175 144.401C305.652 144.106 305.131 143.803 304.613 143.493C304.079 143.173 303.906 142.481 304.225 141.947C304.543 141.413 305.237 141.239 305.771 141.56C306.272 141.86 306.777 142.153 307.283 142.439C307.825 142.745 308.016 143.432 307.711 143.974C307.504 144.341 307.122 144.547 306.729 144.547H306.728ZM301.462 141.244C301.239 141.244 301.015 141.178 300.818 141.041C300.325 140.697 299.837 140.345 299.352 139.986C298.852 139.615 298.748 138.909 299.12 138.41C299.489 137.91 300.195 137.805 300.696 138.177C301.163 138.524 301.634 138.862 302.107 139.193C302.618 139.549 302.743 140.252 302.386 140.762C302.167 141.076 301.817 141.244 301.461 141.244H301.462ZM296.566 137.423C296.302 137.423 296.039 137.331 295.825 137.145C295.37 136.748 294.921 136.342 294.478 135.927C294.023 135.502 293.999 134.789 294.424 134.334C294.851 133.879 295.565 133.857 296.017 134.281C296.442 134.678 296.871 135.066 297.307 135.447C297.776 135.856 297.824 136.568 297.414 137.037C297.191 137.292 296.879 137.423 296.565 137.423H296.566ZM292.142 133.06C291.832 133.06 291.525 132.933 291.302 132.684C290.9 132.234 290.504 131.776 290.114 131.308C289.717 130.83 289.781 130.119 290.26 129.721C290.737 129.322 291.448 129.388 291.847 129.866C292.219 130.313 292.597 130.752 292.982 131.182C293.397 131.646 293.357 132.358 292.893 132.773C292.678 132.965 292.41 133.06 292.142 133.06V133.06ZM288.314 128.168C287.953 128.168 287.598 127.995 287.38 127.674C287.041 127.174 286.71 126.666 286.387 126.148C286.058 125.62 286.218 124.925 286.746 124.596C287.274 124.267 287.969 124.427 288.299 124.955C288.607 125.448 288.922 125.933 289.245 126.408C289.595 126.923 289.46 127.624 288.945 127.973C288.752 128.105 288.531 128.168 288.313 128.168H288.314ZM285.19 122.8C284.774 122.8 284.374 122.569 284.178 122.17C283.911 121.629 283.655 121.079 283.406 120.521C283.154 119.952 283.41 119.286 283.979 119.034C284.547 118.78 285.212 119.038 285.466 119.606C285.701 120.138 285.946 120.661 286.199 121.176C286.474 121.734 286.244 122.41 285.685 122.685C285.526 122.764 285.356 122.801 285.189 122.801L285.19 122.8ZM282.84 117.051C282.367 117.051 281.927 116.751 281.771 116.278C281.582 115.707 281.403 115.128 281.233 114.54C281.059 113.942 281.404 113.317 282.002 113.144C282.595 112.972 283.224 113.314 283.398 113.913C283.56 114.473 283.731 115.025 283.911 115.569C284.107 116.16 283.787 116.797 283.196 116.993C283.078 117.032 282.959 117.05 282.842 117.05L282.84 117.051ZM281.284 111.039C280.754 111.039 280.282 110.664 280.179 110.124C280.066 109.535 279.963 108.939 279.869 108.335C279.773 107.72 280.194 107.144 280.809 107.048C281.434 106.954 282 107.374 282.095 107.988C282.185 108.566 282.283 109.136 282.391 109.7C282.508 110.311 282.108 110.902 281.496 111.019C281.425 111.033 281.353 111.039 281.283 111.039H281.284ZM280.487 104.88C279.901 104.88 279.407 104.427 279.364 103.834C279.321 103.237 279.287 102.634 279.263 102.023C279.239 101.401 279.723 100.877 280.345 100.853C280.938 100.828 281.491 101.313 281.515 101.935C281.538 102.521 281.571 103.1 281.612 103.672C281.657 104.293 281.189 104.832 280.569 104.877C280.542 104.879 280.514 104.88 280.487 104.88V104.88ZM280.374 98.6661C280.361 98.6661 280.35 98.6661 280.337 98.6661C279.716 98.6461 279.228 98.1261 279.247 97.5041C279.266 96.9081 279.293 96.3061 279.329 95.6981C279.366 95.0771 279.908 94.6081 280.52 94.6391C281.141 94.6761 281.615 95.2091 281.579 95.8301C281.545 96.4181 281.517 96.9992 281.499 97.5752C281.48 98.1852 280.979 98.6661 280.374 98.6661V98.6661Z" fill="#1B3445"/>
<path d="M425.41 131.722C425.533 132.006 425.538 132.339 425.398 132.642C425.144 133.19 424.88 133.734 424.606 134.278C424.324 134.832 423.647 135.055 423.091 134.773C422.536 134.493 422.315 133.815 422.595 133.259C422.858 132.74 423.111 132.219 423.354 131.696C423.615 131.131 424.285 130.885 424.85 131.147C425.112 131.268 425.305 131.477 425.411 131.723L425.41 131.722ZM422.436 137.176C422.579 137.508 422.561 137.902 422.352 138.229C422.027 138.738 421.692 139.244 421.345 139.746C420.991 140.257 420.289 140.386 419.777 140.031C419.266 139.676 419.137 138.975 419.491 138.463C419.822 137.985 420.142 137.504 420.45 137.018C420.784 136.493 421.481 136.339 422.006 136.673C422.203 136.798 422.349 136.976 422.435 137.176H422.436ZM418.746 142.172C418.911 142.554 418.857 143.013 418.569 143.351C418.178 143.81 417.775 144.264 417.361 144.714C416.939 145.171 416.226 145.2 415.768 144.777C415.309 144.356 415.283 143.643 415.704 143.185C416.099 142.758 416.482 142.326 416.855 141.889C417.258 141.415 417.97 141.359 418.444 141.763C418.579 141.878 418.681 142.019 418.747 142.172H418.746ZM414.399 146.608C414.586 147.042 414.486 147.565 414.113 147.896C413.664 148.296 413.203 148.69 412.731 149.079C412.251 149.476 411.541 149.407 411.145 148.927C410.752 148.451 410.817 147.738 411.298 147.341C411.748 146.97 412.187 146.594 412.615 146.214C413.08 145.8 413.792 145.841 414.206 146.306C414.288 146.399 414.353 146.501 414.399 146.609V146.608ZM409.496 150.419C409.706 150.906 409.549 151.488 409.094 151.797C408.598 152.134 408.091 152.465 407.574 152.79C407.047 153.122 406.352 152.963 406.02 152.437C405.686 151.901 405.847 151.214 406.374 150.883C406.869 150.572 407.353 150.255 407.828 149.933C408.343 149.583 409.043 149.717 409.393 150.232C409.434 150.292 409.468 150.355 409.496 150.419V150.419ZM404.157 153.592C404.389 154.13 404.169 154.763 403.642 155.038C403.111 155.314 402.57 155.585 402.02 155.848C401.459 156.117 400.786 155.88 400.517 155.318C400.259 154.784 400.485 154.084 401.046 153.815C401.574 153.561 402.093 153.302 402.603 153.038C403.155 152.751 403.836 152.966 404.123 153.518C404.136 153.542 404.147 153.567 404.158 153.592H404.157ZM398.497 156.159C398.502 156.171 398.506 156.182 398.511 156.193C398.739 156.771 398.455 157.425 397.876 157.654C397.322 157.873 396.758 158.087 396.185 158.295C395.6 158.507 394.954 158.195 394.741 157.621C394.528 157.036 394.83 156.39 395.415 156.177C395.968 155.975 396.513 155.77 397.049 155.559C397.616 155.334 398.257 155.603 398.497 156.159Z" fill="#1B3445"/>
<path d="M563.622 37.7837L555.34 41.3017" stroke="#BDDDF5" stroke-width="1.879" stroke-linecap="round" stroke-linejoin="round"/>
<path d="M566.664 51.6859L558.32 48.3169" stroke="#BDDDF5" stroke-width="1.879" stroke-linecap="round" stroke-linejoin="round"/>
<path d="M555.729 25.9429L552.36 34.2869" stroke="#BDDDF5" stroke-width="1.879" stroke-linecap="round" stroke-linejoin="round"/>
</g>
<defs>
<clipPath id="clip0_1_2362">
<rect width="568" height="355" fill="white"/>
</clipPath>
</defs>
</svg>
