<svg width="379" height="22" viewBox="0 0 379 22" fill="none" xmlns="http://www.w3.org/2000/svg">
<path d="M378.317 15.0124C377.901 14.7443 377.589 14.351 377.16 14.0888C376.066 13.4095 374.93 12.766 373.808 12.1164C372.111 12.2714 370.588 11.4371 368.96 11.4133C366.19 11.3716 363.6 10.2632 360.795 10.5552C360.428 10.5969 360.027 10.3526 359.632 10.2573C357.132 9.6614 354.639 9.0655 351.979 9.17871C350.594 9.2383 349.209 9.3694 347.893 8.80927C345.615 7.84394 343.163 7.68902 340.656 7.74265C338.579 7.79032 336.501 7.74265 334.423 7.74265C333.603 7.72855 332.788 7.62238 331.999 7.42683C329.506 6.83094 327.027 6.08608 324.381 6.36019C323.421 6.52978 322.426 6.49294 321.486 6.25293C319.076 5.34123 316.583 5.73451 314.125 5.61533C313.301 5.57958 312.359 5.69875 311.687 5.38889C310.489 4.82876 309.27 4.94794 308.044 4.9241C306.098 4.89431 304.145 4.92411 302.199 4.88835C301.507 4.88835 300.662 5.04329 300.163 4.76322C299.007 4.11967 297.774 4.26864 296.548 4.16734C295.866 4.13052 295.195 3.99973 294.56 3.78C294.19 3.63419 293.787 3.55874 293.38 3.55874C292.972 3.55874 292.569 3.63419 292.199 3.78C290.204 4.41163 290.184 4.37589 287.517 3.65487C286.983 3.54036 286.433 3.48825 285.883 3.49993C282.129 3.49993 278.376 3.49994 274.622 3.45823C273.93 3.45823 273.092 3.6072 272.593 3.32714C271.298 2.60612 269.92 2.7968 268.555 2.78488C265.917 2.78488 263.271 2.78487 260.633 2.74316C259.807 2.74477 258.982 2.67087 258.174 2.52269C255.252 1.86724 252.183 1.86724 249.261 2.52269C248.028 2.78488 246.74 2.95173 245.612 2.46906C244.483 1.98639 243.465 2.09365 242.377 2.02215C240.604 1.90893 238.79 2.24858 237.093 1.42626C236.832 1.36663 236.56 1.35384 236.293 1.38869C236.026 1.42355 235.771 1.5053 235.542 1.62886C234.922 1.9022 234.242 2.05751 233.546 2.08425C232.851 2.11098 232.157 2.00851 231.511 1.7838C230.673 1.53948 230.015 1.28921 229.233 1.7838C229.121 1.85255 228.992 1.89756 228.856 1.91516C228.72 1.93277 228.581 1.92246 228.45 1.88509C226.511 0.883999 224.385 1.36071 222.349 1.33092C217.626 1.26537 212.896 1.33092 208.166 1.29517C206.088 1.29517 204.01 1.64078 202.064 0.669484C201.746 0.508595 201.247 0.609892 200.832 0.609892C198.754 0.609892 196.676 0.580098 194.599 0.609892C194.056 0.606393 193.518 0.69973 193.02 0.884003C192.528 1.08065 192.189 1.58714 191.697 1.70036C191.496 1.74803 191.094 1.10448 190.762 0.824411C190.674 0.736974 190.55 0.681623 190.416 0.669484C188.338 0.723114 186.302 0.258319 184.266 1.00913C182.964 1.43117 181.525 1.41629 180.235 0.967427C178.255 0.371542 176.212 0.121271 174.453 1.61098C174.154 1.86873 173.754 2.02271 173.332 2.04359C172.909 2.06447 172.492 1.95079 172.16 1.7242C170.346 0.687363 168.331 0.532431 166.218 0.586061C163.753 0.663526 161.225 0.359616 159.051 1.82549C158.554 2.02726 157.985 2.05504 157.465 1.90296C153.593 1.06276 153.6 1.05681 149.043 1.90296C148.653 1.93641 148.259 1.88944 147.894 1.76592C145.586 1.28356 143.205 1.11467 140.837 1.26537C139.313 1.36071 137.776 1.26537 136.252 1.34879C134.174 1.46797 132.097 1.00318 130.088 1.71824C128.08 2.4333 125.933 1.83742 123.911 2.0579C123.385 2.11749 122.907 2.4333 122.38 2.5346C121.854 2.6359 121.141 2.83851 120.788 2.63591C119.243 1.77187 117.574 2.04002 115.94 2.04002C114.555 2.04002 113.17 2.04002 111.785 2.04002H107.629C106.383 2.04002 105.129 2.04003 103.876 2.08174C102.491 2.12345 101.105 1.80166 99.8519 2.59419C98.6123 1.87317 97.1996 2.05195 95.8353 2.04599C93.3352 2.04599 90.8282 2.04597 88.3281 2.08768C86.5621 2.1294 84.706 1.6527 83.0647 2.65378C82.9427 2.70812 82.8074 2.73647 82.6701 2.73647C82.5327 2.73647 82.3973 2.70812 82.2753 2.65378C81.1049 1.92084 80.0799 2.14728 78.8125 2.61207C77.7715 2.93919 76.6265 2.92221 75.5992 2.5644C74.4363 2.19153 73.1947 2.03513 71.9564 2.10556C68.4937 2.10556 65.031 2.10556 61.5267 2.10556C60.8342 2.10556 60.0377 1.93872 59.4491 2.16515C56.9144 3.1722 54.2689 2.6359 51.6718 2.76104C50.988 2.83698 50.2928 2.7737 49.6426 2.57632C48.8991 2.26484 48.0841 2.1005 47.2572 2.09534C46.4303 2.09019 45.6127 2.24435 44.8641 2.54653C44.2104 2.73154 43.5215 2.8064 42.835 2.767C38.5204 2.767 34.2127 2.85639 29.9051 2.767C25.5975 2.67762 21.0961 3.14241 16.7053 2.17112C14.6668 1.72072 12.5068 1.93288 10.6387 2.767C8.08317 2.64187 5.86701 3.72638 3.51929 4.31034C2.72784 4.51518 2.04438 4.95148 1.58707 5.54383C0.527478 7.06334 -0.255048 8.70202 0.0773724 10.5552C0.0914882 10.7916 0.179975 11.0202 0.333525 11.2166C1.76709 12.6587 3.1591 14.1961 5.35446 14.8337C5.85309 14.9826 6.58722 15.1614 6.94041 14.9648C8.48478 14.0948 10.1607 14.4404 11.7882 14.3689C13.4157 14.2974 15.2509 14.6251 16.7537 14.1722C18.3244 13.7603 19.9596 13.5594 21.6015 13.5763C22.0137 13.6242 22.4332 13.5896 22.8273 13.4751C24.6348 12.5157 26.657 13.1652 28.5131 12.8315C30.366 12.3964 32.2783 12.176 34.199 12.176C35.7226 12.2475 37.253 12.176 38.7835 12.1462C39.3306 12.1462 40.0094 12.2356 40.4041 12.0032C41.6923 11.2584 43.0911 11.4967 44.4485 11.4908C52.3781 11.455 60.3008 11.455 68.2235 11.4252C69.6086 11.4252 70.9937 11.6457 72.2473 10.871C74.1794 10.871 76.2225 10.5314 78.0162 10.9664C80.2712 11.5246 82.6538 11.582 84.9416 11.1332C85.4448 11.0307 85.9727 11.0661 86.4513 11.2345C86.9551 11.4117 87.5196 11.4117 88.0234 11.2345C89.0553 10.6386 90.1425 10.7459 91.2437 10.734C92.3537 10.7808 93.4661 10.7709 94.5748 10.7042C95.5236 10.591 96.1815 11.461 97.345 10.9425C98.2315 10.5373 99.5126 10.7042 100.614 10.7459C101.535 10.7757 102.581 11.306 103.349 11.0677C105.281 10.4718 107.207 10.7876 109.118 10.7638C115.926 10.6803 122.741 10.7042 129.555 10.6684C130.781 10.6684 132.048 10.8532 133.184 10.1739C133.433 10.0308 133.994 10.1739 134.334 10.2871C134.846 10.4837 135.324 10.7936 135.857 10.448C136.716 9.89974 137.686 9.97721 138.627 9.98913C139.874 9.98913 141.128 10.0249 142.381 10.0308C143.766 10.0308 145.151 10.0209 146.536 10.001C147.79 10.001 149.189 10.2513 150.255 9.85803C151.716 9.30982 152.859 10.2454 154.182 10.007C155.11 9.84612 156.121 10.1143 156.994 9.58393C157.211 9.43199 157.482 9.34905 157.762 9.34905C158.042 9.34905 158.314 9.43199 158.531 9.58393C159.121 9.90207 159.822 10.0328 160.512 9.95338L164.667 9.89378C165.754 8.84503 167.403 10.6684 168.428 9.33962C169.39 9.33962 170.339 9.20851 171.267 9.64947C171.71 9.86399 172.576 10.0666 172.798 9.87591C173.982 8.87482 175.36 9.72097 176.634 9.47666C178.469 9.13104 180.464 8.92846 182.32 9.75078C182.504 9.80612 182.7 9.82729 182.895 9.81292C183.089 9.79854 183.278 9.74893 183.449 9.66735C183.722 9.48325 184.056 9.37929 184.402 9.37071C184.749 9.36213 185.089 9.44939 185.374 9.61968C185.595 9.75716 185.858 9.83556 186.13 9.8451C186.402 9.85464 186.672 9.79489 186.905 9.67331C187.376 9.46475 188.068 9.20853 188.449 9.36346C189.786 9.91167 190.998 9.67332 192.313 9.36346C192.985 9.23515 193.687 9.30439 194.308 9.56009C195.121 9.88796 196.006 10.0609 196.904 10.0671C197.802 10.0732 198.69 9.91249 199.509 9.59584C199.82 9.48665 200.157 9.44268 200.492 9.46755C200.826 9.49241 201.149 9.58539 201.434 9.73885C201.67 9.85279 201.931 9.92423 202.2 9.94881C202.469 9.9734 202.741 9.95063 202.999 9.88187C204.087 9.28599 204.952 9.40516 206.067 9.88187C206.524 10.016 207.009 10.061 207.488 10.0136C207.967 9.96619 208.428 9.82755 208.837 9.60775C209.139 9.47936 209.467 9.40521 209.803 9.38984C210.139 9.37447 210.475 9.41821 210.791 9.51837C211.805 9.90185 212.913 10.0636 214.018 9.98913C217.91 9.98913 221.802 9.98913 225.694 10.0249C226.671 10.0249 227.772 9.79844 228.589 10.1202C230.867 11.0081 233.215 10.6565 235.514 10.6804C239.967 10.734 244.413 10.6804 248.867 10.6804C249.698 10.6804 250.702 10.4778 251.332 10.7936C253.043 11.6517 254.836 11.3895 256.602 11.3895C259.663 11.4371 262.724 11.3895 265.778 11.3895C266.471 11.3895 267.288 11.2167 267.856 11.4669C270.1 12.4621 272.475 12.0151 274.781 12.0628C277.697 12.1403 280.62 12.0926 283.535 12.1105C284.228 12.1105 285.066 11.9436 285.613 12.2058C287.317 13.052 289.117 12.7362 290.89 12.8017C293.258 12.8613 295.62 12.8672 297.982 12.8911C300.315 13.9935 302.829 13.4512 305.316 13.5823C306.14 13.624 307.061 13.5346 307.747 13.8385C308.636 14.1691 309.605 14.3102 310.572 14.2497L316.41 14.3033C317.372 14.2916 318.327 14.4414 319.222 14.7443C320.606 15.2402 322.075 15.54 323.571 15.6322C326.722 15.793 329.859 15.6322 333.01 16.3174C335.088 16.7643 337.436 16.4366 339.659 16.4664C340.351 16.4664 341.189 16.3293 341.702 16.6094C342.997 17.3066 344.513 16.8239 345.705 17.2768C346.995 17.6917 348.365 17.8938 349.742 17.8727C350.155 17.8383 350.571 17.8915 350.954 18.0276C352.09 18.689 353.357 18.4388 354.576 18.5699C355.92 18.7188 357.229 19.1181 358.572 19.2432C359.805 19.2817 361.023 19.4972 362.173 19.8808C363.254 20.3099 364.673 19.7259 365.781 20.441C368.496 20.7151 371.093 21.6327 373.829 21.4838C374.438 21.4838 374.992 21.4838 375.546 21.4838C377.319 21.4361 377.984 20.9236 378.088 19.3028C378.043 18.3518 378.307 17.4087 378.85 16.5796C379.01 16.3091 379.043 15.9963 378.944 15.7051C378.845 15.4139 378.621 15.1662 378.317 15.0124ZM11.8645 4.59041C12.4254 4.19713 12.3422 4.66787 12.453 4.88835L11.8645 4.59041ZM12.4946 4.93007L13.1248 5.22801C12.55 5.66301 12.6124 5.16842 12.4946 4.93007ZM124.375 6.3006C124.033 6.48094 123.679 6.64409 123.315 6.78923C122.554 7.10505 122.249 7.00971 121.806 6.25293C121.514 5.87352 121.281 5.46283 121.113 5.03136C121.065 4.81684 121.425 4.47719 121.695 4.29247C121.965 4.10774 122.214 4.24479 122.346 4.23288C123.392 4.23288 123.038 4.64999 122.941 5.12074C122.796 5.85368 123.634 5.56765 124.022 5.71662L124.763 5.92519C124.655 6.0658 124.525 6.19226 124.375 6.3006ZM137.997 3.72637L138.274 3.86343L137.97 3.95877L137.997 3.72637ZM134.86 4.10774C134.451 4.10774 134.036 4.10774 133.191 4.10774C133.191 4.10774 132.817 4.07795 132.415 4.01837C132.291 4.01837 132.187 3.89322 132.076 3.82768C132.174 3.74873 132.286 3.68429 132.408 3.63699C132.666 3.56653 132.935 3.53037 133.205 3.52974C134.237 3.57145 135.109 3.39863 135.393 2.38563C135.573 2.45713 135.878 2.4929 135.92 2.60016C136.007 2.75783 136.047 2.93169 136.037 3.10613C136.027 3.28058 135.967 3.45013 135.862 3.59958C135.757 3.74904 135.61 3.87372 135.436 3.96241C135.261 4.0511 135.063 4.10104 134.86 4.10774ZM142.09 6.17547C140.996 6.24101 139.902 6.28272 139.14 6.31847C137.845 6.31847 136.875 6.31847 135.913 6.31847C135.802 6.31847 135.677 6.05032 135.608 5.88347C135.608 5.84772 135.809 5.68087 135.913 5.68087C137.976 5.70471 140.036 5.74444 142.09 5.80006C142.201 5.80006 142.312 5.93114 142.423 5.99669C142.312 6.04436 142.201 6.16355 142.09 6.17547ZM155.706 5.42465C155.622 5.42465 155.56 5.30547 155.491 5.23992C155.595 5.16842 155.699 5.03137 155.802 5.02541C157.188 4.9837 158.289 4.21499 159.508 3.76212C159.755 3.68406 160.007 3.61841 160.263 3.56549L160.74 3.92897C160.117 4.52485 160.74 4.94794 160.914 5.4604C160.976 5.65704 160.415 6.19333 160.394 6.18141C158.919 5.48423 157.271 5.65108 155.706 5.42465ZM161.142 7.7069C160.602 7.7069 160.055 7.7069 159.196 7.7069C159.12 7.7069 158.718 7.67114 158.33 7.61155C158.206 7.61155 158.102 7.48641 157.998 7.4149C158.102 7.34935 158.206 7.23017 158.317 7.22421C159.258 7.1825 160.193 7.15272 161.128 7.16464C161.246 7.16464 161.364 7.39702 161.481 7.52215C161.391 7.5877 161.253 7.70094 161.142 7.7069ZM163.109 5.41273C162.79 5.3591 162.479 5.28163 162.167 5.21608C162.271 5.13862 162.389 4.9956 162.486 5.00752C162.734 5.04895 162.978 5.11082 163.213 5.19226C163.187 5.26855 163.152 5.34241 163.109 5.41273ZM181.697 2.14131C181.934 2.19223 182.165 2.26002 182.389 2.34393C182.216 2.45715 182.05 2.64186 181.898 2.62994C181.745 2.61802 181.537 2.45118 181.357 2.34988C181.475 2.26049 181.607 2.12939 181.697 2.14131ZM182.736 5.54978C181.233 5.54978 179.723 5.54978 178.213 5.54978C176.704 5.54978 175.201 5.54978 173.691 5.54978C173.442 5.49896 173.207 5.40798 172.998 5.28164C173.261 4.7509 173.576 4.24054 173.94 3.75617C174.051 3.63104 174.896 3.75616 174.938 3.83959C175.263 4.84663 176.087 5.03137 177.133 4.9837C178.345 4.90027 179.661 5.03136 180.741 4.66191C181.593 4.36993 181.967 4.69767 182.528 4.93007L183.22 5.23396C183.075 5.34122 182.909 5.54382 182.736 5.54978ZM193.394 6.28869C193.121 6.32369 192.845 6.33764 192.57 6.33038C192.433 6.32499 192.295 6.33502 192.161 6.36019C191.912 6.4317 191.669 6.52703 191.427 6.61642C191.711 6.76539 191.981 6.93819 192.279 7.06333C192.577 7.18847 192.971 7.33148 193.359 7.45662C193.113 7.55136 192.861 7.63491 192.604 7.7069C192.469 7.72491 192.331 7.72491 192.196 7.7069H191.365C190.485 7.7069 189.335 7.95119 189.917 6.55682C189.701 6.45193 189.467 6.37559 189.225 6.33038C188.262 6.28271 187.286 6.3304 186.33 6.23506C185.825 6.09843 185.355 5.87999 184.945 5.59149C184.835 5.51573 184.764 5.40711 184.744 5.28759C184.755 5.24364 184.779 5.20271 184.812 5.16842C184.846 5.13413 184.889 5.10753 184.938 5.09095C185.474 5.005 186.019 4.96311 186.565 4.96582C187.181 5.03012 187.803 4.91853 188.338 4.64826C188.872 4.37798 189.289 3.96402 189.523 3.47014C190.111 2.49885 191.205 2.51077 192.203 3.33905C192.369 3.4761 192.577 3.8098 192.5 3.89918C191.489 5.12075 192.064 5.57362 193.574 5.68684C193.775 5.68684 193.962 5.91326 194.163 6.03244C193.916 6.13784 193.659 6.22362 193.394 6.28869ZM194.363 4.04219C194.232 4.04219 194.079 3.84556 193.941 3.7383C194.165 3.65865 194.397 3.59487 194.633 3.54761C194.71 3.54761 194.813 3.69657 194.903 3.78C194.744 3.86938 194.564 4.04815 194.363 4.04815V4.04219ZM202.21 5.34123L202.397 5.11479L202.528 5.37102L202.21 5.34123ZM211.905 5.6034L211.275 5.28759C211.905 4.86451 211.843 5.34717 211.947 5.6034H211.905ZM211.947 5.65108L212.57 5.94903C212.009 6.43169 212.106 5.87752 211.982 5.65108H211.947ZM214.025 4.03624C213.685 3.89919 213.699 3.75021 214.059 3.66083C214.101 3.66083 214.205 3.79192 214.274 3.86343C214.205 3.92302 214.08 4.04815 214.025 4.04815V4.03624ZM217.702 6.3006C217.347 6.32989 216.99 6.32989 216.636 6.3006C216.443 6.32011 216.248 6.30797 216.061 6.26485C215.901 6.21718 215.804 6.02053 215.673 5.88944C215.791 5.82389 215.901 5.71067 216.019 5.70471C216.57 5.67198 217.123 5.67198 217.674 5.70471C217.924 5.76721 218.159 5.86816 218.367 6.00266C218.165 6.12448 217.946 6.22454 217.716 6.3006H217.702ZM227.993 5.93115C227.993 5.90136 228.153 5.81793 228.243 5.7643C228.312 5.83581 228.464 5.94307 228.443 5.97287C228.291 6.23506 228.111 6.22314 228.007 5.93115H227.993ZM236.241 6.9382C235.03 7.06333 233.797 7.23614 233.333 5.8239C233.236 5.52 232.799 5.30548 232.571 5.02541C232.462 4.83789 232.387 4.63685 232.349 4.42953C232.596 4.3554 232.848 4.29567 233.104 4.25075C233.459 4.23154 233.816 4.23154 234.171 4.25075C234.538 4.28055 235.431 4.11965 234.794 5.12074C234.745 5.20416 234.967 5.53191 235.126 5.57958C235.5 5.68088 235.978 5.57958 236.304 5.7643C236.572 5.96548 236.749 6.24211 236.802 6.54491C236.878 6.65217 236.47 6.91436 236.255 6.9382H236.241ZM246.754 4.76917C246.636 4.73342 246.546 4.62616 246.436 4.55466C246.643 4.4474 246.851 4.25671 247.066 4.25075C248.451 4.25075 249.801 4.25075 251.166 4.25075V4.18521C252.662 4.25076 254.164 4.31033 255.653 4.41163C255.806 4.41163 256.02 4.73939 256.041 4.93007C256.062 5.12075 255.723 5.37698 255.681 5.35911C254.887 5.01736 254.006 4.85296 253.119 4.88108C252.232 4.90919 251.367 5.12891 250.605 5.51999C250.084 5.63801 249.534 5.61089 249.033 5.44252C248.271 5.23992 247.523 5.00156 246.768 4.76917H246.754ZM256.318 7.689C255.009 7.85585 253.548 7.45662 252.398 8.35044C252.218 8.4875 251.664 8.29086 251.29 8.20744C250.646 8.05847 250.009 7.8916 249.386 7.689C249.22 7.63537 248.984 7.37915 249.026 7.28977C249.14 7.07917 249.308 6.8937 249.517 6.74751C249.765 6.54077 250.082 6.40558 250.423 6.36073C250.764 6.31589 251.114 6.36359 251.422 6.49723C252.315 6.86668 253.043 7.09313 254.033 6.58663C255.023 6.08013 255.695 7.12292 256.581 7.2838C256.63 7.2838 256.644 7.43874 256.678 7.51621C256.575 7.58948 256.458 7.64783 256.332 7.689H256.318ZM272.939 7.689C272.294 7.72275 271.646 7.72275 271 7.689C271.166 7.689 270.626 7.65327 270.1 7.5758C269.982 7.5758 269.885 7.43874 269.781 7.36127C269.899 7.29572 270.01 7.18847 270.128 7.18251C271.083 7.12888 272.032 7.09312 272.988 7.07524C273.092 7.07524 273.202 7.2123 273.313 7.2838C273.23 7.45065 273.126 7.68305 272.981 7.70093L272.939 7.689ZM273.23 6.13972C273.085 6.13972 272.974 5.80006 272.849 5.61533L272.198 5.30546C272.766 4.87046 272.731 5.35314 272.849 5.61533C273.113 5.60013 273.378 5.61213 273.639 5.65108C273.865 5.73627 274.076 5.84644 274.269 5.97881C273.948 6.07835 273.612 6.13658 273.272 6.15163L273.23 6.13972ZM279.56 5.72259C279.754 5.72259 279.941 5.90731 280.128 6.00266C279.927 6.098 279.719 6.25889 279.518 6.25293C279.318 6.24698 279.131 6.0682 278.937 5.9669C279.186 5.88944 279.401 5.7345 279.601 5.7345L279.56 5.72259ZM280.432 8.42791C279.608 8.42791 278.777 8.42791 277.953 8.42791C277.95 8.4656 277.95 8.50344 277.953 8.54113C276.998 8.46962 276.049 8.41003 275.1 8.3266C274.982 8.3266 274.878 8.18955 274.768 8.124C274.871 8.04654 274.968 7.90949 275.072 7.90949C276.852 7.87374 278.632 7.84394 280.412 7.84394C280.537 7.84394 280.654 8.09422 280.779 8.22531C280.703 8.30874 280.592 8.43386 280.509 8.43982L280.432 8.42791ZM302.476 7.64134C302.116 7.30168 302.525 6.97991 302.822 6.84285C302.972 6.77971 303.137 6.74687 303.304 6.74687C303.471 6.74687 303.635 6.77971 303.785 6.84285C304.028 6.98587 304.298 7.46853 304.201 7.59962C303.835 8.06962 303.666 8.633 303.723 9.19661C302.739 9.05956 303.023 8.124 302.518 7.65325L302.476 7.64134ZM307.289 9.81037C306.396 10.0547 305.503 10.3169 304.595 10.4956C304.145 10.585 303.827 10.3347 303.792 9.89975C303.792 9.66735 303.792 9.44092 303.744 9.20852C304.838 9.20852 305.925 9.23832 307.019 9.28599C307.22 9.28599 307.414 9.48263 307.608 9.58393C307.531 9.67585 307.438 9.75636 307.331 9.82228L307.289 9.81037ZM332.006 12.0211C331.732 12.045 331.456 12.045 331.182 12.0211C330.911 12.054 330.636 12.054 330.365 12.0211C330.213 11.9853 330.116 11.7768 329.991 11.6397C330.109 11.5742 330.219 11.4491 330.33 11.4491C330.879 11.4163 331.43 11.4163 331.979 11.4491C332.224 11.5128 332.457 11.6072 332.671 11.7291C332.477 11.8504 332.268 11.9524 332.048 12.033L332.006 12.0211ZM335.199 9.85803C334.652 9.89379 334.098 9.85803 333.544 9.85803C333.129 9.88189 332.712 9.88189 332.297 9.85803C332.04 9.8012 331.793 9.71503 331.563 9.60181C331.764 9.48859 331.951 9.28002 332.152 9.27406C333.118 9.23235 334.087 9.23235 335.053 9.27406C335.374 9.34445 335.677 9.4657 335.947 9.63159C335.717 9.73693 335.473 9.817 335.22 9.86994L335.199 9.85803ZM338.662 12.7481C338.247 12.7761 337.83 12.7761 337.415 12.7481C337.574 12.7481 337.284 12.7838 337.034 12.7123C336.889 12.6647 336.799 12.4561 336.688 12.325C336.799 12.2595 336.91 12.1462 337.02 12.1462C337.564 12.1134 338.111 12.1134 338.655 12.1462C338.903 12.204 339.137 12.2988 339.347 12.4263C339.154 12.5571 338.945 12.669 338.724 12.76L338.662 12.7481ZM341.667 12.617C341.584 12.617 341.515 12.4978 341.446 12.4382C341.529 12.3846 341.626 12.2892 341.709 12.2952C341.792 12.3012 341.854 12.4144 341.923 12.4799C341.903 12.5455 341.806 12.6349 341.729 12.6289L341.667 12.617Z" fill="#FFD21F"/>
</svg>
