<svg width="376" height="250" viewBox="0 0 376 250" fill="none" xmlns="http://www.w3.org/2000/svg">
<g clip-path="url(#clip0_1_2539)">
<path d="M150.332 2.08657L74.3835 12.0638C65.6113 13.2162 59.4342 21.2617 60.5866 30.0339L85.3229 218.331C86.4753 227.103 94.5208 233.28 103.293 232.128L179.241 222.151C188.014 220.998 194.191 212.953 193.038 204.181L168.302 15.8835C167.15 7.11127 159.104 0.934174 150.332 2.08657Z" fill="white" stroke="#BEDDF5" stroke-width="0.992" stroke-linecap="round" stroke-linejoin="round"/>
<path d="M148.857 4.63879L76.4678 14.1484C67.9753 15.2641 61.9953 23.0529 63.1109 31.5453L87.3646 216.169C88.4803 224.661 96.2691 230.642 104.762 229.526L177.151 220.016C185.643 218.901 191.623 211.112 190.507 202.619L166.254 17.9956C165.138 9.50322 157.349 3.52315 148.857 4.63879Z" fill="white" stroke="#BEDDF5" stroke-width="0.992" stroke-linecap="round" stroke-linejoin="round"/>
<path d="M119.413 8.54209L105.808 10.3294C105.27 10.4 104.892 10.8932 104.962 11.4309L104.969 11.4845C105.04 12.0222 105.533 12.4008 106.071 12.3302L119.676 10.5429C120.214 10.4723 120.592 9.97908 120.522 9.44136L120.515 9.38782C120.444 8.8501 119.951 8.47145 119.413 8.54209Z" fill="white" stroke="#BEDDF5" stroke-width="0.992" stroke-linecap="round" stroke-linejoin="round"/>
<path d="M148.918 8.7015C148.918 8.7015 134.925 10.5425 137.098 10.2565C134.924 10.5425 133.394 12.5355 133.679 14.7095L133.697 14.8355C133.983 17.0095 132.452 19.0025 130.278 19.2885L98.0666 23.5195C95.8926 23.8055 93.8996 22.2745 93.6136 20.1005L93.5976 19.9805C93.3116 17.8065 91.3956 16.2565 89.2216 16.5425L77.4566 18.0885C70.9666 18.9415 66.3956 24.8935 67.2486 31.3845L91.4246 215.413C92.2776 221.903 98.2296 226.474 104.721 225.621L176.18 216.234C182.67 215.381 187.241 209.428 186.388 202.938L162.214 18.9095C161.361 12.4195 155.409 7.8485 148.918 8.7015Z" fill="white" stroke="#BEDDF5" stroke-width="0.992" stroke-linecap="round" stroke-linejoin="round"/>
<path d="M175.01 58.9502C174.976 58.6885 174.736 58.5042 174.474 58.5386C174.212 58.573 174.028 58.813 174.062 59.0748L177.722 86.9314C177.756 87.1932 177.996 87.3775 178.258 87.3431C178.52 87.3087 178.704 87.0686 178.67 86.8069L175.01 58.9502Z" fill="white" stroke="#BEDDF5" stroke-width="0.992" stroke-linecap="round" stroke-linejoin="round"/>
<path d="M62.7249 48.3886L62.3263 48.441C62.1747 48.4609 62.0678 48.6 62.0878 48.7517L63.2885 57.8922C63.3085 58.0438 63.4476 58.1506 63.5993 58.1307L63.9978 58.0784C64.1495 58.0584 64.2563 57.9193 64.2364 57.7676L63.0356 48.6272C63.0157 48.4755 62.8766 48.3687 62.7249 48.3886Z" fill="white" stroke="#BEDDF5" stroke-width="0.992" stroke-linecap="round" stroke-linejoin="round"/>
<path d="M65.007 66.57L64.8167 66.595C64.6075 66.6225 64.4602 66.8143 64.4877 67.0235L66.7991 84.6183C66.8266 84.8275 67.0184 84.9748 67.2276 84.9473L67.418 84.9223C67.6271 84.8948 67.7744 84.703 67.7469 84.4938L65.4355 66.899C65.4081 66.6898 65.2162 66.5425 65.007 66.57Z" fill="white" stroke="#BEDDF5" stroke-width="0.992" stroke-linecap="round" stroke-linejoin="round"/>
<path d="M68.051 89.7402L67.8606 89.7652C67.6514 89.7927 67.5041 89.9845 67.5316 90.1937L69.843 107.789C69.8705 107.998 70.0624 108.145 70.2715 108.118L70.4619 108.092C70.6711 108.065 70.8184 107.873 70.7909 107.664L68.4795 90.0692C68.452 89.86 68.2602 89.7127 68.051 89.7402Z" fill="white" stroke="#BEDDF5" stroke-width="0.992" stroke-linecap="round" stroke-linejoin="round"/>
<path d="M98.7177 19.0924C99.2456 19.0924 99.6737 18.6644 99.6737 18.1364C99.6737 17.6084 99.2456 17.1804 98.7177 17.1804C98.1897 17.1804 97.7617 17.6084 97.7617 18.1364C97.7617 18.6644 98.1897 19.0924 98.7177 19.0924Z" fill="white" stroke="#BEDDF5" stroke-width="0.992" stroke-linecap="round" stroke-linejoin="round"/>
<path d="M98.7176 20.0084C99.7515 20.0084 100.59 19.1703 100.59 18.1364C100.59 17.1025 99.7515 16.2644 98.7176 16.2644C97.6838 16.2644 96.8456 17.1025 96.8456 18.1364C96.8456 19.1703 97.6838 20.0084 98.7176 20.0084Z" fill="white" stroke="#BEDDF5" stroke-width="0.992" stroke-linecap="round" stroke-linejoin="round"/>
<path d="M133.687 14.7554L133.703 14.8754L133.687 14.7554Z" fill="white" stroke="#BEDDF5" stroke-width="0.992" stroke-linecap="round" stroke-linejoin="round"/>
<path d="M133.703 14.8754L133.687 14.7554" stroke="#BEDDF5" stroke-width="0.992" stroke-linecap="round" stroke-linejoin="round"/>
<path fill-rule="evenodd" clip-rule="evenodd" d="M172.342 125.226C168.391 124.629 171.954 125.575 170.542 115.321C170.185 112.74 168.774 109.63 169.713 107.009C170.709 104.215 174.378 97.2764 174.378 97.2764C174.378 97.2764 171.685 94.6664 171.055 93.6914C169.014 90.5424 168.48 89.3434 166.871 85.9614C165.513 83.1124 164.908 80.1854 164.483 77.1124C164.179 74.9504 163.39 70.2404 163.173 68.0744C162.339 59.7214 161.23 45.8414 170.96 42.7264C172.841 42.1254 175.766 42.4104 177.609 42.5884C183.946 43.2024 188.495 49.0024 192.987 52.7024C195.774 54.9974 198.145 57.5574 200.885 59.9054C203.094 61.7984 206.044 63.4374 207.395 66.1394C208.651 68.6554 208.048 73.1154 206.766 75.5614C205.366 78.2354 203.212 78.7914 203.212 78.7914C203.212 78.7914 201.531 86.9304 201.363 90.9804C201.163 95.9384 202.165 100.938 202.165 100.938C202.165 100.938 199.839 106.687 198.543 109.713C196.819 113.733 193.688 117.713 190.354 120.724C185.931 124.728 178.604 126.178 172.345 125.226H172.342Z" fill="white"/>
<path fill-rule="evenodd" clip-rule="evenodd" d="M255.63 43.4514C255.63 43.4514 255.134 41.1814 253.155 39.2464C252.582 38.6884 251.913 38.4584 251.057 37.9474C248.678 36.5184 249.376 42.8224 249.376 42.8224L255.631 43.4514H255.63Z" fill="white"/>
<path fill-rule="evenodd" clip-rule="evenodd" d="M225.448 40.1436L318.98 50.5166L302.648 192.844L209.141 181.62L225.447 40.1436H225.448Z" fill="white"/>
<path fill-rule="evenodd" clip-rule="evenodd" d="M263.842 44.7454C263.842 44.7454 263.903 48.9564 264.413 52.8074C264.666 54.7144 265.737 56.8274 266.964 57.9234C269.017 59.7574 270.549 55.9354 270.549 55.9354C270.549 55.9354 271.211 59.5164 273.498 60.0254C274.15 60.1714 275.358 59.1074 276.455 56.6974C277.624 54.1394 278.672 50.2204 278.672 50.2204C278.672 50.2204 276.845 59.3234 281.228 58.2444C282.936 57.8264 287.523 48.3834 287.523 48.3834C287.523 48.3834 286.281 53.7034 288.552 54.2234C289.04 54.3354 290.175 54.1204 291.403 52.8974C293.202 51.1134 295.151 48.0644 295.151 48.0644L298.115 47.7484C298.115 47.7484 297.097 43.8594 297.191 43.1074C297.295 42.2914 294.829 41.7934 293.629 41.5354C291.884 41.1584 290.165 44.0544 290.165 44.0544C290.165 44.0544 289.381 41.6074 288.139 40.1754C286.934 38.7794 285.28 38.3994 284.41 38.3934C282.602 38.3874 281.14 40.6854 281.14 40.6854C281.14 40.6854 277.852 36.9844 275.695 37.4664C273.67 37.9184 272.324 39.4694 272.226 41.2314C271.997 45.4094 271.005 45.4694 271.005 45.4694C271.005 45.4694 271.09 41.9934 270.143 39.9484C269.609 38.7984 268.045 38.5934 267.664 38.5224C267.098 38.4084 265.357 38.5554 264.608 39.2104C262.825 40.7764 261.376 44.0554 261.376 44.0554L263.842 44.7464V44.7454Z" fill="white"/>
<path fill-rule="evenodd" clip-rule="evenodd" d="M161.046 60.6555C154.86 55.5035 157.18 47.1685 162.044 41.6975C168.064 34.9235 176.706 31.7675 185.479 32.0915C187.29 32.1565 190.701 32.2255 192.498 32.5645C194.227 32.8915 197.308 33.5465 200.073 35.3035C202.916 37.1095 205.416 40.0145 205.416 40.0145C205.416 40.0145 207.414 38.7685 209.897 40.1885C212.052 41.4195 215.125 44.0575 215.995 46.6635C219.137 56.0935 213.362 64.8725 214.975 74.5505C215.293 76.4385 215.809 79.3735 216.843 80.9905C217.644 82.2565 220.274 84.4255 220.274 84.4255L218.623 96.6305C218.623 96.6305 212.873 98.7275 210.335 97.8065C208.061 96.9775 206.031 96.0155 204.602 94.4095C202.695 92.2685 201.755 89.5105 201.755 89.5105L202.857 78.5755C202.857 78.5755 204.335 78.8355 205.232 77.9425C207.555 75.6175 210.113 69.4215 207.647 66.5425C206.909 65.6805 204.507 66.1445 203.577 65.5235C201.906 64.4085 200.613 63.4845 199.127 62.1335C197.798 60.9285 194.721 56.3715 194.721 56.3715C194.721 56.3715 192.138 56.8675 190.736 56.6685C188.616 56.3625 186.348 56.1035 184.46 55.0795C182.307 53.9135 179.778 52.4935 178.069 50.7855C176.218 48.9365 174.548 46.6455 173.008 45.4065C171.049 43.8215 169.156 45.0495 167.314 46.4315C164.462 48.5675 163.125 51.5665 162.768 54.9015C162.579 56.6755 162.229 60.0815 162.523 61.8685L161.045 60.6575L161.046 60.6555Z" fill="#D7E8F4"/>
<path fill-rule="evenodd" clip-rule="evenodd" d="M173.727 124.152C173.727 124.152 171.947 137.483 171.04 144.968C169.072 161.285 168.235 180.471 165.838 193.473C165.103 197.439 163.344 208.181 163.344 208.181C163.344 208.181 167.713 210.451 169.064 210.541C170.565 210.642 172.255 210.577 173.756 210.541C176.478 210.479 184.488 209.095 184.488 209.095C184.488 209.095 184.265 205.617 184.265 203.952C184.265 198.951 184.205 193.527 184.863 188.56C186.409 176.866 188.222 170.227 189.024 158.474C189.477 151.847 189.418 140.021 188.753 133.374C188.493 130.769 187.38 123.182 187.38 123.182C187.38 123.182 181.278 125.077 180.366 125.271C178.097 125.755 173.727 124.152 173.727 124.152Z" fill="#D7E8F4"/>
<path fill-rule="evenodd" clip-rule="evenodd" d="M174.57 97.1536L172.638 95.5486C172.638 95.5486 171.039 96.2866 170.17 97.5306C169.286 98.7936 168.808 100.287 167.872 101.778C166.848 103.405 164.803 106.632 164.803 106.632C164.803 106.632 161.495 107.37 157.556 107.873C151.199 108.684 141.617 108.537 136.345 111.336C133.021 113.103 130.591 116.177 127.888 118.737C123.401 122.984 117.863 130.704 113.53 135.119C107.026 141.746 97.6717 151.953 92.5097 159.698C89.8527 163.681 91.2327 166.38 91.2997 167.69C91.4827 171.523 91.5117 175.965 92.4497 179.091C93.0627 181.138 95.1047 181.916 95.1047 181.916C95.1047 181.916 95.1607 184.235 95.8957 185.982C96.5467 187.536 98.0247 188.956 98.9717 190.331C99.7207 191.42 100.303 193.647 100.777 195.052C101.253 196.455 103.133 197.081 104.246 196.124C104.572 195.846 106.047 195.164 106.047 195.164L103.409 191.541C103.409 191.541 105.303 186.761 106.585 185.779C108.077 184.63 109.947 181.994 111.603 181.111C112.368 180.703 114.702 179.832 114.702 179.832L116.412 182.953C116.412 182.953 118.05 181.432 117.43 178.516C117.059 176.753 116.066 176.518 115.292 174.607C114.504 172.651 112.903 170.597 112.903 170.597C113.03 170.247 113.955 168.98 113.973 167.777C113.995 166.202 113.935 165.067 113.935 165.067C113.935 165.067 117.98 162.93 118.353 162.426C122.751 156.515 127.034 152.088 132.767 147.457C133.937 146.512 136.138 144.557 138.004 143.776C139.866 143.006 141.392 143.403 141.53 143.489C141.53 143.489 140.164 148.47 140.135 150.1C140.046 155.092 140.163 156.16 139.991 161.142C139.785 167.151 141.11 177.522 139.991 183.435C139.342 186.88 138.812 192.226 138.812 192.226C138.812 192.226 136.659 206.739 136.18 214.516C136.01 217.26 134.384 223.144 134.071 225.878C133.873 227.629 134.348 232.981 134.348 232.981C134.348 232.981 137.61 234.108 143.929 236.593C150.248 239.078 159.618 242.924 159.618 242.924C159.618 242.924 159.482 235.001 159.659 232.841C160.361 224.431 161.323 217.535 162.971 209.284C165.397 197.153 167.708 188.273 169.107 175.965C170.307 165.397 170.517 152.308 171.575 141.733C172.23 135.193 173.286 128.957 174.184 122.422C174.914 117.099 175.399 115.405 175.149 111.774C174.972 109.203 171.641 107.567 171.641 104.963C171.641 104.963 173.064 103.826 173.572 101.582C173.967 99.8246 174.565 97.1526 174.565 97.1526L174.57 97.1536Z" fill="#1B92D1"/>
<path fill-rule="evenodd" clip-rule="evenodd" d="M202.18 101.13C202.18 101.13 201.94 102.376 200.345 104.706C198.918 106.791 196.031 108.929 193.18 110.299C190.329 111.672 189.677 111.138 187.999 113.822C187.524 114.586 187.043 117.566 187.297 119.736C187.55 121.901 187.573 129.287 187.419 131.678C186.801 141.254 188.203 151.248 187.568 160.599C187.54 160.973 187.328 167.903 187.307 168.285C186.514 182.393 183.563 191.028 184.121 205.181C184.503 214.951 184.701 220.534 185.779 230.234C186.314 235.04 186.154 241.359 187.954 246.035C188.789 248.211 188.858 249.886 188.858 249.886C188.858 249.886 201.413 250.825 210.628 249.614C219.842 248.401 225.717 245.037 225.717 245.037C225.717 245.037 224.642 237.604 224.284 235.285C223.056 227.282 220.01 220.128 219.527 212.054C219.328 208.692 218.415 202.855 218.75 199.438C218.996 196.926 220.394 195.514 220.831 193.026C221.194 190.984 220.421 189.221 220.421 187.137C220.421 186.45 220.804 183.282 220.804 183.282L209.005 181.932L217.72 105.234C217.72 105.234 216.973 105.744 214.628 105.671C212.283 105.598 208.762 105.137 208.762 105.137C208.762 105.137 207.637 103.056 206.459 102.017C205.28 100.983 204.281 98.3995 203.757 97.3175C202.715 95.1565 201.307 95.4965 201.307 95.4965L202.18 101.13Z" fill="#1B92D1"/>
<path fill-rule="evenodd" clip-rule="evenodd" d="M115.072 179.804C115.072 179.804 111.713 180.371 108.773 183.28C105.835 186.19 103.323 191.449 103.323 191.449C103.323 191.449 109.791 200.036 113.426 204.074C115.31 206.165 117.522 208.453 119.327 210.604C122.124 213.94 126.601 216.725 130.467 217.404C133.852 217.997 134.952 214.516 136.469 214.516C139.653 214.516 140.872 218.183 142.821 217.838C144.77 217.49 143.356 214.18 143.356 214.18C143.356 214.18 147.059 216.9 147.992 215.964C148.93 215.027 147.771 212.532 146.389 210.745C144.924 208.855 143.234 208.269 141.439 207.672C139.645 207.072 135.923 206.248 135.923 206.248C136.453 205.715 138.803 205.09 139.186 205.104C139.958 205.134 143.222 205.975 144.515 206.955C145.807 207.938 149.057 209.15 149.598 208.606C150.743 207.464 147.693 203.729 146.03 202.496C144.371 201.264 138.452 199.42 138.452 199.42C138.452 199.42 140.618 196.899 141.063 196.618C141.872 196.102 144.381 196.293 146.461 195.958C147.956 195.716 149.271 195.07 149.385 194.308C149.657 192.484 145.318 192.608 144.545 192.349C142.866 191.788 142.119 190.977 140.275 191.695C136.948 192.989 135.539 195.717 132.612 197.597C131.755 198.148 130.794 200.181 129.692 199.937C126.52 199.229 125.295 196.937 123.366 194.793C121.082 192.255 115.072 179.805 115.072 179.805V179.804Z" fill="white"/>
<path fill-rule="evenodd" clip-rule="evenodd" d="M163.124 208.27C163.124 208.27 161.272 218.065 160.398 225.262C160.184 227.03 159.776 233.239 159.717 234.892C159.649 236.778 159.975 243.161 159.975 243.161C159.975 243.161 166.624 245.731 173.758 247.344C180.892 248.956 188.511 249.614 188.511 249.614C188.511 249.614 188.684 245.312 188.611 244.296C188.316 240.18 188.048 236.38 187.444 232.299C186.622 226.776 186.2 223.984 185.561 218.45C185.438 217.38 184.361 209.275 184.361 209.275C184.361 209.275 180.033 210.585 178.2 210.279C176.45 209.99 173.16 210.32 169.932 209.857C168.067 209.593 163.124 208.27 163.124 208.27Z" fill="#1B3445"/>
<path fill-rule="evenodd" clip-rule="evenodd" d="M174.493 85.0784C174.493 85.0784 175.813 87.9134 177.883 89.1224C179.777 90.2334 182.13 90.1834 183.747 89.1274C187.008 86.9964 187.35 83.5254 187.35 83.5254C187.35 83.5254 185.689 83.2634 184.881 83.2634C181.837 83.2634 179.148 83.3714 176.282 84.2904C175.791 84.4464 174.492 85.0794 174.492 85.0794L174.493 85.0784Z" fill="white"/>
<path fill-rule="evenodd" clip-rule="evenodd" d="M167.917 72.0904C167.81 71.1984 168.226 70.3224 168.839 70.1294C169.454 69.9374 170.041 70.5044 170.147 71.3994C170.251 72.2924 169.839 73.1724 169.222 73.3624C168.608 73.5554 168.023 72.9824 167.917 72.0904Z" fill="#1B3445"/>
<path fill-rule="evenodd" clip-rule="evenodd" d="M186.017 69.0046C185.908 68.1096 186.322 67.2286 186.938 67.0366C187.555 66.8466 188.138 67.4156 188.243 68.3076C188.349 69.1976 187.937 70.0816 187.323 70.2716C186.706 70.4616 186.122 69.8966 186.017 69.0036V69.0046Z" fill="#1B3445"/>
<path d="M175.55 211.013C171.175 211.013 166.761 210.267 163.295 208.822C162.949 208.679 162.786 208.279 162.928 207.936C163.072 207.59 163.471 207.43 163.815 207.572C169.503 209.944 177.856 210.346 184.126 208.554C184.491 208.447 184.86 208.658 184.961 209.018C185.066 209.376 184.858 209.752 184.501 209.853C181.774 210.632 178.672 211.013 175.55 211.013Z" fill="#657493"/>
<path d="M184.302 62.9564C184.302 62.9564 186.961 60.4924 190.011 62.6044" stroke="#1B3445" stroke-width="0.992" stroke-linecap="round" stroke-linejoin="round"/>
<path d="M165.571 65.8495C165.571 65.8495 167.956 63.3855 170.381 64.9505" stroke="#1B3445" stroke-width="0.992" stroke-linecap="round" stroke-linejoin="round"/>
<path d="M169.735 44.4084C169.735 44.4084 168.836 55.0064 178.064 61.1844" stroke="#1B3445" stroke-width="0.992" stroke-linecap="round" stroke-linejoin="round"/>
<path d="M172.551 43.2744C172.551 43.2744 175.953 55.4754 193.003 56.3744" stroke="#1B3445" stroke-width="0.992" stroke-linecap="round" stroke-linejoin="round"/>
<path d="M187.02 48.0066C187.02 48.0066 193.551 57.7826 203.014 58.3306" stroke="#1B3445" stroke-width="0.992" stroke-linecap="round" stroke-linejoin="round"/>
<path d="M197.813 60.1294C197.813 60.1294 199.416 63.5704 203.405 63.6884" stroke="#1B3445" stroke-width="0.992" stroke-linecap="round" stroke-linejoin="round"/>
<path d="M171.261 41.5156C171.261 41.5156 174.741 35.5716 177.674 34.6726" stroke="#1B3445" stroke-width="0.992" stroke-linecap="round" stroke-linejoin="round"/>
<path d="M167.314 46.4294C167.314 46.4294 160.819 49.3754 162.774 63.4134" stroke="#1B3445" stroke-width="0.992" stroke-linecap="round" stroke-linejoin="round"/>
<path d="M159.177 58.2135C159.177 58.2135 155.266 52.0735 160.037 44.6045C164.808 37.1355 171.221 33.4985 175.093 33.4595" stroke="#1B3445" stroke-width="0.992" stroke-linecap="round" stroke-linejoin="round"/>
<path d="M180.763 32.6775C180.763 32.6775 189.914 29.7055 198.008 34.2415C206.103 38.7775 207.511 42.1405 209.192 51.6435C210.874 61.1465 208.566 64.3135 208.566 64.3135" stroke="#1B3445" stroke-width="0.992" stroke-linecap="round" stroke-linejoin="round"/>
<path d="M205.321 39.7945C205.321 39.7945 210.639 38.0735 214.12 43.2355C217.6 48.3975 217.131 51.7605 216.936 54.4975C216.74 57.2345 214.981 67.8325 214.746 70.6475C214.511 73.4635 214.55 80.1505 219.869 83.8255" stroke="#1B3445" stroke-width="0.992" stroke-linecap="round" stroke-linejoin="round"/>
<path d="M211.07 81.9895C211.07 81.9895 211.344 88.7155 219.399 91.0615" stroke="#1B3445" stroke-width="0.992" stroke-linecap="round" stroke-linejoin="round"/>
<path d="M203.913 72.5256C203.913 72.5256 204.773 70.4926 205.321 70.2576" stroke="#1B3445" stroke-width="0.992" stroke-linecap="round" stroke-linejoin="round"/>
<path d="M203.053 66.4254C203.053 66.4254 206.807 64.1574 208.137 67.5204C209.467 70.8834 207.625 76.4524 202.856 78.5754" stroke="#1B3445" stroke-width="0.992" stroke-linecap="round" stroke-linejoin="round"/>
<path d="M176.383 65.6824C176.383 65.6824 179.042 68.1854 177.439 71.9004C175.836 75.6154 176.892 76.4364 178.495 77.4534" stroke="#1B3445" stroke-width="0.992" stroke-linecap="round" stroke-linejoin="round"/>
<path d="M174.493 85.0785C174.493 85.0785 182.588 82.0805 187.125 83.5405C187.125 83.5405 187.855 87.5035 182.745 89.6405C177.635 91.7785 174.493 85.0785 174.493 85.0785V85.0785Z" stroke="#1B3445" stroke-width="0.992" stroke-linecap="round" stroke-linejoin="round"/>
<path d="M163.974 73.9985C163.974 73.9985 165.069 83.9575 169.24 90.4225C173.411 96.8875 177.374 100.33 181.962 100.642C186.55 100.955 196.301 96.4185 200.003 84.7385" stroke="#1B3445" stroke-width="0.992" stroke-linecap="round" stroke-linejoin="round"/>
<path d="M202.401 81.7676C202.401 81.7676 200.211 95.7936 202.297 100.226" stroke="#1B3445" stroke-width="0.992" stroke-linecap="round" stroke-linejoin="round"/>
<path d="M174.402 96.8354C174.402 96.8354 173.985 103.353 172.056 104.343" stroke="#1B3445" stroke-width="0.992" stroke-linecap="round" stroke-linejoin="round"/>
<path d="M172.942 95.3235C172.942 95.3235 170.387 96.3145 169.501 98.2435C168.615 100.172 167.676 102.988 165.695 104.083C163.714 105.178 164.965 114.98 166.581 116.962C168.197 118.944 168.354 118.787 169.657 116.441C170.961 114.095 172.108 110.758 174.558 111.801" stroke="#1B3445" stroke-width="0.992" stroke-linecap="round" stroke-linejoin="round"/>
<path d="M171.274 100.903C171.274 100.903 171.065 104.396 172.004 106.013C172.943 107.63 175.132 110.289 175.185 112.27C175.237 114.251 173.308 128.173 173.047 129.737C172.786 131.301 170.753 148.455 170.544 151.427C170.335 154.399 169.762 168.581 169.553 171.084C169.344 173.587 168.51 183.233 167.728 186.778C166.946 190.323 164.912 200.334 164.182 202.941C163.452 205.548 161.992 214.308 161.21 219.522C160.428 224.736 159.489 238.97 159.906 242.829" stroke="#1B3445" stroke-width="0.992" stroke-linecap="round" stroke-linejoin="round"/>
<path d="M201.567 95.2844C201.567 95.2844 202.857 95.2844 203.561 97.1224C204.265 98.9604 205.477 101.502 207.198 102.714C208.919 103.926 208.756 104.836 208.486 105.77C208.216 106.704 204.227 111.709 203.601 113.116C202.975 114.524 201.489 118.864 200.707 119.647C199.925 120.43 198.713 121.016 197.031 119.06C195.349 117.104 190.188 110.457 188.428 113.194" stroke="#1B3445" stroke-width="0.992" stroke-linecap="round" stroke-linejoin="round"/>
<path d="M203.131 98.9995C203.131 98.9995 202.466 102.598 199.729 105.413C196.992 108.229 195.662 109.402 192.495 110.497C189.327 111.592 187.998 113.039 187.646 114.368C187.294 115.697 187.372 120.351 187.49 123.753C187.607 127.155 187.725 149.445 187.686 152.417C187.647 155.389 187.647 161.177 187.334 166.221C187.021 171.265 185.301 186.126 185.261 186.634C185.221 187.142 183.775 198.913 184.362 206.46C184.949 214.007 186.435 224.448 186.787 226.365C187.139 228.281 188.86 243.806 188.781 245.918C188.702 248.03 188.546 250.062 188.546 250.062" stroke="#1B3445" stroke-width="0.992" stroke-linecap="round" stroke-linejoin="round"/>
<path d="M163.27 207.92C163.27 207.92 173.907 213.03 184.465 208.832" stroke="#1B3445" stroke-width="0.992" stroke-linecap="round" stroke-linejoin="round"/>
<path d="M173.92 123.87C173.92 123.87 180.216 127.311 187.294 123.323" stroke="#1B3445" stroke-width="0.992" stroke-linecap="round" stroke-linejoin="round"/>
<path d="M208.919 104.905C208.919 104.905 211.07 106.156 215.41 105.374" stroke="#1B3445" stroke-width="0.992" stroke-linecap="round" stroke-linejoin="round"/>
<path d="M201.684 88.5974C201.684 88.5974 202.974 95.7924 208.879 97.3174C214.784 98.8424 216.074 97.4344 216.074 97.4344" stroke="#1B3445" stroke-width="0.992" stroke-linecap="round" stroke-linejoin="round"/>
<path d="M146.233 108.58C146.233 108.58 157.261 108.854 164.652 106.429" stroke="#1B3445" stroke-width="0.992" stroke-linecap="round" stroke-linejoin="round"/>
<path d="M145.777 121.134C145.777 121.134 146.09 129.372 144.63 134.69C143.17 140.008 140.302 144.857 140.146 147.308C139.99 149.759 140.042 163.889 140.146 164.775" stroke="#1B3445" stroke-width="0.992" stroke-linecap="round" stroke-linejoin="round"/>
<path d="M140.485 168.999C140.485 168.999 141.189 174.265 140.667 178.489C140.146 182.712 138.269 189.073 138.842 192.045" stroke="#1B3445" stroke-width="0.992" stroke-linecap="round" stroke-linejoin="round"/>
<path d="M133.759 233.053C133.759 233.053 133.407 227.735 134.463 223.394C135.519 219.053 135.97 215.112 135.97 215.112" stroke="#1B3445" stroke-width="0.992" stroke-linecap="round" stroke-linejoin="round"/>
<path d="M130.552 199.97C130.552 199.97 137.953 191.711 140.275 191.695C142.597 191.679 142.962 192.044 144.891 192.514C146.82 192.984 148.906 192.097 149.375 193.348C149.844 194.599 148.436 196.216 146.455 196.268C144.474 196.32 142.544 196.112 140.824 196.894C139.104 197.676 138.453 199.421 138.453 199.421" stroke="#1B3445" stroke-width="0.992" stroke-linecap="round" stroke-linejoin="round"/>
<path d="M134.358 201.273C134.358 201.273 138.06 199.135 139.885 199.813C141.71 200.491 144.578 200.908 146.611 203.359C148.644 205.81 150.469 207.322 149.635 208.104C148.801 208.886 146.611 208.26 145.412 207.478C144.213 206.696 143.17 205.497 141.449 205.392C139.728 205.287 136.809 204.818 135.036 206.539" stroke="#1B3445" stroke-width="0.992" stroke-linecap="round" stroke-linejoin="round"/>
<path d="M133.889 206.747C133.889 206.747 137.382 205.756 139.937 206.799C142.492 207.842 144.056 208.103 146.194 211.231C148.332 214.359 149.479 215.507 148.332 215.871C147.185 216.236 144.213 214.359 142.492 213.108C140.771 211.857 135.349 209.354 132.533 211.909" stroke="#1B3445" stroke-width="0.992" stroke-linecap="round" stroke-linejoin="round"/>
<path d="M119.707 210.971C119.707 210.971 123.983 216.185 127.789 216.759C131.595 217.333 133.629 218.01 134.932 215.455C136.236 212.9 138.738 215.507 140.302 216.289C141.866 217.071 143.17 218.427 143.587 217.228C144.004 216.029 143.066 214.047 142.179 213.161" stroke="#1B3445" stroke-width="0.992" stroke-linecap="round" stroke-linejoin="round"/>
<path d="M127.893 200.074C127.893 200.074 121.949 193.348 120.072 190.115C118.195 186.882 114.703 179.832 114.703 179.832" stroke="#1B3445" stroke-width="0.992" stroke-linecap="round" stroke-linejoin="round"/>
<path d="M102.553 193.817C102.553 193.817 105.739 180.901 115.669 179.746" stroke="#1B3445" stroke-width="0.992" stroke-linecap="round" stroke-linejoin="round"/>
<path d="M117.413 207.843C117.413 207.843 105.57 194.688 103.41 191.541" stroke="#1B3445" stroke-width="0.992" stroke-linecap="round" stroke-linejoin="round"/>
<path d="M104.625 195.785C104.625 195.785 102.005 197.506 100.949 195.668C99.8927 193.83 99.3847 190.154 97.7807 188.551C96.1767 186.948 94.1827 182.92 95.8647 179.635C97.5467 176.35 103.334 170.406 107.988 170.211C112.642 170.016 113.815 170.211 114.44 172.127C115.065 174.043 115.848 175.998 116.63 177.054C117.412 178.11 117.569 180.613 116.474 182.646" stroke="#1B3445" stroke-width="0.992" stroke-linecap="round" stroke-linejoin="round"/>
<path d="M111.782 170.014C111.782 170.014 112.408 163.718 101.771 160.472" stroke="#1B3445" stroke-width="0.992" stroke-linecap="round" stroke-linejoin="round"/>
<path d="M107.48 158.244C107.48 158.244 112.603 160.238 113.971 166.847" stroke="#1B3445" stroke-width="0.992" stroke-linecap="round" stroke-linejoin="round"/>
<path d="M141.241 143.345C141.241 143.345 137.33 143.345 131.751 148.142C126.172 152.939 121.949 159.144 119.446 161.177C116.943 163.21 113.737 165.114 113.737 165.114" stroke="#1B3445" stroke-width="0.992" stroke-linecap="round" stroke-linejoin="round"/>
<path d="M93.4797 180.887C93.4797 180.887 92.0327 179.87 91.8377 175.764C91.6427 171.658 90.0777 167.004 90.7427 164.463C91.4077 161.922 92.5806 159.927 94.4966 156.916C96.4126 153.905 102.787 147.413 106.62 142.877C110.453 138.341 119.095 128.369 122.927 123.872C126.759 119.375 135.245 109.951 141.58 109.364" stroke="#1B3445" stroke-width="0.992" stroke-linecap="round" stroke-linejoin="round"/>
<path d="M225.717 245.036C225.717 245.036 223.857 230.55 221.276 221.79C218.695 213.03 218.851 199.5 219.164 197.858C219.477 196.216 220.963 193.244 220.572 190.741C220.181 188.238 219.946 184.719 220.807 183.546" stroke="#1B3445" stroke-width="0.992" stroke-linecap="round" stroke-linejoin="round"/>
<path d="M249.458 42.1924C249.458 42.1924 248.493 38.5164 249.953 37.8644C251.413 37.2124 254.229 39.1414 255.297 43.0004" stroke="#1B3445" stroke-width="0.992" stroke-linecap="round" stroke-linejoin="round"/>
<path d="M298.392 48.1365C298.392 48.1365 297.871 43.2355 296.567 42.5575C295.263 41.8795 293.021 40.9415 292.031 42.0365C291.041 43.1315 289.268 45.1125 288.433 48.1365C287.599 51.1605 286.556 53.9765 288.433 54.3935C290.31 54.8105 293.971 49.0975 295.373 47.1835" stroke="#1B3445" stroke-width="0.992" stroke-linecap="round" stroke-linejoin="round"/>
<path d="M290.164 44.0544C290.164 44.0544 288.224 38.0214 284.574 38.4384C280.924 38.8554 281.446 41.7754 280.82 44.3304C280.194 46.8854 277.692 55.4364 278.265 56.3224C278.838 57.2084 280.194 59.3984 282.488 57.3134C284.782 55.2284 287.858 44.9044 287.858 44.9044" stroke="#1B3445" stroke-width="0.992" stroke-linecap="round" stroke-linejoin="round"/>
<path d="M281.237 41.2024C281.237 41.2024 279.308 37.0834 276.388 37.2394C273.468 37.3954 272.373 39.4814 272.165 42.3494C271.957 45.2174 270.705 57.0004 271.487 58.5654C272.269 60.1294 273.729 60.4944 274.824 59.4514C275.919 58.4084 279.204 46.3124 279.517 44.2264" stroke="#1B3445" stroke-width="0.992" stroke-linecap="round" stroke-linejoin="round"/>
<path d="M295.367 47.7716L318.569 50.7436L302.562 192.513L209.141 181.619L225.446 39.8976L263.508 44.5906C263.508 44.5906 264.342 54.2366 265.646 56.6346C266.95 59.0326 268.931 58.4596 269.922 57.0516C270.913 55.6436 271.226 44.9026 270.808 42.4526C270.391 40.0016 270.495 39.2196 266.845 38.5946C263.195 37.9686 261.318 43.8086 261.318 43.8086" stroke="#1B3445" stroke-width="0.992" stroke-linecap="round" stroke-linejoin="round"/>
<path d="M226.519 42.3835L232.03 57.9965C233.094 60.2935 235.278 61.8695 237.794 62.1555L270.656 65.8925" stroke="#1B3445" stroke-width="0.992" stroke-linecap="round" stroke-linejoin="round"/>
<path d="M316.979 52.6694L308.103 66.6464C306.55 68.6454 304.068 69.6914 301.553 69.4054L268.691 65.6684" stroke="#1B3445" stroke-width="0.992" stroke-linecap="round" stroke-linejoin="round"/>
<path d="M226.818 148.026L269.375 153.084" stroke="#1B3445" stroke-width="0.992" stroke-linecap="round" stroke-linejoin="round"/>
<path d="M225.99 154.567L268.546 159.625" stroke="#1B3445" stroke-width="0.992" stroke-linecap="round" stroke-linejoin="round"/>
<path d="M225.249 160.934L258.997 165.032" stroke="#1B3445" stroke-width="0.992" stroke-linecap="round" stroke-linejoin="round"/>
<path d="M143.894 50.0285L124.59 42.0415C120.532 40.3625 115.884 40.9755 112.401 43.6505L95.8246 56.3765L99.4676 83.9745L104.606 86.1015L102.97 73.7065L111.792 77.3235L111.059 71.7695L102.24 68.1735L101.332 61.2945L116.182 67.3755L115.453 61.8515L103.146 56.8285L115.38 47.4355C117.471 45.8325 120.262 45.4645 122.697 46.4695L136.908 52.3505L121.331 64.2635L122.059 69.7755L139.848 56.1655L142.406 75.5015L124.612 89.1675L112.705 84.2395L109.836 83.0515L110.564 88.5675L125.339 94.6795L147.546 77.6285L143.894 50.0285Z" fill="#BEDDF5"/>
</g>
<defs>
<clipPath id="clip0_1_2539">
<rect width="375" height="250" fill="white" transform="translate(0.5)"/>
</clipPath>
</defs>
</svg>
