<svg width="376" height="250" viewBox="0 0 376 250" fill="none" xmlns="http://www.w3.org/2000/svg">
<path fill-rule="evenodd" clip-rule="evenodd" d="M308.536 67.879C308.279 67.236 308.078 66.573 307.932 65.896C307.724 64.721 306.805 61.808 305.864 60.867C304.312 59.317 301.203 61.454 299.818 59.61C298.837 58.303 299.434 56.759 299.068 55.296C298.923 54.713 299.012 53.787 298.696 53.261C298.337 52.664 297.657 52.131 297.488 51.45C297.25 50.506 298.348 50.134 298.48 49.337C298.701 48.016 298.394 46.649 298.394 45.327C298.394 44.562 298.255 43.334 298.356 42.616C298.385 42.408 298.864 40.039 300.206 39.592C302.602 38.794 305.495 41.178 307.499 42.179C308.393 42.626 309.527 43.537 310.477 43.774C311.433 43.986 312.323 44.43 313.067 45.067C314.254 46.105 314.96 47.699 315.57 49.12C316.474 51.202 317.135 53.38 317.54 55.613C317.719 56.688 318.78 59.421 318.78 59.421C318.78 59.421 314.331 64.706 311.299 65.463C310.604 65.637 309.49 65.844 309.141 66.541C308.983 66.859 308.825 67.173 308.667 67.49C308.634 67.556 308.631 68.091 308.538 67.878L308.536 67.879Z" fill="white"/>
<path fill-rule="evenodd" clip-rule="evenodd" d="M24.9166 59.4859C24.9166 59.4859 24.2716 58.3879 24.0926 58.0799C23.5806 57.1959 22.1746 56.1719 21.2486 55.7099C19.4286 54.8009 17.6706 55.7129 15.7306 55.2289C15.2936 55.1189 14.5986 54.8989 14.3446 54.3899C14.1636 54.0269 13.7026 51.8869 13.9216 51.6129C14.0636 51.4359 14.5376 51.2669 14.6856 51.1719C15.3356 50.7369 15.8616 50.1419 16.2136 49.4439C16.3446 49.1489 15.8836 49.2509 15.7716 49.2829C15.1406 49.4629 14.5246 49.8389 13.8416 49.6449C13.3376 49.5009 13.4656 48.6569 13.1136 47.9649C12.8526 47.4499 12.2146 46.8359 11.9446 46.3869C11.3526 45.3999 13.0136 45.1269 13.1576 44.2629C13.3816 42.9209 13.0836 41.3419 12.9166 40.0049C12.8096 39.1509 12.9726 37.8779 13.0566 37.0389C13.1206 36.3939 13.2146 35.6619 13.8006 35.2229C14.2556 34.8809 14.9986 34.9999 15.5296 34.9409C16.9976 34.7789 18.7486 34.8549 20.1126 35.4229C22.0076 36.2119 23.2056 37.5269 24.8166 38.6769C25.9766 39.5049 27.3156 40.0629 28.3946 41.0069C30.0076 42.4179 31.2306 44.9739 31.9726 46.9529C32.3296 47.9339 32.6126 48.9399 32.8196 49.9629C32.8196 49.9629 34.6666 52.2759 34.4656 52.5779C34.2616 52.8829 33.5646 52.8489 33.2596 52.9789C32.1616 53.4499 31.2146 54.1329 30.1726 54.7269C28.8946 55.4569 27.8786 56.1859 26.9176 57.2849C26.3656 57.9109 24.9146 59.4869 24.9146 59.4869L24.9166 59.4859Z" fill="white"/>
<path fill-rule="evenodd" clip-rule="evenodd" d="M31.9516 205.221C31.9516 205.221 31.6596 205.346 31.1566 205.628C30.5996 205.939 30.0396 206.302 29.4776 206.588C28.0006 207.34 26.4766 207.715 24.8566 207.373C22.7666 206.934 21.1736 205.779 19.2386 205.048C18.9026 204.878 18.5856 204.672 18.2936 204.434C18.2936 204.434 17.0846 205.367 16.7416 205.78C16.0096 206.665 15.0056 207.476 14.1016 208.189C11.5056 210.238 7.84657 209.683 5.23857 211.742C4.37057 212.428 3.02657 214.691 3.66757 215.947C4.53457 217.648 5.86957 217.266 7.43257 217.718C8.44257 218.01 9.45557 217.924 10.5016 217.975C13.2056 218.111 15.7896 218.385 18.4706 217.827C19.7146 217.568 22.2816 215.702 23.5586 215.997C24.6446 216.248 24.8046 217.355 25.8326 217.627C26.4676 217.795 27.2926 217.756 27.9606 217.774C29.7076 217.82 32.2696 218.583 33.6056 217.013C34.0546 216.487 33.7226 215.293 33.7386 214.674C33.7876 212.786 33.1726 209.54 32.7406 208.015C32.5526 207.35 31.9516 205.219 31.9516 205.219V205.221Z" fill="#D7E8F4"/>
<path fill-rule="evenodd" clip-rule="evenodd" d="M71.5836 203.185C71.5836 203.185 70.9726 204.813 70.1326 205.687C69.4056 206.442 67.6706 207.326 67.4826 207.422C66.4296 207.965 64.7596 207.909 63.4246 207.872C62.2836 207.841 61.3806 207.864 61.3806 207.864C61.3806 207.864 60.1306 210.562 59.7416 211.508C58.9486 213.434 58.2946 214.73 56.5216 215.814C54.8256 216.852 52.4796 217.866 51.4716 219.68C51.1606 220.237 50.8426 221.302 51.4456 221.904C52.3476 222.806 54.3156 223.317 55.4846 223.472C57.7696 223.773 61.8116 223.855 64.5196 223.367C66.0766 223.087 66.5216 222.732 67.6596 221.833C69.0716 220.72 69.0016 218.733 70.6956 217.781C71.8636 217.125 73.4036 217.193 74.6616 216.782C75.6936 216.446 76.5106 215.831 77.3676 215.194C78.0786 214.666 79.0736 213.431 79.3086 212.473C79.5196 211.619 78.0336 209.95 77.5956 209.397C76.6236 208.167 75.9206 207.524 74.9416 206.387C74.0646 205.367 71.5846 203.187 71.5846 203.187L71.5836 203.185Z" fill="#D7E8F4"/>
<path fill-rule="evenodd" clip-rule="evenodd" d="M302.07 210.054C302.07 210.054 299.368 212.303 298.225 212.306C295.355 212.313 293.18 211.382 290.653 210.225C290.042 209.945 289.231 209.306 288.713 208.873C288.627 208.799 288.532 208.736 288.431 208.685C288.431 208.685 287.085 209.482 286.71 209.915C285.848 210.861 284.857 211.68 283.767 212.35C281.182 213.882 277.934 213.96 275.353 215.491C274.442 216.031 273.456 217.468 273.917 218.563C274.844 220.761 278.792 220.977 280.643 221.351C283.186 221.863 286.086 221.337 288.671 221.19C290.176 221.103 292.055 219.605 293.558 219.767C294.75 219.896 294.825 221.26 295.921 221.54C296.622 221.719 297.485 221.54 298.204 221.551C299.77 221.578 302.606 221.702 304.004 220.84C304.883 220.296 304.503 219.524 304.235 218.531C303.87 217.179 303.58 215.154 303.333 214.187C303.169 213.546 302.071 210.054 302.071 210.054H302.07Z" fill="#D7E8F4"/>
<path fill-rule="evenodd" clip-rule="evenodd" d="M365.347 203.81C365.282 203.943 365.227 204.083 365.183 204.224L365.347 203.81Z" fill="#D7E8F4"/>
<path fill-rule="evenodd" clip-rule="evenodd" d="M365.459 204.111C365.459 204.111 365.252 204.012 365.062 204.421C364.765 205.09 364.429 205.742 364.055 206.373C363.283 207.619 361.683 208.037 360.295 208.037C358.582 208.035 356.871 207.905 355.177 207.649C354.566 207.555 353.81 207.198 353.203 207.198C352.855 207.198 352.606 207.956 352.464 208.184C351.991 208.977 351.336 209.646 350.553 210.136C348.634 211.287 346.376 211.962 344.348 212.931C343.55 213.312 342.616 213.597 341.923 214.165C340.918 214.987 340.414 216.535 341.051 217.807C341.389 218.482 342.701 219.404 343.361 219.506C345.386 219.817 346.843 220.088 348.886 220.169C351.4 220.269 353.888 220.39 356.326 219.577C357.599 219.153 358.464 217 359.762 216.87C360.317 216.841 360.873 216.87 361.421 216.958C362.562 217.243 363.03 218.153 364.222 218.244C366.067 218.386 367.763 217.409 369.4 216.682C370.218 216.32 371.153 215.839 371.699 215.075C372.34 214.177 371.528 212.988 371.088 212.182C370.209 210.573 369.323 208.434 368.022 207.134C367.161 206.273 365.459 204.114 365.459 204.114V204.111Z" fill="#D7E8F4"/>
<path fill-rule="evenodd" clip-rule="evenodd" d="M314.69 83.92C314.433 83.262 313.262 83.345 312.576 83.23C312.027 83.139 311.197 82.586 310.751 82.251C309.363 81.211 309.21 79.005 308.926 77.449C308.589 75.598 307.96 73.764 307.502 71.934C307.149 70.529 306.793 67.594 306.793 67.594L307.449 65.863C307.449 65.863 308.249 66.5 308.945 66.4C309.8 66.278 311.652 65.55 312.352 65.083C314.091 63.895 315.756 62.603 317.338 61.214C318.001 60.646 318.897 58.824 318.897 58.824C319.591 59.088 320.226 59.487 320.763 60C321.5 60.771 323.325 62.705 325.051 64.149C326.706 65.567 329.41 67.383 330.692 69.175C332.458 71.683 333.869 74.424 334.881 77.319C335.829 80.16 336.664 82.84 337.397 85.768C339.025 92.276 338.776 94.705 339.511 101.322C339.777 103.708 340.933 107.453 341.834 110.629C342.441 112.765 342.943 114.434 342.943 116.044C342.943 117.396 342.021 121.536 342.021 121.536C342.021 121.536 340.548 121.464 339.728 121.347C337.821 121.084 335.961 120.544 334.208 119.746C330.11 117.884 327.258 114.296 325.039 110.494C323.237 107.409 321.807 104.77 321.211 101.198C320.723 98.274 320.481 95.417 319.297 92.658C318.59 91.01 316.951 90.099 316.025 88.515C315.274 87.231 315.222 85.281 314.689 83.918L314.69 83.92Z" fill="white"/>
<path fill-rule="evenodd" clip-rule="evenodd" d="M300.946 115.903C300.042 120.28 296.987 140.802 296.987 140.802C296.987 140.802 292.977 145.338 291.332 147.464C287.769 152.069 283.87 157.81 283.217 163.786C282.887 166.802 283.509 169.631 284.071 172.574C284.631 175.505 285.206 179.867 285.901 182.849C286.57 185.717 287.106 187.747 287.253 190.619C287.342 192.348 287.522 193.589 287.398 195.32C287.319 196.435 287.163 197.516 287.296 198.644C287.496 200.331 289.128 201.458 289.198 203.155C289.266 204.8 287.112 207.369 288.609 208.657C288.915 208.92 289.694 209.713 290.054 209.892C290.287 210.007 292.127 211.106 292.428 211.208C294.076 211.768 296.851 212.391 298.868 211.966C300.068 211.715 301.578 210.112 302.364 209.222C303.221 208.251 302.488 207.717 302.101 206.66C301.853 205.982 301.699 204.539 301.774 203.83C301.948 202.167 302.827 200.034 303.036 198.356C303.544 194.285 302.2 191.314 302.284 187.248C302.34 184.592 303.053 180.412 303.134 178.923C303.214 177.434 303.053 175.577 302.85 173.869C302.646 172.157 302.019 170.467 302.619 168.741C303.208 167.04 306.477 164.121 307.475 162.652C308.989 160.423 309.03 160.42 310.911 158.512C311.273 158.144 313.014 156.623 313.014 156.623C313.014 156.623 313.823 161.095 314.11 162.761C314.765 166.561 316.104 168.453 318.074 171.777C319.747 174.599 325.369 181.314 328.879 184.848C330.789 186.773 332.985 189.062 334.831 191.042C336.569 192.906 337.857 193.966 339.657 195.755C341.037 197.127 342.148 197.324 343.686 198.397C344.433 198.919 345.253 199.283 346.097 200.098C346.702 200.681 348.919 201.678 349.403 202.153C350.619 203.343 350.42 205.439 351.319 206.304C351.703 206.673 352.683 206.778 353.386 207.039C356.776 208.301 361.647 208.758 364.423 206.115C365.109 205.462 365.526 203.983 365.276 202.734C365.026 201.484 362.613 199.182 362.613 199.182C362.613 199.182 360.9 197.419 360.449 196.844C359.946 196.201 359.021 194.825 358.582 193.262C358.143 191.7 356.231 189.038 353.755 186.576C350.115 182.958 346.17 177.699 342.263 174.366C340.075 172.5 337.853 171.68 336.316 169.194C334.981 167.032 335.944 164.137 335.925 161.704C335.904 158.728 335.451 154.21 336.153 151.247C337.668 144.849 341.575 139.989 342.916 133.506C343.628 130.066 342.309 121.44 342.309 121.44C342.309 121.44 340.791 122.181 338.474 121.623C336.186 121.072 329.179 120.516 328.467 119.955C326.349 118.285 314.172 117.215 314.172 117.215" fill="#133340"/>
<path fill-rule="evenodd" clip-rule="evenodd" d="M317.61 89.6331C317.61 89.6331 318.789 91.6401 319.29 92.6421C319.994 94.0471 320.878 95.3461 321.577 96.7431C322.064 97.7151 322.385 98.7861 322.926 99.7311C323.573 100.864 324.191 101.99 324.356 103.308C324.795 106.811 321.778 109 320.172 111.674C319.157 113.364 317.996 115.4 316.992 117.073C315.721 119.189 313.783 122.818 312.959 123.925C312.135 125.032 311.987 124.964 311.364 125.462C310.978 125.77 309.651 126.62 309.651 126.62C309.651 126.62 309.806 130.174 309.6 131.809C309.509 132.54 309.715 133.516 309.498 134.236C309.327 134.806 308.407 135.901 308.407 135.901C308.407 135.901 309.162 137.201 309.264 137.809C309.428 138.797 309.113 139.275 308.435 139.784C308.28 139.9 305.565 140.896 305.928 141.042C307.21 141.554 309.785 140.594 310.35 139.605C312.504 135.84 313.541 132.31 316.373 129.007C318.034 127.071 321.101 125 323.018 123.375C325.684 121.117 328.431 118.494 331.172 115.917C333.414 113.81 336.615 111.145 337.405 107.99C337.965 105.751 337.701 103.574 337.053 101.429C336.507 99.6201 335.27 94.7841 334.708 91.4111C334.481 90.0521 334.154 85.7231 334.154 85.7231C334.154 85.7231 331.318 85.1111 330.3 84.9421C328.703 84.6761 326.223 84.9441 324.612 85.3471C322.003 86.0001 317.609 89.6351 317.609 89.6351L317.61 89.6331Z" fill="white"/>
<path fill-rule="evenodd" clip-rule="evenodd" d="M302.016 41.0401C302.016 41.0401 302.569 41.9531 302.649 42.0531C303.15 42.6791 303.943 42.9421 304.601 43.3361C305.162 43.6711 305.568 44.1711 305.977 44.7161C306.499 45.4001 307.194 45.9321 307.989 46.2601C309.353 46.8061 311.054 46.2681 312.457 46.6191C313.639 46.9141 313.673 48.5601 313.617 48.8981C313.561 49.2361 313.205 50.6611 313.205 50.6611C313.205 50.6611 314.515 51.3711 315.175 52.1611C315.835 52.9511 316.27 54.1391 317.181 54.3671C317.9 54.5461 318.258 54.8171 319.148 53.7781C320.197 52.5521 321.727 49.9671 321.727 49.9671C321.727 49.9671 319.525 48.2701 318.157 47.1311C316.253 45.5451 314.124 44.2481 311.841 43.2821C310.646 42.7701 309.844 41.6561 309.844 41.6561C309.844 41.6561 305.674 41.0371 304.324 41.0371H302.017L302.016 41.0401Z" fill="#133340"/>
<path fill-rule="evenodd" clip-rule="evenodd" d="M297.232 39.719C295.893 39.728 296.382 43.059 297.77 43.337C298.26 43.434 298.735 41.809 298.831 41.478C299.12 40.467 298.356 39.712 297.231 39.72L297.232 39.719Z" fill="#133340"/>
<path fill-rule="evenodd" clip-rule="evenodd" d="M321.399 49.9599C321.399 49.8009 321.642 49.8279 321.75 49.7499C322.119 49.4809 322.415 48.9979 322.661 48.6289L321.399 49.9599Z" fill="#1B3445"/>
<path fill-rule="evenodd" clip-rule="evenodd" d="M296.648 42.4839C296.648 42.4839 293.223 42.2289 292.022 41.4809C291.325 41.0479 290.926 40.3989 290.441 39.7659C290.233 39.4929 289.891 38.0989 290.481 37.7389C291.19 37.3049 292.908 37.1319 293.705 36.9809C295.494 36.6409 299.916 35.9629 299.916 35.9629C300.169 35.4399 300.513 34.9659 300.932 34.5629C301.728 33.8359 302.654 33.5329 303.955 32.7959C304.948 32.2349 305.575 31.7189 306.578 31.4379C308.782 30.8229 312.869 31.5159 314.899 32.2659C317.029 33.0549 317.853 33.4459 319.787 34.6849C322.387 36.3509 324.424 40.4019 324.287 43.3529C324.208 45.0589 323.756 46.9489 322.837 48.3839C322.542 48.8449 321.584 50.0569 321.584 50.0569C321.584 50.0569 319.474 48.1669 317.934 47.0239C317.179 46.4639 315.599 45.4699 313.767 44.3219C311.581 42.9509 309.169 41.4529 309.169 41.4529C309.169 41.4529 304.199 41.4309 301.345 40.9209C300.153 40.7079 298.861 40.5209 297.769 39.9749C297.608 39.8939 296.478 39.4069 296.478 39.4069C296.378 40.0069 296.332 40.6139 296.339 41.2209C296.373 41.6559 296.476 42.0819 296.647 42.4839H296.648Z" fill="#1B92D1"/>
<path fill-rule="evenodd" clip-rule="evenodd" d="M34.9316 121.502C38.2556 123.578 47.2316 120.445 47.2316 120.445L54.2296 140.607C54.2296 140.607 51.8856 150.296 51.5056 156.694C51.4476 157.662 51.6636 160.197 51.4646 161.574C51.1536 163.728 50.0056 164.775 49.6916 166.602C49.4046 168.277 49.5746 171.074 49.7666 171.726C49.9856 172.471 50.5676 173.819 51.5136 174.662C52.5776 175.608 54.0746 176.094 55.5176 177.861C57.1436 179.854 58.3606 183.138 60.0136 185.72C61.2636 187.671 62.9686 188.964 64.1146 190.432C65.1846 191.803 65.8806 192.545 66.4426 193.58C67.4936 195.509 68.0176 197.47 69.1926 199.483C70.5006 201.723 71.8646 201.638 71.4826 203.088C71.3446 203.611 70.0086 206.284 68.3896 207.2C66.7756 208.114 65.1106 207.81 63.2406 207.794C61.3706 207.778 61.2136 208.626 59.9506 207.441C58.8446 206.402 58.1426 203.621 56.9406 202.205C56.1196 201.239 54.9786 199.256 53.8116 198.399C51.6736 196.829 49.7816 196.305 47.6026 193.758C46.6096 192.597 45.4166 191.064 43.6856 188.929C41.6176 186.379 38.9326 183.157 36.9936 181.25C34.9126 179.203 33.0716 178.547 31.8586 176.068C30.2936 172.871 30.4466 169.517 30.2916 166.418C30.1146 162.882 29.8786 159.976 29.8786 159.976C29.8786 159.976 28.3656 161.471 26.7816 163.269C25.4536 164.777 23.9856 166.492 24.1916 167.798C24.5436 170.03 24.9986 175.4 25.8386 178.357C27.0236 182.527 27.8396 184.726 28.4016 187.855C28.5406 188.626 28.4166 191.341 28.6436 192.153C28.7646 192.587 29.3096 193.952 29.4566 194.384C30.3266 196.936 30.4036 196.186 31.2416 198.009C31.6446 198.888 30.9266 200.363 31.3656 201.595C31.7576 202.698 32.4686 204.063 32.3026 204.302C31.2486 205.826 28.7066 207.48 25.1716 207.48C24.0736 207.48 20.3746 205.032 19.3386 204.774C18.8356 204.647 17.8836 203.748 17.9716 203.88C18.1956 204.216 17.2896 202.429 17.2376 202.028C16.7906 198.567 16.6306 194.902 15.3316 192.739C14.2316 190.906 12.6346 189.489 11.7536 187.435C9.64161 182.511 8.53961 178.653 6.64961 173.617C5.70761 171.106 4.51061 167.26 3.92961 164.647C3.67861 163.519 3.48461 162.707 3.68261 161.518C4.11961 158.878 4.91761 156.311 6.05361 153.887C7.26261 151.23 8.99461 148.278 10.3016 145.666C10.9346 144.4 16.3666 136.004 17.6396 132.613C18.1996 131.121 18.8046 128.781 19.3156 127.209C20.2156 124.436 21.8946 122.393 22.3006 119.549" fill="#133340"/>
<path fill-rule="evenodd" clip-rule="evenodd" d="M36.6366 45.0089C37.5136 43.6119 38.2496 42.2059 38.7006 40.8549C39.3716 38.8509 39.7546 36.7249 38.6296 34.5779C38.1846 33.7279 36.9916 31.7059 36.3776 30.9559C34.7676 28.9909 32.4576 27.8069 30.0836 27.2299C29.0966 26.9899 27.1316 26.2149 26.0956 26.2429C26.0956 26.2429 22.5556 25.9039 21.1596 26.2199C19.7196 26.5459 17.7356 28.0139 16.5716 28.8909C15.9026 29.4019 15.2986 29.9929 14.7716 30.6489C14.7716 30.6489 12.9436 30.9249 11.1086 31.2629C8.47657 31.7479 5.75857 31.9339 5.20757 32.9559C4.73457 33.8319 5.88657 35.7339 7.54857 36.5469C9.17457 37.3429 11.3076 37.0609 11.3076 37.0609L11.1036 34.0249L14.7116 35.5669L24.6336 36.4789L36.6346 45.0059L36.6366 45.0089Z" fill="#1B92D1"/>
<path fill-rule="evenodd" clip-rule="evenodd" d="M24.7526 26L24.4896 26.007L24.7526 26Z" fill="#1B3445"/>
<path fill-rule="evenodd" clip-rule="evenodd" d="M13.6405 35.0129L11.2045 33.8799C11.2045 33.8799 10.7935 35.9689 11.2685 36.7499C11.7435 37.5309 12.3835 37.6659 12.5205 37.5829C13.0455 37.2639 13.6415 35.0129 13.6415 35.0129H13.6405Z" fill="#133340"/>
<path fill-rule="evenodd" clip-rule="evenodd" d="M18.1996 35.9661C18.5326 37.4931 19.4506 39.3061 20.8486 40.4771C21.5376 41.0541 22.2596 41.7241 23.2486 41.6421C24.8296 41.5101 26.0656 40.7621 27.4646 41.9451C28.9856 43.2311 27.2336 44.7171 27.7846 46.2951C28.2766 47.7041 30.0536 48.9101 31.4136 49.3031C31.9316 49.4531 32.3626 49.8211 32.9106 49.5961C33.4126 49.3901 33.6616 48.8151 33.9616 48.4021C34.6686 47.4281 36.6896 44.5791 36.6896 44.5791C36.6896 44.5791 34.4796 42.8571 33.8026 42.2711C32.9706 41.5521 32.0406 40.9571 31.1546 40.3091C29.0156 38.7451 24.7076 36.4571 24.7076 36.4571C24.7076 36.4571 21.2106 36.1311 19.9756 35.8291C19.5666 35.7321 18.1416 35.7011 18.1996 35.9651V35.9661Z" fill="#133340"/>
<path fill-rule="evenodd" clip-rule="evenodd" d="M22.0205 65.6601C21.3505 66.0961 22.3105 63.9021 22.4635 63.5441C23.0275 62.2521 23.7045 61.0131 24.4855 59.8401C25.7655 57.9221 28.6295 55.4751 31.1985 53.9771C32.3695 53.3151 33.6205 52.8061 34.9205 52.4641C34.9205 52.4641 39.7345 55.8081 41.2685 57.9551C42.2265 59.2951 44.3765 60.8771 45.6505 63.1961C48.1465 67.7421 49.7535 73.3781 49.7535 73.3781L49.7055 77.0711L48.5765 77.0951C48.5765 77.0951 47.8065 73.7781 47.2815 72.2021C45.8745 67.9841 44.1355 63.7151 41.0005 60.5831C38.0395 57.6251 35.0715 56.0761 30.8955 56.9121C30.0205 57.0871 28.4075 57.9701 27.7205 58.4281C26.5425 59.2121 23.0145 65.0151 22.0195 65.6621L22.0205 65.6601Z" fill="white"/>
<path fill-rule="evenodd" clip-rule="evenodd" d="M49.6636 86.429C49.7176 85.422 48.2436 82.791 48.2436 82.791C47.6186 82.947 46.8696 84.544 45.8026 85.313C44.7356 86.081 42.7756 87.124 40.8906 88.469C39.8206 89.233 35.1586 90.504 35.1586 90.504C35.1586 90.504 36.6566 92.736 36.9776 93.058C38.2756 94.355 38.7406 95.651 39.5396 97.249C40.0306 98.23 40.4336 101.339 40.8196 102.366C42.1276 105.85 42.5986 107.769 44.0586 111.175C44.4836 112.164 45.0546 113.734 45.1476 114.33C45.2396 114.926 46.8456 119.861 47.1386 121.619C47.7396 125.224 47.5516 126.786 46.9436 130.431C46.5626 132.717 45.7546 136.355 45.8776 137.336C45.9876 138.206 46.7736 139.283 47.3486 139.858C48.5306 141.038 48.7996 142.322 50.7156 142.003C51.4526 141.88 54.1496 140.638 54.0736 140.525C53.9426 140.327 50.5246 139.904 49.8836 139.135C49.3106 138.449 49.1626 137.317 49.7336 136.69C49.8956 136.512 50.4956 135.878 50.4956 135.878C50.4956 135.878 49.8906 134.329 49.7206 133.477C49.3916 131.832 49.6126 129.509 49.6126 127.809C49.6126 119.685 49.4486 112.172 49.4486 104.048C49.4486 98.406 49.3646 92.064 49.6656 86.43L49.6636 86.429Z" fill="white"/>
<path fill-rule="evenodd" clip-rule="evenodd" d="M22.1716 85.628C22.1716 85.628 25.2476 85.512 26.1026 86.915C27.2586 88.813 27.3846 90.82 27.6696 93.256C27.9306 95.491 28.3886 98.147 28.5296 100.116C28.6616 101.965 29.1796 104.036 29.7356 105.622C30.2916 107.208 31.7306 110.147 33.2486 113.182C33.7116 114.108 34.3866 116.099 35.2036 116.752C36.2716 117.606 37.7456 119.517 39.0486 119.95C41.0316 120.611 44.8466 121.161 46.5626 119.448C46.5626 119.448 46.3066 118.172 46.2586 117.83C46.0536 116.392 44.9356 113.509 44.3936 112.151C43.7646 110.579 41.8166 106.113 41.3516 104.485C40.1346 100.229 40.4766 99.828 38.8386 95.734C38.2406 94.241 35.0416 90.336 35.0556 90.314C35.0556 90.314 37.3766 90.073 38.0366 89.742C41.2886 88.117 44.5846 86.681 47.1186 84.148C47.5726 83.694 49.3386 81.37 49.1576 80.649C49.0466 80.206 46.9776 76.832 46.9776 76.832C46.9776 76.832 45.7026 72.97 45.2486 71.153C44.8196 69.456 44.1616 67.824 43.2946 66.304C42.5026 64.986 41.5776 63.349 40.6206 62.154C39.9436 61.263 39.1516 60.464 38.2666 59.778C37.1666 58.954 35.6876 58.206 34.1226 58.047C31.2526 57.755 27.5756 59.218 25.8126 61.566C22.9126 65.43 22.4566 67.779 22.0226 72.552C21.8496 74.455 21.5596 78.675 21.8016 80.603C21.9906 82.128 22.1726 85.627 22.1726 85.627L22.1716 85.628Z" fill="white"/>
<path fill-rule="evenodd" clip-rule="evenodd" d="M94.1876 40.9081C95.1366 39.6211 96.7106 38.9141 96.7106 38.9141L264.028 39.0061C264.028 39.0061 266.283 40.0851 266.644 41.6681C266.946 42.9981 266.914 53.0311 266.914 53.0311C266.914 53.0311 270.474 52.2701 271.671 52.6371C279.385 56.4591 299.078 63.1621 304.343 66.5261C308.232 69.0121 309.243 70.1991 309.296 71.5711C309.329 72.3771 309.445 74.0071 309.445 74.0071L309.776 133.84L308.36 135.987C308.36 135.987 309.79 137.855 309.462 138.919C309.134 139.983 307.047 140.244 307.047 140.244L299.075 140.803L88.0736 140.718C88.0736 140.718 63.9306 141.334 56.0216 140.57C51.9146 140.173 49.8266 139.452 49.2776 138.612C48.4656 137.37 50.5406 135.988 50.5406 135.988L49.6916 134.61L49.7556 75.0121C49.7556 75.0121 49.0956 70.0701 51.6056 67.8821C52.2806 67.2931 53.7246 65.8601 55.9266 64.8891C59.8736 63.1481 65.5816 61.2331 71.5826 59.1361C79.0946 56.5091 84.8586 55.3571 90.3396 54.3721C92.3096 54.0171 93.4926 55.1201 93.4926 55.1201C93.4926 55.1201 93.2396 42.1971 94.1886 40.9091L94.1876 40.9081Z" fill="#D7E8F4"/>
<path fill-rule="evenodd" clip-rule="evenodd" d="M67.2976 140.809L75.9966 140.833C75.9966 140.833 74.2626 155.71 73.1406 161.221C72.9016 162.397 71.8976 162.694 71.3746 162.771C70.7476 162.862 69.8716 162.579 69.5796 161.247C68.6296 156.917 67.2976 140.809 67.2976 140.809Z" fill="white"/>
<path fill-rule="evenodd" clip-rule="evenodd" d="M92.1185 140.836L96.6755 140.789C96.6755 140.789 96.7425 143.182 95.8885 144.135C95.0345 145.089 93.9635 145.766 93.1255 144.721C92.2875 143.677 92.1185 140.835 92.1185 140.835V140.836Z" fill="white"/>
<path fill-rule="evenodd" clip-rule="evenodd" d="M260.874 140.951L265.009 140.766C265.009 140.766 265.418 142.947 264.601 143.807C263.784 144.667 262.567 145.098 261.739 144.204C260.911 143.311 260.875 140.951 260.875 140.951H260.874Z" fill="white"/>
<path fill-rule="evenodd" clip-rule="evenodd" d="M283.89 140.678L292.475 140.967C292.475 140.967 290.922 154.274 289.583 161.225C289.51 161.627 289.299 161.991 288.987 162.254C288.674 162.517 288.28 162.664 287.872 162.668C287.355 162.631 286.315 162.267 286.172 161.242C285.242 154.571 283.89 140.678 283.89 140.678Z" fill="white"/>
<path d="M24.8746 165.681C24.7926 165.681 24.7126 165.657 24.6456 165.611C24.5776 165.566 24.5246 165.501 24.4936 165.426C24.4626 165.351 24.4546 165.268 24.4706 165.188C24.4866 165.107 24.5266 165.034 24.5846 164.976C26.3616 163.213 27.8966 161.69 29.3926 159.395C29.4526 159.304 29.5466 159.24 29.6526 159.218C29.7596 159.196 29.8706 159.218 29.9626 159.277C30.0536 159.336 30.1176 159.43 30.1406 159.537C30.1636 159.644 30.1426 159.755 30.0836 159.847C28.5386 162.215 26.9756 163.767 25.1656 165.562C25.0886 165.639 24.9836 165.682 24.8746 165.682V165.681Z" fill="#1B3445"/>
<path d="M342.096 121.783C342.042 121.783 341.988 121.772 341.938 121.752C341.888 121.731 341.842 121.701 341.804 121.663C341.766 121.624 341.735 121.579 341.715 121.529C341.694 121.479 341.683 121.425 341.684 121.371C341.684 120.424 341.914 119.439 342.136 118.486C342.407 117.327 342.687 116.129 342.532 115.046C342.386 114.027 342.038 112.978 341.7 111.963C341.505 111.375 341.311 110.79 341.152 110.209C340.249 106.9 339.471 103.909 339.084 100.82C338.935 99.6259 338.795 98.4199 338.656 97.2079C337.69 88.8519 336.692 80.2109 332.087 73.0529C330.757 71.0249 329.242 69.1239 327.561 67.3749C327.489 67.2949 327.451 67.1889 327.455 67.0809C327.46 66.9729 327.507 66.8709 327.586 66.7979C327.664 66.7239 327.77 66.6839 327.878 66.6869C327.985 66.6899 328.088 66.7339 328.164 66.8119C329.879 68.5979 331.424 70.5379 332.782 72.6079C337.49 79.9269 338.5 88.6649 339.476 97.1149C339.615 98.3239 339.755 99.5269 339.903 100.719C340.283 103.755 341.054 106.715 341.949 109.993C342.104 110.56 342.294 111.13 342.484 111.704C342.833 112.754 343.193 113.839 343.35 114.931C343.526 116.167 343.228 117.443 342.94 118.674C342.719 119.624 342.509 120.52 342.509 121.373C342.509 121.483 342.466 121.587 342.389 121.665C342.311 121.742 342.207 121.785 342.097 121.785L342.096 121.783Z" fill="#1B3445"/>
<path d="M317.758 55.036C317.728 55.036 317.698 55.033 317.668 55.026C316.244 54.709 315.832 53.965 315.435 53.246C315.121 52.678 314.794 52.09 313.894 51.562C313.8 51.507 313.731 51.416 313.704 51.31C313.677 51.204 313.692 51.092 313.747 50.998C313.802 50.904 313.892 50.835 313.998 50.808C314.104 50.78 314.217 50.796 314.311 50.851C315.406 51.493 315.822 52.243 316.155 52.847C316.52 53.508 316.785 53.985 317.846 54.222C317.945 54.244 318.033 54.302 318.091 54.384C318.15 54.467 318.177 54.568 318.166 54.669C318.155 54.77 318.107 54.863 318.031 54.931C317.956 54.999 317.857 55.036 317.756 55.036H317.758Z" fill="#133340"/>
<path fill-rule="evenodd" clip-rule="evenodd" d="M299.903 48.595C299.858 48.192 300.079 47.842 300.398 47.814C300.716 47.786 301.009 48.09 301.054 48.493C301.098 48.895 300.877 49.245 300.559 49.274C300.24 49.303 299.948 48.998 299.903 48.595Z" fill="#1B3445"/>
<path d="M306.81 44.347C304.498 44.347 302.397 42.57 301.568 41.172C301.512 41.078 301.496 40.966 301.524 40.86C301.551 40.754 301.619 40.663 301.714 40.608C301.808 40.552 301.919 40.536 302.025 40.564C302.132 40.591 302.223 40.659 302.279 40.754C303.043 42.044 305.169 43.803 307.336 43.486C307.444 43.471 307.554 43.499 307.641 43.564C307.729 43.629 307.787 43.726 307.804 43.833C307.812 43.887 307.809 43.941 307.796 43.994C307.783 44.047 307.759 44.096 307.727 44.139C307.694 44.182 307.654 44.219 307.607 44.247C307.561 44.275 307.509 44.293 307.455 44.301C307.241 44.333 307.025 44.348 306.808 44.348L306.81 44.347Z" fill="#133340"/>
<path d="M298.106 44.251C298.047 44.251 297.987 44.238 297.933 44.213C295.89 43.273 295.547 41.094 296.262 39.428C296.306 39.329 296.388 39.251 296.489 39.212C296.59 39.172 296.702 39.174 296.802 39.217C296.902 39.26 296.98 39.34 297.021 39.44C297.062 39.54 297.062 39.653 297.021 39.753C296.48 41.013 296.643 42.713 298.279 43.465C298.364 43.504 298.434 43.572 298.475 43.656C298.517 43.74 298.529 43.836 298.509 43.928C298.488 44.02 298.437 44.102 298.364 44.161C298.291 44.22 298.2 44.252 298.106 44.252V44.251Z" fill="#133340"/>
<path d="M33.9316 48.892C33.8556 48.892 33.7816 48.871 33.7166 48.831C33.6516 48.791 33.5996 48.735 33.5646 48.668C33.5296 48.601 33.5146 48.525 33.5206 48.45C33.5266 48.375 33.5526 48.302 33.5966 48.24L33.8826 47.842C34.6336 46.797 35.4096 45.716 36.0906 44.647C36.1196 44.601 36.1576 44.562 36.2016 44.531C36.2456 44.5 36.2956 44.478 36.3486 44.466C36.4016 44.454 36.4566 44.453 36.5096 44.462C36.5626 44.471 36.6136 44.491 36.6596 44.52C36.7056 44.549 36.7446 44.587 36.7756 44.631C36.8066 44.675 36.8286 44.725 36.8406 44.778C36.8526 44.831 36.8536 44.885 36.8446 44.939C36.8356 44.992 36.8156 45.043 36.7866 45.089C36.0936 46.177 35.3106 47.267 34.5536 48.322L34.2686 48.72C34.2306 48.773 34.1796 48.817 34.1216 48.847C34.0626 48.877 33.9986 48.893 33.9326 48.892H33.9316Z" fill="#133340"/>
<path d="M29.9845 49.2959C29.9105 49.2959 29.8375 49.2759 29.7735 49.2379C28.9895 48.7709 28.0755 47.1879 28.1785 46.1459C28.1835 46.0919 28.1985 46.0389 28.2235 45.9909C28.2485 45.9429 28.2835 45.8999 28.3255 45.8659C28.3675 45.8319 28.4165 45.8059 28.4685 45.7899C28.5205 45.7749 28.5755 45.7699 28.6295 45.7759C28.7385 45.7869 28.8385 45.8399 28.9075 45.9249C28.9765 46.0099 29.0095 46.1179 28.9985 46.2269C28.9245 46.9719 29.7135 48.2429 30.1955 48.5299C30.2735 48.5759 30.3335 48.6469 30.3665 48.7299C30.4005 48.8139 30.4055 48.9059 30.3815 48.9929C30.3575 49.0799 30.3055 49.1569 30.2335 49.2109C30.1615 49.2659 30.0735 49.2949 29.9835 49.2949L29.9845 49.2959Z" fill="#133340"/>
<path d="M33.0485 50.298H33.0425C32.2085 50.285 31.0805 49.587 30.7955 48.606C30.7645 48.501 30.7775 48.388 30.8295 48.293C30.8825 48.197 30.9705 48.126 31.0755 48.096C31.1805 48.066 31.2935 48.078 31.3895 48.13C31.4855 48.183 31.5565 48.271 31.5865 48.376C31.7565 48.958 32.5345 49.466 33.0545 49.474C33.1635 49.474 33.2685 49.519 33.3455 49.597C33.4225 49.675 33.4645 49.78 33.4645 49.889C33.4645 49.998 33.4195 50.103 33.3415 50.18C33.2635 50.257 33.1585 50.299 33.0485 50.298Z" fill="#133340"/>
<path fill-rule="evenodd" clip-rule="evenodd" d="M14.5426 43.5999C14.4986 43.1979 14.7196 42.8479 15.0376 42.8199C15.3556 42.7919 15.6486 43.0949 15.6936 43.4989C15.7386 43.9019 15.5166 44.2509 15.1986 44.2799C14.8806 44.3089 14.5876 44.0029 14.5426 43.5999Z" fill="#1B3445"/>
<path d="M23.3986 41.8411C21.8466 41.8411 20.4746 40.9791 19.4066 39.3271C18.9216 38.5531 18.4796 37.7511 18.0846 36.9271C17.9456 36.6481 17.8216 36.3991 17.7106 36.1961C17.6846 36.1481 17.6686 36.0961 17.6626 36.0421C17.6566 35.9881 17.6626 35.9341 17.6776 35.8821C17.7086 35.7771 17.7806 35.6891 17.8766 35.6371C17.9726 35.5851 18.0856 35.5731 18.1906 35.6041C18.2956 35.6351 18.3836 35.7071 18.4356 35.8031C18.5496 36.0131 18.6776 36.2701 18.8226 36.5601C19.2036 37.3571 19.6296 38.1311 20.0986 38.8801C21.1006 40.4311 22.3326 41.1441 23.7526 40.9991C23.8066 40.9941 23.8606 40.9991 23.9126 41.0141C23.9646 41.0301 24.0126 41.0551 24.0546 41.0891C24.0966 41.1231 24.1316 41.1651 24.1576 41.2131C24.1836 41.2611 24.1996 41.3131 24.2046 41.3671C24.2096 41.4211 24.2046 41.4751 24.1896 41.5271C24.1746 41.5791 24.1486 41.6271 24.1146 41.6691C24.0806 41.7111 24.0386 41.7461 23.9906 41.7721C23.9426 41.7981 23.8906 41.8141 23.8366 41.8191C23.6916 41.8341 23.5456 41.8411 23.3986 41.8421V41.8411Z" fill="#133340"/>
<path d="M308.777 46.9831C307.78 46.9831 306.618 46.2331 306.105 45.3881C306.048 45.2941 306.031 45.1821 306.057 45.0761C306.083 44.9701 306.15 44.8781 306.244 44.8221C306.338 44.7651 306.45 44.7481 306.556 44.7741C306.663 44.8001 306.754 44.8671 306.81 44.9611C307.278 45.7311 308.456 46.3331 309.065 46.1151C309.116 46.0961 309.17 46.0871 309.225 46.0891C309.28 46.0911 309.333 46.1031 309.383 46.1261C309.432 46.1491 309.477 46.1811 309.515 46.2211C309.552 46.2611 309.58 46.3081 309.6 46.3591C309.618 46.4101 309.627 46.4651 309.624 46.5191C309.621 46.5741 309.608 46.6271 309.584 46.6761C309.56 46.7251 309.528 46.7701 309.487 46.8061C309.447 46.8421 309.399 46.8701 309.348 46.8881C309.164 46.9531 308.972 46.9841 308.778 46.9821L308.777 46.9831Z" fill="#133340"/>
<path d="M296.912 221.181H296.885C295.655 221.175 295.189 220.8 294.777 220.468C294.409 220.128 293.925 219.94 293.424 219.944C292.542 219.876 291.655 219.993 290.821 220.29C290.189 220.493 289.543 220.645 288.886 220.746C286.83 221.057 284.179 221.057 280.779 220.749C279.658 220.647 276.888 220.301 275.348 219.286C273.865 218.309 273.591 216.849 274.087 215.974C274.578 215.107 276.278 214.401 277.025 214.195C277.448 214.079 277.878 213.964 278.308 213.85C279.797 213.456 281.335 213.047 282.746 212.458C284.12 211.887 285.081 211.018 286.1 210.099C286.707 209.528 287.35 208.996 288.026 208.507C288.116 208.447 288.225 208.425 288.332 208.445C288.438 208.465 288.532 208.526 288.593 208.614C288.655 208.703 288.679 208.812 288.661 208.919C288.643 209.025 288.584 209.12 288.497 209.183C287.851 209.653 287.235 210.163 286.654 210.71C285.628 211.636 284.569 212.594 283.065 213.22C281.603 213.829 280.036 214.245 278.521 214.645C278.093 214.759 277.667 214.873 277.247 214.988C276.429 215.214 275.107 215.851 274.807 216.378C274.492 216.938 274.778 217.92 275.805 218.597C276.765 219.229 278.653 219.726 280.856 219.927C284.19 220.23 286.777 220.23 288.765 219.93C289.382 219.835 289.99 219.691 290.584 219.499C291.511 219.175 292.494 219.047 293.473 219.121C294.492 219.18 294.919 219.522 295.295 219.825C295.646 220.107 295.949 220.35 296.892 220.355C298.403 220.352 301.924 220.248 303.098 219.841C304.075 219.501 303.798 217.533 303.447 215.857C303.068 214.044 301.917 210.481 301.663 209.792C301.645 209.741 301.636 209.687 301.638 209.633C301.64 209.579 301.653 209.526 301.676 209.477C301.698 209.428 301.731 209.384 301.77 209.347C301.81 209.31 301.856 209.282 301.907 209.263C301.957 209.245 302.011 209.236 302.065 209.238C302.119 209.24 302.172 209.253 302.222 209.276C302.271 209.298 302.315 209.33 302.351 209.37C302.388 209.41 302.416 209.456 302.436 209.507C302.747 210.347 303.885 213.921 304.254 215.688C304.546 217.087 305.156 219.998 303.368 220.62C301.79 221.167 297.302 221.18 296.913 221.18L296.912 221.181Z" fill="#1B3445"/>
<path d="M296.943 222.148H296.804C295.515 222.141 295.062 221.512 294.698 221.007C294.394 220.586 294.174 220.281 293.477 220.24C292.4 220.179 291.783 220.506 291.068 220.888C290.371 221.3 289.604 221.58 288.805 221.713C286.75 222.025 284.098 222.025 280.697 221.716C280.011 221.654 276.504 221.29 274.89 220.226C273.628 219.395 273.022 218.46 273.904 216.366C273.947 216.265 274.027 216.186 274.129 216.144C274.23 216.103 274.344 216.104 274.444 216.146C274.545 216.189 274.625 216.269 274.666 216.371C274.707 216.472 274.707 216.585 274.664 216.686C273.986 218.298 274.326 218.869 275.343 219.538C276.466 220.28 278.968 220.733 280.77 220.896C284.104 221.2 286.691 221.2 288.68 220.9C289.386 220.779 290.064 220.528 290.679 220.161C291.434 219.76 292.219 219.34 293.523 219.418C294.613 219.481 295.031 220.061 295.366 220.526C295.697 220.987 295.938 221.32 296.807 221.324C298.376 221.326 302.052 221.217 303.227 220.809C303.94 220.562 304.333 220.426 303.826 218.71C303.811 218.658 303.806 218.603 303.812 218.55C303.818 218.496 303.834 218.443 303.86 218.396C303.886 218.349 303.921 218.306 303.963 218.273C304.006 218.239 304.054 218.214 304.106 218.198C304.158 218.182 304.212 218.177 304.266 218.183C304.32 218.189 304.372 218.205 304.42 218.231C304.467 218.257 304.509 218.292 304.543 218.334C304.577 218.377 304.602 218.425 304.618 218.476C305.293 220.76 304.511 221.235 303.501 221.586C302.165 222.049 298.366 222.147 296.942 222.147L296.943 222.148Z" fill="#1B3445"/>
<path d="M67.2976 140.809C67.2976 140.809 68.2286 160.993 69.8956 162.184C71.5636 163.375 72.9906 162.403 73.1406 161.221C73.2906 160.04 75.9186 140.773 75.9186 140.773" stroke="#1B3445" stroke-width="0.992" stroke-linecap="round" stroke-linejoin="round"/>
<path d="M284.149 141.158C284.149 141.158 285.072 160.993 286.74 162.184C288.408 163.375 289.835 162.403 289.985 161.221C290.135 160.04 292.756 141.128 292.756 141.128" stroke="#1B3445" stroke-width="0.992" stroke-linecap="round" stroke-linejoin="round"/>
<path d="M50.5386 135.987C50.5386 135.987 48.7506 137.243 49.1966 138.091C49.6426 138.939 51.8326 140.503 55.8526 140.682C59.8726 140.861 289.78 141.072 292.474 140.966C295.168 140.86 306.425 140.682 307.974 140.026C309.523 139.37 310.172 138.318 308.358 135.985" stroke="#1B3445" stroke-width="0.992" stroke-linecap="round" stroke-linejoin="round"/>
<path d="M92.0836 140.883C92.0836 140.883 92.3066 144.412 93.4126 145.015C94.5186 145.618 96.7186 144.591 96.6516 141.106" stroke="#1B3445" stroke-width="0.992" stroke-linecap="round" stroke-linejoin="round"/>
<path d="M260.726 141.024C260.726 141.024 260.994 144.412 262.1 145.015C263.206 145.618 265.406 144.591 265.339 141.106" stroke="#1B3445" stroke-width="0.992" stroke-linecap="round" stroke-linejoin="round"/>
<path d="M93.1416 90.2251V43.5711C93.1416 43.5711 93.2896 38.7831 97.8906 38.8721C102.492 38.9611 262.735 38.8721 262.735 38.8721C262.735 38.8721 267.173 38.7681 266.994 44.7241C266.815 50.6801 266.28 90.6501 266.28 90.6501L93.1406 90.2251H93.1416Z" stroke="#1B3445" stroke-width="0.992" stroke-linecap="round" stroke-linejoin="round"/>
<path d="M90.2075 62.0571C90.2075 62.0571 72.8395 68.5641 70.7895 69.5621C68.4965 70.6791 65.3695 71.7061 64.8335 74.7441C64.2975 77.7821 64.3635 132.215 64.5955 133.534C64.8275 134.853 64.5355 136.453 71.1475 136.453C77.7595 136.453 285.818 137.168 287.367 137.108C288.916 137.048 293.562 137.108 294.336 135.023C295.11 132.938 294.217 76.6501 294.038 75.2801C293.859 73.9101 294.038 70.9321 287.962 67.8941C281.886 64.8561 270.093 59.6741 270.093 59.6741" stroke="#1B3445" stroke-width="0.992" stroke-linecap="round" stroke-linejoin="round"/>
<path d="M51.9666 70.2169C51.9666 70.2169 58.8166 68.7279 62.5096 70.4549" stroke="#1B3445" stroke-width="0.992" stroke-linecap="round" stroke-linejoin="round"/>
<path d="M92.9776 54.999C92.9776 54.999 92.0846 54.016 89.0466 54.552C86.0086 55.088 75.8236 57.232 69.7476 59.555C63.6716 61.878 55.3626 64.916 53.3976 66.256C51.4316 67.596 50.1816 68.936 50.0026 72.332C49.8236 75.727 49.4666 132.73 49.6456 134.16C49.8246 135.59 50.1816 136.126 50.1816 136.126" stroke="#1B3445" stroke-width="0.992" stroke-linecap="round" stroke-linejoin="round"/>
<path d="M93.1415 90.2251C77.3135 96.9501 64.5725 118.082 64.5725 118.082H294.572" stroke="#1B3445" stroke-width="0.992" stroke-linecap="round" stroke-linejoin="round"/>
<path d="M266.568 90.655C266.568 90.655 290.999 109.827 294.335 117.928" stroke="#1B3445" stroke-width="0.992" stroke-linecap="round" stroke-linejoin="round"/>
<path d="M295.667 71.7849C295.667 71.7849 302.809 69.3019 306.806 71.5309" stroke="#1B3445" stroke-width="0.992" stroke-linecap="round" stroke-linejoin="round"/>
<path d="M266.935 53.3901C266.935 53.3901 268.99 51.9601 272.206 53.1221C275.422 54.2841 301.078 65.0911 304.103 66.5241C307.127 67.9571 308.262 69.2871 308.848 71.6081C309.434 73.9291 309.464 131.925 309.107 134.159C308.75 136.393 302.614 139.371 294.335 135.023" stroke="#1B3445" stroke-width="0.992" stroke-linecap="round" stroke-linejoin="round"/>
<path d="M35.3036 90.4021C35.3036 90.4021 37.8576 93.5861 38.8366 95.7351C39.8156 97.8841 40.7086 103.335 41.9596 106.104C43.2106 108.874 46.4266 117.004 47.4096 122.365C48.3926 127.726 45.7706 135.596 45.8756 137.334C45.9806 139.072 48.2136 141.842 49.2856 141.932C50.3576 142.021 53.0196 140.698 53.5076 140.525" stroke="#1B3445" stroke-width="0.992" stroke-linecap="round" stroke-linejoin="round"/>
<path d="M48.4155 82.8081C48.4155 82.8081 49.6295 85.5481 49.7785 85.7561" stroke="#1B3445" stroke-width="0.992" stroke-linecap="round" stroke-linejoin="round"/>
<path d="M49.9726 73.6109C49.9726 73.6109 48.0366 66.1669 45.0426 62.0569C42.0496 57.9469 35.8626 52.2539 34.8236 52.3979C33.7846 52.5419 29.6296 55.0429 27.6196 56.8299C25.6096 58.6169 22.8396 61.2969 21.8566 64.6919C20.8736 68.0869 19.5786 75.6369 19.7126 79.2109C19.8466 82.7849 20.0256 84.9739 20.0256 84.9739" stroke="#1B3445" stroke-width="0.992" stroke-linecap="round" stroke-linejoin="round"/>
<path d="M13.4586 49.236C13.4586 49.236 14.1736 49.303 15.6926 49.035C16.0476 48.972 16.2506 50.353 13.9506 51.023" stroke="#1B3445" stroke-width="0.992" stroke-linecap="round" stroke-linejoin="round"/>
<path d="M25.5205 45.204C25.5205 45.204 25.6215 44.411 26.4135 43.875" stroke="#1B3445" stroke-width="0.992" stroke-linecap="round" stroke-linejoin="round"/>
<path d="M25.2306 41.6641C25.2306 41.6641 27.9776 40.3681 28.1346 42.9371C28.2906 45.5061 27.7546 46.1531 25.5216 47.4711" stroke="#1B3445" stroke-width="0.992" stroke-linecap="round" stroke-linejoin="round"/>
<path d="M24.8056 59.4059C24.8056 59.4059 23.2866 56.5169 21.5596 55.9209C19.8326 55.3249 16.1986 55.6529 15.1566 55.1169C14.1146 54.5809 13.7566 53.4189 13.8466 52.7939" stroke="#1B3445" stroke-width="0.992" stroke-linecap="round" stroke-linejoin="round"/>
<path d="M13.8606 40.792C13.8606 40.792 14.8436 39.943 16.3396 40.814" stroke="#1B3445" stroke-width="0.992" stroke-linecap="round" stroke-linejoin="round"/>
<path d="M13.3026 43.0039C13.3026 43.0039 13.4816 44.2769 12.5436 45.1929C11.6056 46.1089 11.8516 46.5329 12.9006 47.2479" stroke="#1B3445" stroke-width="0.992" stroke-linecap="round" stroke-linejoin="round"/>
<path d="M28.6775 83.7981C28.6775 83.7981 30.6435 88.5041 31.8345 89.3971C33.0255 90.2901 34.9315 90.6481 37.3735 89.8141C39.8155 88.9801 46.2485 85.8231 47.7975 83.5001C49.3465 81.1771 49.2275 79.9861 48.3335 78.7351C47.4405 77.4841 45.6535 71.4681 44.2235 68.3111C42.7935 65.1541 39.5175 59.4361 35.1105 58.5421C30.7035 57.6481 27.3675 59.9721 25.5205 61.8781C23.6745 63.7841 21.6485 68.9071 23.4955 73.4931C25.3415 78.0791 28.6775 83.7981 28.6775 83.7981Z" stroke="#1B3445" stroke-width="0.992" stroke-linecap="round" stroke-linejoin="round"/>
<path d="M34.7825 52.288C34.7825 52.288 33.0255 49.905 32.6385 49.072" stroke="#1B3445" stroke-width="0.992" stroke-linecap="round" stroke-linejoin="round"/>
<path d="M12.8626 39.154C12.8626 39.154 12.7136 36.831 13.2796 35.282" stroke="#1B3445" stroke-width="0.992" stroke-linecap="round" stroke-linejoin="round"/>
<path d="M24.0016 36.266C24.0016 36.266 15.1566 35.849 11.3446 33.913C7.63056 32.027 5.59656 32.751 5.59656 32.751C6.13256 32.245 15.0076 30.696 15.0076 30.696C15.0076 30.696 31.7306 39.273 36.5106 44.813" stroke="#1B3445" stroke-width="0.992" stroke-linecap="round" stroke-linejoin="round"/>
<path d="M12.5946 37.1891C12.5946 37.1891 4.5236 36.8321 5.3876 32.8711" stroke="#1B3445" stroke-width="0.992" stroke-linecap="round" stroke-linejoin="round"/>
<path d="M15.0076 30.6959C15.0076 30.6959 18.7306 26.3629 22.9746 26.3179C27.2186 26.2729 33.5176 27.3899 36.6896 31.5449C39.8616 35.6999 39.6036 40.2089 36.6606 44.5209" stroke="#1B3445" stroke-width="0.992" stroke-linecap="round" stroke-linejoin="round"/>
<path d="M26.2946 134.368C26.2946 134.368 27.5456 135.857 27.8436 138.716C28.1416 141.575 30.0476 160.755 30.1666 163.137C30.2856 165.52 29.6306 173.203 32.3106 176.42C34.9906 179.636 38.0886 181.662 39.8156 183.985C41.5426 186.308 48.0896 194.313 50.5966 196.136C53.1036 197.96 53.1576 197.327 55.2426 199.65C57.3276 201.973 57.9626 206.797 59.9516 207.441C61.9406 208.085 61.8286 207.373 64.4746 207.751C67.1216 208.129 69.7166 207.394 71.0866 204.296C72.4566 201.198 70.3126 201.675 69.3596 199.829C68.4066 197.983 65.6666 192.324 63.7006 190.12C61.7346 187.916 59.6506 185.355 57.9226 182.138C56.1946 178.921 54.7656 177.552 52.0256 175.229C49.2856 172.906 49.4046 171.596 49.4046 171.596" stroke="#1B3445" stroke-width="0.992" stroke-linecap="round" stroke-linejoin="round"/>
<path d="M49.5546 169.496C49.5546 169.496 49.0636 166.414 50.4476 164.135C51.8326 161.857 51.1626 158.685 51.4306 156.853C51.6986 155.021 54.2286 140.606 54.2286 140.606" stroke="#1B3445" stroke-width="0.992" stroke-linecap="round" stroke-linejoin="round"/>
<path d="M61.4976 207.96C61.4976 207.96 60.1276 210.73 59.2636 212.993C58.3996 215.256 53.6346 216.537 52.5626 218.056C51.4906 219.575 51.1926 220.736 52.7116 221.66C54.2306 222.583 61.5866 223.417 64.3566 222.702C67.1266 221.987 66.8286 218.92 70.4916 217.311C74.1546 215.702 78.0856 214.452 78.3246 211.772C78.5626 209.092 71.6836 203.254 71.6836 203.254" stroke="#1B3445" stroke-width="0.992" stroke-linecap="round" stroke-linejoin="round"/>
<path d="M51.6985 219.664C51.6985 219.664 50.7455 221.332 52.0555 222.404C53.3655 223.476 58.7265 224.28 62.2705 224.102C65.8145 223.923 67.5415 222.553 68.4055 220.826C69.2695 219.099 70.4605 217.58 72.1285 217.431C73.7965 217.282 77.5785 215.704 78.5615 214.185C79.5445 212.666 78.8895 211.356 77.7275 209.807" stroke="#1B3445" stroke-width="0.992" stroke-linecap="round" stroke-linejoin="round"/>
<path d="M24.8055 165.103C24.8055 165.103 29.2365 161.192 29.8805 159.976" stroke="#1B3445" stroke-width="0.992" stroke-linecap="round" stroke-linejoin="round"/>
<path d="M23.9716 167.605C25.6986 171.179 25.5206 177.791 27.2476 183.39C28.9746 188.989 28.6176 189.942 28.3796 191.729C28.1416 193.516 28.9156 194.052 30.4646 196.196C32.0136 198.34 31.5966 199.293 31.1196 201.08C30.6426 202.867 33.3236 202.45 31.7396 204.853C30.1556 207.256 24.2706 207.99 22.9596 206.441C21.6496 204.892 19.5046 205.667 17.9756 203.882C16.4456 202.097 16.9436 198.341 16.2296 195.065C15.5146 191.789 13.4896 190.479 12.0006 188.215C10.5116 185.952 5.26961 169.631 3.95961 163.734C2.64961 157.837 6.63961 152.357 7.95061 150.272C9.26061 148.187 15.9916 136.93 18.6726 129.246C21.3526 121.562 22.6646 119.243 22.6646 119.243C22.6646 119.243 40.4136 124.242 46.6086 120.788" stroke="#1B3445" stroke-width="0.992" stroke-linecap="round" stroke-linejoin="round"/>
<path d="M18.1046 204.475C18.1046 204.475 15.3046 207.96 13.7866 208.525C12.2686 209.09 6.99662 210.431 5.14962 212.069C4.11562 212.986 3.00562 214.541 4.49462 215.851C5.98362 217.161 16.1696 217.727 17.8076 217.221C19.4456 216.715 21.3816 214.868 23.2876 215.553C25.1936 216.238 24.9256 216.953 26.8016 216.804C28.6776 216.655 31.7676 216.998 32.5126 216.313C33.2576 215.628 34.2776 213.945 33.3836 210.908C32.4906 207.87 31.6856 205.339 31.6856 205.339" stroke="#1B3445" stroke-width="0.992" stroke-linecap="round" stroke-linejoin="round"/>
<path d="M3.83863 214.72C3.83863 214.72 3.12363 215.554 4.46363 216.924C5.80363 218.294 13.1896 218.681 16.2876 218.324C19.3856 217.967 22.3336 215.286 23.4356 215.852C24.5376 216.418 24.8656 217.698 26.6226 217.907C28.3796 218.115 32.4006 217.967 33.2936 217.55C34.1866 217.133 33.7406 213.276 33.7406 213.276" stroke="#1B3445" stroke-width="0.992" stroke-linecap="round" stroke-linejoin="round"/>
<path d="M299.517 45.587C299.517 45.587 300.649 44.634 301.959 46.123" stroke="#1B3445" stroke-width="0.992" stroke-linecap="round" stroke-linejoin="round"/>
<path d="M298.415 44.634C298.415 44.634 298.177 42.043 299.07 40.762" stroke="#1B3445" stroke-width="0.992" stroke-linecap="round" stroke-linejoin="round"/>
<path d="M298.623 47.97C298.623 47.97 298.802 49.519 297.878 50.233C296.954 50.947 297.253 51.931 298.116 52.318" stroke="#1B3445" stroke-width="0.992" stroke-linecap="round" stroke-linejoin="round"/>
<path d="M299.279 55.505C299.279 55.505 301.185 55.416 301.9 54.79" stroke="#1B3445" stroke-width="0.992" stroke-linecap="round" stroke-linejoin="round"/>
<path d="M311.46 48.9529C311.46 48.9529 310.298 49.4589 310.447 50.2929" stroke="#1B3445" stroke-width="0.992" stroke-linecap="round" stroke-linejoin="round"/>
<path d="M310.923 52.4971C310.923 52.4971 313.752 51.4251 313.574 48.7151C313.395 46.0051 311.639 46.0351 310.865 46.6901" stroke="#1B3445" stroke-width="0.992" stroke-linecap="round" stroke-linejoin="round"/>
<path d="M299.189 57.232C299.189 57.232 298.653 60.24 301.631 60.419C304.609 60.598 304.639 59.406 305.92 61.134C307.201 62.861 307.773 65.652 307.773 65.652C307.773 65.652 313.306 67.954 318.666 58.662C318.666 58.662 317.594 56.026 317.504 54.239" stroke="#1B3445" stroke-width="0.992" stroke-linecap="round" stroke-linejoin="round"/>
<path d="M290.433 38.0231C290.433 38.0231 294.052 37.9781 296.643 39.4971C299.234 41.0161 309.017 41.3731 309.017 41.3731" stroke="#1B3445" stroke-width="0.992" stroke-linecap="round" stroke-linejoin="round"/>
<path d="M296.822 42.445C296.822 42.445 290.255 42.802 290.166 38.022L299.917 35.962C299.917 35.962 301.692 33.734 303.255 33.108C304.819 32.483 305.355 31.812 307.052 31.5C308.749 31.188 316.165 31.455 321.75 36.325C327.334 41.194 321.727 49.969 321.727 49.969" stroke="#1B3445" stroke-width="0.992" stroke-linecap="round" stroke-linejoin="round"/>
<path d="M299.916 35.9619C299.916 35.9619 317.594 46.1079 321.57 49.9049" stroke="#1B3445" stroke-width="0.992" stroke-linecap="round" stroke-linejoin="round"/>
<path d="M307.774 65.6521C307.774 65.6521 306.892 66.7441 306.793 67.5951" stroke="#1B3445" stroke-width="0.992" stroke-linecap="round" stroke-linejoin="round"/>
<path d="M318.801 58.5281C318.801 58.5281 320.475 59.6861 322.017 61.3871C323.536 63.0621 325.948 65.1171 325.948 65.1171" stroke="#1B3445" stroke-width="0.992" stroke-linecap="round" stroke-linejoin="round"/>
<path d="M313.098 74.863C313.098 74.863 312.774 80.952 316.137 86.931" stroke="#1B3445" stroke-width="0.992" stroke-linecap="round" stroke-linejoin="round"/>
<path d="M332.203 79.48L332.873 82.205" stroke="#1B3445" stroke-width="0.992" stroke-linecap="round" stroke-linejoin="round"/>
<path d="M318.203 90.0701C318.203 90.0701 317.415 90.5951 316.998 89.7881C316.581 88.9811 315.569 88.8311 315.569 88.3551C315.569 87.8791 317.832 84.7511 320.423 83.5601C323.014 82.3691 327.362 80.4331 332.574 82.3391C332.574 82.3391 334.748 82.1601 333.884 84.4241C333.884 84.4241 334.926 85.9731 334.271 86.0021C333.616 86.0311 323.991 82.6131 318.201 90.0701H318.203Z" stroke="#1B3445" stroke-width="0.992" stroke-linecap="round" stroke-linejoin="round"/>
<path d="M318.059 90.29C318.059 90.29 323.581 99.82 324.117 102.262C324.653 104.704 324.594 105.717 321.02 110.244C317.446 114.771 315.064 122.038 312.443 124.361C309.822 126.684 309.307 126.644 309.307 126.644" stroke="#1B3445" stroke-width="0.992" stroke-linecap="round" stroke-linejoin="round"/>
<path d="M297.224 141.084L292.219 146.891" stroke="#1B3445" stroke-width="0.992" stroke-linecap="round" stroke-linejoin="round"/>
<path d="M334.155 85.7219C334.155 85.7219 335.196 96.4559 336.357 99.2259C337.519 101.996 338.901 105.944 337.406 107.991C335.911 110.038 330.461 117.632 323.134 122.903C315.808 128.174 313.753 132.374 312.68 134.697C311.608 137.02 311.518 142.649 303.745 140.773" stroke="#1B3445" stroke-width="0.992" stroke-linecap="round" stroke-linejoin="round"/>
<path d="M285.341 157.032C285.341 157.032 282.679 160.075 283.375 166.324C284.071 172.573 286.86 185.712 287.038 188.839C287.217 191.966 286.681 197.863 287.753 199.65C288.825 201.437 289.095 202.984 289.093 204.207C289.091 205.43 287.038 207.334 289.004 208.942C290.97 210.55 295.794 212.963 299.279 211.801C302.764 210.639 302.334 209.023 302.102 206.659C301.87 204.296 303.746 199.382 303.3 196.523C302.854 193.664 302.049 186.427 302.675 182.317C303.3 178.207 302.943 173.74 302.407 170.166" stroke="#1B3445" stroke-width="0.992" stroke-linecap="round" stroke-linejoin="round"/>
<path d="M302.942 167.575C302.942 167.575 305.558 164.995 306.516 163.822C307.474 162.65 310.655 157.419 312.696 156.332C314.736 155.245 323.492 149.259 324.832 147.918C326.172 146.578 330.13 141.756 334.092 141.129" stroke="#1B3445" stroke-width="0.992" stroke-linecap="round" stroke-linejoin="round"/>
<path d="M342.021 121.538C342.021 121.538 343.505 128.531 342.88 132.82C342.255 137.109 336.626 147.741 336.358 150.779C336.09 153.817 336.09 163.198 335.822 165.074" stroke="#1B3445" stroke-width="0.992" stroke-linecap="round" stroke-linejoin="round"/>
<path d="M312.879 156.076C312.879 156.076 314.11 169.362 321.437 176.331C328.763 183.3 337.341 195.272 340.2 196.523C343.059 197.774 344.221 198.221 344.667 199.203C345.114 200.186 348.42 201.079 349.402 202.151C350.385 203.223 350.196 205.718 351.318 206.302C352.44 206.886 359.051 208.584 361.553 207.869C364.055 207.154 366.11 204.384 365.127 202.33C364.144 200.275 360.302 198.041 359.051 194.646C357.8 191.251 349.848 182.227 347.704 179.457C345.56 176.687 337.608 171.058 336.625 169.003" stroke="#1B3445" stroke-width="0.992" stroke-linecap="round" stroke-linejoin="round"/>
<path d="M352.887 206.977C352.887 206.977 352.396 208.809 350.251 210.015C348.107 211.221 341.197 213.556 340.855 215.315C340.513 217.074 341.004 218.369 347.258 218.28C353.512 218.191 356.193 218.325 357.667 217.253C359.141 216.181 360.705 217.253 363.475 216.36C366.245 215.467 370.394 212.55 370.597 211.909C370.8 211.268 368.158 206.25 365.459 204.113" stroke="#1B3445" stroke-width="0.992" stroke-linecap="round" stroke-linejoin="round"/>
<path d="M340.958 216.894C340.958 216.894 341.406 218.547 343.461 219.262C345.516 219.977 354.226 220.736 355.566 220.066C356.906 219.396 358.246 217.073 359.185 217.028C360.123 216.983 362.179 218.011 363.921 218.1C365.663 218.189 371.47 216.134 371.693 214.571C371.916 213.007 370.577 211.176 370.577 211.176" stroke="#1B3445" stroke-width="0.992" stroke-linecap="round" stroke-linejoin="round"/>
<path d="M309.643 116.856C309.643 116.856 315.972 117.675 316.567 117.675" stroke="#1B3445" stroke-width="0.992" stroke-linecap="round" stroke-linejoin="round"/>
<path d="M327.274 119.715C327.274 119.715 336.32 123.026 341.685 121.371" stroke="#1B3445" stroke-width="0.992" stroke-linecap="round" stroke-linejoin="round"/>
<path d="M20.2485 87.1631C20.2485 87.1631 24.6265 109.053 22.6605 118.881" stroke="#1B3445" stroke-width="0.992" stroke-linecap="round" stroke-linejoin="round"/>
</svg>
