<svg width="121" height="30" viewBox="0 0 121 30" fill="none" xmlns="http://www.w3.org/2000/svg">
<path fill-rule="evenodd" clip-rule="evenodd" d="M16.5943 10.209V18.5997C16.5943 19.3855 16.8731 19.639 17.6843 19.639H17.8364C18.166 19.639 18.4702 19.6137 18.6983 19.3855C18.9011 19.1827 18.9265 18.8532 18.9265 18.5743V10.7666C18.9265 9.37242 18.8251 8.56123 18.3434 8.05423C17.9885 7.69934 17.5069 7.54724 16.6957 7.54724C14.7691 7.54724 13.9072 8.48518 12.7411 10.6145L8.45705 18.4476C8.2796 18.7518 8.12751 19.0813 8.2796 19.3602C8.4317 19.6137 8.76125 19.639 9.09079 19.639H9.42034C10.1555 19.639 10.485 19.4362 10.8906 18.7264L12.1074 16.4957H14.6424C15.4282 16.4957 15.6817 16.2168 15.6817 15.4056V15.3549C15.6817 15.0507 15.6564 14.7212 15.4282 14.493C15.2254 14.2902 14.8959 14.2649 14.617 14.2649H13.2988L15.1494 10.8934C15.7071 9.87941 16.0112 9.77801 16.2394 9.77801C16.4675 9.77801 16.5943 9.85406 16.5943 10.209Z" fill="#1E2A4C"/>
<path fill-rule="evenodd" clip-rule="evenodd" d="M29.5733 10.2343C28.1791 10.2343 27.3933 10.7413 26.9623 11.2736C26.4046 10.5639 25.5427 10.2343 24.3513 10.2343C21.8417 10.2343 20.5235 11.5018 20.5235 13.91V18.5743C20.5235 19.3602 20.8023 19.639 21.5882 19.639H21.8163C22.6022 19.639 22.881 19.3602 22.881 18.5743V13.91C22.881 12.9467 23.1092 12.4904 24.3513 12.4904C25.5934 12.4904 25.7962 12.9214 25.7962 13.91V18.5743C25.7962 19.3602 26.0751 19.639 26.8609 19.639H27.0384C27.8242 19.639 28.103 19.3602 28.103 18.5743V13.91C28.103 12.9467 28.3312 12.4904 29.5733 12.4904C30.7901 12.4904 31.0183 12.9467 31.0183 13.91V18.5743C31.0183 19.3602 31.2971 19.639 32.0829 19.639H32.3111C33.0969 19.639 33.3758 19.3602 33.3758 18.5743V13.91C33.3758 11.4257 32.1336 10.2343 29.5733 10.2343Z" fill="#1E2A4C"/>
<path fill-rule="evenodd" clip-rule="evenodd" d="M38.902 17.5603C37.2543 17.5603 36.9754 16.9773 36.9754 15.7605V14.2649C36.9754 13.0735 37.2796 12.4651 38.902 12.4651C40.5244 12.4651 40.8032 13.0481 40.8032 14.2649V15.7605C40.8032 17.028 40.5244 17.5603 38.902 17.5603ZM39.2569 10.2343C38.2936 10.2343 37.5331 10.4624 36.9754 10.8934V7.92748C36.9754 7.14164 36.6966 6.86279 35.9107 6.86279H35.7079C34.9221 6.86279 34.6432 7.14164 34.6432 7.92748V15.8112C34.6432 18.3715 36.1896 19.8165 38.902 19.8165C41.7412 19.8165 43.1861 18.4729 43.1861 15.8112V14.3156C43.1607 11.6285 41.8172 10.2343 39.2569 10.2343Z" fill="#1E2A4C"/>
<path fill-rule="evenodd" clip-rule="evenodd" d="M48.332 10.2343C48.18 10.2089 48.0786 10.2089 47.9518 10.2089C45.645 10.2089 44.3775 11.4004 44.3775 13.5804V18.549C44.3775 19.3348 44.6563 19.6136 45.4422 19.6136H45.6703C46.4562 19.6136 46.735 19.3348 46.735 18.549V13.7325C46.735 12.8706 46.9125 12.4904 47.9518 12.4904C48.0532 12.4904 48.1293 12.4904 48.256 12.5157C48.3827 12.5411 48.5095 12.5411 48.5855 12.5411C49.2953 12.5411 49.2953 11.9074 49.2953 11.6285V11.375C49.2953 10.6145 49.0672 10.3357 48.332 10.2343Z" fill="#1E2A4C"/>
<path fill-rule="evenodd" clip-rule="evenodd" d="M51.9317 14.2903C51.9317 13.0988 52.2359 12.4904 53.8583 12.4904C55.4806 12.4904 55.7595 13.0735 55.7595 14.2903V15.7859C55.7595 17.0027 55.4806 17.5857 53.8583 17.5857C52.2105 17.5857 51.9317 17.0027 51.9317 15.7859V14.2903ZM53.8583 10.2343C51.0444 10.2343 49.5742 11.6285 49.5742 14.2903V15.7859C49.5742 18.4983 50.9684 19.8418 53.8583 19.8418C56.6467 19.8418 58.117 18.4476 58.117 15.7859V14.2903C58.117 11.5525 56.7228 10.2343 53.8583 10.2343Z" fill="#1E2A4C"/>
<path fill-rule="evenodd" clip-rule="evenodd" d="M61.2857 13.8339H66.3303C66.4317 13.8339 66.5077 13.8086 66.5331 13.7832C66.5584 13.7325 66.5838 13.6818 66.5838 13.5804V13.5044C66.5838 13.403 66.5584 13.3269 66.5331 13.3016C66.5077 13.2509 66.4317 13.2509 66.3303 13.2509H61.2857V9.77798C61.2857 9.42308 61.3618 9.14424 61.5139 8.96679C61.666 8.78934 61.9448 8.71329 62.2997 8.71329H67.0147C67.1161 8.71329 67.1922 8.68794 67.2175 8.66259C67.2429 8.61189 67.2682 8.56119 67.2682 8.45979V8.38375C67.2682 8.28235 67.2429 8.2063 67.2175 8.18095C67.1922 8.13025 67.1161 8.13025 67.0147 8.13025H62.3504C61.7674 8.13025 61.3364 8.257 61.0576 8.53584C60.7787 8.81469 60.652 9.27098 60.652 9.87937V17.8138C60.652 18.4222 60.7787 18.8785 61.0576 19.1573C61.3364 19.4362 61.7674 19.5883 62.3504 19.5883H67.0147C67.1161 19.5883 67.1922 19.5629 67.2175 19.5376C67.2429 19.4869 67.2682 19.4362 67.2682 19.3348V19.2587C67.2682 19.1573 67.2429 19.0813 67.2175 19.0559C67.1922 19.0052 67.1161 19.0052 67.0147 19.0052H62.2997C61.9448 19.0052 61.6913 18.9292 61.5139 18.7518C61.3618 18.5743 61.2604 18.3208 61.2857 17.9406V13.8339ZM69.6258 11.2229C69.5497 11.1215 69.499 11.0455 69.423 11.0201C69.3469 10.9694 69.2709 10.9694 69.1441 10.9694H69.0681C68.9413 10.9694 68.8906 10.9948 68.8653 11.0201C68.8399 11.0708 68.8653 11.1215 68.9413 11.2229L70.6397 14.0114C70.8172 14.2902 70.9693 14.5184 71.096 14.6705C71.2228 14.8226 71.3749 14.9493 71.527 15C71.4002 15.0761 71.2481 15.1775 71.1214 15.3295C70.9946 15.4816 70.8425 15.7098 70.6651 15.9886L68.6118 19.2587C68.5357 19.3601 68.5104 19.4362 68.5357 19.4615C68.5611 19.5122 68.6118 19.5122 68.7385 19.5122H68.8146C68.9413 19.5122 69.0174 19.4869 69.0934 19.4615C69.1695 19.4108 69.2202 19.3601 69.2962 19.2587L71.4002 15.8619C71.5016 15.7098 71.603 15.583 71.6791 15.4816C71.7551 15.4056 71.8565 15.3295 71.9326 15.3042C72.0086 15.2789 72.0847 15.2535 72.1607 15.2535C72.2368 15.2535 72.3128 15.2535 72.3889 15.3042C72.4649 15.3295 72.541 15.3802 72.617 15.4816C72.6931 15.5577 72.7945 15.7098 72.9212 15.8619L75.0252 19.2587C75.1013 19.3601 75.152 19.4362 75.228 19.4615C75.3041 19.5122 75.3801 19.5122 75.5069 19.5122H75.5829C75.7097 19.5122 75.7604 19.4869 75.7857 19.4615C75.8111 19.4108 75.7857 19.3601 75.7097 19.2587L73.6817 15.9886C73.5042 15.7098 73.3522 15.4816 73.2254 15.3295C73.0987 15.1775 72.9466 15.0507 72.8198 15C72.9719 14.924 73.0987 14.8226 73.2508 14.6705C73.3775 14.5184 73.5296 14.2902 73.707 14.0114L75.4055 11.2229C75.4815 11.1215 75.5069 11.0455 75.4815 11.0201C75.4562 10.9694 75.3801 10.9694 75.2787 10.9694H75.2027C75.0759 10.9694 74.9999 10.9948 74.9238 11.0201C74.8478 11.0708 74.7971 11.1215 74.721 11.2229L72.8705 14.1888C72.7691 14.3663 72.6424 14.493 72.5156 14.5944C72.3889 14.6958 72.2621 14.7465 72.1354 14.7465C72.0086 14.7465 71.8819 14.6958 71.7551 14.6198C71.6284 14.5437 71.5016 14.3916 71.4002 14.2142L69.6258 11.2229ZM77.6109 22.833C77.6109 22.9344 77.6362 23.0105 77.6616 23.0358C77.6869 23.0865 77.763 23.0865 77.8644 23.0865H77.9404C78.0418 23.0865 78.1179 23.0612 78.1432 23.0358C78.1686 22.9851 78.1939 22.9344 78.1939 22.833V18.2194C78.3207 18.5236 78.5235 18.8025 78.777 19.0306C79.0305 19.2587 79.3347 19.4362 79.7149 19.5376C80.0952 19.6643 80.5515 19.715 81.0838 19.715C81.7429 19.715 82.3006 19.639 82.7569 19.4615C83.2132 19.2841 83.5681 19.0559 83.8216 18.7264C84.0751 18.4222 84.2779 18.042 84.3793 17.611C84.4806 17.1801 84.5567 16.6984 84.5567 16.1661V14.3663C84.5567 13.8339 84.506 13.3523 84.3793 12.9213C84.2779 12.4904 84.0751 12.1101 83.8216 11.8059C83.5681 11.5018 83.1878 11.2483 82.7569 11.0708C82.3006 10.8934 81.7429 10.8173 81.0838 10.8173C80.4247 10.8173 79.867 10.8934 79.4107 11.0708C78.9544 11.2483 78.5995 11.4764 78.346 11.8059C78.0925 12.1101 77.8897 12.4904 77.7883 12.9213C77.6869 13.3523 77.6109 13.8339 77.6109 14.3663V22.833ZM81.0838 19.132C80.5261 19.132 80.0445 19.0559 79.6896 18.9292C79.3093 18.8025 79.0305 18.625 78.8023 18.3715C78.5742 18.118 78.4221 17.8138 78.346 17.4336C78.2446 17.0533 78.2193 16.6477 78.2193 16.1407V14.3409C78.2193 13.8593 78.27 13.4283 78.346 13.0481C78.4474 12.6678 78.5995 12.3636 78.8023 12.1101C79.0051 11.8566 79.3093 11.6792 79.6896 11.5525C80.0698 11.4257 80.5261 11.3497 81.0838 11.3497C81.6415 11.3497 82.1231 11.4257 82.478 11.5525C82.8583 11.6792 83.1371 11.8566 83.3653 12.1101C83.5934 12.3636 83.7455 12.6678 83.8216 13.0481C83.923 13.4283 83.9483 13.8339 83.9483 14.3409V16.1407C83.9483 16.6224 83.8976 17.0533 83.8216 17.4336C83.7202 17.7885 83.5681 18.118 83.3653 18.3715C83.1625 18.625 82.8583 18.8025 82.478 18.9292C82.1231 19.0559 81.6415 19.132 81.0838 19.132ZM87.2184 13.7579C87.2184 13.2509 87.2691 12.8453 87.3705 12.4904C87.4719 12.1355 87.6747 11.882 87.9536 11.7045C88.2324 11.5271 88.6126 11.4257 89.0689 11.4257C89.2971 11.4257 89.4745 11.4511 89.6266 11.4764C89.7787 11.5018 89.8548 11.5271 89.9055 11.5271C89.9815 11.5525 90.0322 11.5271 90.0829 11.5018C90.1336 11.4764 90.1336 11.4004 90.1336 11.299V11.1722C90.1336 11.0708 90.1083 11.0201 90.0829 10.9694C90.0576 10.9441 89.9815 10.9187 89.9055 10.8934C89.8548 10.8934 89.7534 10.868 89.6013 10.8427C89.4492 10.8173 89.2971 10.8173 89.0689 10.8173C88.4605 10.8173 87.9536 10.9441 87.5987 11.1976C87.2438 11.4511 86.9903 11.7806 86.8382 12.2369C86.6861 12.6678 86.61 13.1748 86.61 13.7579V19.3094C86.61 19.4108 86.6354 19.4869 86.6607 19.5122C86.6861 19.5629 86.7621 19.5629 86.8635 19.5629H86.9396C87.041 19.5629 87.117 19.5376 87.1424 19.5122C87.1677 19.4615 87.1931 19.4108 87.1931 19.3094V13.7579H87.2184ZM97.5357 14.1381C97.5357 13.3776 97.409 12.7692 97.1301 12.2876C96.8766 11.8059 96.4964 11.4257 95.9894 11.1976C95.5077 10.9441 94.9247 10.8427 94.2403 10.8427C93.6065 10.8427 93.0742 10.9441 92.6432 11.0962C92.2123 11.2736 91.8827 11.5271 91.6293 11.8313C91.3758 12.1608 91.1983 12.5157 91.0716 12.9467C90.9702 13.3776 90.9195 13.8339 90.9195 14.3663V16.1661C90.9195 17.028 91.0462 17.7378 91.3251 18.2448C91.6039 18.7771 91.9841 19.1573 92.5165 19.3855C93.0488 19.6136 93.7079 19.7404 94.4684 19.7404C95.0008 19.7404 95.4824 19.6897 95.9133 19.6136C96.3443 19.5376 96.6992 19.4362 97.0287 19.3094C97.1301 19.2841 97.1808 19.2334 97.2062 19.1827C97.2315 19.132 97.2569 19.0559 97.2569 18.9799V18.9039C97.2569 18.8025 97.2569 18.7518 97.2062 18.7264C97.1808 18.7011 97.1048 18.7011 97.0287 18.7518C96.8513 18.8278 96.6485 18.9039 96.3696 18.9546C96.1161 19.0306 95.8119 19.0813 95.4824 19.1066C95.1529 19.1573 94.798 19.1827 94.4431 19.1827C93.7586 19.1827 93.2009 19.1066 92.77 18.9039C92.339 18.7264 92.0095 18.4222 91.8067 17.9913C91.6039 17.5603 91.5025 17.0026 91.5025 16.2928V15.583H97.4343C97.4597 15.3802 97.485 15.1775 97.5104 14.9493C97.5104 14.6451 97.5357 14.417 97.5357 14.1381ZM91.5025 14.1381C91.5025 13.479 91.6039 12.9467 91.832 12.5411C92.0602 12.1355 92.3644 11.8566 92.77 11.6792C93.1756 11.5018 93.6572 11.4257 94.2149 11.4257C94.7726 11.4257 95.2289 11.5018 95.6598 11.6792C96.0654 11.8566 96.395 12.1355 96.6231 12.5411C96.8513 12.9467 96.9527 13.479 96.978 14.1381V14.9493H91.5279V14.1381H91.5025ZM99.4369 18.9799C99.4369 19.0813 99.4623 19.132 99.4876 19.1827C99.513 19.2334 99.589 19.2587 99.6651 19.2841C99.9186 19.3601 100.197 19.4362 100.451 19.4869C100.704 19.5376 100.983 19.5883 101.287 19.639C101.566 19.6643 101.896 19.6897 102.251 19.6897C102.884 19.6897 103.391 19.639 103.822 19.4869C104.253 19.3601 104.583 19.132 104.811 18.8532C105.039 18.5743 105.141 18.1687 105.141 17.7124C105.141 17.3068 105.065 16.9773 104.938 16.6984C104.811 16.4449 104.634 16.2168 104.405 16.0393C104.177 15.8619 103.924 15.7098 103.62 15.5577L101.186 14.3156C100.806 14.1128 100.552 13.91 100.375 13.6565C100.197 13.403 100.121 13.0988 100.121 12.7439C100.121 12.4143 100.197 12.1608 100.35 11.958C100.502 11.7552 100.73 11.6285 101.034 11.5271C101.338 11.4511 101.718 11.4004 102.175 11.4004C102.504 11.4004 102.834 11.4257 103.113 11.4511C103.391 11.5018 103.645 11.5525 103.873 11.6032C104.101 11.6792 104.329 11.7552 104.532 11.8313C104.634 11.8566 104.684 11.882 104.71 11.8566C104.735 11.8313 104.76 11.7806 104.76 11.6792V11.5778C104.76 11.4764 104.76 11.4004 104.71 11.3497C104.684 11.299 104.608 11.2483 104.507 11.2229C104.304 11.1469 104.076 11.0708 103.848 10.9948C103.62 10.9441 103.366 10.8934 103.113 10.8427C102.834 10.792 102.53 10.792 102.2 10.792C101.617 10.792 101.135 10.8427 100.755 10.9948C100.35 11.1215 100.045 11.3243 99.8425 11.6285C99.6397 11.9073 99.5383 12.2876 99.5383 12.7439C99.5383 13.1495 99.589 13.479 99.7158 13.7325C99.8425 13.986 99.9946 14.2142 100.223 14.3916C100.426 14.5691 100.704 14.7465 100.983 14.8986L103.417 16.1407C103.67 16.2675 103.873 16.4196 104.051 16.5463C104.228 16.6984 104.355 16.8759 104.431 17.0533C104.507 17.2561 104.558 17.4843 104.558 17.7378C104.558 18.0673 104.482 18.3462 104.304 18.549C104.127 18.7518 103.898 18.8785 103.544 18.9799C103.214 19.0559 102.808 19.1066 102.301 19.1066C101.896 19.1066 101.516 19.0813 101.161 19.0306C100.831 18.9799 100.527 18.9292 100.273 18.8785C100.02 18.8278 99.7918 18.7518 99.6397 18.7011C99.5383 18.6757 99.4876 18.6757 99.4623 18.7011C99.4369 18.7264 99.4116 18.7771 99.4116 18.8785V18.9799H99.4369ZM107.067 18.9799C107.067 19.0813 107.093 19.132 107.118 19.1827C107.143 19.2334 107.219 19.2587 107.295 19.2841C107.549 19.3601 107.828 19.4362 108.081 19.4869C108.335 19.5376 108.614 19.5883 108.918 19.639C109.197 19.6643 109.526 19.6897 109.881 19.6897C110.515 19.6897 111.022 19.639 111.453 19.4869C111.884 19.3601 112.213 19.132 112.441 18.8532C112.669 18.5743 112.771 18.1687 112.771 17.7124C112.771 17.3068 112.695 16.9773 112.568 16.6984C112.441 16.4449 112.264 16.2168 112.036 16.0393C111.808 15.8619 111.554 15.7098 111.25 15.5577L108.816 14.3156C108.436 14.1128 108.183 13.91 108.005 13.6565C107.828 13.403 107.752 13.0988 107.752 12.7439C107.752 12.4143 107.828 12.1608 107.98 11.958C108.132 11.7552 108.36 11.6285 108.664 11.5271C108.968 11.4511 109.349 11.4004 109.805 11.4004C110.134 11.4004 110.464 11.4257 110.743 11.4511C111.022 11.5018 111.275 11.5525 111.503 11.6032C111.732 11.6792 111.96 11.7552 112.162 11.8313C112.264 11.8566 112.315 11.882 112.34 11.8566C112.365 11.8313 112.391 11.7806 112.391 11.6792V11.5778C112.391 11.4764 112.391 11.4004 112.34 11.3497C112.315 11.299 112.239 11.2483 112.137 11.2229C111.934 11.1469 111.706 11.0708 111.478 10.9948C111.25 10.9441 110.996 10.8934 110.743 10.8427C110.464 10.792 110.16 10.792 109.83 10.792C109.247 10.792 108.766 10.8427 108.385 10.9948C107.98 11.1215 107.676 11.3243 107.473 11.6285C107.27 11.9073 107.169 12.2876 107.169 12.7439C107.169 13.1495 107.219 13.479 107.346 13.7325C107.473 13.986 107.625 14.2142 107.853 14.3916C108.056 14.5691 108.335 14.7465 108.614 14.8986L111.047 16.1407C111.301 16.2675 111.503 16.4196 111.681 16.5463C111.858 16.6984 111.985 16.8759 112.061 17.0533C112.137 17.2561 112.188 17.4843 112.188 17.7378C112.188 18.0673 112.112 18.3462 111.934 18.549C111.757 18.7518 111.529 18.8785 111.174 18.9799C110.844 19.0559 110.439 19.1066 109.932 19.1066C109.526 19.1066 109.146 19.0813 108.791 19.0306C108.461 18.9799 108.157 18.9292 107.904 18.8785C107.65 18.8278 107.422 18.7518 107.27 18.7011C107.169 18.6757 107.118 18.6757 107.093 18.7011C107.067 18.7264 107.042 18.7771 107.042 18.8785V18.9799H107.067Z" fill="#1E2A4C" stroke="#1E2A4C" stroke-width="0.431147" stroke-miterlimit="10.433"/>
</svg>
