<svg width="91" height="16" viewBox="0 0 91 16" fill="none" xmlns="http://www.w3.org/2000/svg">
<path d="M19.8 1.65712C24.2103 1.65712 26.8257 4.54608 26.1193 8.43009C25.4128 12.3141 21.6109 15.3153 17.2006 15.3153H12.7733C11.5364 15.2627 10.3247 14.9488 9.21797 14.3941C8.11121 13.8394 7.1345 13.0566 6.35212 12.0972H17.9428C18.9927 12.1186 20.0163 11.7679 20.8325 11.1071C21.6486 10.4463 22.2047 9.51805 22.4022 8.48668C22.7851 6.37962 21.4788 4.87808 19.2539 4.87808H9.33162C8.09462 4.8248 6.88291 4.51024 5.77619 3.95509C4.66947 3.39994 3.69281 2.61678 2.91046 1.65712H19.8ZM16.8205 10.0976L17.4081 6.87762H4.63176C5.41399 7.83687 6.39038 8.61972 7.49676 9.17469C8.60313 9.72966 9.81443 10.0442 11.051 10.0976H16.8205ZM37.1375 11.0238C37.3422 10.6404 37.4833 10.2263 37.5553 9.7977C37.6803 9.1887 37.6625 8.55901 37.5031 7.95808C37.3438 7.35715 37.0473 6.80135 36.6369 6.33432C36.2265 5.8673 35.7135 5.50177 35.1381 5.26644C34.5626 5.03112 33.9405 4.9324 33.3204 4.97806C31.7937 4.99307 30.3179 5.52936 29.1377 6.49805C27.9575 7.46674 27.1437 8.80965 26.8314 10.3042C26.2919 13.2695 28.1858 15.5134 31.386 15.5134C33.1947 15.5601 34.9491 14.8929 36.2698 13.6562L34.5909 11.6077C33.9164 12.1719 33.0661 12.4828 32.1867 12.4867C31.0549 12.4867 30.3617 11.9 30.2881 11.0238H37.1375ZM30.6295 8.9743C30.8142 8.54911 31.1164 8.18552 31.5008 7.92635C31.8851 7.66719 32.3355 7.52323 32.7989 7.51143C33.198 7.50077 33.5851 7.64874 33.8754 7.92293C34.1657 8.19712 34.3355 8.57518 34.3476 8.9743H30.6295ZM37.9496 15.3162H41.4997L43.985 1.65901H40.4329L37.9496 15.3162ZM47.9312 0.489468C47.3518 0.469482 46.7838 0.653928 46.3267 1.01052C45.8696 1.3671 45.5525 1.87311 45.4308 2.43996C45.3744 2.69385 45.3802 2.9576 45.4476 3.20879C45.515 3.45997 45.6421 3.69116 45.8181 3.88267C45.994 4.07419 46.2136 4.22037 46.4582 4.30878C46.7028 4.39719 46.9651 4.42521 47.2229 4.39046C47.8022 4.41025 48.3701 4.22574 48.8272 3.86918C49.2843 3.51262 49.6015 3.00672 49.7233 2.43996C49.7794 2.1861 49.7735 1.92244 49.706 1.67135C49.6385 1.42027 49.5114 1.18919 49.3355 0.997725C49.1596 0.806266 48.9401 0.660086 48.6956 0.571602C48.4511 0.483117 48.1889 0.454942 47.9312 0.489468ZM43.4568 15.3162H47.0069L48.8546 5.17141H45.3026L43.4568 15.3162ZM57.0829 7.60952L56.6037 10.2429H59.7059C59.4242 10.8606 58.9613 11.3781 58.3785 11.7265C57.7958 12.0749 57.1209 12.2377 56.4434 12.1934C54.3948 12.1934 53.2158 10.6343 53.6007 8.52629C53.758 7.52525 54.2622 6.61136 55.0251 5.94446C55.788 5.27755 56.7611 4.90009 57.7742 4.87808C58.2901 4.84562 58.8049 4.95796 59.2603 5.20244C59.7158 5.44692 60.0939 5.81381 60.3519 6.26172L63.421 3.64817C63.421 3.64817 62.2204 1.46471 58.4533 1.46471C56.4335 1.49588 54.4846 2.21417 52.9277 3.50122C51.3708 4.78827 50.2988 6.56729 49.8883 8.54516C49.1715 12.4867 51.6671 15.5105 55.7822 15.5105C57.8932 15.4852 59.9143 14.6522 61.43 13.1826C62.9456 11.7131 63.8408 9.71871 63.9313 7.60952H57.0829ZM71.1608 4.97523C69.62 4.97896 68.1267 5.5091 66.9285 6.47779C65.7303 7.44648 64.8991 8.79554 64.5727 10.3014C64.0332 13.2667 65.9289 15.5105 69.1273 15.5105C70.6675 15.5065 72.1601 14.9764 73.3579 14.0081C74.5557 13.0398 75.3867 11.6914 75.7135 10.1863C76.252 7.2181 74.3581 4.97523 71.1589 4.97523H71.1608ZM69.7715 12.2915C69.5138 12.3062 69.2563 12.2597 69.02 12.1559C68.7837 12.052 68.5754 11.8937 68.412 11.6939C68.2486 11.4941 68.1349 11.2585 68.08 11.0063C68.0252 10.7541 68.0308 10.4925 68.0964 10.2429C68.2036 9.67585 68.5025 9.16292 68.9429 8.79011C69.3834 8.41729 69.9387 8.20726 70.5156 8.19524C70.7733 8.18045 71.0308 8.22681 71.2671 8.33055C71.5035 8.43429 71.7119 8.59245 71.8754 8.79212C72.0389 8.99179 72.1529 9.22731 72.208 9.47945C72.2632 9.73158 72.2579 9.99318 72.1926 10.2429C72.085 10.8102 71.7858 11.3232 71.345 11.6962C70.9043 12.0691 70.3487 12.2793 69.7715 12.2915ZM83.1505 4.97523C81.6096 4.97878 80.1163 5.50887 78.918 6.47758C77.7198 7.4463 76.8886 8.79545 76.5623 10.3014C76.0229 13.2667 77.9177 15.5105 81.117 15.5105C82.6574 15.5069 84.1503 14.9769 85.3483 14.0086C86.5463 13.0403 87.3775 11.6917 87.7041 10.1863C88.2436 7.2181 86.3497 4.97523 83.1495 4.97523H83.1505ZM81.7611 12.2915C81.5034 12.3061 81.2459 12.2596 81.0096 12.1557C80.7733 12.0519 80.5649 11.8936 80.4014 11.6939C80.2379 11.4942 80.1239 11.2586 80.0688 11.0064C80.0137 10.7543 80.0189 10.4926 80.0842 10.2429C80.1919 9.67593 80.4911 9.16318 80.9316 8.79044C81.3722 8.41769 81.9274 8.20757 82.5044 8.19524C82.7619 8.18076 83.0192 8.22736 83.2552 8.33123C83.4913 8.4351 83.6995 8.5933 83.8628 8.79293C84.0261 8.99256 84.1399 9.22796 84.195 9.47994C84.25 9.73192 84.2447 9.99334 84.1795 10.2429C84.0721 10.8102 83.7729 11.3234 83.3321 11.6964C82.8913 12.0694 82.3356 12.2795 81.7583 12.2915" fill="url(#paint0_linear_1_13466)"/>
<defs>
<linearGradient id="paint0_linear_1_13466" x1="2.91046" y1="8" x2="87.7965" y2="8" gradientUnits="userSpaceOnUse">
<stop stop-color="#82CEE6"/>
<stop offset="0.46" stop-color="#82CEE6"/>
<stop offset="1" stop-color="#8BACDB"/>
</linearGradient>
</defs>
</svg>
