<svg width="86" height="20" viewBox="0 0 86 20" fill="none" xmlns="http://www.w3.org/2000/svg">
<g clip-path="url(#clip0_1_13411)">
<path fill-rule="evenodd" clip-rule="evenodd" d="M0.646484 0.0765991H85.6465V19.9985H0.646484V0.0765991Z" fill="#FFCC00"/>
<path fill-rule="evenodd" clip-rule="evenodd" d="M0.646484 13.6424H11.8492L11.2257 14.4944H0.646484V13.6424ZM0.646484 12.0506H13.0283L12.3961 12.9023H0.646484V12.0506ZM0.646484 15.2338H10.6788L10.0549 16.0772H0.646484V15.2338ZM85.6465 14.4944H74.1549L74.7761 13.6424H85.6465V14.4944ZM85.6465 16.0772H72.9755L73.606 15.2338H85.6465V16.0772ZM75.9555 12.0506H85.6465V12.9023H75.316L75.9555 12.0506ZM11.4903 16.0772L16.9671 8.64368H23.888L24.0075 8.65231L24.1015 8.66957L24.1868 8.69514L24.2552 8.72104L24.3067 8.75557L24.3406 8.7984L24.3665 8.84157L24.3751 8.89303V8.96209L24.3578 9.02219L24.3323 9.09125L24.2981 9.15998L24.2552 9.24598L24.1958 9.33198L24.1271 9.42661L24.0587 9.52124L23.9816 9.63313L23.8963 9.73639L23.811 9.85692L23.7256 9.97711L23.6317 10.1063L23.5374 10.2354L23.4438 10.3646L23.3495 10.4934L23.2558 10.6226L23.1619 10.7431L23.0676 10.8636L22.9905 10.9842L22.9052 11.1044L22.8285 11.2073L22.7515 11.3109L22.709 11.3627L22.6744 11.4141L22.6406 11.4742L22.5977 11.5347L22.5722 11.5948L22.5552 11.6549L22.5463 11.7153L22.5552 11.7754L22.5722 11.8269L22.6064 11.8787L22.6661 11.9301L22.7515 11.9647L22.8541 11.9992L22.9905 12.0248L23.1619 12.0334L23.3584 12.0506H32.4654L32.3023 12.2658L32.1005 12.5155L31.8591 12.7994L31.5785 13.1088L31.2528 13.4359L30.8849 13.7716L30.4748 14.1159L30.0226 14.4512L29.5269 14.7697L28.989 15.0708L28.4076 15.3544L27.7841 15.5954L27.1177 15.7933L26.3998 15.9484L25.6478 16.043L24.8449 16.0772H11.6012H11.4903ZM42.847 12.0506L39.8823 16.0772H32.049L32.0822 16.034L32.1758 15.9052L32.3206 15.7073L32.5075 15.4493L32.7307 15.1395L32.9873 14.8039L33.2526 14.434L33.5332 14.0641L33.7985 13.6852L34.0731 13.324L34.3204 12.98L34.5525 12.6789L34.7395 12.4122L34.8842 12.223L34.9779 12.0852L35.0111 12.0506H42.847ZM54.1759 12.0506L51.2049 16.0772H43.3779L43.4111 16.034L43.5044 15.9052L43.6492 15.7073L43.8394 15.4493L44.0596 15.1395L44.3159 14.8039L44.5812 14.434L44.8647 14.0641L45.1304 13.6852L45.4016 13.324L45.649 12.98L45.8814 12.6789L46.0684 12.4122L46.2131 12.223L46.3064 12.0852L46.3426 12.0506H54.1759ZM56.7246 12.0506H56.7153L56.6973 12.0765L56.6641 12.1197L56.6279 12.1712L56.5858 12.2402L56.5283 12.3086L56.4679 12.395L56.3985 12.481L56.3295 12.5756L56.263 12.6702L56.1937 12.7648L56.1243 12.8595L56.0579 12.9541L55.9885 13.0404L55.9191 13.1261L55.8679 13.2035L55.7079 13.4531L55.5874 13.7025L55.509 13.9522L55.4848 14.2102L55.503 14.4512L55.5691 14.6923L55.6807 14.9244L55.8437 15.1395L56.0579 15.3371L56.3142 15.5181L56.6279 15.6728L56.9869 15.8106L57.3969 15.9311L57.8674 16.0085L58.3894 16.0599L58.9714 16.0772H71.5398L74.5138 12.0506H56.7246Z" fill="#D40511"/>
<path fill-rule="evenodd" clip-rule="evenodd" d="M15.3183 4.02374L12.5923 7.7229H27.5792L27.6987 7.73187L27.7927 7.7488L27.878 7.7747L27.9464 7.80027L27.9979 7.83513L28.0317 7.87763L28.0576 7.92976L28.0659 7.98122V8.03302L28.0576 8.10142L28.0317 8.17048L27.9889 8.24784L27.9464 8.32521L27.8953 8.41154L27.8269 8.50616L27.7585 8.60046L27.6728 8.70372L27.5961 8.81562L27.5108 8.93614L27.4165 9.05667L27.3229 9.18583L27.2286 9.31466L27.1349 9.44382L27.0406 9.58161L26.9553 9.70181L26.8613 9.83097L26.7674 9.95116L26.6817 10.0717L26.605 10.1922L26.5197 10.2955L26.4513 10.3987L26.4084 10.4502L26.3742 10.502L26.3317 10.5624L26.2972 10.6225L26.2716 10.683L26.2461 10.7431V10.8636L26.2633 10.9237L26.3062 10.9668L26.3656 11.0183L26.4513 11.0525L26.5535 11.087L26.6903 11.1129L26.8613 11.1216L27.0579 11.1388H33.141L33.15 11.1216L33.1832 11.0698L33.2343 11.001L33.3037 10.9064L33.3884 10.7862L33.491 10.6484L33.6026 10.4934L33.7321 10.3297L33.8678 10.1408L34.0037 9.94286L34.1574 9.74497L34.3021 9.53845L34.4652 9.32329L34.6189 9.10847L34.7816 8.89298L34.9357 8.68679L35.1226 8.38564L35.2524 8.04995L35.3368 7.697L35.364 7.31849L35.3368 6.93167L35.2431 6.54419L35.1077 6.15738L34.9025 5.78716L34.6461 5.42591L34.3204 5.09886L33.9372 4.79771L33.491 4.53972L32.978 4.32489L32.4049 4.1612L31.7565 4.05794L31.0479 4.02374H15.4547H15.3183ZM54.8423 11.1388H35.6867L40.9258 4.02374H48.7588L45.7605 8.10142H49.2472L52.2544 4.02374H60.0904L54.8423 11.1388ZM70.9335 4.02374L65.6944 11.1388H57.3969L57.4573 11.0525L57.62 10.8287L57.8767 10.4761L58.2174 10.0202L58.6125 9.48698L59.0557 8.87572L59.5266 8.23921L60.012 7.57681L60.5007 6.91441L60.9712 6.2779L61.4235 5.66663L61.8156 5.13339L62.1476 4.67751L62.4129 4.32489L62.5759 4.10111L62.636 4.02374H70.9335Z" fill="#D40511"/>
</g>
<defs>
<clipPath id="clip0_1_13411">
<rect width="85" height="20" fill="white" transform="translate(0.646484)"/>
</clipPath>
</defs>
</svg>
