<svg width="74" height="32" viewBox="0 0 74 32" fill="none" xmlns="http://www.w3.org/2000/svg">
<g clip-path="url(#clip0_1_13469)">
<path fill-rule="evenodd" clip-rule="evenodd" d="M13.7695 0.0987533L1.18565 6.95643L15.1582 15.0999C15.2782 15.1685 15.4325 15.3228 15.4325 15.4771V27.4609C15.4325 27.6323 15.2782 27.7352 15.261 27.7523L14.421 28.2152C14.2838 28.2838 14.0952 28.301 13.9066 28.1981L13.1694 27.7866C13.0666 27.7352 12.9637 27.5809 12.9637 27.4266V16.8143C12.9637 16.6258 12.758 16.54 12.6208 16.4543L0.499878 9.39091V23.5692C0.499878 23.8778 0.808474 24.2378 1.04849 24.3921L13.6666 31.8327C14.0781 32.0727 14.3181 32.0384 14.8667 31.7469L27.3305 24.3921C27.622 24.2206 27.8963 23.8949 27.8963 23.552V9.39091L19.5299 14.277C19.4271 14.3456 19.2385 14.3627 19.1185 14.2942L18.3641 13.8484C18.2098 13.7627 18.0727 13.5912 18.0727 13.4027L18.0555 12.5112C18.0555 12.374 18.1413 12.2026 18.2613 12.134L27.2105 6.92214L14.6096 0.0644649C14.4381 -0.00411185 13.9752 -0.021256 13.7695 0.0987533Z" fill="url(#paint0_linear_1_13469)"/>
<path d="M47.8522 23.5349V6.85358H44.732V12.3226C44.4405 12.1511 43.1718 11.9283 42.1603 11.9454C38.8344 12.0311 36.3485 14.6713 36.417 17.8773C36.5028 22.0776 38.9887 23.8435 42.8633 24.0835C44.8863 24.2378 47.2693 23.6206 47.8522 23.5349ZM44.7491 21.2718C44.5434 21.3233 43.189 21.4604 42.6918 21.3747C40.6345 21.049 39.6573 19.986 39.623 18.1687C39.6059 16.2143 40.4116 14.8085 42.8118 14.7056C43.2233 14.6885 44.5605 14.9285 44.732 15.0828L44.7491 21.2718ZM73.4999 23.5349V6.85358H70.3797V12.3226C70.0882 12.1511 68.8196 11.9283 67.8081 11.9454C64.4821 12.0311 61.9962 14.6713 62.0648 17.8773C62.1505 22.0776 64.6364 23.8435 68.511 24.0835C70.5168 24.2378 72.8999 23.6206 73.4999 23.5349ZM70.3968 21.2718C70.1911 21.3233 68.8367 21.4604 68.3395 21.3747C66.2822 21.049 65.305 19.986 65.2707 18.1687C65.2536 16.2143 66.0593 14.8085 68.4595 14.7056C68.871 14.6885 70.2082 14.9285 70.3797 15.0828L70.3968 21.2718ZM49.6181 12.9398V28.5924H52.7726L52.7555 14.9799C52.9612 14.9285 54.2984 14.7571 54.8128 14.7913C56.8872 14.9113 57.8473 16.0772 57.8816 17.9116C57.9159 19.0774 57.5215 20.0546 56.7672 20.6547C56.1843 21.1175 55.3957 21.3404 54.4699 21.3747V24.1178C55.9271 24.1521 57.3844 23.8606 58.5502 23.1063C60.0589 22.1291 61.139 19.9689 61.0704 17.9287C60.9675 14.2256 58.8759 12.0997 54.6242 12.014C52.6354 11.9283 50.2181 12.6312 49.6181 12.9398Z" fill="#414042"/>
</g>
<defs>
<linearGradient id="paint0_linear_1_13469" x1="0.483785" y1="23.7076" x2="27.7927" y2="7.94078" gradientUnits="userSpaceOnUse">
<stop stop-color="#B10034"/>
<stop offset="0.0204657" stop-color="#B10034"/>
<stop offset="0.1523" stop-color="#B10034"/>
<stop offset="0.1766" stop-color="#B70034"/>
<stop offset="0.2697" stop-color="#C80033"/>
<stop offset="0.3857" stop-color="#D30032"/>
<stop offset="0.5483" stop-color="#DA0032"/>
<stop offset="1" stop-color="#DC0032"/>
</linearGradient>
<clipPath id="clip0_1_13469">
<rect width="73" height="32" fill="white" transform="translate(0.499878)"/>
</clipPath>
</defs>
</svg>
