<svg width="71" height="20" viewBox="0 0 71 20" fill="none" xmlns="http://www.w3.org/2000/svg">
<g clip-path="url(#clip0_1_13415)">
<path d="M57.8448 18.8033L55.3115 15.9533L52.8415 18.8033H47.5215L52.7148 12.9767L47.5215 7.21332H52.9682L55.5648 9.99998L58.0348 7.21332H63.2915L58.0981 12.9767L63.3548 18.8033H57.8448Z" fill="#F47920"/>
<path d="M37.3882 18.8033V0.5H47.5215V4.55333H41.6948V7.21333H47.5215V11.14H41.6948V14.6867H47.5215V18.8033H37.3882Z" fill="#F47920"/>
<path d="M33.0815 0.5V7.97333H33.0181C32.0681 6.89667 30.8648 6.51667 29.5348 6.51667C26.6848 6.51667 24.5948 8.41667 23.8348 10.95C23.0115 8.16333 20.7948 6.45333 17.5648 6.45333C14.9048 6.45333 12.8148 7.65667 11.7381 9.55667V7.15H6.29146V4.55333H12.2448V0.5H1.41479V18.8033H6.29146V11.14H11.1681C11.0415 11.71 10.9148 12.28 10.9148 12.9767C10.9148 16.7767 13.8281 19.5 17.5648 19.5C20.6681 19.5 22.7581 18.0433 23.8348 15.32H19.6548C19.0848 16.1433 18.6415 16.3333 17.5648 16.3333C16.2348 16.3333 15.1581 15.1933 15.1581 13.8633H23.5815C23.9615 16.9033 26.3048 19.5 29.5348 19.5C30.9281 19.5 32.1948 18.8033 33.0181 17.6633H33.0815V18.8667H37.3881V0.5H33.0815ZM15.2215 11.14C15.4748 10 16.4248 9.24 17.5015 9.24C18.7681 9.24 19.5915 10 19.8448 11.14H15.2215ZM30.4848 16.0167C28.9015 16.0167 27.9515 14.56 27.9515 12.9767C27.9515 11.33 28.7748 9.74667 30.4848 9.74667C32.2581 9.74667 32.9548 11.33 32.9548 12.9767C32.9548 14.56 32.1948 16.0167 30.4848 16.0167Z" fill="#472F92"/>
<path d="M65.5082 17.03C65.5082 15.8266 66.4582 14.8766 67.6615 14.8766C68.8648 14.8766 69.8148 15.8266 69.8148 17.03C69.8148 18.2333 68.8648 19.1833 67.6615 19.1833C66.4582 19.2466 65.5082 18.2333 65.5082 17.03ZM69.4348 17.03C69.4348 16.0166 68.6115 15.2566 67.6615 15.2566C66.6482 15.2566 65.8882 16.08 65.8882 17.03C65.8882 18.0433 66.7115 18.8033 67.6615 18.8033C68.6748 18.8666 69.4348 18.0433 69.4348 17.03ZM67.2182 17.1566V18.2333H66.8382V15.7H67.6615C68.1048 15.7 68.6115 15.8266 68.6115 16.3966C68.6115 16.7133 68.4215 16.9033 68.1048 16.9666C68.4848 17.03 68.4848 17.22 68.5482 17.4733C68.6115 17.7266 68.6115 17.98 68.6748 18.2333H68.1682C68.1682 18.1066 68.1048 17.9166 68.1048 17.79C68.1048 17.6 68.1048 17.3466 67.9782 17.22C67.8515 17.0933 67.7248 17.1566 67.5982 17.0933H67.2182V17.1566ZM67.6615 16.7766C68.0415 16.7766 68.1048 16.5866 68.1048 16.3966C68.1048 16.2066 68.0415 16.08 67.7248 16.08H67.2182V16.7133H67.6615V16.7766Z" fill="#F47920"/>
</g>
<defs>
<clipPath id="clip0_1_13415">
<rect width="70" height="19" fill="white" transform="translate(0.646484 0.5)"/>
</clipPath>
</defs>
</svg>
