<svg width="75" height="20" viewBox="0 0 75 20" fill="none" xmlns="http://www.w3.org/2000/svg">
<g clip-path="url(#clip0_1_13420)">
<path d="M64.2582 19.9131C64.9084 19.911 65.5434 19.7162 66.083 19.3535C66.6225 18.9907 67.0425 18.4762 67.2899 17.8749C67.5372 17.2736 67.6008 16.6125 67.4726 15.9751C67.3445 15.3376 67.0303 14.7525 66.5698 14.2935C66.1092 13.8345 65.523 13.5223 64.8852 13.3963C64.2473 13.2703 63.5864 13.3361 62.986 13.5855C62.3855 13.8348 61.8724 14.2565 61.5115 14.7973C61.1505 15.3381 60.9579 15.9738 60.958 16.6239C60.9595 17.4977 61.3081 18.3351 61.927 18.9519C62.5459 19.5688 63.3844 19.9145 64.2582 19.9131Z" fill="#FFD100"/>
<path d="M17.2264 9.31628V13.6199H20.8179C20.5217 14.0057 20.1419 14.3193 19.7071 14.5373C19.2723 14.7552 18.7937 14.8718 18.3074 14.8783C15.6026 14.8783 14.2511 13.3424 14.2511 10.2421C14.2511 6.81905 16.0358 5.06718 19.5786 5.06718C21.3558 5.13801 23.1135 5.46491 24.7974 6.03778V0.88946C23.9742 0.59389 23.1222 0.385823 22.2554 0.2687C21.2641 0.0972527 20.2604 0.00738473 19.2545 0C15.7388 0 12.9533 0.943555 10.8716 2.82978C8.78979 4.716 7.7345 7.25048 7.7345 10.4585C7.7345 13.3961 8.54577 15.7142 10.1683 17.4128C11.7906 19.1376 13.981 20 16.7395 20C19.509 20 22.0537 18.5674 22.8735 16.7485L22.8558 19.675H26.8623V9.31628H17.2264ZM28.8621 19.6763V0.323239H35.0821V14.6357H41.8692V19.6763H28.8621ZM44.1376 19.1912V13.9086C45.1925 14.2307 46.2676 14.4825 47.3558 14.6624C48.4001 14.8613 49.4596 14.9699 50.5226 14.9869C52.0368 14.9869 52.8216 14.6096 52.8216 13.9356C52.8216 13.5046 52.5782 13.2883 51.4693 13.0457L49.3059 12.5611C45.6009 11.7253 43.8716 9.86565 43.8716 6.71175C43.833 5.77939 44.0076 4.85051 44.3821 3.9958C44.7566 3.14109 45.3211 2.38305 46.0327 1.77936C47.4631 0.592826 49.466 0 51.9809 0C54.0026 0.0446313 56.0142 0.297222 57.9841 0.75378V5.79524C56.9763 5.53877 55.9566 5.3316 54.9287 5.17448C53.9812 5.01406 53.0232 4.9241 52.0625 4.90533C50.7376 4.90533 49.9785 5.28222 49.9785 5.95619C49.9785 6.36057 50.3297 6.6306 51.06 6.81905L53.575 7.41187C57.2552 8.27473 58.9561 10.161 58.9561 13.3685C58.9918 14.297 58.807 15.2208 58.4169 16.0641C58.0267 16.9074 57.4423 17.6463 56.7116 18.2202C55.2244 19.4061 53.17 19.9991 50.5483 19.9991C48.3843 20.028 46.2268 19.7561 44.1376 19.1912Z" fill="#061AB1"/>
</g>
<defs>
<clipPath id="clip0_1_13420">
<rect width="74" height="20" fill="white" transform="translate(0.646484)"/>
</clipPath>
</defs>
</svg>
