<svg width="80" height="48" viewBox="0 0 80 48" fill="none" xmlns="http://www.w3.org/2000/svg">
<g clip-path="url(#clip0_1_13475)">
<path d="M36.8328 36.6035C36.8328 36.1104 36.4682 35.7953 35.8924 35.7953C35.3167 35.7953 34.9524 36.1104 34.9524 36.6035C34.9524 37.0966 35.317 37.4063 35.8924 37.4063C36.4679 37.4063 36.8328 37.0963 36.8328 36.6035ZM34.5966 37.6706C34.4463 37.5358 34.326 37.3709 34.2437 37.1866C34.1614 37.0023 34.1189 36.8027 34.1189 36.6008C34.1189 36.3989 34.1614 36.1993 34.2437 36.015C34.326 35.8306 34.4463 35.6657 34.5966 35.531C34.9785 35.2727 35.4291 35.1346 35.8902 35.1346C36.3512 35.1346 36.8018 35.2727 37.1837 35.531C37.3353 35.665 37.4566 35.8296 37.5398 36.0141C37.6229 36.1985 37.6658 36.3985 37.6658 36.6008C37.6658 36.8031 37.6229 37.0031 37.5398 37.1875C37.4566 37.3719 37.3353 37.5366 37.1837 37.6706C36.8019 37.9292 36.3513 38.0674 35.8902 38.0674C35.429 38.0674 34.9784 37.9292 34.5966 37.6706ZM40.7377 35.2056H41.5508V37.996H40.7584V37.563C40.6419 37.7311 40.4835 37.8659 40.299 37.9542C40.1145 38.0425 39.9102 38.0812 39.7062 38.0665C39.53 38.0787 39.3532 38.0554 39.1862 37.9979C39.0192 37.9405 38.8654 37.8502 38.7339 37.7323C38.4851 37.4892 38.3833 37.1632 38.3833 36.5683V35.2062H39.2015V36.5889C39.1829 36.7114 39.1953 36.8367 39.2378 36.9531C39.2803 37.0695 39.3514 37.1733 39.4446 37.2549C39.5492 37.3167 39.6654 37.356 39.786 37.3704C39.9066 37.3848 40.0288 37.374 40.145 37.3386C40.2612 37.3032 40.3687 37.244 40.4608 37.1648C40.5528 37.0856 40.6274 36.9881 40.6797 36.8785C40.7205 36.7645 40.7395 36.6438 40.7356 36.5227L40.7377 35.2056ZM44.5697 37.3352V37.996H43.5485C42.984 37.996 42.7504 37.7724 42.7504 37.2437V35.8564H42.232V35.2056H42.7504V34.4587H43.5686V35.2056H44.5713V35.8564H43.5686V37.0608C43.5686 37.2689 43.6397 37.3342 43.8885 37.3342L44.5697 37.3352ZM49.4603 36.6035C49.4603 36.1104 49.0957 35.7953 48.5202 35.7953C47.9448 35.7953 47.5802 36.1104 47.5802 36.6035C47.5802 37.0966 47.9448 37.4063 48.5202 37.4063C49.0957 37.4063 49.4603 37.0963 49.4603 36.6035ZM47.2241 37.6706C47.0738 37.5358 46.9535 37.3709 46.8712 37.1866C46.7889 37.0023 46.7464 36.8027 46.7464 36.6008C46.7464 36.3989 46.7889 36.1993 46.8712 36.015C46.9535 35.8306 47.0738 35.6657 47.2241 35.531C47.606 35.2727 48.0566 35.1346 48.5177 35.1346C48.9788 35.1346 49.4293 35.2727 49.8112 35.531C49.9628 35.665 50.0841 35.8296 50.1673 36.0141C50.2504 36.1985 50.2934 36.3985 50.2934 36.6008C50.2934 36.8031 50.2504 37.0031 50.1673 37.1875C50.0841 37.3719 49.9628 37.5366 49.8112 37.6706C49.4294 37.9292 48.9788 38.0674 48.5177 38.0674C48.0565 38.0674 47.6059 37.9292 47.2241 37.6706ZM52.87 34.8249H52.3571C52.1484 34.8249 52.0672 34.8801 52.0672 35.0275V35.2056H52.87V35.8561H52.0672V37.996H51.249V35.8561H50.7914V35.2056H51.249V34.9929C51.249 34.449 51.5996 34.195 52.3164 34.195H52.87V34.8249ZM57.2872 37.3352V37.996H56.266C55.7018 37.996 55.4678 37.7724 55.4678 37.2437V35.8564H54.9495V35.2056H55.4678V34.4587H56.286V35.2056H57.2872V35.8564H56.286V37.0608C56.286 37.2689 56.3574 37.3342 56.6063 37.3342L57.2872 37.3352ZM58.0957 37.996V34.1941H58.9139V35.6024C59.0422 35.4455 59.2058 35.3214 59.3913 35.2401C59.5769 35.1588 59.7791 35.1227 59.9813 35.1348C60.3359 35.1167 60.6838 35.2365 60.9521 35.469C61.2009 35.7078 61.3076 36.0432 61.3076 36.633V37.9951H60.4896V36.6129C60.5053 36.4964 60.4927 36.3778 60.4528 36.2672C60.4129 36.1567 60.347 36.0573 60.2605 35.9776C60.1197 35.8733 59.9477 35.8198 59.7726 35.8257C59.6024 35.8151 59.4331 35.8578 59.2883 35.9479C59.1435 36.0379 59.0304 36.1709 58.9647 36.3282C58.9272 36.4431 58.91 36.5636 58.9139 36.6843V37.9957L58.0957 37.996ZM62.8972 36.2678H64.6559C64.6 35.9478 64.2849 35.7513 63.8118 35.7513C63.3293 35.7513 62.9838 35.9439 62.8972 36.2678ZM62.5059 37.6806C62.3555 37.5458 62.2356 37.3805 62.1541 37.1956C62.0727 37.0108 62.0315 36.8108 62.0335 36.6088C62.0354 36.4068 62.0803 36.2076 62.1653 36.0244C62.2503 35.8411 62.3733 35.6781 62.5263 35.5462C62.8885 35.2603 63.3414 35.1142 63.8024 35.1345C64.2451 35.1126 64.6822 35.2411 65.0426 35.4991C65.1931 35.6052 65.3153 35.7466 65.3987 35.9107C65.4821 36.0748 65.5241 36.2569 65.5212 36.441C65.522 36.4748 65.5203 36.5086 65.516 36.5421C65.516 36.5783 65.5112 36.654 65.506 36.7813H62.8717C62.9276 37.1726 63.3089 37.4014 63.9048 37.4014C64.3044 37.4109 64.6954 37.2836 65.0129 37.0407L65.4501 37.5333C65.1499 37.8638 64.5349 38.0674 63.8285 38.0674C63.3565 38.0961 62.8892 37.9593 62.5071 37.6806H62.5059ZM70.5582 36.6035C70.5582 36.1204 70.1875 35.8005 69.6388 35.8005C69.0694 35.8005 68.6881 36.1204 68.6881 36.6035C68.6881 37.0866 69.0694 37.4014 69.6388 37.4014C70.1924 37.4014 70.5582 37.0863 70.5582 36.6035ZM67.8702 37.996V34.1941H68.6881V35.5361C68.9884 35.262 69.3848 35.1178 69.791 35.1348C70.2136 35.1179 70.6267 35.2632 70.9456 35.541C71.0871 35.6788 71.1996 35.8436 71.2764 36.0256C71.3532 36.2077 71.3928 36.4032 71.3928 36.6008C71.3928 36.7983 71.3532 36.9939 71.2764 37.1759C71.1996 37.3579 71.0871 37.5227 70.9456 37.6606C70.6269 37.9388 70.2137 38.0844 69.791 38.0674C69.5858 38.076 69.3808 38.044 69.1879 37.9733C68.995 37.9026 68.8179 37.7946 68.6668 37.6554V37.996H67.8702ZM74.7217 36.6035C74.7217 36.1104 74.3553 35.7953 73.7798 35.7953C73.2043 35.7953 72.84 36.1104 72.84 36.6035C72.84 37.0966 73.2046 37.4063 73.7798 37.4063C74.355 37.4063 74.7217 37.0963 74.7217 36.6035ZM72.4852 37.6706C72.3349 37.5358 72.2146 37.3709 72.1323 37.1866C72.05 37.0023 72.0075 36.8027 72.0075 36.6008C72.0075 36.3989 72.05 36.1993 72.1323 36.015C72.2146 35.8306 72.3349 35.6657 72.4852 35.531C72.8671 35.2727 73.3176 35.1346 73.7787 35.1346C74.2398 35.1346 74.6904 35.2727 75.0723 35.531C75.2239 35.665 75.3452 35.8296 75.4284 36.0141C75.5115 36.1985 75.5544 36.3985 75.5544 36.6008C75.5544 36.8031 75.5115 37.0031 75.4284 37.1875C75.3452 37.3719 75.2239 37.5366 75.0723 37.6706C74.6905 37.9292 74.2399 38.0674 73.7787 38.0674C73.3176 38.0674 72.867 37.9292 72.4852 37.6706ZM79.4999 37.996H78.4124L77.6246 37.0915L76.8316 37.996H75.8149L77.1263 36.5883L75.8404 35.2056H76.9127L77.6702 36.0542L78.4225 35.2056H79.4391L78.1684 36.5576L79.4999 37.996ZM42.596 30.5821H40.4111V24.3032C40.4111 22.9809 39.828 22.2694 38.7704 22.187C37.9407 22.1737 37.1126 22.2656 36.306 22.4605V30.5808H34.1201V20.9066C35.784 20.5515 37.4775 20.3538 39.1784 20.3163C39.6387 20.3045 40.0965 20.3864 40.5241 20.5568C40.9518 20.7273 41.3403 20.9829 41.6663 21.308C42.2867 21.9293 42.5971 22.7952 42.5975 23.9058L42.596 30.5821ZM79.4528 30.6486C79.0872 30.7408 78.7116 30.7868 78.3346 30.7856C77.1031 30.7856 76.2893 30.5122 75.8933 29.9653C75.5771 29.5346 75.4191 28.7186 75.4193 27.5172V17.4465H77.5766V20.2938H79.4907V22.0561H77.5766V27.3787C77.5766 27.9536 77.6497 28.3324 77.7959 28.5154C77.9689 28.7497 78.3352 28.867 78.8946 28.8672C79.0814 28.8655 79.2679 28.8525 79.4531 28.8283L79.4528 30.6486Z" fill="#404041"/>
<path d="M11.9306 24.0283C10.0932 24.6717 8.16181 25.0059 6.21507 25.0173C4.26843 25.0058 2.33717 24.6716 0.499878 24.0283C2.33718 23.385 4.26845 23.0509 6.21507 23.0396C8.16181 23.051 10.0932 23.3852 11.9306 24.0286V24.0283ZM19.8334 9.48143C18.2688 8.35365 16.9056 6.97013 15.8012 5.38904C14.7236 3.80379 13.9255 2.04568 13.4416 0.190979C15.0062 1.31863 16.3695 2.70206 17.4741 4.28307C18.5516 5.86841 19.3496 7.62663 19.8334 9.48143ZM14.045 15.7584C12.1205 15.4822 10.2553 14.8882 8.52545 14.0007C6.81541 13.0978 5.26956 11.9135 3.95269 10.4975C5.87718 10.773 7.74251 11.3664 9.47252 12.2533C11.1825 13.1569 12.7283 14.3418 14.045 15.7584ZM19.5599 28.7906C21.1821 28.7751 23.1388 27.4981 23.1388 27.4981C23.1388 27.4981 18.6019 26.1248 18.8875 22.0555C19.782 15.3774 25.1891 10.1344 31.9577 9.29062C31.2297 9.18954 30.4954 9.14019 29.7604 9.14296C21.3884 9.18003 14.6317 15.8645 14.6694 24.0726C14.707 32.2808 21.5255 38.9042 29.8968 38.8671C30.585 38.8632 31.2722 38.8135 31.9538 38.7182C29.1068 38.3735 26.4174 37.2235 24.2014 35.4032C21.9853 33.583 20.3348 31.1682 19.4436 28.4424L19.5599 28.7906ZM19.8334 38.5183C18.2687 39.6461 16.9055 41.0297 15.8012 42.611C14.7235 44.1962 13.9255 45.9543 13.4416 47.8091C15.0062 46.6814 16.3695 45.298 17.4741 43.717C18.5516 42.1315 19.3496 40.3732 19.8334 38.5183ZM14.045 32.2416C12.1205 32.5178 10.2553 33.1117 8.52545 33.999C6.81546 34.902 5.26962 36.0863 3.95269 37.5023C5.87724 37.2261 7.74256 36.6323 9.47252 35.7449C11.1825 34.842 12.7282 33.6577 14.045 32.2416Z" fill="#FFCB04"/>
<path d="M29.7297 17.4356H31.9578V30.5711H29.7297V17.4356ZM54.3203 21.9245C54.3468 22.5214 54.2499 23.1173 54.0356 23.675C53.8212 24.2327 53.494 24.7401 53.0745 25.1655C52.2416 25.981 51.1128 26.3888 49.6882 26.3888H46.9868V30.5395H44.757V17.4016H49.5272C51.0715 17.4016 52.2565 17.8031 53.0821 18.6063C53.9077 19.4094 54.3205 20.5155 54.3203 21.9245ZM52.0688 21.9245C52.0688 20.3322 51.2901 19.536 49.7326 19.536H46.9853V24.2759H49.6913C50.009 24.2947 50.3274 24.2498 50.6275 24.1439C50.9277 24.038 51.2037 23.8732 51.4393 23.6591C51.6569 23.4288 51.8251 23.1562 51.9332 22.8583C52.0414 22.5605 52.0874 22.2436 52.0682 21.9272L52.0688 21.9245ZM64.6346 25.3658C64.6346 26.9457 64.192 28.2185 63.3066 29.1841C62.8577 29.6426 62.3218 30.0069 61.7302 30.2556C61.1387 30.5043 60.5035 30.6324 59.8618 30.6324C59.2201 30.6324 58.5849 30.5043 57.9934 30.2556C57.4019 30.0069 56.8659 29.6426 56.417 29.1841C55.531 28.2181 55.0884 26.9453 55.089 25.3658C55.0896 23.7862 55.5323 22.5168 56.417 21.5574C56.8685 21.1016 57.4059 20.7398 57.998 20.4928C58.5902 20.2459 59.2254 20.1187 59.867 20.1187C60.5086 20.1187 61.1438 20.2459 61.7359 20.4928C62.3281 20.7398 62.8654 21.1016 63.3169 21.5574C64.195 22.5172 64.6342 23.7866 64.6346 25.3658ZM62.3783 25.3761C62.4237 24.5365 62.1809 23.7065 61.6902 23.0238C61.4692 22.7515 61.1902 22.5322 60.8735 22.3818C60.5568 22.2315 60.2104 22.1539 59.8599 22.1548C59.5093 22.1557 59.1633 22.235 58.8474 22.387C58.5315 22.539 58.2536 22.7598 58.0341 23.0332C57.5462 23.7138 57.3037 24.5398 57.3462 25.3761C57.3009 26.2154 57.5436 27.0449 58.0341 27.7275C58.2551 27.999 58.5339 28.2179 58.8501 28.3682C59.1663 28.5185 59.512 28.5965 59.8621 28.5965C60.2122 28.5965 60.558 28.5185 60.8742 28.3682C61.1904 28.2179 61.4691 27.999 61.6902 27.7275C62.1807 27.045 62.4235 26.2154 62.3783 25.3761ZM74.1262 27.1867C74.1356 27.6565 74.0357 28.122 73.8346 28.5467C73.6335 28.9714 73.3365 29.3436 72.9671 29.6341C72.1957 30.2742 71.1777 30.5937 69.9129 30.5927C67.9414 30.5927 66.4167 30.0053 65.3386 28.8304L66.9961 27.441C67.3719 27.8283 67.8222 28.1356 68.3199 28.3444C68.8175 28.5533 69.3523 28.6594 69.8919 28.6563C70.4032 28.6828 70.9109 28.5568 71.3504 28.2941C71.5116 28.2021 71.6461 28.0696 71.7407 27.9098C71.8352 27.75 71.8864 27.5683 71.8894 27.3826C71.8972 27.1906 71.8405 27.0014 71.7283 26.8453C71.6161 26.6892 71.455 26.5751 71.2705 26.5212C70.6414 26.3497 70.0005 26.2251 69.3529 26.1487C68.1013 25.9664 67.209 25.6924 66.6758 25.3266C66.3639 25.0998 66.1143 24.7979 65.9505 24.4488C65.7866 24.0997 65.7136 23.7149 65.7385 23.33C65.7363 22.89 65.8382 22.4556 66.036 22.0625C66.2338 21.6693 66.5217 21.3285 66.8764 21.068C67.6347 20.4615 68.6468 20.1577 69.9126 20.1564C71.3644 20.1265 72.7699 20.668 73.8263 21.6644L72.5281 23.035C71.7981 22.3649 70.8425 21.9943 69.8515 21.9971C68.5736 21.9971 67.9348 22.3562 67.9352 23.0745C67.9352 23.4918 68.2281 23.779 68.8139 23.9362C69.639 24.066 70.4578 24.2029 71.2705 24.3467C73.1745 24.6991 74.1265 25.6455 74.1265 27.1857" fill="#404041"/>
</g>
<defs>
<clipPath id="clip0_1_13475">
<rect width="79" height="48" fill="white" transform="translate(0.499878)"/>
</clipPath>
</defs>
</svg>
