<svg width="69" height="16" viewBox="0 0 69 16" fill="none" xmlns="http://www.w3.org/2000/svg">
<g clip-path="url(#clip0_1_13479)">
<path d="M40.7378 8.14586C40.7378 7.29045 40.3672 5.86545 38.7565 5.86545C37.2886 5.86545 36.6905 7.20482 36.5899 8.14586H40.7378ZM36.619 10.5396C36.7332 11.9932 38.1582 12.6771 39.7968 12.6771C40.8501 12.6913 41.899 12.5372 42.9038 12.2209L43.3601 14.5869C42.0557 15.0657 40.6735 15.2976 39.2843 15.2709C35.4647 15.2709 33.2843 13.0625 33.2843 9.5417C33.2843 6.6917 35.0513 3.5417 38.9718 3.5417C42.6057 3.5417 43.9878 6.36315 43.9878 9.1569C43.9862 9.61989 43.9481 10.082 43.8736 10.539L36.619 10.5396ZM18.0934 9.6142C18.022 7.89024 17.9649 5.80899 17.9649 3.72857H17.8934C17.4372 5.55274 16.8101 7.59024 16.2407 9.28649L14.4165 14.8732H11.7801L10.1836 9.31524C9.69967 7.63315 9.18634 5.59565 8.82946 3.7144H8.78738C8.70154 5.6519 8.63029 7.8617 8.51654 9.65711L8.24571 15.1009H5.12488L6.07925 0.764404H10.5832L12.0511 5.55274C12.5215 7.20545 12.977 9.0017 13.3197 10.6829H13.3911C13.8188 9.01628 14.3172 7.13482 14.8161 5.5242L16.3828 0.764404H20.8005L21.6274 15.1009H18.3211L18.0934 9.6142ZM56.9268 6.3794H59.0643V3.80003H56.9268V6.3794ZM58.0384 12.4211C56.9838 12.4211 56.6561 11.7942 56.6561 10.4398V0.764404L53.2357 1.54836V3.8144H51.9251L51.683 6.39378H53.2222V10.9821C53.2222 12.5642 53.5499 13.6473 54.1911 14.3169C54.7463 14.8865 55.6874 15.2857 56.8132 15.2857C57.7963 15.2857 58.623 15.1715 59.0936 14.9865L59.0651 12.3357C58.726 12.3937 58.3825 12.4224 58.0384 12.4215V12.4211ZM49.5732 8.17503C48.1911 7.69024 47.7493 7.41961 47.7493 6.89211C47.7493 6.30878 48.234 5.96607 49.0884 5.96607C49.7436 5.98489 50.3903 6.12005 50.9982 6.36524L51.2259 3.85711C50.4888 3.64786 49.7261 3.54268 48.9599 3.54461C46.1813 3.54461 44.3851 5.1267 44.3851 7.22128C44.3707 8.56065 45.2547 9.81503 47.577 10.599C48.8878 11.0409 49.2297 11.3115 49.2297 11.8819C49.2297 12.4523 48.7878 12.8221 47.7334 12.8221C46.6775 12.7791 45.6469 12.486 44.7263 11.9669L44.0995 14.4748C44.9536 14.9311 46.2661 15.2588 47.7334 15.2588C50.9538 15.2588 52.6084 13.7194 52.6084 11.6248C52.6088 9.98482 51.7107 8.9017 49.5732 8.17503Z" fill="#0060AF"/>
<path d="M29.4595 8.14727C29.4595 7.2854 29.0861 5.84935 27.463 5.84935C25.9839 5.84935 25.3809 7.19915 25.2803 8.14727H29.4595ZM25.3091 10.5596C25.4243 12.0244 26.8601 12.7135 28.5114 12.7135C29.5728 12.7277 30.6298 12.5725 31.6424 12.2537L32.1007 14.6381C30.7863 15.1206 29.3936 15.3543 27.9936 15.3273C24.1457 15.3273 21.9478 13.1012 21.9478 9.55456C21.9478 6.68248 23.7284 3.50831 27.6782 3.50831C31.3401 3.50831 32.7328 6.35144 32.7328 9.16665C32.7313 9.63326 32.6929 10.099 32.6178 10.5596H25.3091ZM61.6845 0.708313L64.0832 5.05956L61.6845 9.42498H59.2724L61.6709 5.05956L59.2724 0.708313H61.6845Z" fill="#ED1C24"/>
</g>
<defs>
<clipPath id="clip0_1_13479">
<rect width="68" height="15" fill="white" transform="translate(0.499878 0.5)"/>
</clipPath>
</defs>
</svg>
