<svg width="61" height="60" viewBox="0 0 61 60" fill="none" xmlns="http://www.w3.org/2000/svg">
<g clip-path="url(#clip0_1_13461)">
<path d="M43.7928 52.7156L9.82392 46.7256C9.08381 46.5934 8.42623 46.1734 7.99507 45.5575C7.56391 44.9416 7.39429 44.1799 7.52334 43.4393L13.5137 9.47072C13.5778 9.10357 13.7138 8.75268 13.9137 8.43818C14.1137 8.12368 14.3739 7.85177 14.6792 7.63803C14.9845 7.42429 15.329 7.27293 15.693 7.19264C16.0569 7.11235 16.4331 7.10471 16.8 7.17014L50.7686 13.1619C51.5087 13.2941 52.1663 13.7141 52.5975 14.33C53.0286 14.9459 53.1982 15.7075 53.0692 16.4482L47.0791 50.4168C46.9465 51.1566 46.5263 51.8137 45.9105 52.2445C45.2946 52.6753 44.5332 52.8447 43.7928 52.7156Z" fill="#D81E04"/>
<path d="M17.7861 27.4111C18.151 27.3995 18.4979 27.2495 18.7561 26.9914C19.0144 26.7334 19.1648 26.3867 19.1767 26.0218C19.1809 25.8382 19.1478 25.6557 19.0795 25.4853C19.0112 25.3148 18.909 25.16 18.7791 25.0302C18.6493 24.9003 18.4945 24.7982 18.324 24.7298C18.1536 24.6615 17.9711 24.6284 17.7875 24.6326C17.5973 24.619 17.4063 24.6449 17.2266 24.7087C17.0469 24.7725 16.8824 24.8728 16.7433 25.0033C16.6043 25.1338 16.4937 25.2916 16.4186 25.4669C16.3435 25.6422 16.3056 25.8311 16.307 26.0218C16.3119 26.2105 16.3542 26.3963 16.4314 26.5685C16.5086 26.7407 16.6191 26.8959 16.7567 27.0251C16.8942 27.1543 17.056 27.2549 17.2327 27.3212C17.4094 27.3874 17.5975 27.418 17.7861 27.4111ZM39.611 22.6011H41.6425L43.9578 26.1117C43.9578 25.6485 43.8683 25.2751 43.8683 25.0063V22.6011H45.9882V29.353H43.9567L41.6414 25.8425C41.7113 26.1764 41.7414 26.5174 41.7309 26.8584V29.353H39.611V22.6011ZM33.875 22.6011H38.5955V24.2592H36.011V25.0958H37.4003V26.6643H36.011V27.5009H38.879V29.3523H33.8891V22.6011H33.875ZM28.6019 22.6011H31.0053V27.5009H33.1266V29.3523H28.5861V22.6011H28.6019ZM22.0293 22.6011H24.8065C26.5691 22.6011 27.4951 23.4377 27.4951 24.9165C27.4951 25.8422 26.9425 26.485 26.1957 26.5745L27.9583 29.3517H25.2697L24.1643 27.1409V29.3517H22.0283L22.0293 22.6011ZM17.7868 22.4218C18.7273 22.4411 19.6226 22.8293 20.2794 23.5029C20.9361 24.1764 21.3017 25.0811 21.2973 26.0218C21.2843 26.9581 20.9033 27.8517 20.2366 28.5092C19.5698 29.1667 18.6711 29.5354 17.7347 29.5354C16.7983 29.5354 15.8995 29.1667 15.2328 28.5092C14.5661 27.8517 14.185 26.9581 14.1721 26.0218C14.1727 25.5481 14.2668 25.0791 14.4488 24.6417C14.6308 24.2043 14.8973 23.8071 15.233 23.4728C15.5686 23.1384 15.9668 22.8735 16.4049 22.6932C16.843 22.5129 17.3124 22.4207 17.7861 22.4218H17.7868ZM25.3602 25.0059C25.3602 24.5427 25.0763 24.2739 24.5236 24.2739H24.1482V25.7527H24.5215C25.0907 25.753 25.3595 25.4691 25.3595 25.0059H25.3602ZM19.355 33.7594C19.3924 34.2417 19.3924 34.7261 19.355 35.2083C19.3494 35.4934 19.2864 35.7744 19.1697 36.0346C19.053 36.2948 18.8851 36.5288 18.6759 36.7226C18.4668 36.9164 18.2207 37.0661 17.9524 37.1626C17.6841 37.2592 17.3991 37.3007 17.1145 37.2847C16.7246 37.2749 16.3398 37.1935 15.9793 37.0447V38.1651C15.9803 38.3488 15.9089 38.5255 15.7805 38.657C15.6522 38.7884 15.4772 38.864 15.2935 38.8673C15.2019 38.8682 15.1109 38.8505 15.0262 38.8153C14.9416 38.7801 14.8649 38.7282 14.8008 38.6626C14.7368 38.597 14.6866 38.5191 14.6535 38.4336C14.6203 38.3481 14.6048 38.2568 14.6078 38.1651V32.699C14.603 32.6308 14.6172 32.5626 14.6488 32.5021C14.6805 32.4415 14.7284 32.391 14.7871 32.3561C15.4323 31.9245 16.1918 31.6956 16.9681 31.6989C18.2939 31.6982 19.2498 32.5498 19.3543 33.7598L19.355 33.7594ZM15.9789 33.3264V35.7315C16.2869 35.8964 16.6304 35.9836 16.9797 35.9856C17.1119 35.9956 17.2446 35.9776 17.3694 35.933C17.4941 35.8883 17.6081 35.8179 17.7039 35.7263C17.7997 35.6348 17.8752 35.5241 17.9254 35.4015C17.9757 35.2789 17.9996 35.1471 17.9956 35.0146C18.0255 34.6817 18.0255 34.3468 17.9956 34.0138C17.9959 33.8778 17.9682 33.7433 17.914 33.6185C17.8598 33.4938 17.7805 33.3816 17.6809 33.289C17.5813 33.1964 17.4637 33.1254 17.3353 33.0805C17.207 33.0355 17.0707 33.0176 16.9351 33.0278C16.595 33.0378 16.2641 33.1411 15.9786 33.3264H15.9789ZM24.6577 33.7594V36.299C24.6672 36.3932 24.6497 36.4882 24.6072 36.5728C24.5647 36.6575 24.4989 36.7283 24.4177 36.7769C23.7729 37.161 23.0318 37.3527 22.2817 37.3296C20.8177 37.3296 20.1457 36.5379 20.1457 35.581C20.1457 34.7146 20.7433 33.9377 22.1623 33.9377C22.5604 33.9375 22.957 33.9878 23.3425 34.0872V33.7138C23.3425 33.2061 23.0884 32.9369 22.4013 32.9369C22.0756 32.949 21.7534 33.0095 21.4454 33.1162C21.3297 33.1544 21.2087 33.1745 21.0868 33.1759C20.9307 33.1763 20.7807 33.1155 20.669 33.0065C20.5572 32.8975 20.4927 32.7491 20.4892 32.593C20.4856 32.4558 20.5276 32.3211 20.6087 32.2103C20.6898 32.0995 20.8054 32.0187 20.9373 31.9807C21.4045 31.8012 21.9009 31.7101 22.4013 31.7119C23.8657 31.6982 24.6573 32.3407 24.6573 33.7598L24.6577 33.7594ZM21.4609 35.5371C21.4609 36.0003 21.8195 36.2229 22.3722 36.2229C22.7221 36.2308 23.0661 36.1318 23.3582 35.939V34.9978C23.0395 34.8961 22.7067 34.8456 22.3722 34.8483C21.7297 34.85 21.4609 35.1638 21.4609 35.5371ZM30.2593 33.2366C30.2597 33.325 30.2426 33.4126 30.2089 33.4943C30.1753 33.5761 30.1258 33.6504 30.0632 33.7129C30.0007 33.7754 29.9264 33.8249 29.8447 33.8586C29.7629 33.8922 29.6753 33.9093 29.5869 33.9089C29.4764 33.9049 29.3684 33.8743 29.2722 33.8197C29.176 33.7651 29.0943 33.6881 29.0342 33.5952C28.943 33.4116 28.799 33.2594 28.6207 33.1583C28.4423 33.0571 28.2378 33.0115 28.0334 33.0274C27.899 33.0166 27.7637 33.0337 27.6361 33.0775C27.5085 33.1213 27.3913 33.1909 27.2918 33.282C27.1923 33.3731 27.1126 33.4837 27.0578 33.607C27.0029 33.7302 26.974 33.8635 26.973 33.9984C26.9506 34.3367 26.9506 34.676 26.973 35.0143C26.9733 35.1507 27.0014 35.2856 27.0556 35.4108C27.1098 35.536 27.1889 35.6489 27.2882 35.7425C27.3874 35.8362 27.5046 35.9086 27.6328 35.9555C27.7609 36.0023 27.8972 36.0226 28.0334 36.0151C28.237 36.0258 28.4395 35.978 28.6168 35.8774C28.7941 35.7768 28.939 35.6276 29.0342 35.4473C29.1105 35.3241 29.225 35.2292 29.3603 35.1774C29.4956 35.1255 29.6442 35.1195 29.7833 35.1602C29.9224 35.2009 30.0442 35.2861 30.1302 35.4028C30.2162 35.5194 30.2615 35.661 30.2593 35.8059C30.2593 36.5379 29.3181 37.3447 28.0036 37.3447C27.4071 37.3637 26.8262 37.1525 26.3813 36.7548C25.9363 36.3571 25.6614 35.8035 25.6135 35.2087C25.5836 34.7406 25.5836 34.2711 25.6135 33.803C25.6883 32.593 26.6891 31.7266 28.0036 31.7266C29.3181 31.6982 30.2589 32.5049 30.2589 33.2369L30.2593 33.2366ZM35.2036 32.5642C35.2016 32.7674 35.1275 32.9633 34.9945 33.1169L32.5893 35.94H34.5025C34.5914 35.933 34.6808 35.9444 34.7652 35.9735C34.8495 36.0025 34.927 36.0485 34.9929 36.1087C35.0587 36.1689 35.1115 36.242 35.1479 36.3235C35.1843 36.4049 35.2036 36.493 35.2046 36.5822C35.2022 36.6709 35.1819 36.7583 35.145 36.839C35.108 36.9198 35.0553 36.9923 34.9897 37.0522C34.9242 37.1121 34.8473 37.1582 34.7636 37.1878C34.6799 37.2174 34.5911 37.2298 34.5025 37.2243H31.6643C31.5602 37.2343 31.4551 37.2223 31.3559 37.1894C31.2566 37.1564 31.1654 37.103 31.0879 37.0327C31.0105 36.9624 30.9485 36.8768 30.9061 36.7812C30.8637 36.6856 30.8416 36.5822 30.8414 36.4776C30.8408 36.2739 30.9153 36.0771 31.0506 35.9249L33.4557 33.0867H31.6633C31.5752 33.0951 31.4864 33.0852 31.4024 33.0576C31.3184 33.03 31.241 32.9854 31.1751 32.9265C31.1091 32.8676 31.0561 32.7957 31.0193 32.7153C30.9824 32.6349 30.9626 32.5477 30.9611 32.4593C30.9632 32.3698 30.9831 32.2816 31.0197 32.1998C31.0563 32.1181 31.1088 32.0445 31.1742 31.9833C31.2396 31.9221 31.3165 31.8746 31.4005 31.8434C31.4845 31.8123 31.5738 31.7982 31.6633 31.8021H34.3818C34.4871 31.7926 34.5931 31.8053 34.6932 31.8395C34.7932 31.8737 34.8849 31.9285 34.9624 32.0004C35.0399 32.0723 35.1014 32.1596 35.143 32.2568C35.1845 32.354 35.2052 32.4589 35.2036 32.5646V32.5642ZM37.5189 32.4147V33.8338H37.6218C37.7201 33.8426 37.819 33.825 37.9083 33.7828C37.9975 33.7406 38.0739 33.6754 38.1295 33.5938L39.6381 32.0403C39.7065 31.9558 39.793 31.8877 39.8913 31.8412C39.9896 31.7946 40.0971 31.7708 40.2059 31.7715C40.3878 31.7715 40.5622 31.8438 40.6908 31.9724C40.8194 32.101 40.8916 32.2754 40.8916 32.4573C40.8932 32.5589 40.8726 32.6598 40.8311 32.7526C40.7897 32.8455 40.7284 32.9282 40.6516 32.9949L39.1279 34.4438L40.6814 36.0569C40.7516 36.1249 40.8075 36.2061 40.846 36.2958C40.8845 36.3856 40.9048 36.4821 40.9057 36.5798C40.9033 36.7609 40.8302 36.9339 40.7022 37.062C40.5741 37.1901 40.4011 37.2631 40.2199 37.2655C40.1204 37.2672 40.0217 37.2465 39.9312 37.205C39.8407 37.1635 39.7607 37.1021 39.6971 37.0255L38.1583 35.3674C38.1039 35.2891 38.0294 35.227 37.9427 35.1875C37.8559 35.1481 37.7601 35.1327 37.6653 35.1432H37.5196V36.5623C37.5217 36.6544 37.5055 36.746 37.4722 36.8319C37.4388 36.9177 37.3889 36.9962 37.3252 37.0628C37.2616 37.1293 37.1854 37.1827 37.1011 37.2198C37.0168 37.257 36.926 37.2771 36.8339 37.2792C36.6487 37.2725 36.4735 37.1939 36.3455 37.06C36.2174 36.9261 36.1466 36.7475 36.1482 36.5623V32.4151C36.1449 32.3227 36.1602 32.2306 36.1931 32.1442C36.226 32.0578 36.2759 31.9788 36.3398 31.912C36.4037 31.8452 36.4804 31.7918 36.5652 31.7551C36.6501 31.7184 36.7414 31.699 36.8339 31.6982C37.0199 31.7024 37.1965 31.7803 37.3251 31.9147C37.4537 32.0491 37.5237 32.2291 37.5196 32.4151L37.5189 32.4147ZM45.9875 33.7591V36.2986C45.997 36.3929 45.9795 36.4879 45.937 36.5725C45.8945 36.6571 45.8288 36.7279 45.7475 36.7766C45.1027 37.1606 44.3616 37.3524 43.6115 37.3293C42.1475 37.3293 41.4755 36.5376 41.4755 35.5807C41.4755 34.7143 42.0731 33.9374 43.4922 33.9374C43.8856 33.9361 44.2775 33.9863 44.6579 34.0869V33.7135C44.6579 33.2057 44.4038 32.9366 43.7167 32.9366C43.391 32.9487 43.0688 33.0091 42.7609 33.1159C42.6454 33.1551 42.5242 33.1753 42.4022 33.1755C42.2462 33.1759 42.0961 33.1151 41.9844 33.0061C41.8727 32.8972 41.8081 32.7487 41.8046 32.5927C41.801 32.4554 41.843 32.3208 41.9241 32.21C42.0052 32.0992 42.1208 32.0184 42.2527 31.9803C42.7195 31.7993 43.2162 31.7081 43.7167 31.7115C45.1969 31.6982 45.9882 32.3407 45.9882 33.7598L45.9875 33.7591ZM42.7907 35.5368C42.7907 36 43.1493 36.2225 43.702 36.2225C44.0519 36.2305 44.396 36.1315 44.6881 35.9386V34.9975C44.3694 34.8957 44.0365 34.8453 43.702 34.848C43.0756 34.8501 42.7921 35.1638 42.7921 35.5371L42.7907 35.5368Z" fill="white"/>
</g>
<defs>
<clipPath id="clip0_1_13461">
<rect width="60" height="60" fill="white" transform="translate(0.353516)"/>
</clipPath>
</defs>
</svg>
