<svg width="64" height="14" viewBox="0 0 64 14" fill="none" xmlns="http://www.w3.org/2000/svg">
<path d="M0.499878 0.627686H5.57451C8.31196 0.627686 10.2036 1.89311 10.2036 4.81778C10.2036 7.74246 8.58312 9.14347 5.69072 9.14347H3.81193V13.3723H0.499878V0.627686ZM3.81193 6.47704H4.3672C5.56806 6.47704 6.74955 6.47704 6.74955 4.92108C6.74955 3.36513 5.65199 3.30057 4.3672 3.30057H3.81193V6.47704Z" fill="#1D1D1B"/>
<path d="M13.109 11.1578L12.231 13.3723H8.71234L13.6126 0.627686H17.2281L22.0316 13.3723H18.5L17.6736 11.1578H13.109ZM15.4268 4.56599H15.3945L14.0258 8.62051H16.7826L15.4333 4.56599H15.4268Z" fill="#1D1D1B"/>
<path d="M35.1569 10.5638H39.1275V13.3723H31.8384V0.627686H35.1504V10.5703L35.1569 10.5638Z" fill="#1D1D1B"/>
<path d="M26.4993 10.5638H30.4699V13.3723H23.1808V0.627686H26.4928V10.5703L26.4993 10.5638Z" fill="#1D1D1B"/>
<path d="M50.82 0.627686H54.8939L56.8372 3.92682L58.7805 0.627686H62.8544L58.7805 6.56097L63.5 13.3723H59.5101L56.8372 9.21448L53.9125 13.3723H49.9032L54.8874 6.56097L50.8136 0.627686H50.82Z" fill="#1D1D1B"/>
<path d="M49.0764 3.42969V0.627686H41.826V3.02295L45.7579 6.9548L41.826 10.8931V13.3723H49.0764V10.5638H45.138V8.36872H48.8698V5.56025H45.138V3.42969H49.0764Z" fill="#1D1D1B"/>
<path d="M45.0222 6.9551L39.7668 1.70618V12.2105L45.0222 6.9551Z" fill="#E31913"/>
</svg>
