<svg width="115" height="24" viewBox="0 0 115 24" fill="none" xmlns="http://www.w3.org/2000/svg">
<g clip-path="url(#clip0_1_13423)">
<path d="M80.5617 13.1831L78.7841 10.0317C81.9901 6.69508 85.1956 3.34754 88.4016 0L114.353 0.0765119V0.338263C114.353 0.338263 105.575 0.697811 100.778 3.12951H89.9387L80.7792 13.0415L80.5502 13.1721L80.5611 13.1831H80.5617Z" fill="white"/>
<path d="M0.646484 16.0727L3.80878 0.272705H10.8743C14.1016 0.272705 15.4104 1.75577 14.8213 4.72133C14.1782 7.93828 11.5831 9.88962 7.04702 10.5661L7.14539 7.96014C9.89292 7.48036 11.4306 6.43335 11.747 4.80877C12.0088 3.50001 11.4744 2.84592 10.1662 2.84592H6.20827L3.56889 16.0727H0.646484Z" fill="#E41F13"/>
<path d="M19.7394 13.859C21.5383 13.859 22.6946 12.6486 23.1743 10.2279C23.6432 7.86174 22.9782 6.68415 21.1787 6.68415C19.3792 6.68415 18.2344 7.86174 17.7656 10.2279C17.2749 12.6486 17.9399 13.859 19.7394 13.859ZM14.8219 10.2716C15.6072 6.33496 17.8858 4.36176 21.6366 4.36176C25.3874 4.36176 26.8814 6.33553 26.0853 10.2716C25.3 14.2082 23.0213 16.1705 19.2705 16.1705C15.5197 16.1705 14.0476 14.2076 14.8219 10.2716Z" fill="#E41F13"/>
<path d="M35.7684 14.6333C34.6236 15.5929 33.3476 16.0727 31.941 16.0727C28.2552 16.0727 26.8159 14.0989 27.6011 10.1629C28.3645 6.36833 30.7307 4.47107 34.6995 4.47107C35.8006 4.47107 36.8148 4.58037 37.7306 4.7984L37.2618 7.1208C36.3459 6.90277 35.4082 6.79346 34.4596 6.79346C32.2897 6.79346 30.9815 7.91641 30.523 10.1629C30.0432 12.5618 30.741 13.7503 32.6164 13.7503C33.8705 13.7503 35.07 13.2705 36.2148 12.311L35.7459 14.6333H35.7678H35.7684Z" fill="#E41F13"/>
<path d="M39.5738 4.47046H48.188L47.7192 6.79343L40.7077 13.859H46.0837L45.6476 16.0727H37.0334L37.4694 13.859L44.4591 6.79343H39.105L39.5738 4.47046Z" fill="#E41F13"/>
<path d="M50.8268 2.59506H52.9967L53.0623 4.47046H55.7558L55.2869 6.79286H52.9099L51.841 12.1251C51.623 13.2043 51.9934 13.7497 52.9202 13.7497H53.8907L53.4219 16.0721H51.0339C49.0929 16.0721 48.3295 15.0251 48.7443 12.9426L50.8049 2.59448H50.8268V2.59506Z" fill="#E41F13"/>
<path d="M59.2121 9.26827H62.1345C63.3448 9.26827 64.0427 8.85407 64.217 8.0251C64.3803 7.19612 63.7481 6.77099 62.3416 6.77099C60.717 6.77099 59.6809 7.59997 59.2121 9.26827ZM67.0519 7.93823C66.5831 10.2497 64.7945 11.4054 61.6869 11.4054H58.7863C58.4809 12.9644 59.3426 13.7497 61.3705 13.7497C62.9082 13.7497 64.3579 13.2699 65.7213 12.3103L65.2525 14.6327C64.0421 15.5923 62.5153 16.0721 60.6836 16.0721C56.8454 16.0721 55.3186 14.0983 56.1148 10.1404C56.8782 6.35679 59.1022 4.47046 62.8098 4.47046C66.1137 4.47046 67.5311 5.62619 67.0623 7.93766" fill="#E41F13"/>
<path d="M71.7082 10.2716L68.5241 4.47046H71.6754L73.6486 8.19998L77.0836 4.47046H80.453L74.9683 10.2716L78.1415 16.0727H74.9902L73.0164 12.3322L69.5705 16.0727H66.2017L71.7082 10.2716Z" fill="#E41F13"/>
<path d="M80.5617 13.1831L78.7841 10.0317C81.9901 6.69508 85.1956 3.34754 88.4016 0L114.353 0.0765119V0.338263C114.353 0.338263 105.575 0.697811 100.778 3.12951L100.658 2.88962C103.667 1.36283 108.182 0.65409 111.202 0.327333L88.5218 0.261751L79.1115 10.0645L80.7907 13.0415L80.5617 13.1721V13.1831Z" fill="#E41F13"/>
<path d="M90.2776 3.64209L80.9874 13.7175L82.3175 16.0836H86.6027C86.7224 16.0836 87.9115 15.9962 89.547 14.3607C91.2918 12.4853 94.5191 7.93827 95.4787 6.96777C96.4382 6.00821 99.1317 4.27432 103.668 3.63116H90.2666L90.2776 3.64209Z" fill="#E41F13"/>
<path d="M28.8115 19.2453L28.0809 22.8765H27.405L28.1356 19.2453H28.8115ZM31.2651 19.2453L29.2476 21.012L30.7197 22.8765H29.8367L28.6154 21.1754L28.7028 20.7393L30.4039 19.2453H31.2651Z" fill="#E31717"/>
<path d="M34.0345 20.2158L33.5 22.8874H32.9006L33.0099 21.9934C32.6826 22.5929 32.2684 22.8874 31.7667 22.8874C31.2651 22.8874 31.058 22.6038 31.1673 22.0262L31.5268 20.2273H32.2028L31.8432 22.0371C31.7995 22.2442 31.8979 22.3536 32.1378 22.3536C32.4542 22.3536 32.7809 22.0699 33.0973 21.5033L33.3591 20.2273H34.035V20.2164L34.0345 20.2158Z" fill="#E31717"/>
<path d="M34.1001 22.8874L34.6345 20.2158H35.2339L35.1356 21.0661C35.441 20.4989 35.7569 20.2158 36.1061 20.2158L35.9968 20.783C35.6585 20.783 35.3427 21.0557 35.0372 21.6011L34.7754 22.8771H34.0995V22.888L34.1001 22.8874Z" fill="#E31717"/>
<path d="M37.1312 20.2158L36.5967 22.8874H35.9208L36.4552 20.2158H37.1312ZM37.3273 19.2453L37.218 19.7797H36.5421L36.6514 19.2453H37.3273Z" fill="#E31717"/>
<path d="M39.8246 21.012C39.7153 21.5464 39.3011 21.8082 38.5924 21.8082H37.9274C37.8509 22.1677 38.058 22.3426 38.5268 22.3426C38.876 22.3426 39.2137 22.2333 39.5301 22.0153L39.4208 22.5497C39.1372 22.7677 38.7886 22.877 38.3738 22.877C37.4907 22.877 37.1415 22.4191 37.3268 21.5142C37.5011 20.6421 38.0137 20.2054 38.8645 20.2054C39.6279 20.2054 39.9437 20.4672 39.8459 21.0016L39.8241 21.0126L39.8246 21.012ZM38.0257 21.3175H38.7017C38.9853 21.3175 39.1378 21.2191 39.1815 21.0338C39.2143 20.8377 39.0722 20.7502 38.7454 20.7502C38.3749 20.7502 38.135 20.9464 38.0257 21.3284V21.3175Z" fill="#E31717"/>
<path d="M39.923 22.8874L40.4574 20.2158H41.0569L40.9585 21.0661C41.264 20.4989 41.5798 20.2158 41.929 20.2158L41.8197 20.783C41.4814 20.783 41.1656 21.0557 40.8601 21.6011L40.5984 22.8771H39.9224V22.888L39.923 22.8874Z" fill="#E31717"/>
<path d="M42.9214 22.8874L43.652 19.2562H45.2766C46.0181 19.2562 46.3236 19.5945 46.1815 20.2814C46.04 21.0229 45.44 21.4699 44.3929 21.6223L44.4148 21.0229C45.047 20.9136 45.3962 20.6737 45.4727 20.3032C45.5274 19.9978 45.4072 19.8453 45.1132 19.8453H44.2083L43.5979 22.8874H42.922H42.9214Z" fill="#E31717"/>
<path d="M46.1493 21.5464C46.3345 20.6415 46.858 20.1836 47.7192 20.1836C48.5804 20.1836 48.9296 20.6415 48.7443 21.5464C48.5591 22.4513 48.0356 22.8983 47.1744 22.8983C46.3132 22.8983 45.975 22.4513 46.1493 21.5464ZM47.2831 22.3754C47.6973 22.3754 47.9591 22.0918 48.0684 21.5361C48.1777 20.9907 48.0247 20.718 47.6105 20.718C47.1963 20.718 46.9345 20.9907 46.8252 21.5361C46.7159 22.0924 46.8689 22.3754 47.2831 22.3754Z" fill="#E31717"/>
<path d="M50.9356 22.5497C50.6738 22.7677 50.3793 22.877 50.0525 22.877C49.2022 22.877 48.8749 22.4191 49.0492 21.5142C49.2235 20.6421 49.7689 20.2054 50.6847 20.2054C50.9356 20.2054 51.1754 20.2273 51.3825 20.282L51.2732 20.8164C51.0661 20.7617 50.8481 20.7399 50.6301 20.7399C50.1284 20.7399 49.8339 21.0016 49.7252 21.5142C49.6159 22.0596 49.7798 22.3432 50.205 22.3432C50.4886 22.3432 50.7722 22.2339 51.0339 22.0158L50.9246 22.5503H50.9356V22.5497Z" fill="#E31717"/>
<path d="M51.7754 20.2158H53.7601L53.6508 20.7503L52.0372 22.3748H53.2694L53.1711 22.8874H51.1863L51.2847 22.3748L52.8984 20.7503H51.6661L51.7754 20.2158Z" fill="#E31717"/>
<path d="M54.3268 19.7797H54.8284V20.2158H55.4607L55.3514 20.7502H54.806L54.5552 21.9825C54.5115 22.2333 54.588 22.3529 54.806 22.3529H55.035L54.9257 22.8874H54.3803C53.9333 22.8874 53.759 22.6475 53.8568 22.1677L54.3366 19.7907L54.3257 19.7797H54.3268Z" fill="#E31717"/>
<path d="M57.4235 21.9825C57.0962 22.5819 56.682 22.8765 56.1803 22.8765C55.6787 22.8765 55.4716 22.5928 55.5809 22.0153L55.9405 20.2164H56.6164L56.2569 22.0262C56.2131 22.2333 56.3115 22.3426 56.5514 22.3426C56.8678 22.3426 57.1946 22.059 57.511 21.4923L57.7727 20.2164H58.4487L57.9142 22.888C57.7836 23.5311 57.2492 23.8585 56.2897 23.8585C55.9623 23.8585 55.6793 23.8147 55.4394 23.7279L55.5487 23.1934C55.7886 23.2809 56.0722 23.324 56.399 23.324C56.9006 23.324 57.1842 23.1825 57.2383 22.888L57.4235 21.994V21.983V21.9825Z" fill="#E31717"/>
<path d="M59.6918 22.8874L60.4224 19.2562H62.047C62.7886 19.2562 63.094 19.5945 62.9519 20.2814C62.8104 21.0229 62.2104 21.4699 61.1634 21.6223L61.1853 21.0229C61.8175 20.9136 62.1667 20.6737 62.2432 20.3032C62.2978 19.9978 62.1776 19.8453 61.8836 19.8453H60.9787L60.3684 22.8874H59.6924H59.6918Z" fill="#E31717"/>
<path d="M62.9192 21.5464C63.1044 20.6415 63.6279 20.1836 64.4891 20.1836C65.3503 20.1836 65.6885 20.6415 65.5142 21.5464C65.329 22.4513 64.8055 22.8983 63.9443 22.8983C63.0831 22.8983 62.7449 22.4513 62.9192 21.5464ZM64.053 22.3754C64.4672 22.3754 64.729 22.0918 64.8383 21.5361C64.9476 20.9907 64.7946 20.718 64.3804 20.718C63.9662 20.718 63.7044 20.9907 63.5951 21.5361C63.4858 22.0924 63.6388 22.3754 64.053 22.3754Z" fill="#E31717"/>
<path d="M67.1176 19.2453L66.387 22.8765H65.711L66.4416 19.2453H67.1176Z" fill="#E31717"/>
<path d="M67.0192 22.7568L67.1285 22.2005C67.4012 22.3201 67.7279 22.3748 68.1208 22.3748C68.4154 22.3748 68.5787 22.2764 68.6115 22.0912C68.6443 21.9169 68.5678 21.8404 68.3716 21.8404H67.8919C67.3465 21.8404 67.1285 21.5677 67.2378 21.0223C67.3471 20.466 67.805 20.183 68.5897 20.183C68.9279 20.183 69.2328 20.2376 69.5055 20.3354L69.3962 20.8917C69.1235 20.7721 68.8181 20.7174 68.4694 20.7174C68.1099 20.7174 67.9022 20.8158 67.87 21.001C67.8372 21.1753 67.9247 21.2518 68.1318 21.2518H68.5678C69.1569 21.2518 69.4071 21.5245 69.2984 22.0699C69.1891 22.6262 68.7531 22.9092 68.0006 22.9092C67.6301 22.9092 67.3028 22.8546 67.0301 22.7568H67.0192Z" fill="#E31717"/>
<path d="M69.5705 22.8874L70.3011 19.2562H70.977L70.6388 20.9355C71.0093 20.4557 71.4131 20.2158 71.8601 20.2158C72.4055 20.2158 72.6344 20.4557 72.536 20.9355C72.4705 21.2737 72.1656 21.5677 71.6311 21.7967L72.2415 22.8759H71.4672L70.9546 21.8726L70.9983 21.6655C71.5218 21.5349 71.8164 21.3059 71.8814 21.0114C71.9142 20.8371 71.8158 20.7496 71.5759 20.7496C71.2595 20.7496 70.9218 21.0005 70.5398 21.5021L70.2672 22.8868H69.5693L69.5705 22.8874Z" fill="#E31717"/>
<path d="M73.8235 20.2158L73.2891 22.8874H72.6132L73.1476 20.2158H73.8235ZM74.0197 19.2453L73.9104 19.7797H73.2345L73.3438 19.2453H74.0197Z" fill="#E31717"/>
<path d="M76.5164 21.012C76.4071 21.5464 75.9929 21.8082 75.2841 21.8082H74.6191C74.5426 22.1677 74.7497 22.3426 75.2082 22.3426C75.5678 22.3426 75.8951 22.2333 76.2115 22.0153L76.1022 22.5497C75.8186 22.7677 75.47 22.877 75.0552 22.877C74.1721 22.877 73.8229 22.4191 74.0082 21.5142C74.1825 20.6421 74.6951 20.2054 75.5459 20.2054C76.3093 20.2054 76.636 20.4672 76.5273 21.0016L76.5164 21.0126V21.012ZM74.7175 21.3175H75.3935C75.6771 21.3175 75.8295 21.2191 75.8732 21.0338C75.906 20.8377 75.7639 20.7502 75.4372 20.7502C75.0667 20.7502 74.8268 20.9464 74.7175 21.3284V21.3175Z" fill="#E31717"/>
<path d="M77.8142 20.2158L77.3235 22.6803C77.2142 23.2147 76.9743 23.6617 76.5929 23.9994L76.135 23.6289C76.3968 23.4 76.5601 23.0836 76.6476 22.6803L77.1383 20.2158H77.8142ZM78.0104 19.2453L77.9011 19.7797H77.2252L77.3345 19.2453H78.0104Z" fill="#E31717"/>
</g>
<defs>
<clipPath id="clip0_1_13423">
<rect width="113.707" height="24" fill="white" transform="translate(0.646484)"/>
</clipPath>
</defs>
</svg>
