<svg width="33" height="42" viewBox="0 0 33 42" fill="none" xmlns="http://www.w3.org/2000/svg">
<g clip-path="url(#clip0_1_13472)">
<path d="M5.26156 33.4228C2.55699 31.2086 1.12842 28.0211 1.12842 24.2143V6.11828C5.39928 3.85428 10.5707 2.70685 16.4998 2.70685C22.429 2.70685 27.601 3.85428 31.8713 6.11828V24.2143C31.8713 28.0211 30.4427 31.2063 27.7381 33.4228C25.2638 35.4508 17.4021 38.9006 16.4998 39.2931C15.5976 38.9006 7.73585 35.4514 5.26156 33.4228Z" fill="#330000"/>
<path d="M31.0296 5.90572C29.0536 5.72229 27.001 5.60115 24.9102 5.60115C17.1559 5.60115 8.84274 7.26801 1.97016 13.5714V24.3457C1.97016 27.8549 3.26788 30.7852 5.73359 32.7949C7.91074 34.5663 14.6107 37.6006 16.4999 38.4343C18.365 37.6132 25.0479 34.6189 27.2633 32.7949C29.7444 30.7503 31.0296 27.888 31.0296 24.3457V5.90572ZM3.39074 23.2246V14.4731H6.17302V23.348C6.17302 24.1377 6.36388 25.3069 7.63988 25.3069C8.1023 25.3257 8.55985 25.2063 8.95416 24.964V14.4731H11.733V26.5509C10.478 27.3342 9.01711 27.7235 7.53874 27.6686C4.78445 27.6686 3.38788 26.1737 3.38788 23.2246H3.39074ZM15.949 33.3246H13.165V15.1829C14.2913 14.4914 15.5962 14.147 16.917 14.1926C20.2399 14.1926 22.0656 16.7137 22.0656 20.7714C22.0656 24.8291 20.2942 27.6206 17.2027 27.6206C16.7796 27.6281 16.3576 27.5748 15.9496 27.4623L15.949 33.3246ZM15.949 25.1874C16.2381 25.2956 16.5438 25.3524 16.8525 25.3554C18.4524 25.3554 19.2193 23.8851 19.2193 20.8411C19.2193 17.7229 18.5502 16.4331 16.9336 16.4331C16.5944 16.4304 16.2584 16.4987 15.9473 16.6337L15.949 25.1874ZM22.6965 17.8206C22.7139 16.8453 23.1164 15.9164 23.8161 15.2367C24.5158 14.5571 25.4559 14.1817 26.4313 14.1926C27.5231 14.1347 28.6017 14.4539 29.4862 15.0966V17.5177C28.8306 16.8337 27.9391 16.4251 26.993 16.3749C26.2039 16.368 25.3827 16.7149 25.3559 17.7046C25.329 18.7177 26.1485 19.1177 27.1845 19.7269C29.5096 21.0937 29.9593 22.3223 29.9056 23.9457C29.8524 25.7257 28.6256 27.6697 25.8753 27.6697C24.7968 27.6576 23.7409 27.3594 22.8153 26.8057V24.2417C23.5505 24.9063 24.4873 25.305 25.4759 25.3743C26.497 25.3794 27.169 24.7943 27.145 23.8234C27.1239 22.9497 26.6307 22.4749 25.4062 21.7554C23.1107 20.4091 22.6982 19.3011 22.6942 17.8206H22.6965ZM4.80216 33.9297C1.98559 31.6229 0.499878 28.308 0.499878 24.3457V5.50972C4.94502 3.15315 10.3284 1.95886 16.4999 1.95886C22.6713 1.95886 28.0547 3.15315 32.4999 5.50972V24.3457C32.4999 28.308 31.0142 31.6229 28.1976 33.9303C25.6227 36.0411 17.4393 39.6314 16.4999 40.04C15.5604 39.6314 7.37702 36.0411 4.80216 33.9297ZM26.713 37.8777V39.5126H27.0079V38.8303H27.0496C27.0719 38.8634 27.4936 39.5126 27.4936 39.5126H27.8507C27.8507 39.5126 27.4027 38.8571 27.357 38.7954C27.4592 38.778 27.5517 38.7247 27.6181 38.6451C27.6844 38.5654 27.7201 38.4648 27.7187 38.3611C27.72 38.2987 27.709 38.2365 27.6862 38.1783C27.6635 38.1201 27.6295 38.067 27.5862 38.0219C27.5429 37.9768 27.4911 37.9408 27.4338 37.9157C27.3766 37.8907 27.3149 37.8772 27.2525 37.876C27.2265 37.8755 27.2005 37.877 27.1747 37.8806L26.713 37.8777ZM27.1427 38.1166C27.3936 38.1166 27.4284 38.2394 27.4284 38.3451C27.4284 38.4983 27.3627 38.6017 27.0467 38.6017H27.0084V38.1154L27.1427 38.1166ZM28.297 38.6994C28.2966 38.993 28.1796 39.2744 27.9718 39.4817C27.7639 39.689 27.4823 39.8054 27.1887 39.8052C26.8952 39.8049 26.6137 39.6881 26.4062 39.4805C26.1987 39.2728 26.0822 38.9913 26.0822 38.6977C26.0822 38.4042 26.1987 38.1226 26.4062 37.915C26.6137 37.7073 26.8952 37.5905 27.1887 37.5903C27.4823 37.5901 27.7639 37.7064 27.9718 37.9137C28.1796 38.1211 28.2966 38.4024 28.297 38.696V38.7017V38.6994ZM27.1856 37.3537C26.9202 37.3541 26.6608 37.433 26.4402 37.5807C26.2196 37.7283 26.0476 37.9379 25.9461 38.1832C25.8445 38.4284 25.8179 38.6982 25.8696 38.9586C25.9212 39.219 26.0489 39.4582 26.2364 39.6461C26.4239 39.834 26.6628 39.9621 26.9231 40.0143C27.1833 40.0665 27.4532 40.0405 27.6987 39.9395C27.9441 39.8384 28.1541 39.6669 28.3022 39.4467C28.4503 39.2264 28.5298 38.9672 28.5307 38.7017C28.5313 38.5248 28.4969 38.3495 28.4295 38.1859C28.3621 38.0223 28.2631 37.8736 28.1381 37.7484C28.0131 37.6231 27.8647 37.5238 27.7012 37.4561C27.5377 37.3884 27.3625 37.3536 27.1856 37.3537Z" fill="#FFBE00"/>
</g>
<defs>
<clipPath id="clip0_1_13472">
<rect width="32" height="42" fill="white" transform="translate(0.499878)"/>
</clipPath>
</defs>
</svg>
