<svg width="81" height="28" viewBox="0 0 81 28" fill="none" xmlns="http://www.w3.org/2000/svg">
<g clip-path="url(#clip0_1_13492)">
<path d="M0.499878 8.49553L4.20888 4.01853L2.54288 0.316528H4.59288L5.49288 2.63153L5.56888 3.47553H5.79988L6.18388 2.63153L7.99288 0.316528H10.3529L6.83188 4.48553L8.61088 8.49553H6.55388L5.55388 5.94853L5.47788 5.09653H5.24188L4.85688 5.94853L2.85188 8.49553H0.499878Z" fill="#1D1D1B"/>
<path d="M9.49188 11.5865L11.6999 0.316524H13.3209V1.15852H13.3999C13.6388 0.838332 13.9512 0.580321 14.3108 0.406273C14.6704 0.232225 15.0666 0.14725 15.4659 0.158524C15.8326 0.151823 16.1969 0.219925 16.5365 0.358673C16.876 0.497421 17.1838 0.703905 17.4409 0.965523C17.7292 1.29803 17.9489 1.68425 18.0874 2.10197C18.2259 2.51968 18.2804 2.96065 18.2479 3.39952C18.2967 4.72825 17.9216 6.03806 17.1769 7.13952C16.8759 7.60464 16.4626 7.98648 15.9752 8.24985C15.4878 8.51322 14.9419 8.64964 14.3879 8.64652C13.794 8.66177 13.2101 8.49116 12.7179 8.15852C12.5692 8.06143 12.4302 7.95025 12.3029 7.82652C12.2635 7.79513 12.2258 7.76175 12.1899 7.72652H12.1149L11.3379 11.5855L9.49188 11.5865ZM15.6919 6.11352C16.191 5.44355 16.4365 4.61837 16.3849 3.78452C16.3849 2.57052 15.7669 1.85452 14.8249 1.85452C14.5215 1.86693 14.2251 1.94885 13.9584 2.09397C13.6918 2.23909 13.462 2.44354 13.2869 2.69152C12.7923 3.36345 12.5495 4.18778 12.6009 5.02052C12.6009 6.23452 13.2009 6.95052 14.1459 6.95052C14.4517 6.93919 14.7508 6.85784 15.0202 6.71273C15.2896 6.56762 15.5221 6.36262 15.6999 6.11352H15.6919Z" fill="#1D1D1B"/>
<path d="M18.7069 8.4955L19.0309 6.8005H20.9609L21.8879 2.0125H20.2669L20.6059 0.3125H23.4639L23.5539 1.3905H23.7999C23.986 1.04568 24.2669 0.761318 24.6095 0.571007C24.952 0.380696 25.3418 0.292384 25.7329 0.3165H27.5869L27.2329 2.0885H25.5819C25.044 2.04538 24.5107 2.21569 24.0973 2.56263C23.684 2.90956 23.4237 3.40524 23.3729 3.9425L22.8149 6.8005H25.5219L25.1999 8.4955H18.7069Z" fill="#1D1D1B"/>
<path d="M28.9619 7.74249C28.6163 7.41512 28.3467 7.01597 28.172 6.57316C27.9974 6.13035 27.9219 5.65463 27.9509 5.17949C27.8778 3.83615 28.3296 2.51697 29.2109 1.50049C29.6091 1.06386 30.0966 0.718024 30.6403 0.486467C31.184 0.25491 31.7712 0.143053 32.3619 0.158492C32.8379 0.132061 33.3141 0.204814 33.7605 0.372137C34.2069 0.53946 34.6136 0.797702 34.9549 1.13049C35.2661 1.4519 35.51 1.83223 35.6723 2.24917C35.8346 2.6661 35.912 3.11125 35.8999 3.55849C35.902 3.99744 35.8719 4.43595 35.8099 4.87049L35.7649 5.02049H29.7999C29.7673 5.28041 29.7943 5.54433 29.8788 5.79229C29.9633 6.04024 30.1031 6.26573 30.2876 6.45168C30.4721 6.63763 30.6965 6.77917 30.9437 6.86559C31.191 6.95201 31.4547 6.98104 31.7149 6.95049C32.0266 6.95907 32.3359 6.89388 32.6176 6.76024C32.8993 6.62661 33.1454 6.4283 33.3359 6.18149H35.3789C35.0536 6.86124 34.5701 7.4531 33.9689 7.90749C33.264 8.42176 32.4057 8.68223 31.5339 8.64649C30.5928 8.68351 29.6729 8.36021 28.9619 7.74249ZM30.0169 3.70949H34.0499C34.0772 3.45817 34.0475 3.20392 33.963 2.96568C33.8784 2.72743 33.7413 2.51131 33.5616 2.33342C33.382 2.15553 33.1646 2.02045 32.9255 1.93822C32.6865 1.85599 32.4319 1.82874 32.1809 1.85849C31.6553 1.86566 31.1483 2.05422 30.7458 2.39225C30.3432 2.73029 30.0698 3.19704 29.9719 3.71349L30.0169 3.70949Z" fill="#1D1D1B"/>
<path d="M38.0549 7.98351C37.6919 7.76212 37.391 7.45241 37.1801 7.08327C36.9692 6.71413 36.8553 6.29759 36.8489 5.87251V5.79751H38.7789C38.8915 6.57351 39.5849 6.95784 40.8589 6.95051C41.7259 6.95051 42.2539 6.64151 42.2539 6.10651C42.2539 5.75151 41.7409 5.49551 41.0539 5.34551C40.6765 5.26654 40.3039 5.16639 39.9379 5.04551C39.5556 4.92701 39.1806 4.7861 38.8149 4.62351C38.4682 4.46779 38.1708 4.22018 37.9549 3.90751C37.7256 3.5786 37.6069 3.18532 37.6159 2.78451C37.611 2.42775 37.6864 2.07447 37.8364 1.75078C37.9865 1.42709 38.2074 1.14129 38.4829 0.914506C39.1821 0.369509 40.0572 0.100459 40.9419 0.158506C41.8895 0.0997607 42.8301 0.354153 43.6189 0.882506C43.9126 1.08737 44.1524 1.36025 44.3178 1.67786C44.4833 1.99548 44.5694 2.3484 44.5689 2.70651V2.78251H42.6389C42.4795 2.16651 41.8612 1.85851 40.7839 1.85851C39.9999 1.85851 39.5479 2.20551 39.5479 2.55851C39.5479 2.79251 39.7059 2.98851 40.0299 3.13951C40.3991 3.31379 40.786 3.44789 41.1839 3.53951C41.6359 3.65251 42.0839 3.78851 42.5479 3.93951C42.9858 4.08358 43.3835 4.32889 43.7089 4.65551C43.8649 4.81749 43.9872 5.00882 44.0687 5.21841C44.1503 5.428 44.1894 5.65168 44.1839 5.87651C44.1809 6.54125 43.94 7.18295 43.5049 7.68551C43.1467 8.03154 42.7185 8.29674 42.2491 8.46321C41.7797 8.62968 41.28 8.69354 40.7839 8.65051C39.83 8.68511 38.8853 8.4542 38.0549 7.98351Z" fill="#1D1D1B"/>
<path d="M46.8169 7.98349C46.454 7.7621 46.153 7.4524 45.9421 7.08326C45.7312 6.71412 45.6173 6.29757 45.6109 5.87249V5.79749H47.5409C47.6542 6.57349 48.3476 6.95782 49.6209 6.95049C50.4879 6.95049 51.0159 6.64149 51.0159 6.10649C51.0159 5.75149 50.5029 5.49549 49.8159 5.34549C49.4389 5.26652 49.0666 5.16636 48.7009 5.04549C48.3183 4.92682 47.943 4.78592 47.5769 4.62349C47.2305 4.46776 46.9335 4.22013 46.7179 3.90749C46.4883 3.57871 46.3692 3.18541 46.3779 2.78449C46.3732 2.42777 46.4487 2.07456 46.5988 1.7509C46.7488 1.42725 46.9696 1.14141 47.2449 0.91449C47.9433 0.370855 48.8167 0.101909 49.6999 0.15849C50.6485 0.098853 51.5904 0.353293 52.3799 0.88249C52.6736 1.08736 52.9134 1.36024 53.0789 1.67785C53.2443 1.99546 53.3304 2.34838 53.3299 2.70649V2.78249H51.3999C51.2419 2.16649 50.6239 1.85849 49.5459 1.85849C48.7619 1.85849 48.3089 2.20549 48.3089 2.55849C48.3089 2.79249 48.4679 2.98849 48.7919 3.13949C49.1608 3.31376 49.5473 3.44786 49.9449 3.53949C50.3979 3.65249 50.8499 3.78849 51.3099 3.93949C51.7477 4.08381 52.1454 4.32908 52.4709 4.65549C52.6267 4.81764 52.7488 5.00899 52.8304 5.21854C52.9119 5.4281 52.9511 5.6517 52.9459 5.87649C52.9429 6.54123 52.702 7.18294 52.2669 7.68549C51.9087 8.03153 51.4805 8.29672 51.0111 8.46319C50.5417 8.62966 50.0421 8.69353 49.5459 8.65049C48.592 8.68525 47.6472 8.45434 46.8169 7.98349Z" fill="#1D1D1B"/>
<path d="M8.11491 22.7155L7.00691 21.5855L8.50691 20.0925H0.628906V18.5475H8.42891L7.00691 17.1225L8.11491 15.9995L11.4389 19.3165V19.3915L8.11491 22.7155Z" fill="#1D1D1B"/>
<path d="M18.9259 23.6325C18.6762 24.0215 18.3309 24.3399 17.9229 24.5572C17.5149 24.7745 17.058 24.8834 16.5959 24.8735C16.1509 24.8917 15.7079 24.8055 15.3023 24.6217C14.8967 24.438 14.5397 24.1619 14.2599 23.8155C13.6177 22.8958 13.3112 21.7833 13.3919 20.6645C13.311 19.5479 13.6175 18.4375 14.2599 17.5205C14.5383 17.1741 14.894 16.8976 15.2984 16.7132C15.7028 16.5288 16.1447 16.4416 16.5889 16.4585C17.0316 16.4565 17.4682 16.5613 17.8618 16.7639C18.2554 16.9665 18.5943 17.261 18.8499 17.6225H18.9259V13.8025H20.0999V24.7215H19.1639L19.0109 23.6325H18.9259ZM16.7489 23.7855C17.0553 23.7851 17.3571 23.7108 17.6286 23.569C17.9002 23.4271 18.1336 23.2218 18.3089 22.9705C18.7604 22.2896 18.9771 21.4799 18.9259 20.6645C18.9773 19.8488 18.7606 19.0386 18.3089 18.3575C18.1322 18.108 17.8984 17.9045 17.6268 17.764C17.3553 17.6236 17.0541 17.5503 16.7484 17.5503C16.4427 17.5503 16.1414 17.6236 15.8699 17.764C15.5984 17.9045 15.3645 18.108 15.1879 18.3575C14.7304 19.0363 14.511 19.8476 14.5639 20.6645C14.5112 21.481 14.7306 22.292 15.1879 22.9705C15.3635 23.2217 15.597 23.427 15.8687 23.5688C16.1405 23.7107 16.4424 23.785 16.7489 23.7855Z" fill="#1D1D1B"/>
<path d="M23.4659 23.7465C22.7657 22.88 22.4131 21.7838 22.4769 20.6715C22.4203 19.5545 22.7854 18.457 23.4999 17.5965C23.8172 17.2304 24.2113 16.9386 24.6541 16.7419C25.0968 16.5453 25.5775 16.4485 26.0619 16.4585C26.5384 16.4463 27.0122 16.5342 27.4526 16.7164C27.893 16.8986 28.2903 17.1712 28.6189 17.5165C28.9604 17.8719 29.2273 18.292 29.4038 18.7521C29.5804 19.2122 29.663 19.703 29.6469 20.1955L29.5709 20.9715H23.6489C23.6467 21.7157 23.899 22.4384 24.3639 23.0195C24.5709 23.2671 24.8316 23.4644 25.1261 23.5964C25.4206 23.7285 25.7413 23.7917 26.0639 23.7815C26.4711 23.7847 26.8717 23.6782 27.2236 23.4732C27.5755 23.2682 27.8658 22.9723 28.0639 22.6165H29.2999C29.0626 23.2839 28.6206 23.8592 28.0369 24.2605C27.4566 24.6643 26.7648 24.8772 26.0579 24.8695C25.5695 24.8872 25.0833 24.7955 24.6349 24.6012C24.1864 24.407 23.787 24.1149 23.4659 23.7465ZM28.4819 19.9635C28.4268 19.3117 28.1534 18.6976 27.7059 18.2205C27.493 18.0014 27.237 17.8287 26.9541 17.7134C26.6711 17.598 26.3673 17.5426 26.0619 17.5505C25.7574 17.5417 25.4544 17.5968 25.1725 17.7122C24.8905 17.8276 24.6359 18.0008 24.4249 18.2205C23.9778 18.6979 23.7045 19.3119 23.6489 19.9635H28.4819Z" fill="#1D1D1B"/>
<path d="M31.4999 24.7215V23.6325H33.9129V14.9015H32.1999V13.8015H35.0839V23.6275H37.3449V24.7165L31.4999 24.7215Z" fill="#1D1D1B"/>
<path d="M39.9159 24.7215V23.6325H42.3289V17.7035H40.5289V16.6145H43.4999V23.6325H45.7609V24.7215H39.9159ZM42.8459 15.4425C42.7372 15.4458 42.629 15.4265 42.5282 15.3859C42.4273 15.3453 42.336 15.2842 42.2599 15.2065C42.1067 15.053 42.0206 14.8449 42.0206 14.628C42.0206 14.4111 42.1067 14.203 42.2599 14.0495C42.3361 13.9725 42.4269 13.9115 42.5268 13.8698C42.6268 13.8281 42.7341 13.8066 42.8424 13.8066C42.9507 13.8066 43.058 13.8281 43.1579 13.8698C43.2579 13.9115 43.3487 13.9725 43.4249 14.0495C43.5754 14.207 43.6573 14.4177 43.6529 14.6355C43.653 14.7415 43.6322 14.8465 43.5917 14.9445C43.5512 15.0424 43.4918 15.1315 43.4168 15.2064C43.3419 15.2814 43.2528 15.3408 43.1549 15.3813C43.0569 15.4218 42.9519 15.4426 42.8459 15.4425Z" fill="#1D1D1B"/>
<path d="M49.7319 24.7215L46.7709 16.6145H48.0199L50.0439 22.3085L50.3559 23.4725H50.5159L50.8439 22.3085L52.8529 16.6145H54.0999L51.1399 24.7215H49.7319Z" fill="#1D1D1B"/>
<path d="M56.4759 23.7465C55.7748 22.8803 55.4219 21.784 55.4859 20.6715C55.4284 19.5549 55.7924 18.4574 56.5059 17.5965C56.8235 17.23 57.218 16.938 57.6614 16.7413C58.1047 16.5446 58.586 16.448 59.0709 16.4585C59.5475 16.4464 60.0213 16.5343 60.4619 16.7165C60.9025 16.8987 61.3 17.1713 61.6289 17.5165C61.9702 17.8719 62.2369 18.2921 62.4132 18.7522C62.5896 19.2123 62.6721 19.703 62.6558 20.1955L62.5799 20.9715H56.6579C56.6561 21.7156 56.9084 22.4381 57.3729 23.0195C57.5799 23.2671 57.8405 23.4644 58.135 23.5964C58.4296 23.7284 58.7503 23.7917 59.0729 23.7815C59.4801 23.7847 59.8807 23.6782 60.2326 23.4732C60.5845 23.2682 60.8747 22.9723 61.0729 22.6165H62.3139C62.0734 23.2818 61.6322 23.856 61.0513 24.2596C60.4703 24.6632 59.7782 24.8764 59.0709 24.8695C58.5819 24.8878 58.0951 24.7964 57.6461 24.6021C57.1971 24.4078 56.7972 24.1154 56.4759 23.7465ZM61.4919 19.9635C61.436 19.3117 61.1623 18.6977 60.7149 18.2205C60.5021 18.0011 60.2461 17.8283 59.9632 17.713C59.6802 17.5977 59.3763 17.5423 59.0709 17.5505C58.7664 17.5418 58.4634 17.597 58.1815 17.7124C57.8996 17.8277 57.6449 18.0008 57.4339 18.2205C56.9871 18.6981 56.7138 19.3119 56.6579 19.9635H61.4919Z" fill="#1D1D1B"/>
<path d="M64.3999 24.7215V23.6325H66.3489V17.7035H64.7089V16.6145H67.2819L67.4339 17.7035H67.5099C67.7392 17.3391 68.0644 17.0447 68.4497 16.8527C68.8351 16.6606 69.2659 16.5782 69.6949 16.6145H70.8669V17.7035H69.6949C69.1329 17.6874 68.5859 17.8859 68.1649 18.2585C67.9643 18.4319 67.8023 18.6455 67.6895 18.8854C67.5767 19.1254 67.5155 19.3864 67.5099 19.6515V23.6325H70.0099V24.7215H64.3999Z" fill="#1D1D1B"/>
<path d="M74.8139 27.8415L76.0549 24.7215L72.7819 16.6145H74.0299L76.6029 23.0845H76.6789L79.2519 16.6145H80.4999L76.0549 27.8415H74.8139Z" fill="#1D1D1B"/>
</g>
<defs>
<clipPath id="clip0_1_13492">
<rect width="80" height="28" fill="white" transform="translate(0.499878)"/>
</clipPath>
</defs>
</svg>
