<svg width="231" height="48" viewBox="0 0 231 48" fill="none" xmlns="http://www.w3.org/2000/svg">
<g clip-path="url(#clip0_1_13367)">
<path d="M39.3346 15.2717L33.9219 18.3216L33.9216 18.3218L24.9969 23.3421L24.9945 23.3434L24.2385 23.7631L24.2385 23.7631L24.2329 23.7663L22.4604 24.7808V20.9853L25.485 19.2803L25.4851 19.2802L37.6184 12.4459L38.388 12.0124L37.6202 11.5757L25.5705 4.72073L25.5704 4.72068C24.4784 4.09972 23.2395 3.77307 21.9787 3.77307C20.7181 3.77307 19.4793 4.09966 18.3874 4.72051C18.3873 4.72056 18.3872 4.72062 18.3871 4.72068L6.28045 11.5804L5.50894 12.0175L6.28227 12.4514L16.4868 18.1772V21.9751L4.61178 15.3073L3.86698 14.8891V15.7433V21.905V22.1979L4.12253 22.3412L11.3615 26.3982V30.2377L4.61143 26.4547L3.86698 26.0375V26.8909V37.1599L0.5 35.2517V11.059L16.6528 1.90353L16.6531 1.90339C18.2714 0.984913 20.1083 0.500977 21.9787 0.500977C23.8492 0.500977 25.6861 0.984913 27.3044 1.90339L27.3047 1.90356L43.4522 11.0539V35.2545L21.9763 47.415L9.92432 40.5816V36.7913L11.6148 37.7494L11.6149 37.7495L21.7295 43.485L21.9762 43.6249L22.2228 43.4849L39.8268 33.4978L40.08 33.3541V33.0629V15.7073V14.8517L39.3346 15.2717Z" fill="#0F92D4" stroke="#0F92D4"/>
<path d="M56.1797 11.6719H72.1623V15.3741H60.6251V21.505H68.7838V25.2123H60.6251V35.6667H56.1797V11.6719ZM84.688 17.5563H88.9556V35.1173C88.1327 35.3227 87.0624 35.5367 85.7444 35.7592C84.3093 35.9867 82.8573 36.0966 81.4036 36.0878C80.1339 36.1248 78.8696 35.9118 77.6851 35.4614C76.7494 35.092 75.9237 34.4968 75.2846 33.7309C74.6665 32.949 74.2276 32.0452 73.998 31.0814C73.7306 29.9746 73.6006 28.8401 73.611 27.7027V17.5563H77.8786V27.0454C77.8786 28.9864 78.1663 30.3728 78.7416 31.2046C79.3168 32.0365 80.3105 32.4524 81.7592 32.4524C82.2822 32.4524 82.8052 32.4524 83.4014 32.3805C83.8343 32.3555 84.2644 32.2971 84.688 32.2059V17.5563ZM103.469 17.5563C103.819 17.6385 104.101 17.7104 104.316 17.7771L103.573 21.3099C103.092 21.1642 102.603 21.0442 102.109 20.9504C101.394 20.8134 100.667 20.748 99.9384 20.7553C99.4365 20.7594 98.9359 20.8075 98.4427 20.8991C98.0665 20.9563 97.6944 21.037 97.3287 21.1404V35.6667H93.0611V18.4241C94.0688 18.0731 95.0997 17.79 96.1467 17.5769C97.4985 17.3001 98.8766 17.1659 100.257 17.1764C100.54 17.1764 100.869 17.1764 101.246 17.2277C101.622 17.2791 101.999 17.3099 102.376 17.3664C102.752 17.4228 103.118 17.4947 103.469 17.5769V17.5563ZM114.598 17.1815C115.921 17.1752 117.242 17.28 118.546 17.4947C119.795 17.7001 120.853 17.9192 121.721 18.152V33.8336C121.721 36.7194 120.975 38.8315 119.483 40.17C117.99 41.5084 115.703 42.1794 112.621 42.1828C111.517 42.1828 110.414 42.0901 109.326 41.9055C108.337 41.7395 107.363 41.4956 106.413 41.1764L107.187 37.582C107.989 37.9046 108.821 38.1488 109.671 38.3112C110.665 38.501 111.676 38.5939 112.689 38.5884C114.404 38.5884 115.628 38.2393 116.35 37.5615C117.072 36.8837 117.443 35.8413 117.443 34.4806V33.8028C116.903 34.0537 116.343 34.2615 115.769 34.4241C114.996 34.641 114.194 34.7465 113.39 34.7374C112.289 34.7495 111.194 34.5615 110.163 34.1828C109.215 33.8304 108.359 33.2742 107.658 32.5551C106.931 31.7819 106.378 30.8668 106.037 29.8696C105.627 28.6705 105.431 27.4112 105.456 26.1469C105.44 24.9087 105.649 23.6777 106.073 22.5114C106.454 21.447 107.068 20.4776 107.872 19.6719C108.687 18.8656 109.668 18.2389 110.749 17.8336C111.979 17.3809 113.284 17.1597 114.598 17.1815V17.1815ZM117.453 20.9556C117.15 20.8888 116.774 20.8221 116.324 20.7656C115.763 20.7031 115.199 20.674 114.634 20.6783C113.961 20.6391 113.288 20.7552 112.669 21.0173C112.049 21.2795 111.501 21.6804 111.068 22.1879C110.202 23.3297 109.766 24.7303 109.833 26.152C109.833 27.9286 110.231 29.2329 111.015 30.0493C111.406 30.4553 111.881 30.7749 112.408 30.9865C112.934 31.1981 113.501 31.297 114.07 31.2765C114.72 31.2823 115.368 31.1888 115.989 30.9992C116.508 30.8535 117.002 30.6319 117.453 30.342V20.9556ZM141.867 22.7014C142.319 23.9521 142.54 25.2718 142.52 26.5987C142.544 27.9343 142.338 29.2643 141.909 30.532C141.521 31.6451 140.909 32.6702 140.109 33.5461C139.325 34.3787 138.369 35.0385 137.306 35.4819C134.992 36.4061 132.403 36.4061 130.089 35.4819C129.032 35.0375 128.084 34.3776 127.307 33.5461C126.502 32.6706 125.885 31.6457 125.492 30.532C125.042 29.2754 124.821 27.951 124.838 26.6192C124.819 25.2924 125.041 23.9728 125.492 22.7219C125.89 21.6129 126.512 20.5945 127.322 19.7284C128.108 18.8992 129.066 18.2444 130.131 17.808C131.259 17.3492 132.471 17.1203 133.692 17.1353C134.919 17.1214 136.135 17.3502 137.27 17.808C138.336 18.2406 139.295 18.8959 140.078 19.7284C140.865 20.5962 141.472 21.606 141.867 22.7014V22.7014ZM136.966 30.9171C137.756 29.8542 138.148 28.4113 138.153 26.5884C138.159 24.7656 137.756 23.3587 136.971 22.3112C136.58 21.8183 136.08 21.4196 135.508 21.1453C134.936 20.871 134.308 20.7285 133.671 20.7285C133.035 20.7285 132.407 20.871 131.835 21.1453C131.263 21.4196 130.763 21.8183 130.371 22.3112C129.587 23.3381 129.189 24.7861 129.189 26.5884C129.189 28.3908 129.587 29.8542 130.371 30.9171C130.592 31.1951 130.846 31.4452 131.13 31.6616C132.007 32.3188 133.113 32.6093 134.207 32.4698C135.301 32.3304 136.294 31.7723 136.971 30.9171H136.966ZM159.403 19.4716C160.033 20.2427 160.475 21.1457 160.694 22.1109C160.948 23.2196 161.073 24.3532 161.066 25.4896V35.6667H156.798V26.152C156.808 25.3211 156.741 24.491 156.599 23.6719C156.512 23.0825 156.304 22.5166 155.987 22.0082C155.693 21.5851 155.276 21.2593 154.79 21.0737C154.196 20.8645 153.569 20.7652 152.938 20.781C152.372 20.7816 151.806 20.8159 151.244 20.8837C150.653 20.9504 150.198 21.0121 149.936 21.0531V35.6667H145.669V18.152C148.135 17.4947 150.681 17.1683 153.237 17.1815C154.53 17.1402 155.82 17.346 157.033 17.7874C157.973 18.1401 158.805 18.7235 159.45 19.4819L159.403 19.4716ZM172.592 17.0994C175.134 17.0994 177.116 17.873 178.539 19.4203C179.961 20.9676 180.671 23.2765 180.667 26.3471C180.667 26.5782 180.667 26.8606 180.667 27.1276C180.667 27.3946 180.641 27.677 180.615 27.9029H168.45C168.471 28.5401 168.62 29.167 168.889 29.7471C169.158 30.3271 169.543 30.8488 170.019 31.2816C170.95 32.0792 172.298 32.478 174.062 32.478C175.016 32.4832 175.968 32.3903 176.902 32.2008C177.593 32.0635 178.27 31.8659 178.926 31.6103L179.491 35.0403C179.177 35.1844 178.854 35.3062 178.523 35.4049C178.058 35.5435 177.587 35.6565 177.111 35.7489C176.635 35.8413 176.013 35.9389 175.401 36.0108C174.779 36.0784 174.154 36.1127 173.529 36.1135C172.085 36.141 170.65 35.9006 169.298 35.4049C168.169 34.9787 167.156 34.3021 166.337 33.428C165.55 32.5691 164.961 31.5531 164.612 30.4498C164.221 29.2344 164.03 27.9656 164.047 26.6911C164.016 25.2623 164.261 23.8406 164.768 22.5012C165.197 21.3852 165.849 20.3653 166.688 19.5024C167.468 18.7202 168.407 18.1079 169.444 17.7053C170.453 17.3045 171.531 17.0988 172.619 17.0994H172.592ZM176.4 24.8015C176.405 24.243 176.322 23.687 176.154 23.1533C176.004 22.6619 175.759 22.2035 175.432 21.8028C175.118 21.4387 174.73 21.1431 174.292 20.935C173.78 20.7031 173.219 20.5906 172.655 20.6064C172.059 20.5929 171.467 20.7178 170.929 20.971C170.449 21.2005 170.022 21.5237 169.674 21.9209C169.33 22.3204 169.062 22.778 168.884 23.2714C168.698 23.7695 168.566 24.286 168.492 24.8118L176.4 24.8015ZM193.287 32.211C193.772 32.0891 194.249 31.9382 194.715 31.7592L195.421 35.0865C194.788 35.3387 194.14 35.5531 193.481 35.7284C192.558 35.9607 191.609 36.0712 190.657 36.057C189.535 36.0922 188.417 35.918 187.362 35.5435C186.537 35.2406 185.813 34.72 185.27 34.039C184.728 33.3333 184.355 32.5174 184.177 31.6513C183.951 30.5981 183.844 29.5235 183.858 28.4472V12.781L188.125 12.0878V17.5563H194.689V21.0531H188.141V28.4318C188.141 29.8901 188.382 30.9273 188.847 31.5486C189.312 32.17 190.118 32.4832 191.248 32.4832C191.942 32.4932 192.635 32.4121 193.308 32.2418L193.287 32.211ZM211.032 30.306C211.754 31.2303 212.439 32.1546 213.077 33.0788C213.645 33.9073 214.169 34.7643 214.646 35.6462H209.709C209.287 34.9273 208.799 34.1759 208.245 33.392C207.696 32.6115 207.099 31.8516 206.461 31.1071C205.823 30.3625 205.18 29.6693 204.526 29.0121C203.925 28.4041 203.276 27.8427 202.586 27.333V35.6667H198.35V9.47933L202.623 8.78613V24.6218L204.349 22.84C204.962 22.2033 205.562 21.5683 206.148 20.935C206.733 20.2983 207.288 19.6873 207.821 19.0968C208.355 18.5063 208.804 17.9979 209.181 17.5563H214.223C213.051 18.8503 211.813 20.1905 210.509 21.5769C209.205 22.9633 207.898 24.3137 206.587 25.6282C207.372 26.2799 208.114 26.9796 208.81 27.7232C209.584 28.5414 210.335 29.4126 211.064 30.3368L211.032 30.306ZM230.174 21.3201C230.43 22.2751 230.555 23.2595 230.545 24.247V35.256C229.886 35.3946 228.893 35.5589 227.564 35.7694C226.074 35.9749 224.571 36.0727 223.066 36.0621C222.046 36.0708 221.029 35.9658 220.033 35.7489C219.189 35.5666 218.392 35.2171 217.69 34.7219C217.039 34.2567 216.518 33.6388 216.173 32.9248C215.784 32.0644 215.596 31.1291 215.624 30.1879C215.595 29.2734 215.81 28.3672 216.247 27.5589C216.65 26.8497 217.225 26.2486 217.92 25.808C218.67 25.3399 219.502 25.011 220.373 24.8375C221.329 24.6376 222.304 24.5395 223.281 24.5448C224.338 24.5498 225.392 24.6773 226.419 24.9248V24.247C226.425 23.7794 226.367 23.3131 226.246 22.8606C226.132 22.4314 225.921 22.033 225.629 21.695C225.321 21.3515 224.934 21.0856 224.499 20.9196C223.916 20.715 223.298 20.6209 222.679 20.6424C221.77 20.6339 220.862 20.7026 219.965 20.8477C219.283 20.9545 218.612 21.116 217.957 21.3304L217.434 17.9415C218.205 17.7008 218.994 17.5155 219.792 17.3869C220.887 17.1969 221.997 17.1041 223.108 17.1096C224.317 17.0774 225.522 17.2512 226.67 17.6231C227.535 17.8958 228.315 18.3809 228.935 19.0324C229.556 19.6839 229.996 20.4802 230.216 21.3458L230.174 21.3201ZM226.419 27.8465C226.084 27.7557 225.743 27.6853 225.399 27.6359C224.433 27.499 223.452 27.499 222.486 27.6359C222.033 27.6981 221.592 27.828 221.178 28.021C220.805 28.1958 220.484 28.463 220.247 28.7964C220 29.1737 219.876 29.6162 219.892 30.0647C219.892 31.0557 220.211 31.7438 220.844 32.1186C221.64 32.5539 222.543 32.7636 223.453 32.7245C224.457 32.7487 225.46 32.68 226.45 32.5191L226.419 27.8465Z" fill="#494B52"/>
</g>
<defs>
<clipPath id="clip0_1_13367">
<rect width="230.571" height="48" fill="white"/>
</clipPath>
</defs>
</svg>
