<svg width="376" height="250" viewBox="0 0 376 250" fill="none" xmlns="http://www.w3.org/2000/svg">
<path d="M173.72 217.929L170.449 224.518L167.389 232.736L166.4 238.102L166.142 241.953L178.836 242.553L208.425 241.902L209.72 241.828V236.787L208.132 233.578L204.324 231.752H197.328L193.428 230.505L190.695 228.221L189.218 224.376L173.72 217.929Z" fill="#1B92D1"/>
<path d="M58.475 146.794L63.144 150.623L67.164 151.935L71.015 150.374L76.616 143.295L85.44 144.711L96.037 127.591L88.039 118.886L85.44 117.43L72.615 127.106L64.115 137.824L59.75 144.095L58.475 146.794Z" fill="#1B92D1"/>
<path d="M96.537 126.997L88.22 136.881C88.22 136.881 84.4 145.466 84.723 148.681L92.247 152.78L116.414 165.031L123.776 166.622L129.464 164.566L146.728 150.296L167.823 133.207L169.408 135.715L183.76 157.044L189.807 165.414L187.77 171.21L181.121 189.652L176.827 201.865L172.828 215.907L171.981 219.979L183.418 224.225L189.806 226.022L194.419 225.88L194.478 225.473C194.693 223.98 195.065 222.513 195.588 221.098L203.575 199.482L213.505 175.856L216.771 166.622L212.561 152.28L207.939 140.91L202.468 129.549L196.804 120.01L192.988 111.927L191.311 108.568L188.434 107.709L186.696 107.98L184.539 107.02L180.327 106.057L179.074 108.392L173.199 110.151L166.738 109.765L165.478 108.209L165.566 101.788L163.398 101.292L147.872 98.1758L144.713 102.595L140.21 110.376L136.504 118.823L133.068 127.598L128.818 136.36L125.599 141.147L112.658 135.783L100.66 129.396L96.536 126.997H96.537Z" fill="#133340"/>
<path d="M182.259 70.5107L187.585 59.6447L196.106 61.1067L194.842 54.5657L190.584 40.2837L214.415 38.3267L224.756 39.5917H234.175L236.995 38.5137L238.967 45.2517L240.161 53.3367L240.134 61.6627L241.168 62.2227L244.259 57.5267L244.845 61.5267L247.843 66.8217L253.884 73.5077L256.404 75.6087L260.623 83.2957L258.881 85.6787L254.925 87.2657L246.192 87.4587L238.529 88.1987L235.443 85.0017L225.45 94.3297L215.061 100.012L205.535 104.683L211.391 77.1477L182.259 70.5107Z" fill="#1B92D1"/>
<path d="M304.054 78.0457L301.525 87.1987L304.65 94.7847L351.755 84.6037L356.66 59.6807L353.362 54.3137L325.619 60.0767L307.954 63.5337L305.88 73.6987L308.121 73.8707L309.788 74.7617L309.328 76.2847L307.144 77.5197L304.054 78.0457Z" fill="#BEDDF5"/>
<path d="M158.743 65.4407L167.112 67.5737L167.78 74.1647L169.162 84.3887L170.277 88.6497L167.112 96.5047L165.567 101.788L151.121 98.7877L158.743 65.4407Z" fill="#BEDDF5"/>
<path d="M180.887 103.432L180.328 106.057L183.962 106.888L182.901 104.683L180.887 103.432Z" fill="#DDE8F1"/>
<path d="M178.293 90.3537L183.962 96.4987L188.484 102.541L189.307 106.24L188.435 107.71L204.009 111.472L206.236 101.388L202.154 97.1067L204.371 87.7507L209.286 87.0467L211.391 77.1477L182.259 70.5107L180.521 75.2957L178.668 85.4977L178.293 90.3537Z" fill="#BEDDF5"/>
<path d="M270.864 20.0608C274.171 21.8958 277.479 23.7298 280.786 25.5648C278.113 27.3718 274.743 28.1158 271.558 27.6018C268.373 27.0888 265.408 25.3228 263.438 22.7678" fill="#BEDDF5"/>
<path d="M270.864 20.0608C274.171 21.8958 277.479 23.7298 280.786 25.5648C278.113 27.3718 274.743 28.1158 271.558 27.6018C268.373 27.0888 265.408 25.3228 263.438 22.7678" stroke="#1B3445" stroke-width="0.992" stroke-linecap="round" stroke-linejoin="round"/>
<path d="M195.91 60.9637C193.091 60.5897 190.46 59.9287 187.642 59.5547C181.837 68.8517 178.664 79.6857 178.282 90.6397C181.83 94.2597 185.069 98.1817 187.951 102.351C188.779 103.548 189.611 104.867 189.301 106.39C189.153 107.116 188.674 107.752 187.976 108C186.876 108.391 186.002 107.664 185.274 106.963C183.835 105.581 182.223 104.136 180.979 102.576C180.783 104.529 180.512 106.647 179.125 108.035C178.143 109.017 176.752 109.463 175.396 109.764C173.127 110.269 170.789 110.462 168.468 110.342C166.565 110.244 165.107 108.602 165.235 106.701C165.652 100.533 167.329 94.2307 170.37 88.9607C166.728 77.1137 166.815 64.1497 170.616 52.3517C170.999 51.1637 171.439 49.9517 172.287 49.0367C172.951 48.3207 173.821 47.8347 174.683 47.3757C179.692 44.7087 184.964 42.5357 190.397 40.8997C191.664 47.6507 196.083 54.8807 195.909 60.9637H195.91Z" stroke="#1B3445" stroke-width="0.992" stroke-linecap="round" stroke-linejoin="round"/>
<path d="M234.799 26.6547C247.043 26.8627 259.326 24.4737 270.6 19.6927C268.737 14.1877 263.793 9.60372 258.254 7.84472C252.715 6.08572 246.365 7.11672 241.667 10.5377C236.969 13.9587 234.825 20.8427 234.799 26.6547Z" fill="#BEDDF5" stroke="#1B3445" stroke-width="0.992" stroke-linecap="round" stroke-linejoin="round"/>
<path d="M239.631 88.3237C242.598 91.4187 245.565 94.5137 248.532 97.6087C250.871 100.049 253.394 102.599 256.676 103.41C259.18 104.029 261.819 103.545 264.316 102.898C276.986 99.6147 288.477 92.1847 301.44 90.3797" stroke="#1B3445" stroke-width="0.992" stroke-linecap="round" stroke-linejoin="round"/>
<path d="M237.233 38.2856C237.346 34.3056 236.762 30.3066 235.516 26.5256" stroke="#1B3445" stroke-width="0.992" stroke-linecap="round" stroke-linejoin="round"/>
<path d="M244.865 56.5177C248.54 54.6617 251.941 52.2657 254.925 49.4297" stroke="#1B3445" stroke-width="0.992" stroke-linecap="round" stroke-linejoin="round"/>
<path d="M249.432 42.6428C251.472 45.9338 254.684 48.4828 258.353 49.7228C259.342 50.0568 260.507 50.2758 261.368 49.6878C261.942 49.2958 262.251 48.6268 262.532 47.9908" stroke="#1B3445" stroke-width="0.992" stroke-linecap="round" stroke-linejoin="round"/>
<path d="M262.102 28.6616C263.756 28.0506 265.671 28.1916 267.218 29.0386" stroke="#1B3445" stroke-width="0.992" stroke-linecap="round" stroke-linejoin="round"/>
<path d="M250.4 29.3797C250.191 27.1697 248.524 26.8747 247.722 26.8507C246.92 26.8267 246.157 27.3177 245.724 27.9937C245.291 28.6697 245.157 29.5027 245.204 30.3037C245.244 30.9927 245.419 31.6887 245.813 32.2547C246.207 32.8207 246.841 33.2437 247.53 33.2787" stroke="#1B3445" stroke-width="0.992" stroke-linecap="round" stroke-linejoin="round"/>
<path d="M240.134 61.6626C240.759 53.8406 239.681 45.8876 236.995 38.5146C236.162 38.7676 234.55 39.1176 233.978 39.7736C234.334 47.3626 234.011 54.9836 233.165 62.5336C234.945 61.1916 238.059 60.8486 240.134 61.6626Z" stroke="#1B3445" stroke-width="0.992" stroke-linecap="round" stroke-linejoin="round"/>
<path d="M244.202 56.9607C244.07 59.1597 242.794 61.2597 240.903 62.3907C242.214 62.7827 243.534 62.8887 244.845 63.2807C244.663 61.4707 244.384 58.7717 244.202 56.9617V56.9607Z" stroke="#1B3445" stroke-width="0.992" stroke-linecap="round" stroke-linejoin="round"/>
<path d="M260.623 84.0388C257.401 88.1368 251.485 87.7078 246.857 87.4818C243.998 87.3418 240.57 87.7098 237.803 88.3238L235.287 85.4148" stroke="#1B3445" stroke-width="0.992" stroke-linecap="round" stroke-linejoin="round"/>
<path d="M260.064 84.7908C260.972 85.5658 261.757 86.4848 262.379 87.5038" stroke="#1B3445" stroke-width="0.992" stroke-linecap="round" stroke-linejoin="round"/>
<path d="M259.248 91.6878C260.991 89.1128 263.956 87.5668 266.995 86.9108C270.034 86.2548 273.182 86.3918 276.287 86.5638C279.392 86.7358 282.528 86.9388 285.592 86.4078C291.878 85.3198 297.506 80.9698 300.143 75.1618C302.43 74.9008 304.96 74.1418 307.247 73.8798C307.733 73.8238 308.229 73.7688 308.708 73.8658C309.187 73.9628 309.657 74.2388 309.862 74.6828C310.108 75.2148 309.912 75.8718 309.522 76.3088C309.132 76.7458 308.582 77.0048 308.034 77.2148C306.762 77.7008 305.413 77.9828 304.053 78.0468L301.439 87.5048L304.649 94.7858L351.852 84.7918L356.66 60.1218L353.892 54.2048L308.098 63.7168L305.895 73.8138" stroke="#1B3445" stroke-width="0.992" stroke-linecap="round" stroke-linejoin="round"/>
<path d="M205.535 104.683C218.281 98.4497 232.856 90.9197 240.068 78.3027" stroke="#1B3445" stroke-width="0.992" stroke-linecap="round" stroke-linejoin="round"/>
<path d="M148.196 98.1917C142.156 104.795 138.311 113.996 135.133 122.362C131.955 130.728 128.373 139.322 121.737 145.325" stroke="#1B3445" stroke-width="0.992" stroke-linecap="round" stroke-linejoin="round"/>
<path d="M84.71 149.064C84.897 140.57 90.088 132.086 96.756 126.821C105.249 132.826 116.875 138.002 126.659 141.533" stroke="#1B3445" stroke-width="0.992" stroke-linecap="round" stroke-linejoin="round"/>
<path d="M84.71 149.064C94.578 153.93 104.447 158.796 114.315 163.662C116.696 164.836 119.121 166.025 121.739 166.462C124.357 166.899 127.247 166.483 129.256 164.747C138.364 156.873 147.839 149.391 157.275 141.913C163.131 137.272 169.015 132.605 174.062 127.095C176.718 124.196 177.908 120.375 177.984 116.444" stroke="#1B3445" stroke-width="0.992" stroke-linecap="round" stroke-linejoin="round"/>
<path d="M167.824 133.208C174.726 144.211 182.405 155.386 190.119 165.837C182.316 183.106 176.54 201.585 171.768 219.924C175.628 220.88 179.036 222.603 182.764 223.987C186.492 225.371 190.479 226.413 194.42 225.881" stroke="#1B3445" stroke-width="0.992" stroke-linecap="round" stroke-linejoin="round"/>
<path d="M191.797 108.68C193.392 113.501 196.228 119.443 198.988 123.683C201.782 127.975 203.931 132.184 206.098 136.841C210.054 145.346 213.453 154.11 216.267 163.058C217.096 165.694 216.906 168.541 215.735 171.044C207.702 188.208 201.678 204.995 195.343 223.058C195.271 223.263 194.422 225.663 194.422 225.881" stroke="#1B3445" stroke-width="0.992" stroke-linecap="round" stroke-linejoin="round"/>
<path d="M223.693 57.5267C227.145 56.1687 229.632 52.6467 229.757 48.9397C230.143 37.4557 215.397 37.5857 207.622 38.9667C202 39.9647 194.549 40.7037 189.033 39.2277C189.033 39.2277 188.616 39.7687 188.796 41.4007" stroke="#1B3445" stroke-width="0.992" stroke-linecap="round" stroke-linejoin="round"/>
<path d="M196.106 61.1067C202.889 61.6957 209.726 61.6637 216.503 61.0107" stroke="#1B3445" stroke-width="0.992" stroke-linecap="round" stroke-linejoin="round"/>
<path d="M224.971 40.3718C227.936 39.5918 231.038 40.0058 234.175 39.5918" stroke="#1B3445" stroke-width="0.992" stroke-linecap="round" stroke-linejoin="round"/>
<path d="M95.515 127.022C92.592 124.753 90.053 121.99 88.039 118.886C78.152 127.325 69.206 137.198 63.114 148.681" stroke="#1B3445" stroke-width="0.992" stroke-linecap="round" stroke-linejoin="round"/>
<path d="M85.44 117.43C74.214 124.794 64.858 134.983 58.475 146.794C60.111 147.39 61.671 149.694 63.144 150.623C64.617 151.552 66.404 152.261 68.077 151.778C69.18 151.459 70.074 150.666 70.904 149.873C72.91 147.955 74.78 145.896 76.497 143.716C79.177 143.215 82.456 143.506 84.977 144.542" stroke="#1B3445" stroke-width="0.992" stroke-linecap="round" stroke-linejoin="round"/>
<path d="M172.471 220.951C168.492 227.195 166.275 234.55 166.141 241.953C180.635 242.859 195.221 242.676 209.719 241.828" stroke="#1B3445" stroke-width="0.992" stroke-linecap="round" stroke-linejoin="round"/>
<path d="M169.873 238.962C183.145 238.975 196.417 238.988 209.69 239C210.684 237.165 209.283 234.265 207.546 233.109C205.809 231.952 203.609 231.774 201.522 231.795C199.435 231.816 197.304 231.994 195.296 231.426C192.815 230.725 190.694 228.849 189.694 226.472" stroke="#1B3445" stroke-width="0.992" stroke-linecap="round" stroke-linejoin="round"/>
<path d="M167.112 67.4616L155.433 64.6416L148.196 98.1916L165.835 101.788" stroke="#1B3445" stroke-width="0.992" stroke-linecap="round" stroke-linejoin="round"/>
<path d="M185.518 107.244L180.328 106.057" stroke="#1B3445" stroke-width="0.992" stroke-linecap="round" stroke-linejoin="round"/>
<path d="M182.172 70.7468L211.665 77.4208L204.009 111.472L188.569 107.941" stroke="#1B3445" stroke-width="0.992" stroke-linecap="round" stroke-linejoin="round"/>
<path d="M198.49 79.8208L193.679 102.541" stroke="#1B3445" stroke-width="0.992" stroke-linecap="round" stroke-linejoin="round"/>
<path d="M193.323 78.4387L189.759 95.5907" stroke="#1B3445" stroke-width="0.992" stroke-linecap="round" stroke-linejoin="round"/>
<path d="M187.71 77.1477L186.017 85.8797" stroke="#1B3445" stroke-width="0.992" stroke-linecap="round" stroke-linejoin="round"/>
<path d="M209.508 87.0146L204.371 87.7506L202.411 97.3727L205.959 101.645" stroke="#1B3445" stroke-width="0.992" stroke-linecap="round" stroke-linejoin="round"/>
<path d="M158.743 65.4407L151.125 98.1757" stroke="#1B3445" stroke-width="0.992" stroke-linecap="round" stroke-linejoin="round"/>
<path d="M301.44 87.5036L348.21 77.8046L353.892 54.2036" stroke="#1B3445" stroke-width="0.992" stroke-linecap="round" stroke-linejoin="round"/>
<path d="M348.21 77.8047L351.853 84.7907" stroke="#1B3445" stroke-width="0.992" stroke-linecap="round" stroke-linejoin="round"/>
<path d="M326.212 77.8047L344.423 73.8777" stroke="#1B3445" stroke-width="0.992" stroke-linecap="round" stroke-linejoin="round"/>
<path d="M334.375 72.4328L344.423 70.2368" stroke="#1B3445" stroke-width="0.992" stroke-linecap="round" stroke-linejoin="round"/>
<path d="M264.947 41.8768L261.703 40.7628C261.142 40.4388 260.46 40.9158 260.569 41.5538C260.893 43.4398 261.564 44.8078 263.438 45.2518" stroke="#1B3445" stroke-width="0.992" stroke-linecap="round" stroke-linejoin="round"/>
<path d="M264.66 33.6737C265.408 33.6737 266.015 32.9986 266.015 32.1657C266.015 31.3329 265.408 30.6577 264.66 30.6577C263.912 30.6577 263.305 31.3329 263.305 32.1657C263.305 32.9986 263.912 33.6737 264.66 33.6737Z" fill="#133340"/>
<path d="M237.233 38.2857L242.531 37.2337C244.226 36.8967 245.437 35.4067 245.437 33.6787C245.437 30.9087 245.73 27.1267 247.293 26.6667C249.794 25.9307 236.139 26.8497 236.139 26.8497L237.052 31.3957L237.233 38.2857Z" fill="#133340"/>
<path d="M260.748 23.1897C258.311 19.1747 259.511 13.9047 264.177 10.9707" stroke="#1B3445" stroke-width="0.992" stroke-linecap="round" stroke-linejoin="round"/>
<path d="M266.934 39.5708C267.6 39.5598 268.282 39.5458 268.905 39.3098C269.528 39.0738 270.092 38.5698 270.208 37.9138C270.309 37.3418 270.064 36.7708 269.824 36.2418C269.374 35.2508 268.925 34.2588 268.475 33.2678" stroke="#1B3445" stroke-width="0.992" stroke-linecap="round" stroke-linejoin="round"/>
<path d="M260.815 83.7307C259.254 80.1887 257.599 76.5807 254.865 73.8417C253.438 72.4127 251.755 71.2617 250.322 69.8397C248.126 67.6607 246.588 64.9227 245.078 62.2227" stroke="#1B3445" stroke-width="0.992" stroke-linecap="round" stroke-linejoin="round"/>
<path d="M202.01 165.384C198.062 166.036 190.463 166.008 186.56 165.124" stroke="#BEDDF5" stroke-width="0.992" stroke-linecap="round" stroke-linejoin="round"/>
<path d="M250.028 31.8676C250.07 32.0636 250.114 32.2626 250.218 32.4336C250.5 32.8966 251.176 33.0026 251.662 32.7636C252.148 32.5246 252.461 32.0256 252.628 31.5106C252.795 30.9956 252.842 30.4496 252.946 29.9176C253.409 27.5496 255.037 25.5106 257.065 24.2036C254.173 24.7466 251.281 25.2896 248.389 25.8326C248.055 25.8956 247.639 26.0506 247.637 26.3906C247.636 26.7236 248.036 26.8856 248.361 26.9586C249.269 27.1646 249.216 28.0806 249.382 28.8536C249.598 29.8586 249.813 30.8636 250.029 31.8686L250.028 31.8676Z" fill="#133340"/>
<path d="M153.788 52.3517C154.171 51.1637 154.611 49.9517 155.459 49.0367C156.123 48.3207 156.993 47.8347 157.855 47.3757C162.864 44.7087 168.136 42.5357 173.569 40.8997" stroke="#BEDDF5" stroke-width="0.992" stroke-linecap="round" stroke-linejoin="round"/>
<path d="M232.429 7.31567C222.969 8.00767 217.915 18.1167 217.97 26.6547" stroke="#BEDDF5" stroke-width="0.992" stroke-linecap="round" stroke-linejoin="round"/>
<path d="M219.58 29.7626C219.335 28.6696 219.037 27.5896 218.686 26.5256" stroke="#BEDDF5" stroke-width="0.992" stroke-linecap="round" stroke-linejoin="round"/>
<path d="M131.367 98.1917C124.408 105.727 121.038 115.555 117.312 124.937" stroke="#BEDDF5" stroke-width="0.992" stroke-linecap="round" stroke-linejoin="round"/>
<path d="M163.574 152.251C164.001 153.182 164.562 153.744 165.124 154.305C167.932 158.236 170.459 161.606 172.986 165.537V166.379C165.404 183.789 159.227 201.76 154.938 219.923C158.746 220.867 156.296 214.703 154.938 219.923C158.746 220.867 162.271 222.625 165.934 223.986" stroke="#BEDDF5" stroke-width="0.992" stroke-linecap="round" stroke-linejoin="round"/>
<path d="M71.21 118.886C61.323 127.325 52.377 137.198 46.285 148.681" stroke="#BEDDF5" stroke-width="0.992" stroke-linecap="round" stroke-linejoin="round"/>
<path d="M68.611 117.43C59.841 123.159 52.282 130.69 46.31 139.283C44.627 141.704 43.07 144.212 41.647 146.794C43.241 147.437 42.939 144.357 41.647 146.794C42.943 147.281 43.851 148.371 44.799 149.326C45.82 150.354 46.979 151.196 48.376 151.636" stroke="#BEDDF5" stroke-width="0.992" stroke-linecap="round" stroke-linejoin="round"/>
<path d="M155.643 220.951C151.664 227.195 149.447 234.55 149.313 241.953" stroke="#BEDDF5" stroke-width="0.992" stroke-linecap="round" stroke-linejoin="round"/>
<path d="M143.308 65.7776C141.74 65.3996 140.172 65.0206 138.604 64.6426C138.365 65.7486 138.127 66.8556 137.888 67.9616C135.921 78.2086 133.394 88.0366 131.367 98.1926" stroke="#BEDDF5" stroke-width="0.992" stroke-linecap="round" stroke-linejoin="round"/>
<path d="M131.642 52.3517C132.025 51.1637 132.465 49.9517 133.313 49.0367C133.977 48.3207 134.847 47.8347 135.709 47.3757C140.718 44.7087 145.99 42.5357 151.423 40.8997" stroke="#BEDDF5" stroke-width="0.992" stroke-linecap="round" stroke-linejoin="round"/>
<path d="M210.283 7.31567C200.823 8.00767 195.769 18.1167 195.824 26.6547" stroke="#BEDDF5" stroke-width="0.992" stroke-linecap="round" stroke-linejoin="round"/>
<path d="M197.434 29.7626C197.189 28.6696 196.891 27.5896 196.54 26.5256" stroke="#BEDDF5" stroke-width="0.992" stroke-linecap="round" stroke-linejoin="round"/>
<path d="M109.221 98.1917C105.059 102.698 102.119 108.143 99.679 113.731" stroke="#BEDDF5" stroke-width="0.992" stroke-linecap="round" stroke-linejoin="round"/>
<path d="M150.164 167.943C142.66 184.632 137.044 202.323 132.793 219.923C133.835 220.188 133.707 216.051 132.793 219.923C133.835 220.188 135.32 219.656 134.73 218.32C133.999 216.666 132.943 219.341 132.793 219.923C136.599 220.868 140.127 222.624 143.789 223.986" stroke="#BEDDF5" stroke-width="0.992" stroke-linecap="round" stroke-linejoin="round"/>
<path d="M20.418 146.655C20.549 146.487 20.715 146.028 20.466 145.875C20.079 145.637 19.61 146.583 19.5 146.795C19.632 146.845 19.798 146.955 19.934 146.986" stroke="#BEDDF5" stroke-width="0.992" stroke-linecap="round" stroke-linejoin="round"/>
<path d="M46.465 117.43C37.88 123.038 30.459 130.37 24.547 138.736C22.717 141.326 21.031 144.017 19.5 146.794C19.778 146.918 20.1 146.925 20.344 146.732" stroke="#BEDDF5" stroke-width="0.992" stroke-linecap="round" stroke-linejoin="round"/>
<path d="M133.497 220.951C129.518 227.195 127.301 234.55 127.167 241.953" stroke="#BEDDF5" stroke-width="0.992" stroke-linecap="round" stroke-linejoin="round"/>
<path d="M121.162 65.7776C119.594 65.3996 118.026 65.0206 116.458 64.6426L115.742 67.9616C113.775 78.2086 111.248 88.0366 109.221 98.1926" stroke="#BEDDF5" stroke-width="0.992" stroke-linecap="round" stroke-linejoin="round"/>
<path d="M126.002 137.449C123.963 141.212 121.796 144.339 120.2 146.396" stroke="#BEDDF5" stroke-width="0.992" stroke-linecap="round" stroke-linejoin="round"/>
<path d="M237.803 88.3237C237.803 88.3237 238.62 89.7477 240.692 89.4307" stroke="#1B3445" stroke-width="0.992" stroke-linecap="round" stroke-linejoin="round"/>
<path d="M244.845 63.2808C243.97 67.1158 242.478 70.7468 242.478 70.7468" stroke="#1B3445" stroke-width="0.992" stroke-linecap="round" stroke-linejoin="round"/>
</svg>
