<svg width="376" height="250" viewBox="0 0 376 250" fill="none" xmlns="http://www.w3.org/2000/svg">
<g clip-path="url(#clip0_1_2628)">
<path d="M41.5 61.2158L91.753 90.4038V142.771L41.5 113.583V61.2158Z" fill="white" stroke="#BEDDF5" stroke-width="0.992" stroke-linecap="round" stroke-linejoin="round"/>
<path d="M91.7531 90.4039L148.371 56.7749V109.142L91.7531 142.771V90.4039Z" fill="white" stroke="#BEDDF5" stroke-width="0.992" stroke-linecap="round" stroke-linejoin="round"/>
<path d="M98.118 27.5879L41.5 61.2159L91.753 90.4039L148.371 56.7749L98.118 27.5879Z" fill="white" stroke="#BEDDF5" stroke-width="0.992" stroke-linecap="round" stroke-linejoin="round"/>
<path d="M66.136 46.6028L116.404 75.7628L124.04 71.1788L73.138 42.4658L66.136 46.6028Z" fill="white" stroke="#BEDDF5" stroke-width="0.992" stroke-linecap="round" stroke-linejoin="round"/>
<path d="M68.693 45.0908L117.426 75.1328L125.263 70.5018L75.912 40.8638L68.693 45.0908Z" fill="white" stroke="#BEDDF5" stroke-width="0.992" stroke-linecap="round" stroke-linejoin="round"/>
<path d="M116.286 88.67V75.929L123.885 71.376L123.908 80.548L116.286 88.67Z" fill="white" stroke="#BEDDF5" stroke-width="0.992" stroke-linecap="round" stroke-linejoin="round"/>
<path d="M117.461 94.7138V75.1628L125.061 70.6108L125.084 87.4468L117.461 94.7138Z" fill="white" stroke="#BEDDF5" stroke-width="0.992" stroke-linecap="round" stroke-linejoin="round"/>
<path d="M62.1531 23.053L96.6021 43.061V78.96L62.1531 58.951V23.053Z" fill="white" stroke="#BEDDF5" stroke-width="0.992" stroke-linecap="round" stroke-linejoin="round"/>
<path d="M96.6021 43.061L135.415 20.009V55.907L96.6021 78.96V43.061Z" fill="white" stroke="#BEDDF5" stroke-width="0.992" stroke-linecap="round" stroke-linejoin="round"/>
<path d="M100.965 0L62.1531 23.053L96.6021 43.061L135.415 20.009L100.965 0Z" fill="white" stroke="#BEDDF5" stroke-width="0.992" stroke-linecap="round" stroke-linejoin="round"/>
<path d="M83.8071 64.427L67.0861 54.949V44.666L83.8071 54.144V64.427Z" fill="white" stroke="#BEDDF5" stroke-width="0.992" stroke-linecap="round" stroke-linejoin="round"/>
<path d="M226.652 74.5859L276.905 103.773V156.14L226.652 126.952V74.5859Z" fill="white" stroke="#BEDDF5" stroke-width="0.992" stroke-linecap="round" stroke-linejoin="round"/>
<path d="M276.905 103.773L333.523 70.145V122.512L276.905 156.14V103.773Z" fill="white" stroke="#BEDDF5" stroke-width="0.992" stroke-linecap="round" stroke-linejoin="round"/>
<path d="M283.27 40.957L226.652 74.586L276.905 103.773L333.523 70.145L283.27 40.957Z" fill="white" stroke="#BEDDF5" stroke-width="0.992" stroke-linecap="round" stroke-linejoin="round"/>
<path d="M251.289 59.972L301.557 89.132L309.192 84.549L258.29 55.835L251.289 59.972Z" fill="white" stroke="#BEDDF5" stroke-width="0.992" stroke-linecap="round" stroke-linejoin="round"/>
<path d="M301.438 102.04V89.2991L309.038 84.7461L309.06 93.9181L301.438 102.04Z" fill="white" stroke="#BEDDF5" stroke-width="0.992" stroke-linecap="round" stroke-linejoin="round"/>
<path d="M132.188 102.382L284.695 190.823L301.371 181.029L148.863 92.5991L132.188 102.382Z" fill="white" stroke="#1B3545" stroke-width="0.992" stroke-linecap="round" stroke-linejoin="round"/>
<path d="M132.188 109.782L284.695 198.223V190.823L132.188 102.382V109.782Z" fill="#D7E8F4" stroke="#1B3545" stroke-width="0.992" stroke-linecap="round" stroke-linejoin="round"/>
<path d="M301.371 181.029V188.429L284.695 198.223V190.823L301.371 181.029Z" fill="#D7E8F4" stroke="#1B3545" stroke-width="0.992" stroke-linecap="round" stroke-linejoin="round"/>
<path d="M258.842 160.738V175.792L277.227 186.446V171.403L258.842 160.738Z" fill="#D7E8F4" stroke="#1B3545" stroke-width="0.992" stroke-linecap="round" stroke-linejoin="round"/>
<path d="M284.736 175.646L293.925 170.143L293.889 176.725L277.247 186.426V171.321L284.736 175.646Z" fill="#1B3545" stroke="#1B3545" stroke-width="0.992" stroke-linecap="round" stroke-linejoin="round"/>
<path d="M140.054 91.7952V106.85L158.439 117.504V102.46L140.054 91.7952Z" fill="#D7E8F4" stroke="#1B3545" stroke-width="0.992" stroke-linecap="round" stroke-linejoin="round"/>
<path d="M171.63 110.012L158.459 117.484V102.379L171.63 110.012Z" fill="#1B3545" stroke="#1B3545" stroke-width="0.992" stroke-linecap="round" stroke-linejoin="round"/>
<path d="M199.502 126.303V141.357L217.887 152.011V136.968L199.502 126.303Z" fill="#D7E8F4" stroke="#1B3545" stroke-width="0.992" stroke-linecap="round" stroke-linejoin="round"/>
<path d="M231.078 144.519L217.907 151.991V136.886L231.078 144.519Z" fill="#1B3545" stroke="#1B3545" stroke-width="0.992" stroke-linecap="round" stroke-linejoin="round"/>
<path d="M132.188 79.8531L284.695 168.293L301.371 158.5L148.863 70.0701L132.188 79.8531Z" fill="white" stroke="#1B3545" stroke-width="0.992" stroke-linecap="round" stroke-linejoin="round"/>
<path d="M132.188 87.253L284.695 175.694V168.293L132.188 79.853V87.253Z" fill="#D7E8F4" stroke="#1B3545" stroke-width="0.992" stroke-linecap="round" stroke-linejoin="round"/>
<path d="M301.371 158.5V165.9L284.695 175.694V168.293L301.371 158.5Z" fill="#D7E8F4" stroke="#1B3545" stroke-width="0.992" stroke-linecap="round" stroke-linejoin="round"/>
<path d="M103.611 119.213L256.119 207.654L272.794 197.86L120.287 109.43L103.611 119.213Z" fill="white" stroke="#1B3545" stroke-width="0.992" stroke-linecap="round" stroke-linejoin="round"/>
<path d="M103.611 126.613L256.119 215.054V207.654L103.611 119.213V126.613Z" fill="#D7E8F4" stroke="#1B3545" stroke-width="0.992" stroke-linecap="round" stroke-linejoin="round"/>
<path d="M272.794 197.86V205.26L256.119 215.054V207.654L272.794 197.86Z" fill="#D7E8F4" stroke="#1B3545" stroke-width="0.992" stroke-linecap="round" stroke-linejoin="round"/>
<path d="M230.266 177.569V192.623L248.651 203.277V188.234L230.266 177.569Z" fill="#D7E8F4" stroke="#1B3545" stroke-width="0.992" stroke-linecap="round" stroke-linejoin="round"/>
<path d="M256.16 192.477L265.349 186.974L265.312 193.556L248.67 203.257V188.152L256.16 192.477Z" fill="#1B3545" stroke="#1B3545" stroke-width="0.992" stroke-linecap="round" stroke-linejoin="round"/>
<path d="M111.478 108.626V123.681L129.863 134.335V119.291L111.478 108.626Z" fill="#D7E8F4" stroke="#1B3545" stroke-width="0.992" stroke-linecap="round" stroke-linejoin="round"/>
<path d="M143.054 126.843L129.882 134.315V119.21L143.054 126.843Z" fill="#1B3545" stroke="#1B3545" stroke-width="0.992" stroke-linecap="round" stroke-linejoin="round"/>
<path d="M170.926 143.134V158.188L189.311 168.842V153.799L170.926 143.134Z" fill="#D7E8F4" stroke="#1B3545" stroke-width="0.992" stroke-linecap="round" stroke-linejoin="round"/>
<path d="M202.502 161.35L189.33 168.822V153.717L202.502 161.35Z" fill="#1B3545" stroke="#1B3545" stroke-width="0.992" stroke-linecap="round" stroke-linejoin="round"/>
<path d="M103.611 96.6841L256.119 185.124L272.794 175.331L120.287 86.9011L103.611 96.6841Z" fill="white" stroke="#1B3545" stroke-width="0.992" stroke-linecap="round" stroke-linejoin="round"/>
<path d="M103.611 104.084L256.119 192.525V185.124L103.611 96.6841V104.084Z" fill="#D7E8F4" stroke="#1B3545" stroke-width="0.992" stroke-linecap="round" stroke-linejoin="round"/>
<path d="M272.794 175.331V182.731L256.119 192.525V185.124L272.794 175.331Z" fill="#D7E8F4" stroke="#1B3545" stroke-width="0.992" stroke-linecap="round" stroke-linejoin="round"/>
<path d="M75.056 136.116L227.563 224.557L244.239 214.763L91.732 126.333L75.056 136.116Z" fill="white" stroke="#1B3545" stroke-width="0.992" stroke-linecap="round" stroke-linejoin="round"/>
<path d="M75.056 143.516L227.563 231.957V224.557L75.056 136.116V143.516Z" fill="#D7E8F4" stroke="#1B3545" stroke-width="0.992" stroke-linecap="round" stroke-linejoin="round"/>
<path d="M244.239 214.763V222.163L227.563 231.957V224.557L244.239 214.763Z" fill="#D7E8F4" stroke="#1B3545" stroke-width="0.992" stroke-linecap="round" stroke-linejoin="round"/>
<path d="M201.711 194.472V209.526L220.096 220.18V205.137L201.711 194.472Z" fill="#D7E8F4" stroke="#1B3545" stroke-width="0.992" stroke-linecap="round" stroke-linejoin="round"/>
<path d="M227.605 209.38L236.793 203.877L236.757 210.459L220.115 220.16V205.055L227.605 209.38Z" fill="#1B3545" stroke="#1B3545" stroke-width="0.992" stroke-linecap="round" stroke-linejoin="round"/>
<path d="M82.923 125.529V140.584L101.308 151.238V136.194L82.923 125.529Z" fill="#D7E8F4" stroke="#1B3545" stroke-width="0.992" stroke-linecap="round" stroke-linejoin="round"/>
<path d="M114.499 143.746L101.327 151.218V136.113L114.499 143.746Z" fill="#1B3545" stroke="#1B3545" stroke-width="0.992" stroke-linecap="round" stroke-linejoin="round"/>
<path d="M142.371 160.037V175.091L160.756 185.745V170.702L142.371 160.037Z" fill="#D7E8F4" stroke="#1B3545" stroke-width="0.992" stroke-linecap="round" stroke-linejoin="round"/>
<path d="M173.947 178.253L160.775 185.725V170.62L173.947 178.253Z" fill="#1B3545" stroke="#1B3545" stroke-width="0.992" stroke-linecap="round" stroke-linejoin="round"/>
<path d="M75.056 113.587L227.563 202.027L244.239 192.234L91.732 103.804L75.056 113.587Z" fill="white" stroke="#1B3545" stroke-width="0.992" stroke-linecap="round" stroke-linejoin="round"/>
<path d="M75.056 120.987L227.563 209.428V202.027L75.056 113.587V120.987Z" fill="#D7E8F4" stroke="#1B3545" stroke-width="0.992" stroke-linecap="round" stroke-linejoin="round"/>
<path d="M244.239 192.234V199.634L227.563 209.428V202.027L244.239 192.234Z" fill="#D7E8F4" stroke="#1B3545" stroke-width="0.992" stroke-linecap="round" stroke-linejoin="round"/>
<path d="M46.501 153.163L199.008 241.603L215.684 231.81L63.177 143.38L46.501 153.163Z" fill="white" stroke="#1B3545" stroke-width="0.992" stroke-linecap="round" stroke-linejoin="round"/>
<path d="M46.501 160.563L199.008 249.004V241.603L46.501 153.163V160.563Z" fill="#D7E8F4" stroke="#1B3545" stroke-width="0.992" stroke-linecap="round" stroke-linejoin="round"/>
<path d="M215.684 231.81V239.21L199.008 249.004V241.603L215.684 231.81Z" fill="#D7E8F4" stroke="#1B3545" stroke-width="0.992" stroke-linecap="round" stroke-linejoin="round"/>
<path d="M173.156 211.519V226.573L191.541 237.227V222.184L173.156 211.519Z" fill="#D7E8F4" stroke="#1B3545" stroke-width="0.992" stroke-linecap="round" stroke-linejoin="round"/>
<path d="M199.049 226.427L208.238 220.924L208.202 227.505L191.56 237.207V222.102L199.049 226.427Z" fill="#1B3545" stroke="#1B3545" stroke-width="0.992" stroke-linecap="round" stroke-linejoin="round"/>
<path d="M54.3669 142.576V157.631L72.7529 168.284V153.241L54.3669 142.576Z" fill="#D7E8F4" stroke="#1B3545" stroke-width="0.992" stroke-linecap="round" stroke-linejoin="round"/>
<path d="M85.944 160.793L72.772 168.264V153.16L85.944 160.793Z" fill="#1B3545" stroke="#1B3545" stroke-width="0.992" stroke-linecap="round" stroke-linejoin="round"/>
<path d="M113.815 177.083V192.138L132.201 202.792V187.748L113.815 177.083Z" fill="#D7E8F4" stroke="#1B3545" stroke-width="0.992" stroke-linecap="round" stroke-linejoin="round"/>
<path d="M145.392 195.3L132.22 202.772V187.667L145.392 195.3Z" fill="#1B3545" stroke="#1B3545" stroke-width="0.992" stroke-linecap="round" stroke-linejoin="round"/>
<path d="M46.501 130.633L199.008 219.074L215.684 209.28L63.177 120.851L46.501 130.633Z" fill="white" stroke="#1B3545" stroke-width="0.992" stroke-linecap="round" stroke-linejoin="round"/>
<path d="M46.501 138.034L199.008 226.474V219.074L46.501 130.633V138.034Z" fill="#D7E8F4" stroke="#1B3545" stroke-width="0.992" stroke-linecap="round" stroke-linejoin="round"/>
<path d="M215.684 209.28V216.681L199.008 226.474V219.074L215.684 209.28Z" fill="#D7E8F4" stroke="#1B3545" stroke-width="0.992" stroke-linecap="round" stroke-linejoin="round"/>
<path d="M228.439 26.7539L268.419 49.9739V91.6349L228.439 68.4139V26.7539Z" fill="white" stroke="#BEDDF5" stroke-width="0.992" stroke-linecap="round" stroke-linejoin="round"/>
<path d="M268.419 49.9739L313.461 23.2209V64.8809L268.419 91.6349V49.9739Z" fill="white" stroke="#BEDDF5" stroke-width="0.992" stroke-linecap="round" stroke-linejoin="round"/>
<path d="M273.482 0L228.439 26.754L268.419 49.974L313.461 23.221L273.482 0Z" fill="white" stroke="#BEDDF5" stroke-width="0.992" stroke-linecap="round" stroke-linejoin="round"/>
<path d="M248.039 15.1279L288.03 38.3259L294.105 34.6799L253.609 11.8369L248.039 15.1279Z" fill="white" stroke="#BEDDF5" stroke-width="0.992" stroke-linecap="round" stroke-linejoin="round"/>
<path d="M287.936 48.5949V38.4589L293.982 34.8369L294 42.1329L287.936 48.5949Z" fill="white" stroke="#BEDDF5" stroke-width="0.992" stroke-linecap="round" stroke-linejoin="round"/>
<path d="M288.487 72.0709L307.892 61.0719V49.1379L288.487 60.1379V72.0709Z" fill="white" stroke="#BEDDF5" stroke-width="0.992" stroke-linecap="round" stroke-linejoin="round"/>
<path d="M97.326 72.3582L173.425 116.557V195.858L97.326 151.658V72.3582Z" fill="#D7E8F4" stroke="#1B3545" stroke-width="0.992" stroke-linecap="round" stroke-linejoin="round"/>
<path d="M173.425 116.557L259.163 65.6321V144.933L173.425 195.858V116.557Z" fill="#D7E8F4" stroke="#1B3545" stroke-width="0.992" stroke-linecap="round" stroke-linejoin="round"/>
<path d="M183.064 21.4331L97.326 72.3581L173.425 116.557L259.163 65.6321L183.064 21.4331Z" fill="white" stroke="#1B3545" stroke-width="0.992" stroke-linecap="round" stroke-linejoin="round"/>
<path d="M134.634 50.2281L210.756 94.3861L222.318 87.4451L145.236 43.9641L134.634 50.2281Z" fill="#1F92D1" stroke="#1B3545" stroke-width="0.992" stroke-linecap="round" stroke-linejoin="round"/>
<path d="M138.505 47.9391L212.302 93.4331L224.17 86.4201L149.438 41.5371L138.505 47.9391Z" fill="#1F92D1" stroke="#1B3545" stroke-width="0.992" stroke-linecap="round" stroke-linejoin="round"/>
<path d="M210.576 113.932V94.6381L222.084 87.7441L222.119 101.632L210.576 113.932Z" fill="#1F92D1" stroke="#1B3545" stroke-width="0.992" stroke-linecap="round" stroke-linejoin="round"/>
<path d="M212.356 123.085V93.478L223.864 86.584L223.899 112.08L212.356 123.085Z" fill="#1F92D1" stroke="#1B3545" stroke-width="0.992" stroke-linecap="round" stroke-linejoin="round"/>
</g>
<defs>
<clipPath id="clip0_1_2628">
<rect width="375" height="250" fill="white" transform="translate(0.5)"/>
</clipPath>
</defs>
</svg>
